<?xml version="1.0" encoding="UTF-8" standalone="no"?>
<!-- Created with Inkscape (http://www.inkscape.org/) -->

<svg
   width="208.8354mm"
   height="48.236446mm"
   viewBox="0 0 208.8354 48.236446"
   version="1.1"
   id="svg667"
   inkscape:version="1.2.2 (732a01da63, 2022-12-09)"
   sodipodi:docname="confirmar_asistencia.svg"
   xmlns:inkscape="http://www.inkscape.org/namespaces/inkscape"
   xmlns:sodipodi="http://sodipodi.sourceforge.net/DTD/sodipodi-0.dtd"
   xmlns="http://www.w3.org/2000/svg"
   xmlns:svg="http://www.w3.org/2000/svg">
  <sodipodi:namedview
     id="namedview669"
     pagecolor="#ffffff"
     bordercolor="#000000"
     borderopacity="0.25"
     inkscape:showpageshadow="2"
     inkscape:pageopacity="0.0"
     inkscape:pagecheckerboard="0"
     inkscape:deskcolor="#d1d1d1"
     inkscape:document-units="mm"
     showgrid="false"
     inkscape:zoom="0.48016975"
     inkscape:cx="393.6108"
     inkscape:cy="416.51936"
     inkscape:window-width="2048"
     inkscape:window-height="1081"
     inkscape:window-x="1358"
     inkscape:window-y="-8"
     inkscape:window-maximized="1"
     inkscape:current-layer="layer1" />
  <defs
     id="defs664" />
  <g
     inkscape:label="Layer 1"
     inkscape:groupmode="layer"
     id="layer1"
     transform="translate(-1.1645926,-37.908281)">
    <g
       aria-label="Confirmar asistencia"
       id="text842"
       style="font-size:42.3333px;font-family:'Prestige Signature Script  Demo';-inkscape-font-specification:'Prestige Signature Script  Demo';text-align:center;text-anchor:middle;fill:#ffffff;stroke-width:0.238125;stroke-linecap:round;stroke-linejoin:round">
      <path
         d="m 2.6885914,72.386403 q 0,1.439332 0.084667,2.666998 0.084667,1.269999 0.3386664,2.497665 0.2539998,1.354666 0.7619994,2.709331 0.4656664,1.185333 1.1853325,1.989665 1.7356654,2.074332 4.5296633,1.862666 1.0583324,-0.08467 2.0319984,-0.381 0.973666,-0.296333 1.904999,-0.762 1.566332,-0.846666 2.963331,-1.862665 1.439332,-1.015999 2.666998,-2.243665 1.015999,-1.015999 1.904998,-2.158998 0.931333,-1.142999 1.820332,-2.285998 2.031999,-2.709332 3.936997,-5.587996 1.481666,-2.201332 2.836331,-4.402664 1.396999,-2.243665 2.878665,-4.48733 0.211667,-0.338666 0.381,-0.592666 0.169333,-0.296333 0.423333,-0.550333 0.254,-0.254 0.550333,-0.08467 0.296333,0.211666 0.253999,0.507999 -0.04233,0.169334 -0.211666,0.508 -0.211667,0.423333 -0.465666,0.846666 -0.211667,0.381 -0.465667,0.761999 -1.227665,1.947332 -2.497664,3.852331 -1.227666,1.947332 -2.497665,3.85233 -1.439333,2.201332 -2.963331,4.317997 -1.481666,2.158998 -3.174998,4.190997 -1.566332,1.820332 -3.344331,3.344331 -1.777998,1.523999 -3.894664,2.709331 -1.015999,0.592666 -2.116665,0.973666 -1.058332,0.381 -2.201331,0.592666 -1.354666,0.254 -2.6669983,0 Q 6.5409218,84.959394 5.6095892,84.409061 4.7205899,83.858728 3.9585905,83.012062 2.9849245,81.911396 2.4769249,80.599064 1.6302589,78.440065 1.3762591,76.281067 1.1645926,74.503068 1.1645926,72.72507 q 0,-1.777999 0.1693332,-3.555998 0.2539998,-2.751664 0.7619994,-5.418662 0.4656663,-2.666998 1.1853324,-5.333996 0.4656663,-1.608666 0.973666,-3.132665 0.5503329,-1.566332 1.2276657,-3.047997 1.5663322,-3.682998 4.063997,-6.857995 0.6773327,-0.846666 1.3969987,-1.608666 0.719666,-0.804332 1.566332,-1.523999 1.143,-0.973666 2.412999,-1.693332 1.269999,-0.719666 2.751664,-1.100666 1.269999,-0.338666 2.539998,-0.338666 1.269999,-0.04233 2.539998,0.423333 1.608666,0.550333 2.793998,1.862665 1.185333,1.312333 1.735666,2.836332 0.465666,1.269999 0.677332,2.582331 0.211667,1.312332 0.08467,2.666998 -0.04233,0.550333 -0.08467,1.100666 -0.04233,0.507999 -0.126999,1.058332 -0.08467,0.465667 -0.169334,0.889 -0.08467,0.380999 -0.296333,0.761999 -0.169333,0.338667 -0.296333,0.465666 -0.296333,0.338667 -0.677333,0.211667 -0.380999,-0.127 -0.465666,-0.592666 0,-0.423333 0.338666,-0.550333 0.338667,-0.08467 0.508,-0.550333 0.08467,-0.254 0.127,-0.508 0.04233,-0.254 0.08467,-0.507999 0.127,-0.931333 0.169334,-1.862666 0.08467,-0.931332 0,-1.904998 -0.254,-2.624665 -1.735666,-4.656663 -1.015999,-1.354666 -2.412998,-1.947332 -1.354666,-0.635 -3.047998,-0.550333 -1.396999,0.04233 -2.666998,0.507999 -1.227665,0.465667 -2.370664,1.227666 -1.143,0.762 -2.158999,1.693332 -0.973666,0.931333 -1.820332,2.031999 -1.5239986,1.904998 -2.7093311,3.97933 -1.1429991,2.031999 -2.0319985,4.317997 -1.0159992,2.539998 -1.7356653,5.164663 -0.6773329,2.582331 -1.1429992,5.291662 -0.2539998,1.608666 -0.423333,3.259665 -0.2116665,1.650998 -0.2963331,3.301997 -0.042333,0.423333 -0.042333,0.804333 0,0.380999 0,0.592666 z"
         style="fill:#000000"
         id="path998" />
      <path
         d="m 34.438599,58.712747 q 0.550333,-0.677333 1.058333,-0.423333 0.508,0.211666 0.508,0.931332 0.04233,0.381 -0.04233,0.762 -0.04233,0.380999 -0.127,0.761999 l -0.08467,0.465666 q 0.804333,-0.126999 1.481665,-0.507999 0.677333,-0.381 1.185333,-0.762 0.507999,-0.423333 0.846666,-0.804332 0.381,-0.381 0.550333,-0.508 0.211666,-0.169333 0.465666,-0.04233 0.296333,0.08467 0.127,0.423333 -0.127,0.254 -0.550333,0.719666 -0.423333,0.465666 -1.100666,0.973666 -0.677333,0.507999 -1.523999,0.973666 -0.846666,0.423333 -1.820332,0.592666 -0.211666,0.338666 -0.423333,0.677333 -0.211666,0.338666 -0.423333,0.677333 -0.296333,0.465666 -0.761999,0.931332 -0.296333,0.296333 -0.677333,0.423333 -0.888999,0.338667 -1.354666,-0.465666 -0.338666,-0.550333 -0.338666,-1.142999 -0.08467,-2.201332 0.931333,-4.063997 0.169333,-0.296333 0.465666,-0.592666 0.677333,-0.508 1.142999,0.296333 0,0.04233 0.08467,0.211666 z m -0.126999,3.47133 q -0.08467,-0.08467 -0.08467,-0.08467 Q 33.5496,61.760744 33.5496,60.829412 v -0.254 q 0,-0.08467 0,-0.127 0.04233,-0.04233 -0.08467,-0.08467 -0.338666,0.719667 -0.507999,1.439333 -0.169333,0.719666 -0.296333,1.439332 -0.04233,0.169333 -0.04233,0.338666 0,0.169334 0.127,0.381 0.592667,-0.338666 0.889,-0.804333 0.338666,-0.465666 0.677333,-0.931332 z m 0.846666,-3.174997 q -0.127,0 -0.127,0.04233 -0.465667,0.592666 -0.677333,1.396999 -0.04233,0.127 -0.04233,0.296333 0.04233,0.127 0.04233,0.296333 0,0.211667 0.254,0.254 0.169333,0.04233 0.253999,-0.127 0.423333,-0.973666 0.423333,-1.862665 0,-0.08467 -0.08467,-0.254 z"
         style="fill:#000000"
         id="path1000" />
      <path
         d="m 44.217562,57.146415 q -0.423333,0.338666 -0.719666,0.677332 -0.254,0.338667 -0.465666,0.719666 -0.381,0.635 -0.762,1.27 -0.380999,0.634999 -0.719666,1.269999 l -2.539998,4.571996 -0.254,0.381 q -0.211666,0.211666 -0.507999,0.169333 -0.169334,-0.04233 -0.296333,-0.127 -0.169334,-0.08467 -0.169334,-0.254 0,-0.211666 0,-0.380999 0,-0.169334 0.04233,-0.381 0.127,-0.592666 0.253999,-1.142999 0.127,-0.550333 0.296334,-1.142999 l 2.158998,-7.365995 q 0.127,-0.423333 0.338666,-0.973666 0.211667,-0.465666 0.635,-0.380999 0.211666,0.04233 0.381,0.169333 0.169333,0.08467 0.169333,0.338666 0,0.169333 -0.08467,0.508 -0.127,0.507999 -0.254,1.015999 -0.126999,0.508 -0.296333,1.015999 l -1.142999,3.936997 q -0.08467,0.254 -0.04233,0.423333 l 0.381,-0.634999 q 0.380999,-0.719666 0.677332,-1.354666 0.338667,-0.634999 0.762,-1.354666 0.507999,-0.888999 1.269999,-1.650998 0.127,-0.127 0.254,-0.254 0.127,-0.127 0.296333,-0.211667 0.846666,-0.507999 1.269999,0.381 0.169333,0.423333 0.254,0.973666 0.08467,0.592666 0.08467,1.142999 0,0.550333 0.04233,1.142999 0.04233,0.465667 0.04233,0.973666 0.04233,0.465667 0.127,0.931333 0.04233,0.381 0.211666,0.846666 0.08467,0.296333 0.381,0.211666 0.211666,-0.08467 0.381,-0.126999 0.169333,-0.08467 0.338666,-0.211667 0.719666,-0.508 1.227666,-1.015999 0.592666,-0.592666 1.227666,-1.185333 0.677332,-0.634999 1.269999,-1.227665 0.127,-0.127 0.380999,-0.296334 0.254,-0.169333 0.465667,0.04233 0.127,0.127 0.04233,0.423333 -0.04233,0.254 -0.169333,0.381 -0.465667,0.465666 -0.846666,0.804332 -0.338667,0.338667 -0.635,0.635 -0.296333,0.296333 -0.592666,0.550333 -0.254,0.254 -0.550333,0.550333 -0.338666,0.338666 -0.677333,0.592666 -0.338666,0.254 -0.677333,0.550333 -0.211666,0.211666 -0.465666,0.296333 -0.254,0.08467 -0.550333,0.169333 -0.973666,0.338666 -1.523999,-0.550333 -0.338666,-0.592666 -0.423333,-1.354665 -0.08467,-0.465667 -0.127,-0.889 0,-0.423333 -0.04233,-0.888999 -0.04233,-0.592666 -0.04233,-1.142999 0,-0.550333 -0.04233,-1.142999 0,-0.127 -0.04233,-0.254 0,-0.127 -0.04233,-0.338667 z"
         style="fill:#000000"
         id="path1002" />
      <path
         d="m 52.85358,56.003415 q 1.989665,-3.97933 3.386664,-8.000994 1.396999,-4.063997 1.989665,-8.043327 0,-0.08467 -0.04233,-0.127 0,-0.08467 -0.04233,-0.211666 -0.423333,0.380999 -0.888999,1.354665 -0.465666,0.973666 -0.931333,2.116665 -0.423333,1.100666 -0.761999,2.201332 -0.338666,1.058333 -0.508,1.650999 -0.550333,2.031998 -1.058332,4.063997 -0.465667,1.989665 -0.973666,4.021663 -0.08467,0.338667 -0.127,0.550333 -0.04233,0.211667 -0.04233,0.423333 z m -0.592667,3.894664 q 0.211667,0 0.338667,-0.04233 1.142999,-0.338667 2.370665,-0.550333 1.269999,-0.211667 2.412998,-0.550333 0.127,-0.04233 0.381,-0.04233 0.296333,0 0.380999,0.296333 0.169334,0.381 -0.169333,0.550333 -0.169333,0.08467 -0.507999,0.169333 -0.677333,0.169333 -1.354666,0.296333 -0.635,0.127 -1.312332,0.296333 -0.592667,0.127 -1.27,0.211667 -0.634999,0.08467 -1.227665,0.211666 -0.465667,0.127 -0.508,0.550333 l -0.761999,3.428998 -1.396999,5.968995 -1.396999,6.349995 q -0.08467,0.465667 -0.296333,1.354666 -0.211667,0.931333 -0.465667,1.820332 -0.296333,0.888999 -0.677332,1.523999 -0.423333,0.634999 -0.889,0.592666 -0.254,-0.04233 -0.423333,-0.254 -0.169333,-0.169333 -0.08467,-0.423333 l 0.126999,-0.254 q 0.677333,-0.888999 0.973666,-1.904998 0.254,-1.015999 0.465667,-2.031999 0.423333,-1.862665 0.804332,-3.72533 0.381,-1.820332 0.804333,-3.725331 0.423333,-1.989665 0.846666,-3.936997 0.423333,-1.947332 0.846666,-3.936997 0.04233,-0.08467 0.04233,-0.211666 0,-0.127 0.04233,-0.296333 -0.296333,-0.04233 -0.508,0.04233 -0.254,0.08467 -0.465666,0.127 -0.423333,0.08467 -0.635,0.08467 -0.338666,0 -0.465666,-0.253999 -0.127,-0.254 0.08467,-0.465667 0.211666,-0.211666 0.507999,-0.381 0.254,-0.169333 0.592667,-0.04233 0.253999,0.08467 0.507999,0 0.211667,-0.127 0.423333,-0.211666 0.08467,-0.04233 0.169333,-0.338667 0.211667,-0.846666 0.381,-1.650999 0.169333,-0.804332 0.338667,-1.650998 0.380999,-1.904999 0.846666,-3.767664 0.507999,-1.862665 1.015999,-3.767664 0.338666,-1.142999 0.634999,-2.285998 0.296333,-1.185333 0.677333,-2.328332 0.338667,-0.973666 0.719666,-1.904998 0.381,-0.973666 0.804333,-1.947332 0.254,-0.550333 0.550333,-1.058333 0.296333,-0.507999 0.634999,-1.015999 0.169334,-0.296333 0.465667,-0.592666 0.296333,-0.254 0.550333,-0.169333 0.296333,0.04233 0.423333,0.380999 0.08467,0.211667 0.08467,0.465667 0.04233,0.253999 0.08467,0.465666 0.08467,0.592666 0,1.185332 -0.04233,0.550333 -0.169333,1.142999 -0.592667,2.666998 -1.354666,5.291663 -0.719666,2.582332 -1.735665,5.12233 -0.465667,1.227665 -1.100666,2.328331 -0.592666,1.100666 -1.185333,2.243665 -0.169333,0.254 -0.296333,0.550333 -0.127,0.254 -0.338666,0.508 -0.338667,0.465666 -0.508,1.142999 -0.169333,0.677333 0.169333,1.015999 z"
         style="fill:#000000"
         id="path1004" />
      <path
         d="m 62.63261,54.310083 q -0.550333,0 -0.465667,-0.550333 0,-0.211666 0.127,-0.338666 0.211667,-0.211667 0.381,-0.381 0.211666,-0.211666 0.423333,-0.380999 0.296333,-0.211667 0.550333,0 0.296333,0.169333 0.296333,0.550332 -0.04233,0.08467 -0.08467,0.211667 0,0.08467 -0.08467,0.169333 -0.381,0.423333 -0.973666,0.635 -0.04233,0.04233 -0.211667,0.04233 z m 7.154327,4.402664 q 0.423333,-0.423333 0.677333,-0.127 0.254,0.254 0,0.634999 -0.169333,0.254 -0.296333,0.338667 -1.481665,1.439332 -3.005664,2.878664 -1.481666,1.396999 -3.005665,2.793998 -0.592666,0.550333 -1.185332,1.015999 -0.592666,0.508 -1.185333,0.973666 -0.338666,0.296333 -0.931332,0.508 -0.931333,0.338666 -1.227666,-0.592666 -0.127,-0.381 -0.127,-0.762 0,-0.423333 0,-0.846666 -0.04233,-0.380999 0,-0.804332 0.211667,-1.862666 0.550333,-3.640664 0.338667,-1.820332 0.931333,-3.598331 l 0.380999,-1.015999 q 0.127,-0.254 0.338667,-0.465667 0.254,-0.253999 0.634999,-0.127 0.127,0.04233 0.127,0.211667 0.04233,0.169333 0,0.423333 0,0.211667 -0.08467,0.423333 -0.04233,0.169333 -0.08467,0.296333 -0.677333,2.158999 -1.058332,4.402664 -0.381,2.201331 -0.677333,4.487329 0,0.338667 0.423333,0.169334 0.423333,-0.127 0.592666,-0.254 0.465666,-0.338667 0.888999,-0.677333 0.423333,-0.296333 0.846666,-0.634999 0.846666,-0.762 1.650999,-1.523999 0.846666,-0.762 1.693332,-1.523999 0.804333,-0.719666 1.566332,-1.481666 0.762,-0.761999 1.566332,-1.481665 z"
         style="fill:#000000"
         id="path1006" />
      <path
         d="m 70.506564,57.908414 q 0.804333,-1.777999 1.185332,-2.920998 0.423333,-1.142999 0.550333,-1.777999 0.169333,-0.634999 0.127,-0.888999 0,-0.296333 0,-0.381 -0.08467,0.169334 -0.08467,0.169334 -0.254,0.592666 -0.550333,1.354665 -0.254,0.762 -0.508,1.566332 -0.254,0.804333 -0.465666,1.566333 -0.169334,0.761999 -0.254,1.312332 z m 4.571996,-0.508 q -0.761999,0.465667 -1.735665,1.100666 -0.931333,0.592666 -1.693332,0.931333 -0.508,0.254 -1.058333,0.254 -1.227665,-0.04233 -1.142999,-1.354666 0.211667,-1.693332 0.635,-3.174998 0.465666,-1.481665 1.142999,-2.963331 0.08467,-0.211666 0.169333,-0.423333 0.127,-0.254 0.254,-0.465666 0.127,-0.254 0.338666,-0.465666 0.211667,-0.211667 0.508,-0.211667 0.338666,0 0.508,0.296333 0.211666,0.338667 0.211666,0.973666 0,0.635 -0.127,1.142999 -0.550333,2.497665 -1.777998,4.86833 l -0.127,0.254 q 0.08467,0.127 0.211666,0.127 0.169333,-0.04233 0.254,-0.127 0.804333,-0.338667 1.650999,-0.931333 0.888999,-0.634999 1.693332,-1.100666 0.338666,-0.169333 0.550333,-0.211666 0.254,-0.08467 0.423333,0.08467 0.211666,0.169334 0.169333,0.423333 0,0.211667 -0.08467,0.635 -0.296333,1.015999 -0.592666,2.031998 -0.254,1.016 -0.507999,2.031999 -0.338667,1.354666 -0.677333,2.709331 -0.338667,1.312333 -0.550333,2.666998 -0.08467,0.550333 -0.169333,1.058333 -0.08467,0.550333 -0.04233,1.100666 0,0.169333 0,0.338666 0,0.169333 0.169333,0.338666 0.08467,-0.04233 0.127,-0.04233 0.08467,0 0.169334,-0.08467 0.253999,-0.211666 0.507999,-0.465666 0.296333,-0.211666 0.508,-0.507999 1.777999,-2.158999 3.217331,-4.571997 1.439332,-2.412998 2.793998,-4.783663 0.169333,-0.254 0.253999,-0.338667 0.211667,-0.211666 0.423333,-0.08467 0.254,0.127 0.211667,0.381 -0.08467,0.253999 -0.254,0.550333 -0.846666,1.481665 -1.608665,2.793997 -0.719666,1.312333 -1.523999,2.539999 -0.762,1.227665 -1.608666,2.370664 -0.846666,1.143 -1.820332,2.285999 -0.253999,0.253999 -0.507999,0.465666 -0.254,0.211667 -0.508,0.296333 -0.254,0.08467 -0.550333,0 -0.254,-0.08467 -0.507999,-0.423333 -0.338667,-0.465666 -0.338667,-1.058332 0,-0.338667 0,-0.719667 0,-0.338666 0.08467,-0.677332 0.338666,-2.412999 0.846666,-4.74133 0.550333,-2.370665 1.396999,-4.656663 0.08467,-0.254 0.08467,-0.338667 0.04233,-0.08467 0,-0.127 z"
         style="fill:#000000"
         id="path1008" />
      <path
         d="m 89.133212,60.617745 q -0.592666,0.931333 -1.269999,1.693332 -0.634999,0.762 -1.354665,1.481666 -0.296333,0.296333 -0.677333,0.296333 -0.338667,-0.04233 -0.592666,-0.508 -0.381,-0.550333 -0.296333,-1.312332 0.04233,-0.465666 0.04233,-0.677333 0.04233,-0.254 0.08467,-0.719666 0,-0.254 -0.08467,-0.254 -0.04233,0 -0.08467,0.04233 -0.592666,0.804332 -1.142999,1.608665 -0.550333,0.761999 -1.100666,1.566332 l -1.650998,2.539998 -0.635,1.016 q -0.04233,0.08467 -0.08467,0.08467 -0.04233,0 -0.08467,0.08467 -0.211667,0.254 -0.465667,0.127 -0.296333,-0.127 -0.423333,-0.423333 -0.126999,-0.296333 -0.04233,-0.635 0.08467,-0.761999 0.254,-1.523999 0.127,-0.719666 0.296333,-1.439332 l 1.015999,-4.698996 q 0.08467,-0.381 0.211667,-0.762 0.08467,-0.381 0.211666,-0.761999 0.254,-0.635 0.508,-0.592667 0.296333,0 0.423333,0.08467 0.211666,0.211667 0.254,0.719666 0.04233,0.465666 -0.04233,0.719666 -0.126999,0.635 -0.253999,1.269999 -0.127,0.635 -0.296333,1.269999 -0.211667,0.973666 -0.465667,1.989666 -0.254,0.973665 -0.507999,1.947331 v 0.169334 q 0.08467,-0.08467 0.253999,-0.381 0.211667,-0.296333 0.296334,-0.381 l 2.539998,-3.809997 q 0.296333,-0.423333 0.592666,-0.804333 0.296333,-0.380999 0.592666,-0.761999 0.211667,-0.254 0.465666,-0.465666 0.211667,-0.211667 0.381,-0.127 0.211667,0.04233 0.296333,0.296333 0.127,0.381 0.127,0.761999 0,0.508 -0.04233,1.015999 0,0.508 -0.04233,1.016 v 1.015999 q 0,0.169333 0.08467,0.169333 0.127,-0.04233 0.211667,-0.127 l 0.888999,-1.015999 1.777999,-2.285998 q 0.08467,-0.169333 0.169333,-0.211667 0.254,-0.08467 0.381,-0.08467 0.211666,0 0.211666,0.253999 0,0.465667 0.08467,0.889 0.127,0.380999 0.296333,0.804332 0.296333,0.677333 0.804332,0.973666 0.550333,0.296334 1.27,-0.169333 0.253999,-0.169333 0.507999,-0.296333 0.254,-0.169333 0.465666,-0.381 0.508,-0.465666 0.931333,-0.931332 0.465666,-0.508 0.804333,-1.100666 0.08467,-0.169333 0.338666,-0.508 0.08467,-0.08467 0.254,-0.08467 0.211667,0 0.296333,0.08467 0.254,0.169333 0.08467,0.508 l -0.127,0.254 q -1.058333,1.777998 -2.582332,2.878664 -0.338666,0.254 -0.719666,0.465667 -0.380999,0.211666 -0.804332,0.296333 -0.423333,0.08467 -0.804333,0 -0.381,-0.127 -0.719666,-0.508 -0.508,-0.592666 -0.677333,-1.142999 -0.04233,-0.127 -0.127,-0.254 -0.04233,-0.169333 -0.127,-0.254 -0.08467,-0.127 -0.169333,-0.127 -0.08467,-0.04233 -0.211667,0.127 z"
         style="fill:#000000"
         id="path1010" />
      <path
         d="m 93.535837,63.665743 q 0.211667,-0.211667 0.550333,-0.508 0.338667,-0.296333 0.677333,-0.592666 0.338667,-0.296333 0.635,-0.550333 0.338666,-0.296333 0.550333,-0.465666 0.253999,-0.254 0.423333,-0.338667 0.211666,-0.169333 0.423333,-0.08467 0.254,0.08467 0.338666,0.338666 0.08467,0.211667 0.04233,0.254 0,0.04233 0.08467,0.254 0.127,0.381 0.211667,0.761999 0.126999,0.381 0.296333,0.762 0.08467,0.211666 0.211666,0.423333 0.169333,0.169333 0.338667,0.381 0.169333,0.211666 0.465666,0.296333 0.296333,0.04233 0.507999,-0.127 0.296334,-0.169333 0.592667,-0.465667 0.465667,-0.465666 0.888997,-0.973666 0.42334,-0.550332 0.80433,-1.142999 0.46567,-0.677333 0.762,-1.185332 0.29634,-0.508 0.71967,-1.185333 0.16933,-0.338666 0.29633,-0.465666 0.254,-0.296333 0.59267,-0.08467 0.21167,0.169333 0.0847,0.507999 l -0.127,0.254 q -0.71967,1.142999 -1.35467,2.116665 -0.635,0.973666 -1.48166,2.031998 -0.254,0.296334 -0.508,0.592667 -0.254,0.254 -0.55034,0.507999 -0.507997,0.508 -1.142997,0.550333 -0.761999,0.04233 -1.354665,-0.550333 -0.635,-0.634999 -0.889,-1.523999 -0.08467,-0.296333 -0.169333,-0.550332 -0.08467,-0.296334 -0.169333,-0.635 -0.169333,0.127 -0.423333,0.296333 l -1.650999,1.523999 q -0.211666,0.169333 -0.380999,0.338666 -0.169334,0.169334 -0.381,0.338667 -0.465666,0.338666 -0.762,0.08467 -0.338666,-0.253999 -0.338666,-0.634999 0,-0.254 0.04233,-0.381 0.08467,-0.211666 0.127,-0.423333 0.04233,-0.254 0.127,-0.465666 0.635,-1.820332 1.650999,-3.386664 0.211666,-0.296333 0.423333,-0.550333 0.211666,-0.254 0.550333,-0.465667 0.761999,-0.507999 1.523999,-0.211666 0.338666,0.127 0.592666,0.381 0.338666,0.254 0.169333,0.634999 -0.127,0.296333 -0.465666,0.296333 -0.338667,0 -0.804333,-0.04233 -0.423333,-0.04233 -0.634999,0.211667 -0.127,0.126999 -0.254,0.253999 -0.127,0.127 -0.211667,0.296333 -0.338666,0.508 -0.634999,1.185333 -0.296333,0.634999 -0.592667,1.185332 -0.04233,0.08467 -0.211666,0.465667 -0.169333,0.338666 -0.211667,0.465666 z"
         style="fill:#000000"
         id="path1012" />
      <path
         d="m 104.16146,57.908414 q 0.80434,-1.777999 1.18534,-2.920998 0.42333,-1.142999 0.55033,-1.777999 0.16933,-0.634999 0.127,-0.888999 0,-0.296333 0,-0.381 -0.0847,0.169334 -0.0847,0.169334 -0.254,0.592666 -0.55033,1.354665 -0.254,0.762 -0.508,1.566332 -0.254,0.804333 -0.46567,1.566333 -0.16933,0.761999 -0.254,1.312332 z m 4.572,-0.508 q -0.762,0.465667 -1.73567,1.100666 -0.93133,0.592666 -1.69333,0.931333 -0.508,0.254 -1.05833,0.254 -1.22767,-0.04233 -1.143,-1.354666 0.21167,-1.693332 0.635,-3.174998 0.46567,-1.481665 1.143,-2.963331 0.0847,-0.211666 0.16933,-0.423333 0.127,-0.254 0.254,-0.465666 0.127,-0.254 0.33867,-0.465666 0.21167,-0.211667 0.508,-0.211667 0.33867,0 0.508,0.296333 0.21166,0.338667 0.21166,0.973666 0,0.635 -0.127,1.142999 -0.55033,2.497665 -1.77799,4.86833 l -0.127,0.254 q 0.0847,0.127 0.21166,0.127 0.16934,-0.04233 0.254,-0.127 0.80434,-0.338667 1.651,-0.931333 0.889,-0.634999 1.69333,-1.100666 0.33867,-0.169333 0.55034,-0.211666 0.254,-0.08467 0.42333,0.08467 0.21167,0.169334 0.16933,0.423333 0,0.211667 -0.0847,0.635 -0.29634,1.015999 -0.59267,2.031998 -0.254,1.016 -0.508,2.031999 -0.33867,1.354666 -0.67733,2.709331 -0.33867,1.312333 -0.55034,2.666998 -0.0847,0.550333 -0.16933,1.058333 -0.0847,0.550333 -0.0423,1.100666 0,0.169333 0,0.338666 0,0.169333 0.16933,0.338666 0.0847,-0.04233 0.127,-0.04233 0.0847,0 0.16933,-0.08467 0.254,-0.211666 0.508,-0.465666 0.29634,-0.211666 0.508,-0.507999 1.778,-2.158999 3.21733,-4.571997 1.43934,-2.412998 2.794,-4.783663 0.16934,-0.254 0.254,-0.338667 0.21167,-0.211666 0.42334,-0.08467 0.25399,0.127 0.21166,0.381 -0.0847,0.253999 -0.254,0.550333 -0.84666,1.481665 -1.60866,2.793997 -0.71967,1.312333 -1.524,2.539999 -0.762,1.227665 -1.60867,2.370664 -0.84666,1.143 -1.82033,2.285999 -0.254,0.253999 -0.508,0.465666 -0.254,0.211667 -0.508,0.296333 -0.254,0.08467 -0.55033,0 -0.254,-0.08467 -0.508,-0.423333 -0.33867,-0.465666 -0.33867,-1.058332 0,-0.338667 0,-0.719667 0,-0.338666 0.0847,-0.677332 0.33866,-2.412999 0.84666,-4.74133 0.55034,-2.370665 1.397,-4.656663 0.0847,-0.254 0.0847,-0.338667 0.0423,-0.08467 0,-0.127 z"
         style="fill:#000000"
         id="path1014" />
      <path
         d="m 120.54442,63.665743 q 0.21167,-0.211667 0.55033,-0.508 0.33867,-0.296333 0.67734,-0.592666 0.33866,-0.296333 0.635,-0.550333 0.33866,-0.296333 0.55033,-0.465666 0.254,-0.254 0.42333,-0.338667 0.21167,-0.169333 0.42333,-0.08467 0.254,0.08467 0.33867,0.338666 0.0847,0.211667 0.0423,0.254 0,0.04233 0.0847,0.254 0.127,0.381 0.21167,0.761999 0.127,0.381 0.29633,0.762 0.0847,0.211666 0.21167,0.423333 0.16933,0.169333 0.33866,0.381 0.16934,0.211666 0.46567,0.296333 0.29633,0.04233 0.508,-0.127 0.29633,-0.169333 0.59267,-0.465667 0.46566,-0.465666 0.889,-0.973666 0.42333,-0.550332 0.80433,-1.142999 0.46566,-0.677333 0.762,-1.185332 0.29633,-0.508 0.71966,-1.185333 0.16934,-0.338666 0.29634,-0.465666 0.254,-0.296333 0.59266,-0.08467 0.21167,0.169333 0.0847,0.507999 l -0.127,0.254 q -0.71967,1.142999 -1.35467,2.116665 -0.635,0.973666 -1.48166,2.031998 -0.254,0.296334 -0.508,0.592667 -0.254,0.254 -0.55033,0.507999 -0.508,0.508 -1.143,0.550333 -0.762,0.04233 -1.35467,-0.550333 -0.635,-0.634999 -0.889,-1.523999 -0.0847,-0.296333 -0.16933,-0.550332 -0.0847,-0.296334 -0.16933,-0.635 -0.16934,0.127 -0.42334,0.296333 l -1.651,1.523999 q -0.21166,0.169333 -0.381,0.338666 -0.16933,0.169334 -0.381,0.338667 -0.46566,0.338666 -0.762,0.08467 -0.33866,-0.253999 -0.33866,-0.634999 0,-0.254 0.0423,-0.381 0.0847,-0.211666 0.127,-0.423333 0.0423,-0.254 0.127,-0.465666 0.635,-1.820332 1.651,-3.386664 0.21167,-0.296333 0.42333,-0.550333 0.21167,-0.254 0.55034,-0.465667 0.762,-0.507999 1.52399,-0.211666 0.33867,0.127 0.59267,0.381 0.33867,0.254 0.16933,0.634999 -0.127,0.296333 -0.46566,0.296333 -0.33867,0 -0.80433,-0.04233 -0.42334,-0.04233 -0.635,0.211667 -0.127,0.126999 -0.254,0.253999 -0.127,0.127 -0.21167,0.296333 -0.33867,0.508 -0.635,1.185333 -0.29633,0.634999 -0.59267,1.185332 -0.0423,0.08467 -0.21166,0.465667 -0.16934,0.338666 -0.21167,0.465666 z"
         style="fill:#000000"
         id="path1016" />
      <path
         d="m 133.28671,67.941406 q -0.0847,0.08467 -0.127,0.127 -0.0423,0.08467 -0.0847,0.169334 l -0.889,1.142999 q -0.97367,1.354665 -1.86267,2.666998 -0.889,1.354665 -1.651,2.836331 -0.254,0.508 -0.46566,1.015999 -0.254,0.550333 -0.46567,1.058333 -0.0423,0.08467 -0.0423,0.338666 0.84666,-0.465666 1.94733,-1.735665 1.10066,-1.269999 1.94733,-2.793998 0.80433,-1.396999 1.27,-2.751665 0.508,-1.354665 0.42333,-2.031998 z m 0.16933,-12.657657 q -1.26999,0.973666 -1.98966,2.455332 -0.42333,0.846666 0.29633,1.566332 l 1.016,1.142999 q 1.35467,1.608666 1.69333,3.809997 l 0.127,0.635 q 0.16934,0.04233 0.21167,-0.04233 0.0423,-0.126999 0.127,-0.211666 1.05833,-1.269999 2.159,-2.455332 1.143,-1.227665 2.32833,-2.412998 0.254,-0.254 0.508,-0.507999 0.29633,-0.254 0.59267,-0.508 0.29633,-0.254 0.55033,-0.04233 0.254,0.211666 0,0.550333 -0.127,0.169333 -0.29633,0.338666 -0.127,0.127 -0.29634,0.296333 -1.35466,1.354666 -2.70933,2.751665 -1.31233,1.354665 -2.54,2.836331 -0.0847,0.08467 -0.127,0.127 -0.0423,0.08467 -0.127,0.169333 -0.381,0.381 -0.46566,1.058333 -0.127,1.354665 -0.508,2.582331 -0.33867,1.269999 -0.93133,2.497665 -0.635,1.354665 -1.48167,2.582331 -0.80433,1.227666 -1.905,2.243665 -0.635,0.635 -1.397,1.142999 -0.29633,0.169334 -0.71966,0.254 -0.762,0.127 -0.762,-0.677333 0,-0.211666 0.0847,-0.465666 0.0847,-0.338666 0.21167,-0.635 0.0847,-0.296333 0.21167,-0.592666 0.29633,-0.719666 0.67733,-1.396999 0.33867,-0.677333 0.762,-1.354665 1.016,-1.735666 2.159,-3.344331 1.143,-1.608666 2.37066,-3.174998 0.42333,-0.550333 0.42333,-1.227666 -0.0847,-1.312332 -0.42333,-2.370664 -0.381,-1.100666 -1.22766,-2.031999 -0.21167,-0.211666 -0.42334,-0.423333 -0.16933,-0.254 -0.381,-0.465666 -0.16933,-0.169333 -0.33866,-0.296333 -0.127,-0.169334 -0.254,-0.381 -0.508,-0.677333 -0.16934,-1.566332 0.21167,-0.550333 0.508,-0.973666 0.889,-1.354666 2.20134,-2.285998 0.33866,-0.296334 0.71966,-0.338667 0.635,-0.127 0.71967,0.550333 0,0.254 -0.127,0.508 -0.21167,0.423333 -0.67734,0.127 -0.0847,-0.04233 -0.127,-0.08467 -0.0423,-0.04233 -0.127,-0.127 z"
         style="fill:#000000"
         id="path1018" />
      <path
         d="m 142.30371,54.310083 q -0.55033,0 -0.46566,-0.550333 0,-0.211666 0.127,-0.338666 0.21166,-0.211667 0.381,-0.381 0.21166,-0.211666 0.42333,-0.380999 0.29633,-0.211667 0.55033,0 0.29634,0.169333 0.29634,0.550332 -0.0423,0.08467 -0.0847,0.211667 0,0.08467 -0.0847,0.169333 -0.381,0.423333 -0.97366,0.635 -0.0423,0.04233 -0.21167,0.04233 z m 7.15433,4.402664 q 0.42333,-0.423333 0.67733,-0.127 0.254,0.254 0,0.634999 -0.16933,0.254 -0.29633,0.338667 -1.48166,1.439332 -3.00566,2.878664 -1.48167,1.396999 -3.00567,2.793998 -0.59266,0.550333 -1.18533,1.015999 -0.59267,0.508 -1.18533,0.973666 -0.33867,0.296333 -0.93133,0.508 -0.93134,0.338666 -1.22767,-0.592666 -0.127,-0.381 -0.127,-0.762 0,-0.423333 0,-0.846666 -0.0423,-0.380999 0,-0.804332 0.21167,-1.862666 0.55033,-3.640664 0.33867,-1.820332 0.93134,-3.598331 l 0.38099,-1.015999 q 0.127,-0.254 0.33867,-0.465667 0.254,-0.253999 0.635,-0.127 0.127,0.04233 0.127,0.211667 0.0423,0.169333 0,0.423333 0,0.211667 -0.0847,0.423333 -0.0423,0.169333 -0.0847,0.296333 -0.67734,2.158999 -1.05834,4.402664 -0.38099,2.201331 -0.67733,4.487329 0,0.338667 0.42334,0.169334 0.42333,-0.127 0.59266,-0.254 0.46567,-0.338667 0.889,-0.677333 0.42333,-0.296333 0.84667,-0.634999 0.84666,-0.762 1.651,-1.523999 0.84666,-0.762 1.69333,-1.523999 0.80433,-0.719666 1.56633,-1.481666 0.762,-0.761999 1.56633,-1.481665 z"
         style="fill:#000000"
         id="path1020" />
      <path
         d="m 152.71769,67.941406 q -0.0847,0.08467 -0.127,0.127 -0.0423,0.08467 -0.0847,0.169334 l -0.889,1.142999 q -0.97366,1.354665 -1.86266,2.666998 -0.889,1.354665 -1.651,2.836331 -0.254,0.508 -0.46567,1.015999 -0.254,0.550333 -0.46566,1.058333 -0.0423,0.08467 -0.0423,0.338666 0.84667,-0.465666 1.94733,-1.735665 1.10067,-1.269999 1.94734,-2.793998 0.80433,-1.396999 1.27,-2.751665 0.508,-1.354665 0.42333,-2.031998 z m 0.16933,-12.657657 q -1.27,0.973666 -1.98966,2.455332 -0.42334,0.846666 0.29633,1.566332 l 1.016,1.142999 q 1.35466,1.608666 1.69333,3.809997 l 0.127,0.635 q 0.16933,0.04233 0.21167,-0.04233 0.0423,-0.126999 0.127,-0.211666 1.05833,-1.269999 2.159,-2.455332 1.14299,-1.227665 2.32833,-2.412998 0.254,-0.254 0.508,-0.507999 0.29633,-0.254 0.59266,-0.508 0.29634,-0.254 0.55034,-0.04233 0.254,0.211666 0,0.550333 -0.127,0.169333 -0.29634,0.338666 -0.127,0.127 -0.29633,0.296333 -1.35467,1.354666 -2.70933,2.751665 -1.31233,1.354665 -2.54,2.836331 -0.0847,0.08467 -0.127,0.127 -0.0423,0.08467 -0.127,0.169333 -0.381,0.381 -0.46567,1.058333 -0.127,1.354665 -0.508,2.582331 -0.33866,1.269999 -0.93133,2.497665 -0.635,1.354665 -1.48166,2.582331 -0.80434,1.227666 -1.905,2.243665 -0.635,0.635 -1.397,1.142999 -0.29633,0.169334 -0.71967,0.254 -0.762,0.127 -0.762,-0.677333 0,-0.211666 0.0847,-0.465666 0.0847,-0.338666 0.21167,-0.635 0.0847,-0.296333 0.21166,-0.592666 0.29634,-0.719666 0.67734,-1.396999 0.33866,-0.677333 0.762,-1.354665 1.01599,-1.735666 2.15899,-3.344331 1.143,-1.608666 2.37067,-3.174998 0.42333,-0.550333 0.42333,-1.227666 -0.0847,-1.312332 -0.42333,-2.370664 -0.381,-1.100666 -1.22767,-2.031999 -0.21166,-0.211666 -0.42333,-0.423333 -0.16933,-0.254 -0.381,-0.465666 -0.16933,-0.169333 -0.33867,-0.296333 -0.127,-0.169334 -0.254,-0.381 -0.508,-0.677333 -0.16933,-1.566332 0.21167,-0.550333 0.508,-0.973666 0.889,-1.354666 2.20133,-2.285998 0.33867,-0.296334 0.71967,-0.338667 0.635,-0.127 0.71966,0.550333 0,0.254 -0.127,0.508 -0.21166,0.423333 -0.67733,0.127 -0.0847,-0.04233 -0.127,-0.08467 -0.0423,-0.04233 -0.127,-0.127 z"
         style="fill:#000000"
         id="path1022" />
      <path
         d="m 160.67635,59.00908 q 0.0423,-0.127 0,-0.04233 -0.0423,0.08467 -0.127,0.253999 -0.0423,0.127 -0.127,0.296333 -0.0423,0.127 -0.0847,0.169334 -0.254,0.253999 -0.55033,0.127 -0.29633,-0.127 -0.21167,-0.508 0,-0.08467 0.0847,-0.254 0.67733,-1.862665 1.27,-4.021664 0.59267,-2.201331 1.18533,-4.10633 l 1.143,-3.682997 q 0.0423,-0.08467 0.0423,-0.169333 0,-0.127 0.0423,-0.254 -0.46567,-0.04233 -0.889,0.04233 -0.381,0.08467 -0.80433,0.169333 -1.56634,0.254 -3.09033,0.550333 -1.56634,0.254 -3.13267,0.465667 -1.05833,0.169333 -2.07433,0.296333 -1.05833,0.08467 -2.11667,0 -0.127,0 -0.254,0.04233 -0.127,0.04233 -0.254,0.04233 -0.33866,0.04233 -0.46566,-0.169333 -0.16933,-0.211666 -0.0423,-0.507999 0.127,-0.254 0.33866,-0.465667 0.381,-0.380999 0.67733,0.04233 0.16934,0.253999 0.508,0.253999 h 0.635 q 1.98967,-0.08467 3.89467,-0.380999 1.82033,-0.296333 3.59833,-0.550333 1.778,-0.296333 3.556,-0.592666 0.0423,0 0.21166,-0.08467 0.0423,-0.08467 0.0847,-0.169333 0.0423,-0.08467 0.0847,-0.169333 0.42334,-1.481666 0.80434,-2.963332 0.381,-1.523998 0.762,-3.005664 0.0847,-0.254 0.0847,-0.508 0.0423,-0.253999 0.127,-0.507999 0.0847,-0.338667 0.16934,-0.508 0.127,-0.296333 0.46566,-0.211666 0.29634,0.08467 0.29634,0.338666 0,0.211667 0,0.465666 0,0.211667 -0.0423,0.423333 l -0.381,1.904999 q -0.254,1.100666 -0.508,2.243665 -0.254,1.100666 -0.46566,2.201332 v 0.296333 h 0.33866 l 4.318,-0.635 3.302,-0.507999 q 0.889,-0.127 1.778,-0.254 0.889,-0.127 1.778,-0.211667 0.76199,-0.08467 1.52399,-0.169333 0.762,-0.08467 1.524,-0.169333 l 3.937,-0.381 q 0.635,-0.08467 1.27,-0.08467 0.635,-0.04233 1.27,-0.08467 1.05833,-0.08467 2.07433,-0.08467 1.05833,-0.04233 2.11667,-0.08467 0.21166,0 0.38099,0 0.16934,0 0.381,0.04233 0.42334,0.08467 0.42334,0.423333 0,0.423333 -0.46567,0.508 h -0.508 q -1.48166,0.04233 -2.921,0.04233 -1.43933,0 -2.92099,0.08467 -1.397,0.08467 -2.794,0.211666 -1.397,0.08467 -2.794,0.211667 -1.016,0.08467 -2.032,0.211666 -1.016,0.127 -2.032,0.254 -1.143,0.127 -2.286,0.296333 -1.14299,0.127 -2.28599,0.296333 l -4.953,0.762 q -0.16933,0.04233 -0.33867,0.08467 -0.127,0 -0.33866,0.04233 -0.127,0.592667 -0.254,1.143 -0.127,0.507999 -0.254,1.058332 l -1.651,6.476995 q -0.97367,3.640664 -1.94733,7.450661 -0.97367,3.767664 -1.94733,7.408328 l -2.032,8.000994 q -0.29634,1.227666 -0.508,2.455332 -0.21167,1.227665 -0.29634,2.455331 -0.0423,0.338667 0,0.677333 0,0.381 0,0.719666 0,0.465666 0.381,0.846666 0.381,0.381 0.127,0.677333 -0.254,0.338666 -0.71966,0 -0.55034,-0.423333 -0.67734,-1.354666 -0.0847,-0.719666 -0.0423,-1.481665 0.0423,-0.719666 0.127,-1.439333 0.21167,-1.566332 0.55033,-3.090331 0.29634,-1.481665 0.67734,-2.963331 0.508,-1.904998 0.97366,-3.767664 0.46567,-1.820331 0.93134,-3.72533 0.59266,-2.201332 1.18533,-4.571997 0.59266,-2.370665 1.18533,-4.571996 z"
         style="fill:#000000"
         id="path1024" />
      <path
         d="m 169.18538,52.701418 q -0.46566,0.423333 -0.97366,1.269999 -0.508,0.804333 -1.27,2.412998 -0.0847,0.211667 -0.21167,0.465666 -0.0847,0.211667 -0.127,0.550333 0.84667,-0.931332 1.48167,-1.904998 0.67733,-0.973666 1.10066,-2.074332 0.16933,-0.338666 0.0847,-0.635 z m -5.67266,10.371659 q 0.0423,-0.804333 0.29633,-1.820332 0.21167,-1.058333 0.59267,-2.158999 0.381,-1.142999 0.889,-2.201331 0.55033,-1.100666 1.143,-2.074332 0.33866,-0.508 0.67733,-0.973666 0.33867,-0.508 0.67733,-0.973666 0.127,-0.211666 0.254,-0.338666 0.16934,-0.169334 0.33867,-0.338667 0.21167,-0.211666 0.46567,-0.338666 0.76199,-0.338667 1.05833,0.507999 0.127,0.465667 0,0.889 -0.0847,0.211666 -0.16934,0.465666 -0.0423,0.211667 -0.127,0.423333 -0.97366,2.285998 -2.66699,4.063997 -0.21167,0.211667 -0.46567,0.423333 -0.254,0.169333 -0.508,0.381 -0.29633,0.211666 -0.33867,0.465666 -0.254,0.846666 -0.46566,1.735665 -0.21167,0.846667 -0.29634,1.735666 0,0.254 0,0.507999 0.0423,0.254 0.0423,0.508 v 0.254 q 0.254,0.761999 0.97366,0.508 0.46567,-0.127 0.84667,-0.381 0.381,-0.254 0.762,-0.508 0.381,-0.254 0.71967,-0.550333 0.71966,-0.550333 1.35466,-1.142999 0.635,-0.634999 1.27,-1.269999 0.46567,-0.508 0.93133,-1.015999 0.508,-0.508 0.97367,-0.973666 0.127,-0.127 0.46567,-0.381 0.29633,-0.127 0.50799,0.08467 0.29634,0.211666 0.0847,0.550333 -0.16933,0.254 -0.29633,0.380999 -0.55033,0.592667 -1.10067,1.143 -0.508,0.507999 -1.05833,1.100665 -0.93133,0.973666 -1.905,1.862666 -0.97366,0.888999 -2.07433,1.608665 -0.254,0.169333 -0.508,0.296333 -0.254,0.169333 -0.55033,0.296333 -0.97367,0.465667 -1.651,0 -0.71967,-0.423333 -0.97367,-1.227665 l -0.127,-0.635 q -0.0423,-0.211666 -0.0423,-0.423333 0,-0.254 0,-0.465666 z"
         style="fill:#000000"
         id="path1026" />
      <path
         d="m 177.52506,57.146415 q -0.42334,0.338666 -0.71967,0.677332 -0.254,0.338667 -0.46567,0.719666 -0.38099,0.635 -0.76199,1.27 -0.381,0.634999 -0.71967,1.269999 l -2.54,4.571996 -0.254,0.381 q -0.21167,0.211666 -0.508,0.169333 -0.16933,-0.04233 -0.29633,-0.127 -0.16933,-0.08467 -0.16933,-0.254 0,-0.211666 0,-0.380999 0,-0.169334 0.0423,-0.381 0.127,-0.592666 0.254,-1.142999 0.127,-0.550333 0.29633,-1.142999 l 2.159,-7.365995 q 0.127,-0.423333 0.33867,-0.973666 0.21166,-0.465666 0.635,-0.380999 0.21166,0.04233 0.381,0.169333 0.16933,0.08467 0.16933,0.338666 0,0.169333 -0.0847,0.508 -0.127,0.507999 -0.254,1.015999 -0.127,0.508 -0.29633,1.015999 l -1.143,3.936997 q -0.0847,0.254 -0.0423,0.423333 l 0.381,-0.634999 q 0.381,-0.719666 0.67733,-1.354666 0.33867,-0.634999 0.762,-1.354666 0.508,-0.888999 1.27,-1.650998 0.127,-0.127 0.254,-0.254 0.127,-0.127 0.29633,-0.211667 0.84667,-0.507999 1.27,0.381 0.16933,0.423333 0.254,0.973666 0.0847,0.592666 0.0847,1.142999 0,0.550333 0.0423,1.142999 0.0423,0.465667 0.0423,0.973666 0.0423,0.465667 0.127,0.931333 0.0423,0.381 0.21167,0.846666 0.0847,0.296333 0.381,0.211666 0.21167,-0.08467 0.381,-0.126999 0.16933,-0.08467 0.33867,-0.211667 0.71966,-0.508 1.22766,-1.015999 0.59267,-0.592666 1.22767,-1.185333 0.67733,-0.634999 1.27,-1.227665 0.127,-0.127 0.381,-0.296334 0.254,-0.169333 0.46566,0.04233 0.127,0.127 0.0423,0.423333 -0.0423,0.254 -0.16934,0.381 -0.46566,0.465666 -0.84666,0.804332 -0.33867,0.338667 -0.635,0.635 -0.29634,0.296333 -0.59267,0.550333 -0.254,0.254 -0.55033,0.550333 -0.33867,0.338666 -0.67734,0.592666 -0.33866,0.254 -0.67733,0.550333 -0.21166,0.211666 -0.46566,0.296333 -0.254,0.08467 -0.55034,0.169333 -0.97366,0.338666 -1.524,-0.550333 -0.33866,-0.592666 -0.42333,-1.354665 -0.0847,-0.465667 -0.127,-0.889 0,-0.423333 -0.0423,-0.888999 -0.0423,-0.592666 -0.0423,-1.142999 0,-0.550333 -0.0423,-1.142999 0,-0.127 -0.0423,-0.254 0,-0.127 -0.0423,-0.338667 z"
         style="fill:#000000"
         id="path1028" />
      <path
         d="m 183.57874,65.951741 q 0.508,-0.127 0.93134,-0.550333 0.508,-0.465666 1.016,-0.888999 0.50799,-0.465666 1.01599,-0.931333 1.397,-1.227665 2.62467,-2.497664 1.27,-1.269999 2.62466,-2.370665 0.127,-0.08467 0.46567,-0.169334 0.21167,-0.04233 0.381,0.254 0.127,0.211667 0,0.381 -0.127,0.211667 -0.33867,0.338666 -1.35466,1.100666 -2.49766,2.201332 -1.10067,1.100666 -2.286,2.201332 -0.46567,0.465666 -0.93133,0.888999 -0.46567,0.423333 -0.93133,0.888999 -0.21167,0.211667 -0.46567,0.381 -0.21167,0.169333 -0.42333,0.338667 -0.33867,0.296333 -0.84667,0.507999 -1.016,0.423333 -1.56633,-0.550333 -0.254,-0.423333 -0.254,-1.015999 -0.0423,-0.677333 0.0423,-1.312332 0.0847,-0.635 0.254,-1.269999 0.21167,-0.931333 0.508,-1.777999 0.29633,-0.888999 0.762,-1.735665 0.46567,-0.846666 1.18533,-1.396999 0.71967,-0.508 1.397,-0.550333 0.97367,-0.08467 1.524,0.507999 0.55033,0.592667 0.46567,1.312333 0,0.254 -0.0423,0.338666 -0.16933,0.296333 -0.42333,0.296333 -0.254,0 -0.381,-0.211666 -0.0847,-0.08467 -0.127,-0.169333 0,-0.127 -0.0847,-0.211667 -0.254,-0.508 -0.80433,-0.381 -0.254,0.04233 -0.46567,0.211667 -0.50799,0.296333 -0.76199,0.846666 -0.67734,1.269999 -1.10067,2.624665 -0.46567,1.312332 -0.635,2.751664 -0.0847,0.465666 0.16933,0.762 z"
         style="fill:#000000"
         id="path1030" />
      <path
         d="m 193.78109,54.310083 q -0.55034,0 -0.46567,-0.550333 0,-0.211666 0.127,-0.338666 0.21167,-0.211667 0.381,-0.381 0.21166,-0.211666 0.42333,-0.380999 0.29633,-0.211667 0.55033,0 0.29634,0.169333 0.29634,0.550332 -0.0423,0.08467 -0.0847,0.211667 0,0.08467 -0.0847,0.169333 -0.381,0.423333 -0.97366,0.635 -0.0423,0.04233 -0.21167,0.04233 z m 7.15432,4.402664 q 0.42334,-0.423333 0.67734,-0.127 0.254,0.254 0,0.634999 -0.16934,0.254 -0.29634,0.338667 -1.48166,1.439332 -3.00566,2.878664 -1.48167,1.396999 -3.00567,2.793998 -0.59266,0.550333 -1.18533,1.015999 -0.59266,0.508 -1.18533,0.973666 -0.33867,0.296333 -0.93133,0.508 -0.93134,0.338666 -1.22767,-0.592666 -0.127,-0.381 -0.127,-0.762 0,-0.423333 0,-0.846666 -0.0423,-0.380999 0,-0.804332 0.21167,-1.862666 0.55033,-3.640664 0.33867,-1.820332 0.93134,-3.598331 l 0.381,-1.015999 q 0.127,-0.254 0.33866,-0.465667 0.254,-0.253999 0.635,-0.127 0.127,0.04233 0.127,0.211667 0.0423,0.169333 0,0.423333 0,0.211667 -0.0847,0.423333 -0.0423,0.169333 -0.0847,0.296333 -0.67733,2.158999 -1.05833,4.402664 -0.381,2.201331 -0.67734,4.487329 0,0.338667 0.42334,0.169334 0.42333,-0.127 0.59266,-0.254 0.46567,-0.338667 0.889,-0.677333 0.42333,-0.296333 0.84667,-0.634999 0.84666,-0.762 1.651,-1.523999 0.84666,-0.762 1.69333,-1.523999 0.80433,-0.719666 1.56633,-1.481666 0.762,-0.761999 1.56633,-1.481665 z"
         style="fill:#000000"
         id="path1032" />
      <path
         d="m 199.45371,63.665743 q 0.21167,-0.211667 0.55034,-0.508 0.33866,-0.296333 0.67733,-0.592666 0.33867,-0.296333 0.635,-0.550333 0.33867,-0.296333 0.55033,-0.465666 0.254,-0.254 0.42334,-0.338667 0.21166,-0.169333 0.42333,-0.08467 0.254,0.08467 0.33867,0.338666 0.0847,0.211667 0.0423,0.254 0,0.04233 0.0847,0.254 0.127,0.381 0.21166,0.761999 0.127,0.381 0.29633,0.762 0.0847,0.211666 0.21167,0.423333 0.16933,0.169333 0.33867,0.381 0.16933,0.211666 0.46566,0.296333 0.29634,0.04233 0.508,-0.127 0.29634,-0.169333 0.59267,-0.465667 0.46567,-0.465666 0.889,-0.973666 0.42333,-0.550332 0.80433,-1.142999 0.46567,-0.677333 0.762,-1.185332 0.29633,-0.508 0.71967,-1.185333 0.16933,-0.338666 0.29633,-0.465666 0.254,-0.296333 0.59267,-0.08467 0.21166,0.169333 0.0847,0.507999 l -0.127,0.254 q -0.71966,1.142999 -1.35466,2.116665 -0.635,0.973666 -1.48167,2.031998 -0.254,0.296334 -0.508,0.592667 -0.254,0.254 -0.55033,0.507999 -0.508,0.508 -1.143,0.550333 -0.762,0.04233 -1.35466,-0.550333 -0.635,-0.634999 -0.889,-1.523999 -0.0847,-0.296333 -0.16934,-0.550332 -0.0847,-0.296334 -0.16933,-0.635 -0.16933,0.127 -0.42333,0.296333 l -1.651,1.523999 q -0.21167,0.169333 -0.381,0.338666 -0.16934,0.169334 -0.381,0.338667 -0.46567,0.338666 -0.762,0.08467 -0.33867,-0.253999 -0.33867,-0.634999 0,-0.254 0.0423,-0.381 0.0847,-0.211666 0.127,-0.423333 0.0423,-0.254 0.127,-0.465666 0.63499,-1.820332 1.65099,-3.386664 0.21167,-0.296333 0.42334,-0.550333 0.21166,-0.254 0.55033,-0.465667 0.762,-0.507999 1.524,-0.211666 0.33867,0.127 0.59267,0.381 0.33866,0.254 0.16933,0.634999 -0.127,0.296333 -0.46567,0.296333 -0.33866,0 -0.80433,-0.04233 -0.42333,-0.04233 -0.635,0.211667 -0.127,0.126999 -0.254,0.253999 -0.127,0.127 -0.21167,0.296333 -0.33866,0.508 -0.635,1.185333 -0.29633,0.634999 -0.59266,1.185332 -0.0423,0.08467 -0.21167,0.465667 -0.16933,0.338666 -0.21167,0.465666 z"
         style="fill:#000000"
         id="path1034" />
    </g>
  </g>
</svg>
