<?xml version="1.0" encoding="UTF-8" standalone="no"?>
<!-- Created with Inkscape (http://www.inkscape.org/) -->

<svg
   width="131.08311mm"
   height="54.937202mm"
   viewBox="0 0 131.08311 54.937202"
   version="1.1"
   id="svg5"
   inkscape:version="1.2.2 (732a01da63, 2022-12-09)"
   sodipodi:docname="el_mejor_regalo.svg"
   xmlns:inkscape="http://www.inkscape.org/namespaces/inkscape"
   xmlns:sodipodi="http://sodipodi.sourceforge.net/DTD/sodipodi-0.dtd"
   xmlns="http://www.w3.org/2000/svg"
   xmlns:svg="http://www.w3.org/2000/svg">
  <sodipodi:namedview
     id="namedview7"
     pagecolor="#ffffff"
     bordercolor="#000000"
     borderopacity="0.25"
     inkscape:showpageshadow="2"
     inkscape:pageopacity="0.0"
     inkscape:pagecheckerboard="0"
     inkscape:deskcolor="#d1d1d1"
     inkscape:document-units="mm"
     showgrid="false"
     inkscape:zoom="0.48016975"
     inkscape:cx="464.41909"
     inkscape:cy="339.46328"
     inkscape:window-width="2048"
     inkscape:window-height="1081"
     inkscape:window-x="1358"
     inkscape:window-y="-8"
     inkscape:window-maximized="1"
     inkscape:current-layer="layer1" />
  <defs
     id="defs2" />
  <g
     inkscape:label="Layer 1"
     inkscape:groupmode="layer"
     id="layer1"
     transform="translate(17.359627,-58.423722)">
    <g
       aria-label="el mejor regalo"
       id="text236"
       style="font-size:42.3333px;font-family:'Prestige Signature Script  Demo';-inkscape-font-specification:'Prestige Signature Script  Demo';text-align:center;text-anchor:middle;stroke-width:0.238125;stroke-linecap:round;stroke-linejoin:round;fill:#ffffff">
      <path
         d="m -11.686965,73.640192 q -0.465666,0.423333 -0.973666,1.269999 -0.507999,0.804333 -1.269999,2.412998 -0.08467,0.211667 -0.211666,0.465667 -0.08467,0.211666 -0.127,0.550332 0.846666,-0.931332 1.481665,-1.904998 0.677333,-0.973666 1.100666,-2.074332 0.169334,-0.338666 0.08467,-0.634999 z m -5.672662,10.371659 q 0.04233,-0.804333 0.296333,-1.820332 0.211667,-1.058333 0.592666,-2.158998 0.381,-1.143 0.889,-2.201332 0.550332,-1.100666 1.142999,-2.074332 0.338666,-0.508 0.677333,-0.973666 0.338666,-0.507999 0.677332,-0.973666 0.127,-0.211666 0.254,-0.338666 0.169333,-0.169333 0.338667,-0.338667 0.211666,-0.211666 0.465666,-0.338666 0.761999,-0.338666 1.058332,0.508 0.127,0.465666 0,0.888999 -0.08467,0.211666 -0.169333,0.465666 -0.04233,0.211667 -0.127,0.423333 -0.973666,2.285999 -2.666998,4.063997 -0.211666,0.211667 -0.465666,0.423333 -0.254,0.169333 -0.508,0.381 -0.296333,0.211666 -0.338666,0.465666 -0.254,0.846666 -0.465666,1.735666 -0.211667,0.846666 -0.296333,1.735665 0,0.254 0,0.508 0.04233,0.253999 0.04233,0.507999 v 0.254 q 0.254,0.761999 0.973666,0.508 0.465666,-0.127 0.846666,-0.381 0.381,-0.254 0.761999,-0.508 0.381,-0.254 0.719666,-0.550333 0.719667,-0.550333 1.354666,-1.142999 0.635,-0.634999 1.269999,-1.269999 0.4656664,-0.507999 0.9313327,-1.015999 0.5079996,-0.508 0.9736659,-0.973666 0.127,-0.127 0.4656664,-0.381 0.2963331,-0.127 0.5079996,0.08467 0.2963331,0.211666 0.084667,0.550333 -0.1693332,0.254 -0.2963331,0.381 -0.5503329,0.592666 -1.1006659,1.142999 -0.5079996,0.507999 -1.0583325,1.100666 -0.9313327,0.973665 -1.9049987,1.862665 -0.973666,0.888999 -2.074332,1.608665 -0.253999,0.169333 -0.507999,0.296333 -0.254,0.169334 -0.550333,0.296333 -0.973666,0.465667 -1.650999,0 -0.719666,-0.423333 -0.973666,-1.227665 l -0.127,-0.635 q -0.04233,-0.211666 -0.04233,-0.423333 0,-0.254 0,-0.465666 z"
         id="path443"
         style="fill:#ffffff" />
      <path
         d="m -0.55328516,59.924202 q -0.1693332,0.254 -0.2116665,0.381 -1.10066584,2.836331 -1.90499854,5.630329 -0.5926663,2.031999 -1.2276658,4.063997 -0.5926662,2.031999 -1.1429991,4.10633 l -0.1269999,0.635 q 0.2539998,-0.254 0.3809997,-0.592666 0.3386664,-0.804333 0.7196661,-1.566333 0.3809997,-0.761999 0.7196661,-1.566332 0.7196662,-1.735665 1.3123324,-3.47133 0.6349995,-1.735666 1.10066583,-3.555998 0.25399981,-0.973666 0.38099971,-1.989665 0.16933321,-1.015999 0.12699991,-2.116665 z M -11.64461,99.12484 q 0.04233,-1.100666 0.169333,-2.074332 0.127,-0.931333 0.338666,-1.904999 0.338667,-1.608665 0.677333,-3.174997 0.338667,-1.566333 0.6773331,-3.174998 0.846666,-4.10633 1.8626653,-8.085661 0.9736659,-3.97933 2.0743318,-8.000994 0.5079996,-1.947332 1.1429991,-3.809997 0.6349995,-1.904998 1.269999,-3.809997 0.9313327,-2.920998 2.2859983,-5.714996 0.084667,-0.211666 0.16933323,-0.380999 0.1269999,-0.169334 0.25399981,-0.338667 0.25399981,-0.296333 0.50799962,-0.211666 0.29633311,0.04233 0.42333301,0.423333 0.12699991,0.380999 0.12699991,0.761999 0.0423333,0.635 -0.0423333,1.269999 -0.0846666,0.592666 -0.1693332,1.185333 -0.25399981,1.777998 -0.76199943,3.47133 -0.50799964,1.650999 -1.10066584,3.301998 -0.5926662,1.523999 -1.269999,3.005664 -0.6349996,1.481666 -1.3546657,2.963331 l -1.6509988,3.555998 q -0.3386664,0.677333 -0.5079996,1.312332 -0.3386664,1.481666 -0.7196661,3.005665 -0.3809997,1.481665 -0.7196661,2.963331 -0.3386664,1.354665 -0.5926662,2.666998 -0.2539999,1.312332 -0.5926663,2.666998 -0.3386664,1.354665 -0.6349995,2.666998 -0.2963331,1.312332 -0.5080001,2.666998 -0.08467,0.677332 -0.126999,1.312332 -0.08467,0.677333 -0.169334,1.354666 -0.08467,0.846666 0.211667,1.48167 v 0.127 q 0.08467,0.33866 -0.211667,0.55033 -0.296333,0.21166 -0.550333,0 -0.423333,-0.254 -0.507999,-0.762 -0.04233,-0.21167 -0.04233,-0.465668 0,-0.211666 0,-0.423333 V 99.12484 Z"
         id="path445"
         style="fill:#ffffff" />
      <path
         d="m 13.205052,81.556519 q -0.592667,0.931333 -1.269999,1.693332 -0.635,0.762 -1.354666,1.481666 -0.296333,0.296333 -0.677333,0.296333 -0.3386664,-0.04233 -0.5926662,-0.508 -0.3809997,-0.550332 -0.2963331,-1.312332 0.042333,-0.465666 0.042333,-0.677333 0.042333,-0.253999 0.084667,-0.719666 0,-0.254 -0.084667,-0.254 -0.042333,0 -0.084667,0.04233 -0.5926662,0.804332 -1.1429991,1.608665 -0.550333,0.762 -1.1006659,1.566332 l -1.6509987,2.539998 -0.6349996,1.016 q -0.042333,0.08467 -0.084667,0.08467 -0.042333,0 -0.084667,0.08467 -0.2116665,0.254 -0.4656663,0.127 -0.2963331,-0.127 -0.423333,-0.423333 -0.1269999,-0.296333 -0.042333,-0.635 0.084667,-0.761999 0.2539998,-1.523999 0.1269999,-0.719666 0.2963331,-1.439332 l 1.0159993,-4.698996 q 0.084667,-0.381 0.2116665,-0.762 0.084667,-0.381 0.2116665,-0.761999 0.2539998,-0.635 0.5079996,-0.592666 0.2963331,0 0.423333,0.08467 0.2116665,0.211667 0.2539998,0.719666 0.042333,0.465667 -0.042333,0.719666 -0.1269999,0.635 -0.2539998,1.269999 -0.1269999,0.635 -0.2963331,1.269999 -0.2116665,0.973666 -0.4656663,1.989666 -0.2539998,0.973666 -0.5079996,1.947332 v 0.169333 q 0.084667,-0.08467 0.2539998,-0.381 0.2116665,-0.296333 0.2963331,-0.381 l 2.5399981,-3.809997 q 0.2963331,-0.423333 0.5926662,-0.804333 0.2963331,-0.380999 0.5926662,-0.761999 0.2116665,-0.254 0.4656663,-0.465666 0.2116665,-0.211667 0.3809995,-0.127 0.211667,0.04233 0.296333,0.296333 0.127,0.381 0.127,0.761999 0,0.508 -0.04233,1.016 0,0.507999 -0.04233,1.015999 v 1.015999 q 0,0.169333 0.08467,0.169333 0.127,-0.04233 0.211667,-0.127 l 0.888999,-1.015999 1.777999,-2.285998 q 0.08467,-0.169333 0.169333,-0.211667 0.254,-0.08467 0.381,-0.08467 0.211666,0 0.211666,0.254 0,0.465666 0.08467,0.888999 0.127,0.381 0.296333,0.804333 0.296333,0.677332 0.804333,0.973666 0.550333,0.296333 1.269999,-0.169334 0.253999,-0.169333 0.507999,-0.296333 0.254,-0.169333 0.465667,-0.381 0.507999,-0.465666 0.931332,-0.931332 0.465667,-0.508 0.804333,-1.100666 0.08467,-0.169333 0.338666,-0.508 0.08467,-0.08467 0.254,-0.08467 0.211667,0 0.296333,0.08467 0.254,0.169334 0.08467,0.508 l -0.127,0.254 q -1.058333,1.777998 -2.582331,2.878664 -0.338667,0.254 -0.719667,0.465667 -0.380999,0.211666 -0.804332,0.296333 -0.423333,0.08467 -0.804333,0 -0.381,-0.127 -0.719666,-0.508 -0.508,-0.592666 -0.677333,-1.142999 -0.04233,-0.127 -0.127,-0.254 -0.04233,-0.169333 -0.127,-0.254 -0.08467,-0.127 -0.169333,-0.127 -0.08467,-0.04233 -0.211666,0.127 z"
         id="path447"
         style="fill:#ffffff" />
      <path
         d="m 23.873014,73.640192 q -0.465667,0.423333 -0.973666,1.269999 -0.508,0.804333 -1.269999,2.412998 -0.08467,0.211667 -0.211667,0.465667 -0.08467,0.211666 -0.127,0.550332 0.846666,-0.931332 1.481666,-1.904998 0.677333,-0.973666 1.100666,-2.074332 0.169333,-0.338666 0.08467,-0.634999 z m -5.672663,10.371659 q 0.04233,-0.804333 0.296334,-1.820332 0.211666,-1.058333 0.592666,-2.158998 0.380999,-1.143 0.888999,-2.201332 0.550333,-1.100666 1.142999,-2.074332 0.338667,-0.508 0.677333,-0.973666 0.338666,-0.507999 0.677333,-0.973666 0.127,-0.211666 0.254,-0.338666 0.169333,-0.169333 0.338666,-0.338667 0.211667,-0.211666 0.465666,-0.338666 0.762,-0.338666 1.058333,0.508 0.127,0.465666 0,0.888999 -0.08467,0.211666 -0.169333,0.465666 -0.04233,0.211667 -0.127,0.423333 -0.973666,2.285999 -2.666998,4.063997 -0.211667,0.211667 -0.465666,0.423333 -0.254,0.169333 -0.508,0.381 -0.296333,0.211666 -0.338667,0.465666 -0.253999,0.846666 -0.465666,1.735666 -0.211666,0.846666 -0.296333,1.735665 0,0.254 0,0.508 0.04233,0.253999 0.04233,0.507999 v 0.254 q 0.254,0.761999 0.973666,0.508 0.465667,-0.127 0.846666,-0.381 0.381,-0.254 0.762,-0.508 0.380999,-0.254 0.719666,-0.550333 0.719666,-0.550333 1.354666,-1.142999 0.634999,-0.634999 1.269999,-1.269999 0.465666,-0.507999 0.931332,-1.015999 0.508,-0.508 0.973666,-0.973666 0.127,-0.127 0.465666,-0.381 0.296334,-0.127 0.508,0.08467 0.296333,0.211666 0.08467,0.550333 -0.169334,0.254 -0.296333,0.381 -0.550333,0.592666 -1.100666,1.142999 -0.508,0.507999 -1.058333,1.100666 -0.931332,0.973665 -1.904998,1.862665 -0.973666,0.888999 -2.074332,1.608665 -0.254,0.169333 -0.508,0.296333 -0.254,0.169334 -0.550333,0.296333 -0.973666,0.465667 -1.650998,0 -0.719667,-0.423333 -0.973666,-1.227665 l -0.127,-0.635 q -0.04233,-0.211666 -0.04233,-0.423333 0,-0.254 0,-0.465666 z"
         id="path449"
         style="fill:#ffffff" />
      <path
         d="m 28.995366,76.349523 q -0.338666,0 -0.507999,-0.254 -0.296333,-0.253999 -0.08467,-0.592666 0.465667,-0.804332 1.185333,-1.227665 0.338666,-0.211667 0.677332,0 0.338667,0.169333 0.296334,0.634999 -0.04233,0.08467 -0.08467,0.211667 0,0.08467 -0.08467,0.169333 -0.380999,0.465666 -0.846666,0.846666 -0.253999,0.254 -0.550333,0.211666 z m 7.196662,3.344331 q 0.127,0.296333 -0.04233,0.465666 -0.253999,0.254 -0.423333,0.338667 -1.820332,1.185332 -3.34433,2.370665 -1.523999,1.142999 -3.132665,2.243665 l -1.862665,1.439332 q -0.381,0.254 -0.508,0.761999 -0.592666,2.031999 -1.142999,4.063997 -0.592666,2.031999 -1.185332,4.063997 -0.719666,2.370665 -1.439332,4.656668 -0.719667,2.32833 -1.650999,4.61433 -0.465667,1.10066 -0.931333,2.20133 -0.508,1.10066 -1.142999,2.11666 -0.211667,0.33867 -0.423333,0.67733 -0.254,0.33867 -0.508,0.67734 -1.227665,1.397 -2.836331,1.778 -2.624665,0.59266 -4.23333,-1.397 -1.312332,-1.56633 -1.185332,-3.64067 0.126999,-1.56633 0.719666,-3.21733 0.592666,-1.651 1.481665,-3.175 0.846666,-1.481661 1.862665,-2.87866 0.846667,-1.142999 1.820332,-2.243665 0.931333,-1.058332 1.904999,-2.116665 1.608665,-1.693332 3.471331,-3.301997 1.820332,-1.608666 3.640664,-3.047998 0.423333,-0.338666 0.550333,-0.465666 0.08467,-0.127 0.211666,-0.592666 l 1.904999,-6.646329 q 0.211666,-0.592666 0.423333,-0.761999 0.211666,-0.211667 0.380999,-0.127 0.169334,0.04233 0.254,0.296333 0.08467,0.211667 0.04233,0.465666 -0.08467,0.381 -0.169334,0.762 -0.04233,0.381 -0.127,0.761999 l -1.015999,3.809997 q -0.04233,0.08467 -0.04233,0.169334 0,0.08467 -0.04233,0.211666 l 0.465666,-0.296333 q 2.074332,-1.439332 3.344331,-2.370665 1.312332,-0.931333 2.074331,-1.481665 0.762,-0.592667 1.143,-0.889 0.380999,-0.296333 0.719666,-0.507999 0.211666,-0.127 0.465666,-0.127 0.296333,-0.04233 0.423333,0.254 z M 21.290706,101.41084 q 1.100665,-3.175 2.074331,-6.434664 0.931333,-3.259664 1.693332,-6.519328 -0.211666,0.126999 -0.253999,0.169333 -0.08467,0.08467 -0.169334,0.169333 -1.777998,1.439332 -3.555997,3.005664 -1.820332,1.608666 -3.344331,3.259665 -1.058332,1.142999 -2.031998,2.328331 -1.016,1.185333 -1.862666,2.497665 -0.719666,1.100661 -1.269999,2.201331 -0.592666,1.10067 -1.058332,2.32833 -0.465666,1.35467 -0.550333,2.83633 -0.08467,1.60867 0.846666,2.75167 0.635,0.84666 1.650999,1.10066 1.015999,0.29634 2.158998,-0.0423 0.804333,-0.21167 1.396999,-0.71967 0.550333,-0.46566 0.973666,-1.14299 0.465666,-0.71967 0.888999,-1.60867 0.719666,-1.48167 1.312333,-3.048 0.550333,-1.524 1.100666,-3.13266 z"
         id="path451"
         style="fill:#ffffff" />
      <path
         d="m 36.488338,79.651521 q 0.550333,-0.677333 1.058333,-0.423333 0.507999,0.211666 0.507999,0.931332 0.04233,0.381 -0.04233,0.762 -0.04233,0.381 -0.127,0.761999 l -0.08467,0.465667 q 0.804333,-0.127 1.481666,-0.508 0.677333,-0.381 1.185332,-0.761999 0.508,-0.423333 0.846667,-0.804333 0.380999,-0.381 0.550332,-0.508 0.211667,-0.169333 0.465667,-0.04233 0.296333,0.08467 0.127,0.423333 -0.127,0.254 -0.550333,0.719666 -0.423333,0.465666 -1.100666,0.973666 -0.677333,0.508 -1.523999,0.973666 -0.846666,0.423333 -1.820332,0.592666 -0.211666,0.338667 -0.423333,0.677333 -0.211666,0.338666 -0.423333,0.677333 -0.296333,0.465666 -0.761999,0.931332 -0.296333,0.296334 -0.677333,0.423333 -0.889,0.338667 -1.354666,-0.465666 -0.338666,-0.550333 -0.338666,-1.142999 -0.08467,-2.201332 0.931332,-4.063997 0.169334,-0.296333 0.465667,-0.592666 0.677333,-0.508 1.142999,0.296333 0,0.04233 0.08467,0.211666 z m -0.127,3.471331 q -0.08467,-0.08467 -0.08467,-0.08467 -0.677333,-0.338666 -0.677333,-1.269999 v -0.254 q 0,-0.08467 0,-0.127 0.04233,-0.04233 -0.08467,-0.08467 -0.338666,0.719666 -0.507999,1.439332 -0.169334,0.719666 -0.296334,1.439332 -0.04233,0.169333 -0.04233,0.338666 0,0.169334 0.127,0.381 0.592666,-0.338666 0.888999,-0.804333 0.338667,-0.465666 0.677333,-0.931332 z m 0.846666,-3.174998 q -0.127,0 -0.127,0.04233 -0.465666,0.592666 -0.677332,1.396999 -0.04233,0.127 -0.04233,0.296333 0.04233,0.127 0.04233,0.296333 0,0.211667 0.253999,0.254 0.169334,0.04233 0.254,-0.127 0.423333,-0.973666 0.423333,-1.862665 0,-0.08467 -0.08467,-0.254 z"
         id="path453"
         style="fill:#ffffff" />
      <path
         d="m 42.330297,78.847188 q 0.804333,-1.777999 1.185332,-2.920998 0.423333,-1.142999 0.550333,-1.777998 0.169334,-0.635 0.127,-0.889 0,-0.296333 0,-0.380999 -0.08467,0.169333 -0.08467,0.169333 -0.254,0.592666 -0.550333,1.354665 -0.254,0.762 -0.508,1.566333 -0.254,0.804332 -0.465666,1.566332 -0.169333,0.761999 -0.254,1.312332 z m 4.571997,-0.508 q -0.762,0.465667 -1.735666,1.100666 -0.931332,0.592667 -1.693332,0.931333 -0.507999,0.254 -1.058332,0.254 -1.227666,-0.04233 -1.143,-1.354666 0.211667,-1.693332 0.635,-3.174998 0.465666,-1.481665 1.142999,-2.963331 0.08467,-0.211666 0.169333,-0.423333 0.127,-0.253999 0.254,-0.465666 0.127,-0.254 0.338667,-0.465666 0.211666,-0.211667 0.507999,-0.211667 0.338667,0 0.508,0.296333 0.211666,0.338667 0.211666,0.973666 0,0.635 -0.127,1.142999 -0.550332,2.497665 -1.777998,4.86833 l -0.127,0.254 q 0.08467,0.127 0.211666,0.127 0.169334,-0.04233 0.254,-0.127 0.804333,-0.338667 1.650999,-0.931333 0.888999,-0.634999 1.693332,-1.100666 0.338666,-0.169333 0.550333,-0.211666 0.254,-0.08467 0.423333,0.08467 0.211666,0.169333 0.169333,0.423333 0,0.211666 -0.08467,0.634999 -0.296334,1.015999 -0.592667,2.031999 -0.253999,1.015999 -0.507999,2.031998 -0.338667,1.354666 -0.677333,2.709331 -0.338667,1.312333 -0.550333,2.666998 -0.08467,0.550333 -0.169333,1.058333 -0.08467,0.550333 -0.04233,1.100666 0,0.169333 0,0.338666 0,0.169333 0.169334,0.338666 0.08467,-0.04233 0.127,-0.04233 0.08467,0 0.169333,-0.08467 0.254,-0.211667 0.507999,-0.465667 0.296333,-0.211666 0.508,-0.507999 1.777999,-2.158999 3.217331,-4.571997 1.439332,-2.412998 2.793998,-4.783663 0.169333,-0.254 0.254,-0.338666 0.211666,-0.211667 0.423333,-0.08467 0.253999,0.127 0.211666,0.381 -0.08467,0.254 -0.254,0.550333 -0.846666,1.481665 -1.608665,2.793998 -0.719666,1.312332 -1.523999,2.539998 -0.761999,1.227665 -1.608665,2.370665 -0.846666,1.142999 -1.820332,2.285998 -0.254,0.254 -0.508,0.465666 -0.254,0.211667 -0.508,0.296333 -0.253999,0.08467 -0.550333,0 -0.253999,-0.08467 -0.507999,-0.423333 -0.338667,-0.465666 -0.338667,-1.058332 0,-0.338667 0,-0.719666 0,-0.338667 0.08467,-0.677333 0.338666,-2.412998 0.846666,-4.74133 0.550333,-2.370665 1.396999,-4.656663 0.08467,-0.254 0.08467,-0.338667 0.04233,-0.08467 0,-0.127 z"
         id="path455"
         style="fill:#ffffff" />
      <path
         d="m 61.337923,78.847188 q 0.804332,-1.777999 1.185332,-2.920998 0.423333,-1.142999 0.550333,-1.777998 0.169333,-0.635 0.127,-0.889 0,-0.296333 0,-0.380999 -0.08467,0.169333 -0.08467,0.169333 -0.254,0.592666 -0.550333,1.354665 -0.253999,0.762 -0.507999,1.566333 -0.254,0.804332 -0.465667,1.566332 -0.169333,0.761999 -0.253999,1.312332 z m 4.571996,-0.508 q -0.761999,0.465667 -1.735665,1.100666 -0.931333,0.592667 -1.693332,0.931333 -0.508,0.254 -1.058333,0.254 -1.227666,-0.04233 -1.142999,-1.354666 0.211667,-1.693332 0.635,-3.174998 0.465666,-1.481665 1.142999,-2.963331 0.08467,-0.211666 0.169333,-0.423333 0.127,-0.253999 0.254,-0.465666 0.127,-0.254 0.338666,-0.465666 0.211667,-0.211667 0.508,-0.211667 0.338666,0 0.507999,0.296333 0.211667,0.338667 0.211667,0.973666 0,0.635 -0.127,1.142999 -0.550333,2.497665 -1.777999,4.86833 l -0.127,0.254 q 0.08467,0.127 0.211667,0.127 0.169333,-0.04233 0.254,-0.127 0.804332,-0.338667 1.650999,-0.931333 0.888999,-0.634999 1.693332,-1.100666 0.338666,-0.169333 0.550333,-0.211666 0.253999,-0.08467 0.423333,0.08467 0.211666,0.169333 0.169333,0.423333 0,0.211666 -0.08467,0.634999 -0.296333,1.015999 -0.592666,2.031999 -0.254,1.015999 -0.508,2.031998 -0.338666,1.354666 -0.677333,2.709331 -0.338666,1.312333 -0.550332,2.666998 -0.08467,0.550333 -0.169334,1.058333 -0.08467,0.550333 -0.04233,1.100666 0,0.169333 0,0.338666 0,0.169333 0.169333,0.338666 0.08467,-0.04233 0.127,-0.04233 0.08467,0 0.169333,-0.08467 0.254,-0.211667 0.508,-0.465667 0.296333,-0.211666 0.508,-0.507999 1.777998,-2.158999 3.21733,-4.571997 1.439333,-2.412998 2.793998,-4.783663 0.169334,-0.254 0.254,-0.338666 0.211667,-0.211667 0.423333,-0.08467 0.254,0.127 0.211667,0.381 -0.08467,0.254 -0.254,0.550333 -0.846666,1.481665 -1.608666,2.793998 -0.719666,1.312332 -1.523998,2.539998 -0.762,1.227665 -1.608666,2.370665 -0.846666,1.142999 -1.820332,2.285998 -0.254,0.254 -0.507999,0.465666 -0.254,0.211667 -0.508,0.296333 -0.254,0.08467 -0.550333,0 -0.254,-0.08467 -0.508,-0.423333 -0.338666,-0.465666 -0.338666,-1.058332 0,-0.338667 0,-0.719666 0,-0.338667 0.08467,-0.677333 0.338666,-2.412998 0.846666,-4.74133 0.550333,-2.370665 1.396999,-4.656663 0.08467,-0.254 0.08467,-0.338667 0.04233,-0.08467 0,-0.127 z"
         id="path457"
         style="fill:#ffffff" />
      <path
         d="m 76.323907,73.640192 q -0.465666,0.423333 -0.973666,1.269999 -0.507999,0.804333 -1.269999,2.412998 -0.08467,0.211667 -0.211666,0.465667 -0.08467,0.211666 -0.127,0.550332 0.846666,-0.931332 1.481665,-1.904998 0.677333,-0.973666 1.100666,-2.074332 0.169333,-0.338666 0.08467,-0.634999 z m -5.672662,10.371659 q 0.04233,-0.804333 0.296333,-1.820332 0.211666,-1.058333 0.592666,-2.158998 0.381,-1.143 0.888999,-2.201332 0.550333,-1.100666 1.143,-2.074332 0.338666,-0.508 0.677332,-0.973666 0.338667,-0.507999 0.677333,-0.973666 0.127,-0.211666 0.254,-0.338666 0.169333,-0.169333 0.338666,-0.338667 0.211667,-0.211666 0.465667,-0.338666 0.761999,-0.338666 1.058332,0.508 0.127,0.465666 0,0.888999 -0.08467,0.211666 -0.169333,0.465666 -0.04233,0.211667 -0.127,0.423333 -0.973666,2.285999 -2.666998,4.063997 -0.211666,0.211667 -0.465666,0.423333 -0.254,0.169333 -0.508,0.381 -0.296333,0.211666 -0.338666,0.465666 -0.254,0.846666 -0.465666,1.735666 -0.211667,0.846666 -0.296334,1.735665 0,0.254 0,0.508 0.04233,0.253999 0.04233,0.507999 v 0.254 q 0.254,0.761999 0.973666,0.508 0.465666,-0.127 0.846666,-0.381 0.380999,-0.254 0.761999,-0.508 0.381,-0.254 0.719666,-0.550333 0.719666,-0.550333 1.354666,-1.142999 0.634999,-0.634999 1.269999,-1.269999 0.465666,-0.507999 0.931333,-1.015999 0.507999,-0.508 0.973666,-0.973666 0.126999,-0.127 0.465666,-0.381 0.296333,-0.127 0.507999,0.08467 0.296334,0.211666 0.08467,0.550333 -0.169333,0.254 -0.296333,0.381 -0.550333,0.592666 -1.100666,1.142999 -0.507999,0.507999 -1.058332,1.100666 -0.931333,0.973665 -1.904999,1.862665 -0.973666,0.888999 -2.074332,1.608665 -0.254,0.169333 -0.507999,0.296333 -0.254,0.169334 -0.550333,0.296333 -0.973666,0.465667 -1.650999,0 -0.719666,-0.423333 -0.973666,-1.227665 l -0.127,-0.635 q -0.04233,-0.211666 -0.04233,-0.423333 0,-0.254 0,-0.465666 z"
         id="path459"
         style="fill:#ffffff" />
      <path
         d="m 79.498928,84.77385 q 1.227666,-1.227665 2.412998,-2.455331 1.185333,-1.269999 2.285998,-2.582332 -0.211666,-0.211666 -0.423333,-0.296333 -0.169333,-0.08467 -0.380999,-0.169333 -0.508,-0.296333 -0.973666,0.08467 -0.381,0.338666 -0.719666,0.719666 -0.762,0.973666 -1.312333,2.074332 -0.507999,1.100665 -0.888999,2.285998 v 0.296333 z m 3.217331,3.936997 q -0.211667,0.127 -0.465666,0.338667 -0.211667,0.211666 -0.381,0.380999 -3.682997,3.386665 -6.942662,6.773329 -3.259664,3.428997 -5.545662,7.323658 -0.508,0.889 -0.931333,1.905 -0.423333,1.05833 -0.761999,2.032 -0.211667,0.67733 -0.296333,1.35467 -0.127,0.71966 -0.04233,1.43933 0.08467,0.46566 0.254,0.84666 0.381,0.97367 1.481666,1.05834 0.931332,0.0423 1.820332,-0.381 0.804332,-0.42334 1.650998,-1.10067 1.354666,-1.143 2.243665,-2.45533 1.016,-1.48167 1.862666,-3.048 0.804332,-1.524 1.523999,-3.13266 1.354665,-3.048 2.328331,-6.138331 1.015999,-3.090331 1.947332,-6.265329 0.04233,-0.08467 0.08467,-0.423333 0.08467,-0.296333 0.169333,-0.508 z m 2.116665,-9.609659 0.677333,-0.677333 q 0.169333,-0.169333 0.296333,-0.211666 0.211666,-0.08467 0.381,0.04233 0.169333,0.08467 0.169333,0.296333 0,0.211666 -0.04233,0.465666 0,0.211667 -0.04233,0.423333 -0.127,1.058333 -0.423333,2.074332 -0.254,1.015999 -0.550333,2.031999 -0.08467,0.380999 -0.211666,0.761999 -0.127,0.381 -0.211667,0.761999 -0.04233,0.08467 -0.04233,0.211667 0,0.08467 -0.04233,0.169333 0.127,0.08467 0.169333,0.04233 0.04233,-0.08467 0.127,-0.126999 1.142999,-0.931333 2.285998,-1.820332 1.142999,-0.889 2.370665,-1.735666 0.761999,-0.550333 1.523999,-1.058332 0.804333,-0.508 1.608665,-1.016 0.254,-0.169333 0.592666,-0.253999 0.211667,-0.04233 0.338667,-0.04233 0.169333,-0.04233 0.254,0.127 0.169333,0.296333 -0.04233,0.635 -0.08467,0.08467 -0.338666,0.254 -0.127,0.08467 -0.254,0.169333 -0.127,0.08467 -0.254,0.169333 -2.285998,1.481666 -4.444996,3.132664 -2.116665,1.608666 -4.23333,3.344331 -0.211667,0.211667 -0.338667,0.508 -0.127,0.296333 -0.211666,0.550333 -0.677333,2.243665 -1.396999,4.444996 -0.677333,2.201332 -1.481666,4.402664 -0.423333,1.185332 -0.846666,2.328331 -0.465666,1.185331 -0.931333,2.328331 -0.719666,1.86267 -1.608665,3.59833 -0.931333,1.73567 -2.074332,3.34433 -0.592666,0.80434 -1.227666,1.524 -0.634999,0.71967 -1.354665,1.35467 -0.381,0.33866 -0.762,0.635 -0.423333,0.33866 -0.888999,0.55033 -0.677333,0.33867 -1.354666,0.46567 -0.719666,0.127 -1.481665,-0.0423 -1.820332,-0.381 -2.285998,-2.24366 -0.211667,-0.71967 -0.169334,-1.48167 0.04233,-0.71966 0.211667,-1.43933 0.211666,-0.97367 0.550333,-1.86267 0.338666,-0.889 0.804333,-1.73566 0.846666,-1.651 1.904998,-3.175 1.015999,-1.523998 2.201332,-2.96333 2.539998,-3.047998 5.249329,-5.841996 2.709331,-2.751664 5.714996,-5.291662 0.507999,-0.423333 0.677333,-1.058333 l 1.523999,-5.587996 q 0,-0.04233 0.08467,-0.380999 l -0.465666,0.465666 q -0.762,0.846666 -1.523999,1.735665 -0.761999,0.889 -1.566332,1.735666 -0.423333,0.465666 -0.846666,0.888999 -0.423333,0.381 -0.889,0.804333 -0.126999,0.127 -0.253999,0.211666 -0.169334,0.127 -0.338667,0.211667 -0.719666,0.381 -1.015999,-0.423333 -0.169333,-0.381 -0.08467,-0.888999 0.04233,-0.254 0.08467,-0.508 0.04233,-0.254 0.127,-0.508 0.338666,-1.227665 0.846666,-2.328331 0.508,-1.142999 1.312332,-2.158999 0.296333,-0.338666 0.592667,-0.634999 0.296333,-0.338667 0.677332,-0.592666 0.592667,-0.381 1.269999,-0.338667 0.465667,0.04233 0.804333,0.296333 0.381,0.211667 0.719666,0.550333 0.127,0.127 0.296333,0.381 z"
         id="path461"
         style="fill:#ffffff" />
      <path
         d="m 91.436929,84.604517 q 0.211666,-0.211666 0.550333,-0.508 0.338666,-0.296333 0.677333,-0.592666 0.338666,-0.296333 0.634999,-0.550333 0.338667,-0.296333 0.550333,-0.465666 0.254,-0.254 0.423333,-0.338666 0.211667,-0.169334 0.423333,-0.08467 0.254,0.08467 0.338667,0.338666 0.08467,0.211667 0.04233,0.254 0,0.04233 0.08467,0.254 0.127,0.381 0.211667,0.761999 0.127,0.381 0.296333,0.762 0.08467,0.211666 0.211667,0.423333 0.169333,0.169333 0.338666,0.381 0.169333,0.211666 0.465666,0.296333 0.296333,0.04233 0.508,-0.127 0.296333,-0.169333 0.592666,-0.465666 0.465666,-0.465667 0.888999,-0.973666 0.423333,-0.550333 0.804333,-1.143 0.465666,-0.677332 0.762004,-1.185332 0.29633,-0.508 0.71966,-1.185332 0.16933,-0.338667 0.29633,-0.465667 0.254,-0.296333 0.59267,-0.08467 0.21167,0.169333 0.0847,0.507999 l -0.127,0.254 q -0.71967,1.142999 -1.35467,2.116665 -0.634997,0.973666 -1.481663,2.031999 -0.254,0.296333 -0.508,0.592666 -0.254,0.254 -0.550333,0.507999 -0.508,0.508 -1.142999,0.550333 -0.762,0.04233 -1.354666,-0.550333 -0.634999,-0.634999 -0.888999,-1.523998 -0.08467,-0.296334 -0.169333,-0.550333 -0.08467,-0.296333 -0.169334,-0.635 -0.169333,0.127 -0.423333,0.296333 l -1.650998,1.523999 q -0.211667,0.169333 -0.381,0.338667 -0.169333,0.169333 -0.381,0.338666 -0.465666,0.338666 -0.761999,0.08467 -0.338667,-0.254 -0.338667,-0.635 0,-0.254 0.04233,-0.381 0.08467,-0.211666 0.127,-0.423333 0.04233,-0.254 0.127,-0.465666 0.634999,-1.820332 1.650998,-3.386664 0.211667,-0.296333 0.423333,-0.550333 0.211667,-0.254 0.550333,-0.465666 0.762,-0.508 1.523999,-0.211667 0.338667,0.127 0.592666,0.381 0.338667,0.254 0.169334,0.634999 -0.127,0.296333 -0.465667,0.296333 -0.338666,0 -0.804333,-0.04233 -0.423333,-0.04233 -0.634999,0.211667 -0.127,0.127 -0.254,0.253999 -0.127,0.127 -0.211666,0.296334 -0.338667,0.507999 -0.635,1.185332 -0.296333,0.635 -0.592666,1.185332 -0.04233,0.08467 -0.211667,0.465667 -0.169333,0.338666 -0.211666,0.465666 z"
         id="path463"
         style="fill:#ffffff" />
      <path
         d="m 108.37022,59.924202 q -0.16934,0.254 -0.21167,0.381 -1.10067,2.836331 -1.905,5.630329 -0.59266,2.031999 -1.22766,4.063997 -0.59267,2.031999 -1.143,4.10633 l -0.127,0.635 q 0.254,-0.254 0.381,-0.592666 0.33866,-0.804333 0.71966,-1.566333 0.381,-0.761999 0.71967,-1.566332 0.71967,-1.735665 1.31233,-3.47133 0.635,-1.735666 1.10067,-3.555998 0.254,-0.973666 0.381,-1.989665 0.16933,-1.015999 0.127,-2.116665 z M 97.278892,99.12484 q 0.04233,-1.100666 0.169333,-2.074332 0.127,-0.931333 0.338666,-1.904999 0.338667,-1.608665 0.677333,-3.174997 0.338667,-1.566333 0.677333,-3.174998 0.846666,-4.10633 1.862663,-8.085661 0.97367,-3.97933 2.07433,-8.000994 0.508,-1.947332 1.143,-3.809997 0.635,-1.904998 1.27,-3.809997 0.93133,-2.920998 2.286,-5.714996 0.0847,-0.211666 0.16933,-0.380999 0.127,-0.169334 0.254,-0.338667 0.254,-0.296333 0.508,-0.211666 0.29634,0.04233 0.42334,0.423333 0.127,0.380999 0.127,0.761999 0.0423,0.635 -0.0423,1.269999 -0.0847,0.592666 -0.16933,1.185333 -0.254,1.777998 -0.762,3.47133 -0.508,1.650999 -1.10067,3.301998 -0.59266,1.523999 -1.26999,3.005664 -0.635,1.481666 -1.35467,2.963331 l -1.651,3.555998 q -0.33867,0.677333 -0.508,1.312332 -0.33867,1.481666 -0.71966,3.005665 -0.381,1.481665 -0.71967,2.963331 -0.33867,1.354665 -0.59267,2.666998 -0.254,1.312332 -0.592663,2.666998 -0.338667,1.354665 -0.635,2.666998 -0.296333,1.312332 -0.508,2.666998 -0.08467,0.677332 -0.126999,1.312332 -0.08467,0.677333 -0.169334,1.354666 -0.08467,0.846666 0.211667,1.48167 v 0.127 q 0.08467,0.33866 -0.211667,0.55033 -0.296333,0.21166 -0.550333,0 -0.423333,-0.254 -0.507999,-0.762 -0.04233,-0.21167 -0.04233,-0.465668 0,-0.211666 0,-0.423333 V 99.12484 Z"
         id="path465"
         style="fill:#ffffff" />
      <path
         d="m 107.69292,79.651521 q 0.55033,-0.677333 1.05833,-0.423333 0.508,0.211666 0.508,0.931332 0.0423,0.381 -0.0423,0.762 -0.0423,0.381 -0.127,0.761999 l -0.0847,0.465667 q 0.80434,-0.127 1.48167,-0.508 0.67733,-0.381 1.18533,-0.761999 0.508,-0.423333 0.84667,-0.804333 0.381,-0.381 0.55033,-0.508 0.21167,-0.169333 0.46567,-0.04233 0.29633,0.08467 0.127,0.423333 -0.127,0.254 -0.55034,0.719666 -0.42333,0.465666 -1.10066,0.973666 -0.67734,0.508 -1.524,0.973666 -0.84667,0.423333 -1.82033,0.592666 -0.21167,0.338667 -0.42334,0.677333 -0.21166,0.338666 -0.42333,0.677333 -0.29633,0.465666 -0.762,0.931332 -0.29633,0.296334 -0.67733,0.423333 -0.889,0.338667 -1.35467,-0.465666 -0.33866,-0.550333 -0.33866,-1.142999 -0.0847,-2.201332 0.93133,-4.063997 0.16933,-0.296333 0.46566,-0.592666 0.67734,-0.508 1.143,0.296333 0,0.04233 0.0847,0.211666 z m -0.127,3.471331 q -0.0847,-0.08467 -0.0847,-0.08467 -0.67733,-0.338666 -0.67733,-1.269999 v -0.254 q 0,-0.08467 0,-0.127 0.0423,-0.04233 -0.0847,-0.08467 -0.33866,0.719666 -0.508,1.439332 -0.16933,0.719666 -0.29633,1.439332 -0.0423,0.169333 -0.0423,0.338666 0,0.169334 0.127,0.381 0.59266,-0.338666 0.889,-0.804333 0.33866,-0.465666 0.67733,-0.931332 z m 0.84667,-3.174998 q -0.127,0 -0.127,0.04233 -0.46567,0.592666 -0.67734,1.396999 -0.0423,0.127 -0.0423,0.296333 0.0423,0.127 0.0423,0.296333 0,0.211667 0.254,0.254 0.16934,0.04233 0.254,-0.127 0.42334,-0.973666 0.42334,-1.862665 0,-0.08467 -0.0847,-0.254 z"
         id="path467"
         style="fill:#ffffff" />
    </g>
  </g>
</svg>
