<?xml version="1.0" encoding="UTF-8" standalone="no"?>
<!-- Created with Inkscape (http://www.inkscape.org/) -->

<svg
   width="157.07578mm"
   height="54.937172mm"
   viewBox="0 0 157.07577 54.937171"
   version="1.1"
   id="svg5"
   inkscape:version="1.2.2 (732a01da63, 2022-12-09)"
   sodipodi:docname="el_mejor_regalo.svg"
   xmlns:inkscape="http://www.inkscape.org/namespaces/inkscape"
   xmlns:sodipodi="http://sodipodi.sourceforge.net/DTD/sodipodi-0.dtd"
   xmlns="http://www.w3.org/2000/svg"
   xmlns:svg="http://www.w3.org/2000/svg">
  <sodipodi:namedview
     id="namedview7"
     pagecolor="#ffffff"
     bordercolor="#000000"
     borderopacity="0.25"
     inkscape:showpageshadow="2"
     inkscape:pageopacity="0.0"
     inkscape:pagecheckerboard="0"
     inkscape:deskcolor="#d1d1d1"
     inkscape:document-units="mm"
     showgrid="false"
     inkscape:zoom="0.48016975"
     inkscape:cx="1566.1128"
     inkscape:cy="235.33344"
     inkscape:window-width="2048"
     inkscape:window-height="1081"
     inkscape:window-x="1358"
     inkscape:window-y="-8"
     inkscape:window-maximized="1"
     inkscape:current-layer="layer1" />
  <defs
     id="defs2" />
  <g
     inkscape:label="Layer 1"
     inkscape:groupmode="layer"
     id="layer1"
     transform="translate(308.89927,-85.825463)">
    <g
       aria-label="es el mejor regalo"
       id="text301"
       style="font-size:42.3333px;font-family:'Prestige Signature Script  Demo';-inkscape-font-specification:'Prestige Signature Script  Demo';text-align:center;text-anchor:middle;fill:#ffffff;stroke-width:0.238125;stroke-linecap:round;stroke-linejoin:round">
      <path
         d="m -303.2266,101.04193 q -0.46567,0.42334 -0.97367,1.27 -0.508,0.80433 -1.27,2.413 -0.0847,0.21167 -0.21166,0.46567 -0.0847,0.21166 -0.127,0.55033 0.84666,-0.93133 1.48166,-1.905 0.67733,-0.97367 1.10067,-2.07433 0.16933,-0.33867 0.0847,-0.635 z m -5.67267,10.37166 q 0.0423,-0.80433 0.29634,-1.82033 0.21166,-1.05833 0.59266,-2.159 0.381,-1.143 0.889,-2.20133 0.55034,-1.10067 1.143,-2.07433 0.33867,-0.508 0.67733,-0.97367 0.33867,-0.508 0.67734,-0.97366 0.127,-0.21167 0.254,-0.33867 0.16933,-0.16933 0.33866,-0.33867 0.21167,-0.21166 0.46567,-0.33866 0.762,-0.338669 1.05833,0.508 0.127,0.46566 0,0.889 -0.0847,0.21166 -0.16933,0.46566 -0.0423,0.21167 -0.127,0.42334 -0.97367,2.28599 -2.667,4.06399 -0.21166,0.21167 -0.46566,0.42334 -0.254,0.16933 -0.508,0.38099 -0.29634,0.21167 -0.33867,0.46567 -0.254,0.84667 -0.46567,1.73567 -0.21166,0.84666 -0.29633,1.73566 0,0.254 0,0.508 0.0423,0.254 0.0423,0.508 v 0.254 q 0.254,0.762 0.97367,0.508 0.46567,-0.127 0.84667,-0.381 0.38099,-0.254 0.76199,-0.508 0.381,-0.254 0.71967,-0.55033 0.71967,-0.55033 1.35467,-1.143 0.635,-0.635 1.27,-1.27 0.46566,-0.508 0.93133,-1.016 0.508,-0.508 0.97366,-0.97366 0.127,-0.127 0.46567,-0.381 0.29633,-0.127 0.508,0.0847 0.29633,0.21167 0.0847,0.55033 -0.16934,0.254 -0.29634,0.381 -0.55033,0.59267 -1.10066,1.143 -0.508,0.508 -1.05833,1.10067 -0.93134,0.97367 -1.905,1.86266 -0.97367,0.889 -2.07434,1.60867 -0.254,0.16933 -0.50799,0.29633 -0.254,0.16934 -0.55034,0.29634 -0.97366,0.46566 -1.651,0 -0.71966,-0.42334 -0.97366,-1.22767 l -0.127,-0.635 q -0.0423,-0.21167 -0.0423,-0.42333 0,-0.254 0,-0.46567 z"
         id="path400" />
      <path
         d="m -296.28392,116.28192 q -0.0847,0.0847 -0.127,0.127 -0.0423,0.0847 -0.0847,0.16933 l -0.889,1.143 q -0.97366,1.35467 -1.86266,2.667 -0.889,1.35467 -1.651,2.83633 -0.254,0.508 -0.46567,1.016 -0.254,0.55034 -0.46566,1.05833 -0.0423,0.0847 -0.0423,0.33867 0.84667,-0.46567 1.94734,-1.73566 1.10066,-1.27 1.94733,-2.794 0.80433,-1.397 1.27,-2.75167 0.508,-1.35466 0.42333,-2.032 z m 0.16933,-12.65766 q -1.27,0.97367 -1.98966,2.45534 -0.42334,0.84666 0.29633,1.56633 l 1.016,1.143 q 1.35467,1.60866 1.69333,3.80999 l 0.127,0.635 q 0.16933,0.0423 0.21167,-0.0423 0.0423,-0.127 0.127,-0.21167 1.05833,-1.26999 2.159,-2.45533 1.143,-1.22766 2.32833,-2.413 0.254,-0.254 0.508,-0.508 0.29633,-0.254 0.59266,-0.50799 0.29634,-0.254 0.55034,-0.0423 0.254,0.21167 0,0.55033 -0.127,0.16934 -0.29634,0.33867 -0.127,0.127 -0.29633,0.29633 -1.35467,1.35467 -2.70933,2.75167 -1.31233,1.35466 -2.54,2.83633 -0.0847,0.0847 -0.127,0.127 -0.0423,0.0847 -0.127,0.16933 -0.381,0.381 -0.46566,1.05834 -0.127,1.35466 -0.508,2.58233 -0.33867,1.27 -0.93134,2.49766 -0.635,1.35467 -1.48166,2.58233 -0.80434,1.22767 -1.905,2.24367 -0.635,0.635 -1.397,1.143 -0.29633,0.16933 -0.71967,0.254 -0.762,0.127 -0.762,-0.67734 0,-0.21166 0.0847,-0.46566 0.0847,-0.33867 0.21167,-0.635 0.0847,-0.29633 0.21166,-0.59267 0.29634,-0.71966 0.67734,-1.397 0.33866,-0.67733 0.762,-1.35466 1.016,-1.73567 2.15899,-3.34433 1.143,-1.60867 2.37067,-3.175 0.42333,-0.55033 0.42333,-1.22767 -0.0847,-1.31233 -0.42333,-2.37066 -0.381,-1.10067 -1.22767,-2.032 -0.21166,-0.21167 -0.42333,-0.42333 -0.16933,-0.254 -0.381,-0.46567 -0.16933,-0.16933 -0.33867,-0.29633 -0.127,-0.16934 -0.254,-0.381 -0.50799,-0.67733 -0.16933,-1.56633 0.21167,-0.55034 0.508,-0.97367 0.889,-1.35467 2.20133,-2.286 0.33867,-0.29633 0.71967,-0.33866 0.635,-0.127 0.71967,0.55033 0,0.254 -0.127,0.508 -0.21167,0.42333 -0.67734,0.127 -0.0847,-0.0423 -0.127,-0.0847 -0.0423,-0.0423 -0.127,-0.127 z"
         id="path402" />
      <path
         d="m -277.23394,101.04193 q -0.46567,0.42334 -0.97367,1.27 -0.508,0.80433 -1.27,2.413 -0.0847,0.21167 -0.21166,0.46567 -0.0847,0.21166 -0.127,0.55033 0.84666,-0.93133 1.48166,-1.905 0.67733,-0.97367 1.10067,-2.07433 0.16933,-0.33867 0.0847,-0.635 z m -5.67267,10.37166 q 0.0423,-0.80433 0.29634,-1.82033 0.21166,-1.05833 0.59266,-2.159 0.381,-1.143 0.889,-2.20133 0.55034,-1.10067 1.143,-2.07433 0.33867,-0.508 0.67734,-0.97367 0.33866,-0.508 0.67733,-0.97366 0.127,-0.21167 0.254,-0.33867 0.16933,-0.16933 0.33866,-0.33867 0.21167,-0.21166 0.46567,-0.33866 0.762,-0.338669 1.05833,0.508 0.127,0.46566 0,0.889 -0.0847,0.21166 -0.16933,0.46566 -0.0423,0.21167 -0.127,0.42334 -0.97367,2.28599 -2.667,4.06399 -0.21166,0.21167 -0.46566,0.42334 -0.254,0.16933 -0.508,0.38099 -0.29634,0.21167 -0.33867,0.46567 -0.254,0.84667 -0.46567,1.73567 -0.21166,0.84666 -0.29633,1.73566 0,0.254 0,0.508 0.0423,0.254 0.0423,0.508 v 0.254 q 0.254,0.762 0.97367,0.508 0.46567,-0.127 0.84667,-0.381 0.381,-0.254 0.762,-0.508 0.38099,-0.254 0.71966,-0.55033 0.71967,-0.55033 1.35467,-1.143 0.635,-0.635 1.27,-1.27 0.46566,-0.508 0.93133,-1.016 0.508,-0.508 0.97366,-0.97366 0.127,-0.127 0.46567,-0.381 0.29633,-0.127 0.508,0.0847 0.29633,0.21167 0.0847,0.55033 -0.16934,0.254 -0.29634,0.381 -0.55033,0.59267 -1.10066,1.143 -0.508,0.508 -1.05833,1.10067 -0.93134,0.97367 -1.905,1.86266 -0.97367,0.889 -2.07433,1.60867 -0.254,0.16933 -0.508,0.29633 -0.254,0.16934 -0.55034,0.29634 -0.97366,0.46566 -1.651,0 -0.71966,-0.42334 -0.97366,-1.22767 l -0.127,-0.635 q -0.0423,-0.21167 -0.0423,-0.42333 0,-0.254 0,-0.46567 z"
         id="path404" />
      <path
         d="m -266.10026,87.325943 q -0.16933,0.254 -0.21167,0.381 -1.10066,2.836331 -1.905,5.630329 -0.59266,2.031999 -1.22766,4.063997 -0.59267,2.031999 -1.143,4.106331 l -0.127,0.635 q 0.254,-0.254 0.381,-0.59267 0.33866,-0.80433 0.71966,-1.56633 0.381,-0.761999 0.71967,-1.566332 0.71967,-1.735665 1.31233,-3.47133 0.635,-1.735666 1.10067,-3.555998 0.254,-0.973666 0.381,-1.989665 0.16933,-1.015999 0.127,-2.116665 z m -11.09133,39.200637 q 0.0423,-1.10067 0.16934,-2.07433 0.127,-0.93133 0.33866,-1.905 0.33867,-1.60867 0.67734,-3.175 0.33866,-1.56633 0.67733,-3.175 0.84666,-4.10633 1.86266,-8.08566 0.97367,-3.97933 2.07434,-8.00099 0.508,-1.947331 1.143,-3.809997 0.63499,-1.904998 1.26999,-3.809997 0.93134,-2.920998 2.286,-5.714996 0.0847,-0.211666 0.16934,-0.380999 0.127,-0.169334 0.254,-0.338667 0.254,-0.296333 0.508,-0.211666 0.29633,0.04233 0.42333,0.423333 0.127,0.380999 0.127,0.761999 0.0423,0.635 -0.0423,1.269999 -0.0847,0.592666 -0.16933,1.185333 -0.254,1.777998 -0.762,3.47133 -0.508,1.650999 -1.10066,3.301998 -0.59267,1.523999 -1.27,3.005664 -0.635,1.481666 -1.35467,2.963336 l -1.651,3.55599 q -0.33866,0.67734 -0.508,1.31234 -0.33866,1.48166 -0.71966,3.00566 -0.381,1.48167 -0.71967,2.96333 -0.33867,1.35467 -0.59267,2.667 -0.254,1.31233 -0.59266,2.667 -0.33867,1.35466 -0.635,2.66699 -0.29633,1.31234 -0.508,2.667 -0.0847,0.67734 -0.127,1.31233 -0.0847,0.67734 -0.16933,1.35467 -0.0847,0.84667 0.21166,1.48167 v 0.127 q 0.0847,0.33866 -0.21166,0.55033 -0.29634,0.21167 -0.55034,0 -0.42333,-0.254 -0.508,-0.762 -0.0423,-0.21167 -0.0423,-0.46567 0,-0.21166 0,-0.42333 v -0.381 z"
         id="path406" />
      <path
         d="m -252.34193,108.95826 q -0.59266,0.93133 -1.27,1.69333 -0.635,0.762 -1.35466,1.48167 -0.29634,0.29633 -0.67734,0.29633 -0.33866,-0.0423 -0.59266,-0.508 -0.381,-0.55033 -0.29634,-1.31233 0.0423,-0.46567 0.0423,-0.67733 0.0423,-0.254 0.0847,-0.71967 0,-0.254 -0.0847,-0.254 -0.0423,0 -0.0847,0.0423 -0.59266,0.80434 -1.143,1.60867 -0.55033,0.762 -1.10066,1.56633 l -1.651,2.54 -0.635,1.016 q -0.0423,0.0847 -0.0847,0.0847 -0.0423,0 -0.0847,0.0847 -0.21166,0.254 -0.46566,0.127 -0.29633,-0.127 -0.42333,-0.42333 -0.127,-0.29633 -0.0423,-0.635 0.0847,-0.762 0.254,-1.524 0.127,-0.71967 0.29634,-1.43933 l 1.01599,-4.699 q 0.0847,-0.381 0.21167,-0.762 0.0847,-0.381 0.21167,-0.762 0.254,-0.635 0.508,-0.59266 0.29633,0 0.42333,0.0847 0.21167,0.21167 0.254,0.71967 0.0423,0.46567 -0.0423,0.71967 -0.127,0.63499 -0.254,1.26999 -0.127,0.635 -0.29634,1.27 -0.21166,0.97367 -0.46566,1.98967 -0.254,0.97366 -0.508,1.94733 v 0.16933 q 0.0847,-0.0847 0.254,-0.381 0.21166,-0.29633 0.29633,-0.381 l 2.54,-3.80999 q 0.29633,-0.42334 0.59266,-0.80434 0.29634,-0.381 0.59267,-0.76199 0.21167,-0.254 0.46567,-0.46567 0.21166,-0.21167 0.381,-0.127 0.21166,0.0423 0.29633,0.29633 0.127,0.381 0.127,0.762 0,0.508 -0.0423,1.016 0,0.508 -0.0423,1.016 v 1.016 q 0,0.16933 0.0847,0.16933 0.127,-0.0423 0.21167,-0.127 l 0.889,-1.016 1.77799,-2.286 q 0.0847,-0.16933 0.16934,-0.21166 0.254,-0.0847 0.381,-0.0847 0.21166,0 0.21166,0.254 0,0.46567 0.0847,0.889 0.127,0.381 0.29633,0.80433 0.29634,0.67734 0.80434,0.97367 0.55033,0.29633 1.27,-0.16933 0.254,-0.16934 0.508,-0.29634 0.254,-0.16933 0.46566,-0.381 0.508,-0.46566 0.93133,-0.93133 0.46567,-0.508 0.80434,-1.10066 0.0847,-0.16934 0.33866,-0.508 0.0847,-0.0847 0.254,-0.0847 0.21167,0 0.29634,0.0847 0.254,0.16933 0.0847,0.508 l -0.127,0.25399 q -1.05833,1.778 -2.58233,2.87867 -0.33866,0.254 -0.71966,0.46567 -0.381,0.21166 -0.80434,0.29633 -0.42333,0.0847 -0.80433,0 -0.381,-0.127 -0.71967,-0.508 -0.508,-0.59267 -0.67733,-1.143 -0.0423,-0.127 -0.127,-0.254 -0.0423,-0.16933 -0.127,-0.254 -0.0847,-0.127 -0.16933,-0.127 -0.0847,-0.0423 -0.21167,0.127 z"
         id="path408" />
      <path
         d="m -241.67396,101.04193 q -0.46567,0.42334 -0.97367,1.27 -0.508,0.80433 -1.27,2.413 -0.0847,0.21167 -0.21166,0.46567 -0.0847,0.21166 -0.127,0.55033 0.84666,-0.93133 1.48166,-1.905 0.67734,-0.97367 1.10067,-2.07433 0.16933,-0.33867 0.0847,-0.635 z m -5.67266,10.37166 q 0.0423,-0.80433 0.29633,-1.82033 0.21167,-1.05833 0.59267,-2.159 0.381,-1.143 0.889,-2.20133 0.55033,-1.10067 1.14299,-2.07433 0.33867,-0.508 0.67734,-0.97367 0.33866,-0.508 0.67733,-0.97366 0.127,-0.21167 0.254,-0.33867 0.16933,-0.16933 0.33867,-0.33867 0.21166,-0.21166 0.46566,-0.33866 0.762,-0.338669 1.05834,0.508 0.127,0.46566 0,0.889 -0.0847,0.21166 -0.16934,0.46566 -0.0423,0.21167 -0.127,0.42334 -0.97366,2.28599 -2.667,4.06399 -0.21166,0.21167 -0.46566,0.42334 -0.254,0.16933 -0.508,0.38099 -0.29633,0.21167 -0.33867,0.46567 -0.254,0.84667 -0.46566,1.73567 -0.21167,0.84666 -0.29634,1.73566 0,0.254 0,0.508 0.0423,0.254 0.0423,0.508 v 0.254 q 0.254,0.762 0.97366,0.508 0.46567,-0.127 0.84667,-0.381 0.381,-0.254 0.762,-0.508 0.381,-0.254 0.71966,-0.55033 0.71967,-0.55033 1.35467,-1.143 0.635,-0.635 1.27,-1.27 0.46566,-0.508 0.93133,-1.016 0.508,-0.508 0.97367,-0.97366 0.127,-0.127 0.46566,-0.381 0.29634,-0.127 0.508,0.0847 0.29634,0.21167 0.0847,0.55033 -0.16933,0.254 -0.29633,0.381 -0.55034,0.59267 -1.10067,1.143 -0.508,0.508 -1.05833,1.10067 -0.93133,0.97367 -1.905,1.86266 -0.97367,0.889 -2.07433,1.60867 -0.254,0.16933 -0.508,0.29633 -0.254,0.16934 -0.55033,0.29634 -0.97367,0.46566 -1.651,0 -0.71967,-0.42334 -0.97367,-1.22767 l -0.127,-0.635 q -0.0423,-0.21167 -0.0423,-0.42333 0,-0.254 0,-0.46567 z"
         id="path410" />
      <path
         d="m -236.55162,103.75126 q -0.33866,0 -0.508,-0.254 -0.29633,-0.254 -0.0847,-0.59266 0.46566,-0.80433 1.18533,-1.22767 0.33867,-0.21166 0.67733,0 0.33867,0.16934 0.29634,0.635 -0.0423,0.0847 -0.0847,0.21167 0,0.0847 -0.0847,0.16933 -0.381,0.46567 -0.84666,0.84667 -0.254,0.254 -0.55034,0.21166 z m 7.19667,3.34434 q 0.127,0.29633 -0.0423,0.46566 -0.254,0.254 -0.42333,0.33867 -1.82033,1.18533 -3.34433,2.37066 -1.524,1.143 -3.13267,2.24367 l -1.86266,1.43933 q -0.381,0.254 -0.508,0.762 -0.59267,2.032 -1.143,4.064 -0.59267,2.03199 -1.18533,4.06399 -0.71967,2.37067 -1.43933,4.65667 -0.71967,2.32833 -1.651,4.61433 -0.46567,1.10066 -0.93134,2.20133 -0.508,1.10066 -1.14299,2.11666 -0.21167,0.33867 -0.42334,0.67734 -0.254,0.33866 -0.508,0.67733 -1.22766,1.397 -2.83633,1.778 -2.62466,0.59266 -4.23333,-1.397 -1.31233,-1.56633 -1.18533,-3.64067 0.127,-1.56633 0.71966,-3.21733 0.59267,-1.651 1.48167,-3.17499 0.84667,-1.48167 1.86267,-2.87867 0.84666,-1.143 1.82033,-2.24366 0.93133,-1.05834 1.905,-2.11667 1.60866,-1.69333 3.47133,-3.302 1.82033,-1.60866 3.64066,-3.04799 0.42333,-0.33867 0.55033,-0.46567 0.0847,-0.127 0.21167,-0.59267 l 1.905,-6.64632 q 0.21167,-0.59267 0.42333,-0.762 0.21167,-0.21167 0.381,-0.127 0.16933,0.0423 0.254,0.29633 0.0847,0.21167 0.0423,0.46567 -0.0847,0.381 -0.16933,0.76199 -0.0423,0.381 -0.127,0.762 l -1.016,3.81 q -0.0423,0.0847 -0.0423,0.16933 0,0.0847 -0.0423,0.21167 l 0.46566,-0.29633 q 2.07433,-1.43933 3.34433,-2.37067 1.31234,-0.93133 2.07433,-1.48166 0.762,-0.59267 1.143,-0.889 0.381,-0.29633 0.71967,-0.508 0.21167,-0.127 0.46567,-0.127 0.29633,-0.0423 0.42333,0.254 z m -14.90133,21.71698 q 1.10067,-3.175 2.07434,-6.43466 0.93133,-3.25967 1.69333,-6.51933 -0.21167,0.127 -0.254,0.16933 -0.0847,0.0847 -0.16934,0.16933 -1.77799,1.43934 -3.55599,3.00567 -1.82033,1.60866 -3.34433,3.25966 -1.05834,1.143 -2.032,2.32834 -1.016,1.18533 -1.86267,2.49766 -0.71966,1.10067 -1.27,2.20133 -0.59266,1.10067 -1.05833,2.32833 -0.46567,1.35467 -0.55033,2.83633 -0.0847,1.60867 0.84666,2.75167 0.635,0.84667 1.651,1.10066 1.016,0.29634 2.159,-0.0423 0.80433,-0.21166 1.397,-0.71966 0.55033,-0.46567 0.97367,-1.143 0.46566,-0.71967 0.889,-1.60867 0.71966,-1.48166 1.31233,-3.048 0.55033,-1.524 1.10066,-3.13266 z"
         id="path412" />
      <path
         d="m -229.05864,107.05326 q 0.55033,-0.67733 1.05833,-0.42333 0.508,0.21167 0.508,0.93133 0.0423,0.381 -0.0423,0.762 -0.0423,0.381 -0.127,0.762 l -0.0847,0.46567 q 0.80434,-0.127 1.48167,-0.508 0.67733,-0.381 1.18533,-0.762 0.508,-0.42334 0.84667,-0.80434 0.381,-0.38099 0.55033,-0.50799 0.21167,-0.16934 0.46567,-0.0423 0.29633,0.0847 0.127,0.42333 -0.127,0.254 -0.55034,0.71967 -0.42333,0.46567 -1.10066,0.97367 -0.67734,0.508 -1.524,0.97366 -0.84667,0.42334 -1.82033,0.59267 -0.21167,0.33867 -0.42334,0.67733 -0.21166,0.33867 -0.42333,0.67733 -0.29633,0.46567 -0.762,0.93134 -0.29633,0.29633 -0.67733,0.42333 -0.889,0.33867 -1.35467,-0.46567 -0.33866,-0.55033 -0.33866,-1.14299 -0.0847,-2.20134 0.93133,-4.064 0.16933,-0.29634 0.46566,-0.59267 0.67734,-0.508 1.143,0.29633 0,0.0423 0.0847,0.21167 z m -0.127,3.47133 q -0.0847,-0.0847 -0.0847,-0.0847 -0.67733,-0.33867 -0.67733,-1.27 v -0.254 q 0,-0.0847 0,-0.127 0.0423,-0.0423 -0.0847,-0.0847 -0.33866,0.71967 -0.508,1.43933 -0.16933,0.71967 -0.29633,1.43934 -0.0423,0.16933 -0.0423,0.33866 0,0.16933 0.127,0.381 0.59266,-0.33867 0.889,-0.80433 0.33866,-0.46567 0.67733,-0.93133 z m 0.84667,-3.175 q -0.127,0 -0.127,0.0423 -0.46567,0.59266 -0.67734,1.397 -0.0423,0.127 -0.0423,0.29633 0.0423,0.127 0.0423,0.29633 0,0.21167 0.254,0.254 0.16934,0.0423 0.254,-0.127 0.42334,-0.97366 0.42334,-1.86266 0,-0.0847 -0.0847,-0.254 z"
         id="path414" />
      <path
         d="m -223.21668,106.24893 q 0.80433,-1.778 1.18533,-2.921 0.42333,-1.143 0.55033,-1.778 0.16933,-0.635 0.127,-0.889 0,-0.29633 0,-0.381 -0.0847,0.16934 -0.0847,0.16934 -0.254,0.59266 -0.55033,1.35466 -0.254,0.762 -0.508,1.56633 -0.254,0.80434 -0.46567,1.56634 -0.16933,0.762 -0.25399,1.31233 z m 4.57199,-0.508 q -0.762,0.46567 -1.73566,1.10067 -0.93134,0.59266 -1.69334,0.93133 -0.508,0.254 -1.05833,0.254 -1.22766,-0.0423 -1.143,-1.35467 0.21167,-1.69333 0.635,-3.175 0.46567,-1.48166 1.143,-2.96333 0.0847,-0.21166 0.16933,-0.42333 0.127,-0.253999 0.254,-0.465666 0.127,-0.254 0.33867,-0.465666 0.21167,-0.211667 0.508,-0.211667 0.33867,0 0.508,0.296333 0.21167,0.338667 0.21167,0.973666 0,0.635 -0.127,1.143 -0.55034,2.49766 -1.778,4.86833 l -0.127,0.254 q 0.0847,0.127 0.21166,0.127 0.16934,-0.0423 0.254,-0.127 0.80434,-0.33867 1.651,-0.93133 0.889,-0.635 1.69334,-1.10067 0.33866,-0.16933 0.55033,-0.21167 0.254,-0.0847 0.42333,0.0847 0.21167,0.16933 0.16933,0.42333 0,0.21167 -0.0847,0.635 -0.29634,1.016 -0.59267,2.032 -0.254,1.016 -0.508,2.032 -0.33866,1.35467 -0.67733,2.70933 -0.33867,1.31233 -0.55033,2.667 -0.0847,0.55033 -0.16934,1.05833 -0.0847,0.55033 -0.0423,1.10067 0,0.16933 0,0.33866 0,0.16934 0.16933,0.33867 0.0847,-0.0423 0.127,-0.0423 0.0847,0 0.16934,-0.0847 0.254,-0.21167 0.508,-0.46567 0.29633,-0.21166 0.508,-0.508 1.77799,-2.15899 3.21733,-4.57199 1.43933,-2.413 2.79399,-4.78366 0.16934,-0.254 0.254,-0.33867 0.21167,-0.21167 0.42334,-0.0847 0.254,0.127 0.21166,0.381 -0.0847,0.254 -0.254,0.55033 -0.84666,1.48167 -1.60866,2.794 -0.71967,1.31233 -1.524,2.54 -0.762,1.22767 -1.60867,2.37067 -0.84666,1.14299 -1.82033,2.28599 -0.254,0.254 -0.508,0.46567 -0.254,0.21167 -0.508,0.29633 -0.254,0.0847 -0.55033,0 -0.254,-0.0847 -0.508,-0.42333 -0.33867,-0.46567 -0.33867,-1.05833 0,-0.33867 0,-0.71967 0,-0.33866 0.0847,-0.67733 0.33867,-2.413 0.84667,-4.74133 0.55033,-2.37067 1.397,-4.65666 0.0847,-0.254 0.0847,-0.33867 0.0423,-0.0847 0,-0.127 z"
         id="path416" />
      <path
         d="m -204.20906,106.24893 q 0.80434,-1.778 1.18534,-2.921 0.42333,-1.143 0.55033,-1.778 0.16933,-0.635 0.127,-0.889 0,-0.29633 0,-0.381 -0.0847,0.16934 -0.0847,0.16934 -0.254,0.59266 -0.55033,1.35466 -0.254,0.762 -0.508,1.56633 -0.254,0.80434 -0.46567,1.56634 -0.16933,0.762 -0.254,1.31233 z m 4.572,-0.508 q -0.762,0.46567 -1.73566,1.10067 -0.93134,0.59266 -1.69334,0.93133 -0.508,0.254 -1.05833,0.254 -1.22766,-0.0423 -1.143,-1.35467 0.21167,-1.69333 0.635,-3.175 0.46567,-1.48166 1.143,-2.96333 0.0847,-0.21166 0.16933,-0.42333 0.127,-0.253999 0.254,-0.465666 0.127,-0.254 0.33867,-0.465666 0.21167,-0.211667 0.508,-0.211667 0.33867,0 0.508,0.296333 0.21167,0.338667 0.21167,0.973666 0,0.635 -0.127,1.143 -0.55034,2.49766 -1.778,4.86833 l -0.127,0.254 q 0.0847,0.127 0.21166,0.127 0.16934,-0.0423 0.254,-0.127 0.80434,-0.33867 1.651,-0.93133 0.889,-0.635 1.69333,-1.10067 0.33867,-0.16933 0.55034,-0.21167 0.254,-0.0847 0.42333,0.0847 0.21167,0.16933 0.16933,0.42333 0,0.21167 -0.0847,0.635 -0.29634,1.016 -0.59267,2.032 -0.254,1.016 -0.508,2.032 -0.33867,1.35467 -0.67733,2.70933 -0.33867,1.31233 -0.55033,2.667 -0.0847,0.55033 -0.16934,1.05833 -0.0847,0.55033 -0.0423,1.10067 0,0.16933 0,0.33866 0,0.16934 0.16933,0.33867 0.0847,-0.0423 0.127,-0.0423 0.0847,0 0.16934,-0.0847 0.254,-0.21167 0.50799,-0.46567 0.29634,-0.21166 0.508,-0.508 1.778,-2.15899 3.21734,-4.57199 1.43933,-2.413 2.79399,-4.78366 0.16934,-0.254 0.254,-0.33867 0.21167,-0.21167 0.42334,-0.0847 0.254,0.127 0.21166,0.381 -0.0847,0.254 -0.254,0.55033 -0.84666,1.48167 -1.60866,2.794 -0.71967,1.31233 -1.524,2.54 -0.762,1.22767 -1.60867,2.37067 -0.84666,1.14299 -1.82033,2.28599 -0.254,0.254 -0.508,0.46567 -0.254,0.21167 -0.508,0.29633 -0.254,0.0847 -0.55033,0 -0.254,-0.0847 -0.508,-0.42333 -0.33867,-0.46567 -0.33867,-1.05833 0,-0.33867 0,-0.71967 0,-0.33866 0.0847,-0.67733 0.33867,-2.413 0.84667,-4.74133 0.55033,-2.37067 1.39699,-4.65666 0.0847,-0.254 0.0847,-0.33867 0.0423,-0.0847 0,-0.127 z"
         id="path418" />
      <path
         d="m -189.22307,101.04193 q -0.46567,0.42334 -0.97367,1.27 -0.508,0.80433 -1.27,2.413 -0.0847,0.21167 -0.21166,0.46567 -0.0847,0.21166 -0.127,0.55033 0.84666,-0.93133 1.48166,-1.905 0.67734,-0.97367 1.10067,-2.07433 0.16933,-0.33867 0.0847,-0.635 z m -5.67266,10.37166 q 0.0423,-0.80433 0.29633,-1.82033 0.21167,-1.05833 0.59267,-2.159 0.381,-1.143 0.889,-2.20133 0.55033,-1.10067 1.14299,-2.07433 0.33867,-0.508 0.67734,-0.97367 0.33866,-0.508 0.67733,-0.97366 0.127,-0.21167 0.254,-0.33867 0.16933,-0.16933 0.33867,-0.33867 0.21166,-0.21166 0.46566,-0.33866 0.762,-0.338669 1.05834,0.508 0.127,0.46566 0,0.889 -0.0847,0.21166 -0.16934,0.46566 -0.0423,0.21167 -0.127,0.42334 -0.97366,2.28599 -2.667,4.06399 -0.21166,0.21167 -0.46566,0.42334 -0.254,0.16933 -0.508,0.38099 -0.29633,0.21167 -0.33867,0.46567 -0.254,0.84667 -0.46566,1.73567 -0.21167,0.84666 -0.29634,1.73566 0,0.254 0,0.508 0.0423,0.254 0.0423,0.508 v 0.254 q 0.254,0.762 0.97366,0.508 0.46567,-0.127 0.84667,-0.381 0.381,-0.254 0.762,-0.508 0.381,-0.254 0.71966,-0.55033 0.71967,-0.55033 1.35467,-1.143 0.635,-0.635 1.27,-1.27 0.46566,-0.508 0.93133,-1.016 0.508,-0.508 0.97367,-0.97366 0.127,-0.127 0.46566,-0.381 0.29634,-0.127 0.508,0.0847 0.29634,0.21167 0.0847,0.55033 -0.16933,0.254 -0.29633,0.381 -0.55034,0.59267 -1.10067,1.143 -0.508,0.508 -1.05833,1.10067 -0.93134,0.97367 -1.905,1.86266 -0.97367,0.889 -2.07433,1.60867 -0.254,0.16933 -0.508,0.29633 -0.254,0.16934 -0.55034,0.29634 -0.97366,0.46566 -1.65099,0 -0.71967,-0.42334 -0.97367,-1.22767 l -0.127,-0.635 q -0.0423,-0.21167 -0.0423,-0.42333 0,-0.254 0,-0.46567 z"
         id="path420" />
      <path
         d="m -186.04805,112.17559 q 1.22767,-1.22766 2.413,-2.45533 1.18533,-1.27 2.286,-2.58233 -0.21167,-0.21167 -0.42334,-0.29633 -0.16933,-0.0847 -0.381,-0.16934 -0.508,-0.29633 -0.97366,0.0847 -0.381,0.33867 -0.71967,0.71966 -0.762,0.97367 -1.31233,2.07434 -0.508,1.10066 -0.889,2.28599 v 0.29634 z m 3.21733,3.937 q -0.21167,0.127 -0.46567,0.33866 -0.21166,0.21167 -0.381,0.381 -3.68299,3.38667 -6.94266,6.77333 -3.25966,3.429 -5.54566,7.32366 -0.508,0.889 -0.93133,1.905 -0.42333,1.05834 -0.762,2.032 -0.21167,0.67733 -0.29633,1.35467 -0.127,0.71966 -0.0423,1.43933 0.0847,0.46567 0.254,0.84666 0.381,0.97367 1.48167,1.05834 0.93133,0.0423 1.82033,-0.381 0.80433,-0.42334 1.651,-1.10067 1.35466,-1.143 2.24366,-2.45533 1.016,-1.48167 1.86267,-3.048 0.80433,-1.524 1.524,-3.13266 1.35466,-3.048 2.32833,-6.13833 1.016,-3.09033 1.94733,-6.26533 0.0423,-0.0847 0.0847,-0.42333 0.0847,-0.29634 0.16933,-0.508 z m 2.11667,-9.60966 0.67733,-0.67733 q 0.16933,-0.16934 0.29633,-0.21167 0.21167,-0.0847 0.381,0.0423 0.16933,0.0847 0.16933,0.29634 0,0.21166 -0.0423,0.46566 0,0.21167 -0.0423,0.42334 -0.127,1.05833 -0.42333,2.07433 -0.254,1.016 -0.55034,2.032 -0.0847,0.381 -0.21166,0.762 -0.127,0.38099 -0.21167,0.76199 -0.0423,0.0847 -0.0423,0.21167 0,0.0847 -0.0423,0.16933 0.127,0.0847 0.16934,0.0423 0.0423,-0.0847 0.127,-0.127 1.14299,-0.93134 2.28599,-1.82033 1.143,-0.889 2.37067,-1.73567 0.762,-0.55033 1.524,-1.05833 0.80433,-0.508 1.60866,-1.016 0.254,-0.16933 0.59267,-0.254 0.21167,-0.0423 0.33867,-0.0423 0.16933,-0.0423 0.254,0.127 0.16933,0.29633 -0.0423,0.63499 -0.0847,0.0847 -0.33866,0.254 -0.127,0.0847 -0.254,0.16934 -0.127,0.0847 -0.254,0.16933 -2.286,1.48167 -4.445,3.13267 -2.11667,1.60866 -4.23333,3.34433 -0.21167,0.21166 -0.33867,0.508 -0.127,0.29633 -0.21166,0.55033 -0.67734,2.24366 -1.397,4.445 -0.67734,2.20133 -1.48167,4.40266 -0.42333,1.18533 -0.84666,2.32833 -0.46567,1.18533 -0.93134,2.32833 -0.71966,1.86267 -1.60866,3.59833 -0.93133,1.73567 -2.07433,3.34433 -0.59267,0.80434 -1.22767,1.524 -0.635,0.71967 -1.35467,1.35467 -0.38099,0.33866 -0.76199,0.635 -0.42334,0.33866 -0.889,0.55033 -0.67734,0.33867 -1.35467,0.46567 -0.71967,0.127 -1.48167,-0.0423 -1.82033,-0.381 -2.28599,-2.24366 -0.21167,-0.71967 -0.16934,-1.48167 0.0423,-0.71966 0.21167,-1.43933 0.21167,-0.97367 0.55033,-1.86266 0.33867,-0.889 0.80434,-1.73567 0.84666,-1.651 1.90499,-3.175 1.016,-1.524 2.20134,-2.96333 2.53999,-3.048 5.24933,-5.84199 2.70933,-2.75167 5.71499,-5.29167 0.508,-0.42333 0.67733,-1.05833 l 1.524,-5.588 q 0,-0.0423 0.0847,-0.381 l -0.46567,0.46567 q -0.762,0.84667 -1.524,1.73567 -0.762,0.889 -1.56633,1.73566 -0.42333,0.46567 -0.84666,0.889 -0.42334,0.381 -0.889,0.80433 -0.127,0.127 -0.254,0.21167 -0.16934,0.127 -0.33867,0.21167 -0.71967,0.381 -1.016,-0.42334 -0.16933,-0.381 -0.0847,-0.889 0.0423,-0.254 0.0847,-0.508 0.0423,-0.25399 0.127,-0.50799 0.33867,-1.22767 0.84667,-2.32834 0.508,-1.143 1.31233,-2.15899 0.29633,-0.33867 0.59267,-0.635 0.29633,-0.33867 0.67733,-0.59267 0.59266,-0.381 1.27,-0.33867 0.46566,0.0423 0.80433,0.29634 0.381,0.21166 0.71967,0.55033 0.127,0.127 0.29633,0.381 z"
         id="path422" />
      <path
         d="m -174.11005,112.00626 q 0.21167,-0.21167 0.55033,-0.508 0.33867,-0.29633 0.67734,-0.59267 0.33866,-0.29633 0.635,-0.55033 0.33866,-0.29633 0.55033,-0.46567 0.254,-0.254 0.42333,-0.33866 0.21167,-0.16934 0.42334,-0.0847 0.25399,0.0847 0.33866,0.33867 0.0847,0.21166 0.0423,0.254 0,0.0423 0.0847,0.254 0.127,0.381 0.21167,0.762 0.127,0.381 0.29633,0.76199 0.0847,0.21167 0.21167,0.42334 0.16933,0.16933 0.33866,0.381 0.16934,0.21166 0.46567,0.29633 0.29633,0.0423 0.508,-0.127 0.29633,-0.16933 0.59267,-0.46567 0.46566,-0.46566 0.889,-0.97366 0.42333,-0.55033 0.80433,-1.143 0.46566,-0.67733 0.762,-1.18533 0.29633,-0.508 0.71966,-1.18534 0.16934,-0.33866 0.29634,-0.46566 0.254,-0.29633 0.59266,-0.0847 0.21167,0.16933 0.0847,0.508 l -0.127,0.254 q -0.71967,1.143 -1.35467,2.11667 -0.635,0.97366 -1.48166,2.03199 -0.254,0.29634 -0.508,0.59267 -0.254,0.254 -0.55033,0.508 -0.508,0.508 -1.143,0.55033 -0.762,0.0423 -1.35467,-0.55033 -0.635,-0.635 -0.889,-1.524 -0.0847,-0.29633 -0.16933,-0.55033 -0.0847,-0.29633 -0.16933,-0.635 -0.16934,0.127 -0.42334,0.29633 l -1.651,1.524 q -0.21166,0.16933 -0.381,0.33867 -0.16933,0.16933 -0.381,0.33866 -0.46566,0.33867 -0.762,0.0847 -0.33866,-0.254 -0.33866,-0.635 0,-0.254 0.0423,-0.381 0.0847,-0.21167 0.127,-0.42333 0.0423,-0.254 0.127,-0.46567 0.635,-1.82033 1.651,-3.38666 0.21167,-0.29634 0.42333,-0.55034 0.21167,-0.25399 0.55034,-0.46566 0.762,-0.508 1.524,-0.21167 0.33866,0.127 0.59266,0.381 0.33867,0.254 0.16933,0.635 -0.127,0.29633 -0.46566,0.29633 -0.33867,0 -0.80433,-0.0423 -0.42334,-0.0423 -0.635,0.21167 -0.127,0.127 -0.254,0.254 -0.127,0.127 -0.21167,0.29633 -0.33867,0.508 -0.635,1.18533 -0.29633,0.635 -0.59267,1.18534 -0.0423,0.0847 -0.21166,0.46566 -0.16934,0.33867 -0.21167,0.46567 z"
         id="path424" />
      <path
         d="m -157.17676,87.325943 q -0.16933,0.254 -0.21167,0.381 -1.10066,2.836331 -1.905,5.630329 -0.59266,2.031999 -1.22766,4.063997 -0.59267,2.031999 -1.143,4.106331 l -0.127,0.635 q 0.254,-0.254 0.381,-0.59267 0.33866,-0.80433 0.71966,-1.56633 0.381,-0.761999 0.71967,-1.566332 0.71967,-1.735665 1.31233,-3.47133 0.635,-1.735666 1.10067,-3.555998 0.254,-0.973666 0.381,-1.989665 0.16933,-1.015999 0.127,-2.116665 z m -11.09133,39.200637 q 0.0423,-1.10067 0.16934,-2.07433 0.127,-0.93133 0.33866,-1.905 0.33867,-1.60867 0.67734,-3.175 0.33866,-1.56633 0.67733,-3.175 0.84667,-4.10633 1.86266,-8.08566 0.97367,-3.97933 2.07434,-8.00099 0.508,-1.947331 1.143,-3.809997 0.63499,-1.904998 1.26999,-3.809997 0.93134,-2.920998 2.286,-5.714996 0.0847,-0.211666 0.16934,-0.380999 0.127,-0.169334 0.254,-0.338667 0.254,-0.296333 0.508,-0.211666 0.29633,0.04233 0.42333,0.423333 0.127,0.380999 0.127,0.761999 0.0423,0.635 -0.0423,1.269999 -0.0847,0.592666 -0.16933,1.185333 -0.254,1.777998 -0.762,3.47133 -0.508,1.650999 -1.10066,3.301998 -0.59267,1.523999 -1.27,3.005664 -0.635,1.481666 -1.35467,2.963336 l -1.651,3.55599 q -0.33866,0.67734 -0.508,1.31234 -0.33866,1.48166 -0.71966,3.00566 -0.381,1.48167 -0.71967,2.96333 -0.33867,1.35467 -0.59267,2.667 -0.254,1.31233 -0.59266,2.667 -0.33867,1.35466 -0.635,2.66699 -0.29633,1.31234 -0.508,2.667 -0.0847,0.67734 -0.127,1.31233 -0.0847,0.67734 -0.16933,1.35467 -0.0847,0.84667 0.21166,1.48167 v 0.127 q 0.0847,0.33866 -0.21166,0.55033 -0.29634,0.21167 -0.55034,0 -0.42333,-0.254 -0.508,-0.762 -0.0423,-0.21167 -0.0423,-0.46567 0,-0.21166 0,-0.42333 v -0.381 z"
         id="path426" />
      <path
         d="m -157.85407,107.05326 q 0.55034,-0.67733 1.05834,-0.42333 0.508,0.21167 0.508,0.93133 0.0423,0.381 -0.0423,0.762 -0.0423,0.381 -0.127,0.762 l -0.0847,0.46567 q 0.80433,-0.127 1.48166,-0.508 0.67734,-0.381 1.18533,-0.762 0.508,-0.42334 0.84667,-0.80434 0.381,-0.38099 0.55033,-0.50799 0.21167,-0.16934 0.46567,-0.0423 0.29633,0.0847 0.127,0.42333 -0.127,0.254 -0.55033,0.71967 -0.42334,0.46567 -1.10067,0.97367 -0.67733,0.508 -1.524,0.97366 -0.84666,0.42334 -1.82033,0.59267 -0.21167,0.33867 -0.42333,0.67733 -0.21167,0.33867 -0.42334,0.67733 -0.29633,0.46567 -0.76199,0.93134 -0.29634,0.29633 -0.67734,0.42333 -0.889,0.33867 -1.35466,-0.46567 -0.33867,-0.55033 -0.33867,-1.14299 -0.0847,-2.20134 0.93133,-4.064 0.16934,-0.29634 0.46567,-0.59267 0.67733,-0.508 1.143,0.29633 0,0.0423 0.0847,0.21167 z m -0.127,3.47133 q -0.0847,-0.0847 -0.0847,-0.0847 -0.67733,-0.33867 -0.67733,-1.27 v -0.254 q 0,-0.0847 0,-0.127 0.0423,-0.0423 -0.0847,-0.0847 -0.33867,0.71967 -0.508,1.43933 -0.16933,0.71967 -0.29633,1.43934 -0.0423,0.16933 -0.0423,0.33866 0,0.16933 0.127,0.381 0.59267,-0.33867 0.889,-0.80433 0.33867,-0.46567 0.67733,-0.93133 z m 0.84667,-3.175 q -0.127,0 -0.127,0.0423 -0.46567,0.59266 -0.67733,1.397 -0.0423,0.127 -0.0423,0.29633 0.0423,0.127 0.0423,0.29633 0,0.21167 0.254,0.254 0.16933,0.0423 0.254,-0.127 0.42333,-0.97366 0.42333,-1.86266 0,-0.0847 -0.0847,-0.254 z"
         id="path428" />
    </g>
  </g>
</svg>
