<?xml version="1.0" encoding="UTF-8" standalone="no"?>
<!-- Created with Inkscape (http://www.inkscape.org/) -->

<svg
   width="132.89627mm"
   height="53.53175mm"
   viewBox="0 0 132.89627 53.53175"
   version="1.1"
   id="svg1255"
   sodipodi:docname="lo_celebramos.svg"
   inkscape:version="1.2.2 (732a01da63, 2022-12-09)"
   xmlns:inkscape="http://www.inkscape.org/namespaces/inkscape"
   xmlns:sodipodi="http://sodipodi.sourceforge.net/DTD/sodipodi-0.dtd"
   xmlns="http://www.w3.org/2000/svg"
   xmlns:svg="http://www.w3.org/2000/svg">
  <sodipodi:namedview
     id="namedview1257"
     pagecolor="#ffffff"
     bordercolor="#000000"
     borderopacity="0.25"
     inkscape:showpageshadow="2"
     inkscape:pageopacity="0.0"
     inkscape:pagecheckerboard="0"
     inkscape:deskcolor="#d1d1d1"
     inkscape:document-units="mm"
     showgrid="false"
     inkscape:zoom="0.48016975"
     inkscape:cx="408.18898"
     inkscape:cy="572.71413"
     inkscape:window-width="2048"
     inkscape:window-height="1081"
     inkscape:window-x="1358"
     inkscape:window-y="-8"
     inkscape:window-maximized="1"
     inkscape:current-layer="layer1" />
  <defs
     id="defs1252" />
  <g
     inkscape:label="Layer 1"
     inkscape:groupmode="layer"
     id="layer1"
     transform="translate(2.9966205,2.9404977)">
    <g
       aria-label="Lo celebramos"
       id="text1378"
       style="font-size:42.3333px;font-family:'Libre Bodoni';-inkscape-font-specification:'Libre Bodoni';text-align:center;text-anchor:middle;fill:none;stroke:#000000;stroke-width:0.238125;stroke-linecap:round;stroke-linejoin:round">
      <path
         d="m 0.86780512,46.521732 q 0.59266618,0.127 1.10066588,0.211666 0.5079996,0.127 0.9736659,0.254 0.9313326,0.254 1.9049986,0.635 0.4656663,0.211666 0.8889993,0.423333 0.4656663,0.211666 0.9313326,0.423333 0.4656664,0.211666 0.8466661,0.465666 0.423333,0.254 0.8889993,0.508 0.1269999,-0.381 0.2539998,-1.100666 0.1693332,-0.677333 0.2963331,-1.396999 0.1693332,-0.719666 0.2539998,-1.312333 0.1269999,-0.550332 0.1269999,-0.677332 -0.042333,0 -0.084667,-0.04233 0,0 -0.042333,0 l -8.000994,1.523999 q -0.084667,0 -0.33866638,0.127 z M 11.451131,43.177401 q 0.507999,-0.08467 0.931332,-0.211666 0.465666,-0.08467 0.931333,-0.169334 3.386664,-0.719666 6.730995,-1.396999 3.344331,-0.677332 6.730995,-1.354665 1.608665,-0.338667 3.217331,-0.592667 1.650998,-0.253999 3.259664,-0.465666 0.931332,-0.127 1.820332,-0.211666 0.931332,-0.04233 1.862665,-0.127 0.381,-0.04233 0.761999,0 0.381,0.04233 0.762,0.127 0.338666,0.04233 0.719666,0.211666 0.338666,0.169333 0.550333,0.592666 0.08467,0.211667 -0.04233,0.381 -0.127,0.211667 -0.381,0.127 -0.169333,0 -0.211667,-0.04233 -0.719666,-0.423333 -1.608665,-0.338667 -0.677333,0.04233 -1.354666,0.08467 -0.634999,0.04233 -1.312332,0.127 -2.920998,0.381 -5.799662,0.888999 -2.878665,0.550333 -5.799663,1.142999 l -8.889993,1.777999 q -0.677333,0.127 -1.354666,0.254 -0.634999,0.169333 -1.312332,0.338666 -0.338666,0.08467 -0.550333,0.127 -0.04233,0.127 -0.08467,0.211667 0,0.126999 -0.04233,0.253999 l -0.888999,3.682998 -0.2539999,1.015999 q -0.042333,0.169333 -0.2116666,0.507999 -0.3386664,0.677333 -1.0159992,0.381 -0.2539998,-0.08467 -0.5079996,-0.254 -0.2116665,-0.127 -0.423333,-0.296333 -0.423333,-0.254 -0.8466661,-0.550333 -0.3809997,-0.253999 -0.846666,-0.507999 -0.6349995,-0.381 -1.3546656,-0.635 Q 3.9581361,48.045731 3.23847,47.834064 1.9261377,47.495398 0.61380531,47.326065 q -1.26999904,-0.169334 -2.62466471,-0.254 -0.3386664,0 -0.5079996,-0.04233 -0.2539998,-0.04233 -0.3809997,-0.338666 -0.1693332,-0.254 -0.042333,-0.550333 0.084667,-0.254 0.423333,-0.338666 l 1.396999,-0.254 10.540992,-2.031999 q 0.1269999,-0.04233 0.2116665,-0.08467 0.1269999,-0.04233 0.2539999,-0.08467 1.7779986,-8.043327 3.8523306,-15.874988 2.074332,-7.831661 4.021663,-15.747988 0.338667,-1.396999 0.635,-2.7939979 0.296333,-1.396999 0.592666,-2.7939979 0.254,-1.4393323 0.211667,-2.7516646 0,-0.7196662 -0.254,-1.3546657 Q 18.605458,1.1827659 17.758792,1.0134327 16.361793,0.71709956 14.837795,1.0980993 13.525462,1.479099 12.170797,2.1987651 9.7577984,3.4264309 7.8527999,5.1620962 5.6514682,7.1094281 3.8734695,9.3530931 2.1378042,11.596758 0.86780512,14.263756 q -0.67733282,1.396999 -1.14299914,2.878665 -0.42333301,1.439332 -0.63499952,3.005664 -0.0846666,0.931333 -0.12699986,1.862665 0,0.889 0.21166646,1.777999 0.63499953,3.132664 3.59833064,4.275663 0.9736659,0.381 1.9896652,0.550333 1.0159992,0.169333 2.0743317,0.211667 0.4656664,0.04233 0.9313327,0.04233 0.5079996,0 0.9736659,0.04233 0.2116665,0 0.423333,0 0.2539998,0.04233 0.4656663,0.08467 0.2539999,0.08467 0.2539999,0.381 0,0.211666 -0.2116666,0.296333 -0.042333,0.04233 -0.2116665,0.04233 H 9.2074655 q -1.3123323,0.04233 -2.6246647,0 -1.269999,-0.04233 -2.5823314,-0.338666 -0.8889993,-0.211667 -1.6086654,-0.508 -3.7676639,-1.523999 -4.1486636,-5.630329 -0.1693332,-1.523999 0,-3.005664 0.1693332,-1.481666 0.5926662,-2.963332 0.80433278,-2.751664 2.2859983,-5.249329 Q 2.6034705,9.5224263 4.4238025,7.4057612 6.2864677,5.2467628 8.572466,3.4687642 9.7577984,2.5374315 11.027797,1.8177654 q 1.27,-0.7619994 2.666998,-1.31233235 0.889,-0.33866641 1.820332,-0.50799962 0.931333,-0.1693332 1.904999,-0.0846666 h 0.381 q 1.904998,0.25399981 2.455331,2.03199847 0.169333,0.6349995 0.254,1.3123324 0.08467,0.9313326 0,1.8626652 -0.04233,0.8889994 -0.211666,1.7779987 -0.465667,2.7093313 -1.100666,5.3763294 -0.635,2.666998 -1.312333,5.333996 -1.608665,6.349995 -3.047997,12.022658 -1.396999,5.714995 -2.709332,11.387658 l -0.380999,1.396999 q -0.04233,0.08467 -0.04233,0.211666 0,0.127 -0.04233,0.338667 z"
         style="font-family:'Prestige Signature Script  Demo';-inkscape-font-specification:'Prestige Signature Script  Demo';fill:#000000;stroke:none"
         id="path1695" />
      <path
         d="m 25.378778,19.513085 q 0.550332,-0.677332 1.058332,-0.423333 0.508,0.211667 0.508,0.931333 0.04233,0.381 -0.04233,0.761999 -0.04233,0.381 -0.127,0.762 l -0.08467,0.465666 q 0.804333,-0.127 1.481665,-0.507999 0.677333,-0.381 1.185333,-0.762 0.507999,-0.423333 0.846666,-0.804333 0.381,-0.380999 0.550333,-0.507999 0.211666,-0.169333 0.465666,-0.04233 0.296333,0.08467 0.127,0.423333 -0.127,0.253999 -0.550333,0.719666 -0.423333,0.465666 -1.100666,0.973666 -0.677333,0.507999 -1.523999,0.973666 -0.846666,0.423333 -1.820332,0.592666 -0.211666,0.338666 -0.423333,0.677333 -0.211666,0.338666 -0.423333,0.677332 -0.296333,0.465667 -0.761999,0.931333 -0.296333,0.296333 -0.677333,0.423333 -0.888999,0.338666 -1.354665,-0.465666 -0.338667,-0.550333 -0.338667,-1.142999 -0.08467,-2.201332 0.931333,-4.063997 0.169333,-0.296333 0.465666,-0.592667 0.677333,-0.507999 1.142999,0.296334 0,0.04233 0.08467,0.211666 z m -0.127,3.471331 q -0.08467,-0.08467 -0.08467,-0.08467 -0.677333,-0.338667 -0.677333,-1.269999 v -0.254 q 0,-0.08467 0,-0.127 0.04233,-0.04233 -0.08467,-0.08467 -0.338667,0.719666 -0.508,1.439332 -0.169333,0.719667 -0.296333,1.439333 -0.04233,0.169333 -0.04233,0.338666 0,0.169333 0.126999,0.381 0.592667,-0.338667 0.889,-0.804333 0.338666,-0.465666 0.677333,-0.931333 z m 0.846666,-3.174997 q -0.127,0 -0.127,0.04233 -0.465667,0.592666 -0.677333,1.396999 -0.04233,0.127 -0.04233,0.296333 0.04233,0.127 0.04233,0.296333 0,0.211667 0.254,0.254 0.169333,0.04233 0.254,-0.127 0.423333,-0.973666 0.423333,-1.862665 0,-0.08467 -0.08467,-0.254 z"
         style="font-family:'Prestige Signature Script  Demo';-inkscape-font-specification:'Prestige Signature Script  Demo';fill:#000000;stroke:none"
         id="path1697" />
      <path
         d="m 37.613051,26.75208 q 0.508,-0.127 0.931333,-0.550333 0.507999,-0.465666 1.015999,-0.888999 0.508,-0.465667 1.015999,-0.931333 1.396999,-1.227666 2.624665,-2.497665 1.269999,-1.269999 2.624665,-2.370665 0.126999,-0.08467 0.465666,-0.169333 0.211666,-0.04233 0.381,0.254 0.126999,0.211667 0,0.381 -0.127,0.211666 -0.338667,0.338666 -1.354666,1.100666 -2.497665,2.201332 -1.100665,1.100666 -2.285998,2.201332 -0.465666,0.465666 -0.931333,0.888999 -0.465666,0.423333 -0.931332,0.888999 -0.211667,0.211667 -0.465667,0.381 -0.211666,0.169333 -0.423333,0.338666 -0.338666,0.296333 -0.846666,0.508 -1.015999,0.423333 -1.566332,-0.550333 -0.254,-0.423333 -0.254,-1.015999 -0.04233,-0.677333 0.04233,-1.312333 0.08467,-0.634999 0.254,-1.269999 0.211666,-0.931332 0.507999,-1.777998 0.296333,-0.889 0.762,-1.735666 0.465666,-0.846666 1.185332,-1.396999 0.719666,-0.507999 1.396999,-0.550333 0.973666,-0.08467 1.523999,0.508 0.550333,0.592666 0.465666,1.312332 0,0.254 -0.04233,0.338667 -0.169333,0.296333 -0.423333,0.296333 -0.254,0 -0.381,-0.211667 -0.08467,-0.08467 -0.127,-0.169333 0,-0.127 -0.08467,-0.211666 -0.254,-0.508 -0.804333,-0.381 -0.254,0.04233 -0.465666,0.211667 -0.508,0.296333 -0.762,0.846666 -0.677333,1.269999 -1.100666,2.624664 -0.465666,1.312333 -0.634999,2.751665 -0.08467,0.465666 0.169333,0.761999 z"
         style="font-family:'Prestige Signature Script  Demo';-inkscape-font-specification:'Prestige Signature Script  Demo';fill:#000000;stroke:none"
         id="path1699" />
      <path
         d="m 50.313054,13.501757 q -0.465667,0.423333 -0.973666,1.269999 -0.508,0.804332 -1.269999,2.412998 -0.08467,0.211666 -0.211667,0.465666 -0.08467,0.211667 -0.127,0.550333 0.846666,-0.931333 1.481666,-1.904998 0.677333,-0.973666 1.100666,-2.074332 0.169333,-0.338667 0.08467,-0.635 z m -5.672663,10.371659 q 0.04233,-0.804333 0.296333,-1.820332 0.211667,-1.058333 0.592667,-2.158999 0.380999,-1.142999 0.888999,-2.201332 0.550333,-1.100665 1.142999,-2.074331 0.338667,-0.508 0.677333,-0.973666 0.338666,-0.508 0.677333,-0.973666 0.127,-0.211667 0.254,-0.338667 0.169333,-0.169333 0.338666,-0.338666 0.211667,-0.211667 0.465666,-0.338666 0.762,-0.338667 1.058333,0.507999 0.127,0.465667 0,0.889 -0.08467,0.211666 -0.169333,0.465666 -0.04233,0.211666 -0.127,0.423333 -0.973666,2.285998 -2.666998,4.063997 -0.211667,0.211666 -0.465667,0.423333 -0.253999,0.169333 -0.507999,0.381 -0.296333,0.211666 -0.338667,0.465666 -0.253999,0.846666 -0.465666,1.735665 -0.211666,0.846666 -0.296333,1.735666 0,0.253999 0,0.507999 0.04233,0.254 0.04233,0.508 v 0.254 q 0.254,0.761999 0.973666,0.507999 0.465667,-0.127 0.846666,-0.380999 0.381,-0.254 0.762,-0.508 0.380999,-0.254 0.719666,-0.550333 0.719666,-0.550333 1.354665,-1.142999 0.635,-0.635 1.27,-1.269999 0.465666,-0.508 0.931332,-1.015999 0.508,-0.508 0.973666,-0.973666 0.127,-0.127 0.465666,-0.381 0.296334,-0.127 0.508,0.08467 0.296333,0.211666 0.08467,0.550332 -0.169334,0.254 -0.296333,0.381 -0.550333,0.592666 -1.100666,1.142999 -0.508,0.508 -1.058333,1.100666 -0.931332,0.973666 -1.904998,1.862665 -0.973666,0.889 -2.074332,1.608666 -0.254,0.169333 -0.508,0.296333 -0.254,0.169333 -0.550333,0.296333 -0.973666,0.465666 -1.650998,0 -0.719667,-0.423333 -0.973666,-1.227666 l -0.127,-0.634999 q -0.04233,-0.211667 -0.04233,-0.423333 0,-0.254 0,-0.465666 z"
         style="font-family:'Prestige Signature Script  Demo';-inkscape-font-specification:'Prestige Signature Script  Demo';fill:#000000;stroke:none"
         id="path1701" />
      <path
         d="M 61.446735,-0.21423307 Q 61.277402,0.03976674 61.235069,0.16676664 60.134403,3.0030978 59.33007,5.7970957 58.737404,7.8290942 58.102404,9.8610927 57.509738,11.893091 56.959405,13.967423 l -0.127,0.634999 q 0.254,-0.253999 0.381,-0.592666 0.338666,-0.804332 0.719666,-1.566332 0.381,-0.761999 0.719666,-1.566332 0.719666,-1.7356654 1.312333,-3.4713308 0.634999,-1.7356654 1.100665,-3.5559973 0.254,-0.973666 0.381,-1.9896652 0.169333,-1.01599924 0.127,-2.11666508 z M 50.35541,38.986404 q 0.04233,-1.100666 0.169333,-2.074332 0.127,-0.931332 0.338667,-1.904998 0.338666,-1.608666 0.677333,-3.174998 0.338666,-1.566332 0.677332,-3.174997 0.846666,-4.106331 1.862666,-8.085661 0.973666,-3.97933 2.074332,-8.000994 0.507999,-1.947332 1.142999,-3.8099971 0.634999,-1.9049986 1.269999,-3.8099972 0.931332,-2.9209978 2.285998,-5.71499569 0.08467,-0.21166651 0.169333,-0.38099971 0.127,-0.1693332 0.254,-0.3386664 0.254,-0.2963331 0.508,-0.2116665 0.296333,0.042333 0.423333,0.423333 0.127,0.3809997 0.127,0.76199942 0.04233,0.63499952 -0.04233,1.26999904 -0.08467,0.59266624 -0.169333,1.18533244 -0.254,1.7779987 -0.761999,3.4713307 -0.508,1.6509988 -1.100666,3.3019976 -0.592666,1.5239984 -1.269999,3.0056644 -0.635,1.481666 -1.354666,2.963331 l -1.650999,3.555997 q -0.338666,0.677333 -0.507999,1.312333 -0.338667,1.481665 -0.719666,3.005664 -0.381,1.481666 -0.719667,2.963331 -0.338666,1.354666 -0.592666,2.666998 -0.254,1.312333 -0.592666,2.666998 -0.338666,1.354666 -0.635,2.666998 -0.296333,1.312333 -0.507999,2.666998 -0.08467,0.677333 -0.127,1.312333 -0.08467,0.677332 -0.169333,1.354665 -0.08467,0.846666 0.211666,1.481666 v 0.127 q 0.08467,0.338666 -0.211666,0.550333 -0.296333,0.211666 -0.550333,0 -0.423333,-0.254 -0.508,-0.762 -0.04233,-0.211666 -0.04233,-0.465666 0,-0.211667 0,-0.423333 v -0.381 z"
         style="font-family:'Prestige Signature Script  Demo';-inkscape-font-specification:'Prestige Signature Script  Demo';fill:#000000;stroke:none"
         id="path1703" />
      <path
         d="m 64.029099,13.501757 q -0.465666,0.423333 -0.973666,1.269999 -0.507999,0.804332 -1.269999,2.412998 -0.08467,0.211666 -0.211666,0.465666 -0.08467,0.211667 -0.127,0.550333 0.846666,-0.931333 1.481665,-1.904998 0.677333,-0.973666 1.100666,-2.074332 0.169333,-0.338667 0.08467,-0.635 z m -5.672662,10.371659 q 0.04233,-0.804333 0.296333,-1.820332 0.211666,-1.058333 0.592666,-2.158999 0.381,-1.142999 0.888999,-2.201332 0.550333,-1.100665 1.143,-2.074331 0.338666,-0.508 0.677332,-0.973666 0.338667,-0.508 0.677333,-0.973666 0.127,-0.211667 0.254,-0.338667 0.169333,-0.169333 0.338666,-0.338666 0.211667,-0.211667 0.465667,-0.338666 0.761999,-0.338667 1.058332,0.507999 0.127,0.465667 0,0.889 -0.08467,0.211666 -0.169333,0.465666 -0.04233,0.211666 -0.127,0.423333 -0.973666,2.285998 -2.666998,4.063997 -0.211666,0.211666 -0.465666,0.423333 -0.254,0.169333 -0.508,0.381 -0.296333,0.211666 -0.338666,0.465666 -0.254,0.846666 -0.465666,1.735665 -0.211667,0.846666 -0.296334,1.735666 0,0.253999 0,0.507999 0.04233,0.254 0.04233,0.508 v 0.254 q 0.254,0.761999 0.973666,0.507999 0.465666,-0.127 0.846666,-0.380999 0.380999,-0.254 0.761999,-0.508 0.381,-0.254 0.719666,-0.550333 0.719666,-0.550333 1.354666,-1.142999 0.634999,-0.635 1.269999,-1.269999 0.465666,-0.508 0.931333,-1.015999 0.507999,-0.508 0.973665,-0.973666 0.127,-0.127 0.465667,-0.381 0.296333,-0.127 0.507999,0.08467 0.296334,0.211666 0.08467,0.550332 -0.169333,0.254 -0.296333,0.381 -0.550333,0.592666 -1.100666,1.142999 -0.508,0.508 -1.058332,1.100666 -0.931333,0.973666 -1.904999,1.862665 -0.973666,0.889 -2.074332,1.608666 -0.254,0.169333 -0.507999,0.296333 -0.254,0.169333 -0.550333,0.296333 -0.973666,0.465666 -1.650999,0 -0.719666,-0.423333 -0.973666,-1.227666 l -0.127,-0.634999 q -0.04233,-0.211667 -0.04233,-0.423333 0,-0.254 0,-0.465666 z"
         style="font-family:'Prestige Signature Script  Demo';-inkscape-font-specification:'Prestige Signature Script  Demo';fill:#000000;stroke:none"
         id="path1705" />
      <path
         d="m 70.379118,25.524414 q -0.08467,0.04233 -0.08467,0.04233 h -0.04233 l -0.254,0.253999 q -1.100666,1.016 -1.947332,2.201332 -0.804333,1.227666 -1.523999,2.497665 0,0.04233 0.04233,0.08467 0,0.04233 0,0.127 0.550333,-0.507999 1.185333,-1.185332 0.592666,-0.677333 1.142999,-1.439332 0.550333,-0.719666 0.931333,-1.396999 0.423333,-0.677333 0.550333,-1.142999 z m 0,-9.694326 q 0.169333,0.04233 0.253999,-0.254 l 0.889,-1.777998 q 1.185332,-2.370665 2.243665,-4.74133 1.058332,-2.4129982 1.947332,-4.9529963 0.423333,-1.1853325 0.719666,-2.3706649 0.296333,-1.22766575 0.465666,-2.45533149 0.04233,-0.16933321 0.04233,-0.33866641 0.04233,-0.2116665 -0.04233,-0.4656663 -0.08467,0.084667 -0.127,0.1269999 0,0.042333 -0.04233,0.1269999 L 74.951114,3.172431 Q 73.765782,6.1780955 72.665116,9.1837599 71.56445,12.147091 70.548451,15.195089 l -0.254,0.507999 v 0.127 -0.127 z m -3.767664,12.657657 0.380999,-0.634999 q 0.550333,-0.804333 1.100666,-1.523999 0.592666,-0.719666 1.269999,-1.396999 l 0.635,-0.508 q 0.169333,-0.169333 0.465666,-0.253999 0.635,-0.296333 0.846666,0.380999 0.127,0.338667 0.04233,0.762 -0.08467,0.380999 -0.211666,0.719666 -0.127,0.381 -0.338666,0.719666 -0.127,0.211667 -0.296334,0.423333 -0.126999,0.254 -0.253999,0.508 0.127,0.08467 0.169333,0 0.08467,-0.04233 0.169333,-0.08467 l 3.301998,-3.047998 q 1.015999,-0.973666 1.947331,-1.947332 0.973666,-1.015999 1.947332,-2.031998 0.381,-0.423333 0.804333,-0.804333 0.254,-0.169333 0.381,-0.211666 0.296333,-0.08467 0.465666,0.169333 0.169333,0.254 0.04233,0.423333 -0.169333,0.254 -0.296333,0.381 -1.566332,1.566332 -3.132664,3.132664 -1.523999,1.523999 -3.174998,3.005664 -0.888999,0.804333 -1.820332,1.566333 -0.888999,0.761999 -1.820332,1.523998 -0.719666,0.592667 -1.396999,1.143 -0.719666,0.550332 -1.439332,1.142999 -0.211666,0.169333 -0.381,0.254 -0.211666,0.126999 -0.507999,-0.04233 -0.08467,0.211667 -0.169333,0.338667 -0.08467,0.169333 -0.169334,0.338666 -0.211666,0.381 -0.634999,0.254 -0.381,-0.169333 -0.254,-0.592666 0.254,-1.058333 0.508,-2.116665 0.254,-1.016 0.550333,-2.074332 0.846666,-3.132665 1.777998,-6.222996 0.889,-3.090331 1.862666,-6.180662 0.846666,-2.539998 1.693332,-5.037662 0.846666,-2.4976653 1.820332,-4.99533 0.761999,-1.9896652 1.566332,-3.8946638 0.846666,-1.94733186 1.693332,-3.8523304 l 0.254,-0.5079996 q 0.169333,-0.2539999 0.296333,-0.3809998 0.338666,-0.3386664 0.677333,-0.2539998 0.338666,0.042333 0.550332,0.4656663 0.127,0.2963332 0.127,0.5926663 0.04233,0.2963331 0.04233,0.6349995 -0.04233,0.59266621 -0.169334,1.22766573 -0.08467,0.59266623 -0.211666,1.18533247 -0.296333,1.2276657 -0.677333,2.4129982 -0.381,1.1429991 -0.846666,2.2859982 -0.931333,2.3706649 -1.947332,4.6566637 -1.015999,2.285998 -2.158998,4.571996 -0.508,1.015999 -1.058333,1.989665 -0.550333,0.973666 -1.227665,1.904999 -0.08467,0.169333 -0.169334,0.338666 -0.08467,0.127 -0.169333,0.296333 -0.719666,2.158999 -1.312332,4.275664 -0.635,2.116665 -1.227666,4.275663 -0.04233,0.08467 -0.04233,0.254 h 0.127 z"
         style="font-family:'Prestige Signature Script  Demo';-inkscape-font-specification:'Prestige Signature Script  Demo';fill:#000000;stroke:none"
         id="path1707" />
      <path
         d="m 79.565453,18.708753 q 0.804333,-1.777999 1.185333,-2.920998 0.423333,-1.142999 0.550333,-1.777999 0.169333,-0.634999 0.127,-0.888999 0,-0.296333 0,-0.381 -0.08467,0.169333 -0.08467,0.169333 -0.254,0.592667 -0.550333,1.354666 -0.254,0.761999 -0.507999,1.566332 -0.254,0.804333 -0.465667,1.566332 -0.169333,0.762 -0.254,1.312333 z m 4.571997,-0.508 q -0.761999,0.465666 -1.735665,1.100666 -0.931333,0.592666 -1.693332,0.931333 -0.508,0.253999 -1.058333,0.253999 -1.227666,-0.04233 -1.142999,-1.354665 0.211666,-1.693332 0.634999,-3.174998 0.465667,-1.481665 1.143,-2.963331 0.08467,-0.211667 0.169333,-0.423333 0.127,-0.254 0.254,-0.465666 0.126999,-0.254 0.338666,-0.465667 0.211666,-0.211666 0.508,-0.211666 0.338666,0 0.507999,0.296333 0.211667,0.338666 0.211667,0.973666 0,0.634999 -0.127,1.142999 -0.550333,2.497665 -1.777999,4.86833 l -0.127,0.254 q 0.08467,0.126999 0.211667,0.126999 0.169333,-0.04233 0.254,-0.126999 0.804332,-0.338667 1.650998,-0.931333 0.889,-0.635 1.693332,-1.100666 0.338667,-0.169333 0.550333,-0.211666 0.254,-0.08467 0.423333,0.08467 0.211667,0.169333 0.169334,0.423333 0,0.211667 -0.08467,0.635 -0.296333,1.015999 -0.592666,2.031998 -0.254,1.015999 -0.508,2.031999 -0.338666,1.354665 -0.677333,2.709331 -0.338666,1.312332 -0.550333,2.666998 -0.08467,0.550333 -0.169333,1.058332 -0.08467,0.550333 -0.04233,1.100666 0,0.169334 0,0.338667 0,0.169333 0.169333,0.338666 0.08467,-0.04233 0.127,-0.04233 0.08467,0 0.169333,-0.08467 0.254,-0.211666 0.508,-0.465666 0.296333,-0.211667 0.507999,-0.508 1.777999,-2.158998 3.217331,-4.571996 1.439333,-2.412998 2.793998,-4.783663 0.169333,-0.254 0.254,-0.338667 0.211667,-0.211666 0.423333,-0.08467 0.254,0.127 0.211667,0.380999 -0.08467,0.254 -0.254,0.550333 -0.846666,1.481666 -1.608666,2.793998 -0.719666,1.312333 -1.523999,2.539998 -0.761999,1.227666 -1.608665,2.370665 -0.846666,1.142999 -1.820332,2.285998 -0.254,0.254 -0.508,0.465667 -0.253999,0.211666 -0.507999,0.296333 -0.254,0.08467 -0.550333,0 -0.254,-0.08467 -0.508,-0.423333 -0.338666,-0.465666 -0.338666,-1.058333 0,-0.338666 0,-0.719666 0,-0.338666 0.08467,-0.677333 0.338667,-2.412998 0.846666,-4.741329 0.550333,-2.370665 1.396999,-4.656664 0.08467,-0.253999 0.08467,-0.338666 0.04233,-0.08467 0,-0.127 z"
         style="font-family:'Prestige Signature Script  Demo';-inkscape-font-specification:'Prestige Signature Script  Demo';fill:#000000;stroke:none"
         id="path1709" />
      <path
         d="m 88.413109,24.466082 q 0.211667,-0.211667 0.550333,-0.508 0.338667,-0.296333 0.677333,-0.592666 0.338666,-0.296333 0.635,-0.550333 0.338666,-0.296333 0.550332,-0.465666 0.254,-0.254 0.423333,-0.338667 0.211667,-0.169333 0.423334,-0.08467 0.253999,0.08467 0.338666,0.338666 0.08467,0.211667 0.04233,0.254 0,0.04233 0.08467,0.254 0.127,0.380999 0.211666,0.761999 0.127,0.381 0.296333,0.762 0.08467,0.211666 0.211667,0.423333 0.169333,0.169333 0.338666,0.380999 0.169334,0.211667 0.465667,0.296333 0.296333,0.04233 0.507999,-0.127 0.296333,-0.169333 0.592667,-0.465666 0.465666,-0.465666 0.888999,-0.973666 0.423333,-0.550333 0.804333,-1.142999 0.465666,-0.677333 0.761999,-1.185332 0.296333,-0.508 0.719666,-1.185333 0.169333,-0.338666 0.296333,-0.465666 0.254,-0.296333 0.592666,-0.08467 0.211667,0.169333 0.08467,0.508 l -0.127,0.254 q -0.719666,1.142999 -1.354665,2.116665 -0.635,0.973666 -1.481666,2.031998 -0.254,0.296333 -0.508,0.592666 -0.253999,0.254 -0.550333,0.508 -0.507999,0.508 -1.142999,0.550333 -0.761999,0.04233 -1.354665,-0.550333 -0.635,-0.634999 -0.889,-1.523999 -0.08467,-0.296333 -0.169333,-0.550333 -0.08467,-0.296333 -0.169333,-0.634999 -0.169333,0.127 -0.423333,0.296333 l -1.650999,1.523999 q -0.211666,0.169333 -0.381,0.338666 -0.169333,0.169333 -0.380999,0.338667 -0.465667,0.338666 -0.762,0.08467 -0.338666,-0.254 -0.338666,-0.634999 0,-0.254 0.04233,-0.381 0.08467,-0.211667 0.127,-0.423333 0.04233,-0.254 0.127,-0.465666 0.634999,-1.820332 1.650999,-3.386665 0.211666,-0.296333 0.423333,-0.550332 0.211666,-0.254 0.550333,-0.465667 0.761999,-0.507999 1.523999,-0.211666 0.338666,0.127 0.592666,0.380999 0.338666,0.254 0.169333,0.635 -0.127,0.296333 -0.465666,0.296333 -0.338667,0 -0.804333,-0.04233 -0.423333,-0.04233 -0.635,0.211666 -0.127,0.127 -0.253999,0.254 -0.127,0.127 -0.211667,0.296333 -0.338666,0.508 -0.634999,1.185333 -0.296334,0.634999 -0.592667,1.185332 -0.04233,0.08467 -0.211666,0.465666 -0.169333,0.338667 -0.211667,0.465667 z"
         style="font-family:'Prestige Signature Script  Demo';-inkscape-font-specification:'Prestige Signature Script  Demo';fill:#000000;stroke:none"
         id="path1711" />
      <path
         d="m 106.19306,21.418084 q -0.59266,0.931333 -1.27,1.693332 -0.635,0.762 -1.35466,1.481666 -0.29633,0.296333 -0.67733,0.296333 -0.33867,-0.04233 -0.59267,-0.508 -0.381,-0.550333 -0.29633,-1.312332 0.0423,-0.465667 0.0423,-0.677333 0.0423,-0.254 0.0847,-0.719666 0,-0.254 -0.0847,-0.254 -0.0423,0 -0.0847,0.04233 -0.59266,0.804333 -1.143,1.608666 -0.55033,0.761999 -1.100662,1.566332 l -1.650999,2.539998 -0.634999,1.015999 q -0.04233,0.08467 -0.08467,0.08467 -0.04233,0 -0.08467,0.08467 -0.211667,0.254 -0.465667,0.127 -0.296333,-0.127 -0.423333,-0.423333 -0.127,-0.296333 -0.04233,-0.634999 0.08467,-0.762 0.254,-1.523999 0.127,-0.719666 0.296333,-1.439332 l 1.015999,-4.698997 q 0.08467,-0.380999 0.211667,-0.761999 0.08467,-0.381 0.211666,-0.762 0.254,-0.634999 0.508,-0.592666 0.296333,0 0.423333,0.08467 0.211666,0.211666 0.254,0.719666 0.04233,0.465666 -0.04233,0.719666 -0.127,0.635 -0.254,1.269999 -0.126999,0.635 -0.296333,1.269999 -0.211666,0.973666 -0.465666,1.989665 -0.254,0.973666 -0.508,1.947332 v 0.169333 q 0.08467,-0.08467 0.254,-0.380999 0.211667,-0.296333 0.296333,-0.381 l 2.539998,-3.809997 q 0.29633,-0.423333 0.59267,-0.804333 0.29633,-0.381 0.59266,-0.761999 0.21167,-0.254 0.46567,-0.465667 0.21167,-0.211666 0.381,-0.127 0.21167,0.04233 0.29633,0.296334 0.127,0.380999 0.127,0.761999 0,0.508 -0.0423,1.015999 0,0.508 -0.0423,1.015999 v 1.016 q 0,0.169333 0.0847,0.169333 0.127,-0.04233 0.21167,-0.127 l 0.889,-1.015999 1.778,-2.285999 q 0.0847,-0.169333 0.16933,-0.211666 0.254,-0.08467 0.381,-0.08467 0.21167,0 0.21167,0.254 0,0.465666 0.0847,0.888999 0.127,0.381 0.29634,0.804333 0.29633,0.677333 0.80433,0.973666 0.55033,0.296333 1.27,-0.169333 0.254,-0.169333 0.508,-0.296333 0.254,-0.169333 0.46566,-0.381 0.508,-0.465666 0.93134,-0.931333 0.46566,-0.507999 0.80433,-1.100665 0.0847,-0.169334 0.33867,-0.508 0.0847,-0.08467 0.25399,-0.08467 0.21167,0 0.29634,0.08467 0.254,0.169333 0.0847,0.508 l -0.127,0.253999 q -1.05833,1.777999 -2.58233,2.878665 -0.33866,0.254 -0.71966,0.465666 -0.381,0.211667 -0.80434,0.296333 -0.42333,0.08467 -0.80433,0 -0.381,-0.127 -0.71966,-0.507999 -0.508,-0.592666 -0.67734,-1.142999 -0.0423,-0.127 -0.127,-0.254 -0.0423,-0.169333 -0.127,-0.254 -0.0847,-0.127 -0.16933,-0.127 -0.0847,-0.04233 -0.21167,0.127 z"
         style="font-family:'Prestige Signature Script  Demo';-inkscape-font-specification:'Prestige Signature Script  Demo';fill:#000000;stroke:none"
         id="path1713" />
      <path
         d="m 113.60136,19.513085 q 0.55033,-0.677332 1.05833,-0.423333 0.508,0.211667 0.508,0.931333 0.0423,0.381 -0.0423,0.761999 -0.0423,0.381 -0.127,0.762 l -0.0847,0.465666 q 0.80433,-0.127 1.48167,-0.507999 0.67733,-0.381 1.18533,-0.762 0.508,-0.423333 0.84667,-0.804333 0.381,-0.380999 0.55033,-0.507999 0.21167,-0.169333 0.46566,-0.04233 0.29634,0.08467 0.127,0.423333 -0.127,0.253999 -0.55033,0.719666 -0.42333,0.465666 -1.10066,0.973666 -0.67734,0.507999 -1.524,0.973666 -0.84667,0.423333 -1.82033,0.592666 -0.21167,0.338666 -0.42334,0.677333 -0.21166,0.338666 -0.42333,0.677332 -0.29633,0.465667 -0.762,0.931333 -0.29633,0.296333 -0.67733,0.423333 -0.889,0.338666 -1.35467,-0.465666 -0.33867,-0.550333 -0.33867,-1.142999 -0.0847,-2.201332 0.93134,-4.063997 0.16933,-0.296333 0.46566,-0.592667 0.67734,-0.507999 1.143,0.296334 0,0.04233 0.0847,0.211666 z m -0.127,3.471331 q -0.0847,-0.08467 -0.0847,-0.08467 -0.67733,-0.338667 -0.67733,-1.269999 v -0.254 q 0,-0.08467 0,-0.127 0.0423,-0.04233 -0.0847,-0.08467 -0.33866,0.719666 -0.508,1.439332 -0.16933,0.719667 -0.29633,1.439333 -0.0423,0.169333 -0.0423,0.338666 0,0.169333 0.127,0.381 0.59266,-0.338667 0.889,-0.804333 0.33866,-0.465666 0.67733,-0.931333 z m 0.84667,-3.174997 q -0.127,0 -0.127,0.04233 -0.46567,0.592666 -0.67734,1.396999 -0.0423,0.127 -0.0423,0.296333 0.0423,0.127 0.0423,0.296333 0,0.211667 0.254,0.254 0.16934,0.04233 0.254,-0.127 0.42334,-0.973666 0.42334,-1.862665 0,-0.08467 -0.0847,-0.254 z"
         style="font-family:'Prestige Signature Script  Demo';-inkscape-font-specification:'Prestige Signature Script  Demo';fill:#000000;stroke:none"
         id="path1715" />
      <path
         d="m 121.98333,28.741745 q -0.0847,0.08467 -0.127,0.127 -0.0423,0.08467 -0.0847,0.169333 l -0.889,1.142999 q -0.97366,1.354666 -1.86266,2.666998 -0.889,1.354666 -1.651,2.836332 -0.254,0.507999 -0.46567,1.015999 -0.254,0.550333 -0.46567,1.058332 -0.0423,0.08467 -0.0423,0.338667 0.84667,-0.465666 1.94733,-1.735666 1.10067,-1.269999 1.94733,-2.793997 0.80434,-1.396999 1.27,-2.751665 0.508,-1.354666 0.42334,-2.031999 z m 0.16933,-12.657657 q -1.27,0.973666 -1.98966,2.455332 -0.42334,0.846666 0.29633,1.566332 l 1.016,1.142999 q 1.35466,1.608665 1.69333,3.809997 l 0.127,0.634999 q 0.16933,0.04233 0.21167,-0.04233 0.0423,-0.127 0.127,-0.211666 1.05833,-1.269999 2.15899,-2.455332 1.143,-1.227666 2.32834,-2.412998 0.254,-0.254 0.508,-0.508 0.29633,-0.253999 0.59266,-0.507999 0.29633,-0.254 0.55033,-0.04233 0.254,0.211667 0,0.550333 -0.127,0.169334 -0.29633,0.338667 -0.127,0.127 -0.29633,0.296333 -1.35467,1.354666 -2.70933,2.751664 -1.31234,1.354666 -2.54,2.836332 -0.0847,0.08467 -0.127,0.127 -0.0423,0.08467 -0.127,0.169333 -0.381,0.381 -0.46567,1.058332 -0.127,1.354666 -0.508,2.582332 -0.33866,1.269999 -0.93133,2.497665 -0.635,1.354665 -1.48167,2.582331 -0.80433,1.227666 -1.90499,2.243665 -0.635,0.634999 -1.397,1.142999 -0.29634,0.169333 -0.71967,0.254 -0.762,0.127 -0.762,-0.677333 0,-0.211666 0.0847,-0.465666 0.0847,-0.338667 0.21166,-0.635 0.0847,-0.296333 0.21167,-0.592666 0.29633,-0.719666 0.67733,-1.396999 0.33867,-0.677333 0.762,-1.354666 1.016,-1.735665 2.159,-3.34433 1.143,-1.608666 2.37067,-3.174998 0.42333,-0.550333 0.42333,-1.227666 -0.0847,-1.312332 -0.42333,-2.370665 -0.381,-1.100666 -1.22767,-2.031998 -0.21167,-0.211667 -0.42333,-0.423333 -0.16933,-0.254 -0.381,-0.465667 -0.16933,-0.169333 -0.33867,-0.296333 -0.127,-0.169333 -0.254,-0.380999 -0.508,-0.677333 -0.16933,-1.566332 0.21167,-0.550333 0.508,-0.973666 0.889,-1.354666 2.20133,-2.285999 0.33867,-0.296333 0.71967,-0.338666 0.635,-0.127 0.71966,0.550333 0,0.254 -0.127,0.507999 -0.21166,0.423333 -0.67733,0.127 -0.0847,-0.04233 -0.127,-0.08467 -0.0423,-0.04233 -0.127,-0.127 z"
         style="font-family:'Prestige Signature Script  Demo';-inkscape-font-specification:'Prestige Signature Script  Demo';fill:#000000;stroke:none"
         id="path1717" />
    </g>
  </g>
</svg>
