<?xml version="1.0" encoding="UTF-8" standalone="no"?>
<!-- Created with Inkscape (http://www.inkscape.org/) -->

<svg
   width="82.014999mm"
   height="89.962578mm"
   viewBox="0 0 82.014999 89.962578"
   version="1.1"
   id="svg5"
   inkscape:version="1.2.2 (732a01da63, 2022-12-09)"
   sodipodi:docname="d.svg"
   xmlns:inkscape="http://www.inkscape.org/namespaces/inkscape"
   xmlns:sodipodi="http://sodipodi.sourceforge.net/DTD/sodipodi-0.dtd"
   xmlns="http://www.w3.org/2000/svg"
   xmlns:svg="http://www.w3.org/2000/svg">
  <sodipodi:namedview
     id="namedview7"
     pagecolor="#ffffff"
     bordercolor="#000000"
     borderopacity="0.25"
     inkscape:showpageshadow="2"
     inkscape:pageopacity="0.0"
     inkscape:pagecheckerboard="0"
     inkscape:deskcolor="#d1d1d1"
     inkscape:document-units="mm"
     showgrid="false"
     inkscape:zoom="1.3581252"
     inkscape:cx="107.50114"
     inkscape:cy="155.36123"
     inkscape:window-width="2048"
     inkscape:window-height="1081"
     inkscape:window-x="1358"
     inkscape:window-y="-8"
     inkscape:window-maximized="1"
     inkscape:current-layer="layer1" />
  <defs
     id="defs2" />
  <g
     inkscape:label="Layer 1"
     inkscape:groupmode="layer"
     id="layer1"
     transform="translate(-72.906469,-90.620063)">
    <g
       aria-label="Francisco
Macarena"
       id="text1516"
       style="font-size:31.75px;fill:#f19020;stroke:#2c1600;stroke-width:0.238125;stroke-linecap:round;stroke-linejoin:round">
      <path
         d="m 88.464759,91.906872 v 0.09525 q 0.15875,-0.03175 0.28575,-0.03175 0.127,-0.03175 0.28575,-0.09525 0.22225,-0.0635 0.03175,-0.254 -0.15875,0.0635 -0.3175,0.127 -0.15875,0.0635 -0.3175,0.127 z m 0.34925,0.889 q -0.3175,0 -0.4445,0.03175 l -6.76275,0.9525 -2.0955,0.28575 q -0.127,0.03175 -0.381,0.03175 -0.22225,0 -0.28575,-0.254 -0.0635,-0.254 0.127,-0.34925 0.127,-0.0635 0.381,-0.127 0.635,-0.127 1.27,-0.254 0.635,-0.127 1.27,-0.1905 1.016,-0.127 1.9685,-0.381 0.9525,-0.254 1.905,-0.53975 0.8255,-0.254 1.5875,-0.508 0.79375,-0.28575 1.55575,-0.60325 0.15875,-0.0635 0.3175,-0.127 0.1905,-0.0635 0.381,-0.127 0.4445,-0.09525 0.4445,0.34925 v 0.28575 0.3175 h 0.28575 l 2.286,-0.28575 q 0.635,-0.0635 1.23825,-0.127 0.60325,-0.0635 1.23825,-0.127 0.762,-0.0635 1.524,-0.127 0.762,-0.0635 1.524,-0.127 1.27,-0.0635 2.508251,-0.09525 1.27,-0.0635 2.54,0.03175 0.73025,0.0635 1.4605,0.127 0.762,0.03175 1.49225,0.09525 0.5715,0.0635 1.11125,0.15875 0.5715,0.09525 1.11125,0.254 0.15875,0.0635 0.3175,0.127 0.1905,0.0635 0.34925,0.127 0.28575,0.15875 0.381,0.47625 0.0635,0.254 -0.127,0.34925 -0.22225,0.09525 -0.34925,-0.03175 -0.22225,-0.254 -0.508,-0.3175 -0.254,-0.0635 -0.53975,-0.127 -0.53975,-0.09525 -1.11125,-0.15875 -0.53975,-0.09525 -1.0795,-0.15875 -1.0795,-0.09525 -2.159,-0.127 -1.0795,-0.0635 -2.19075,-0.03175 -1.0795,0.03175 -2.159001,0.09525 -1.04775,0.03175 -2.0955,0.127 -0.92075,0.09525 -1.87325,0.1905 -0.92075,0.0635 -1.8415,0.15875 -0.92075,0.09525 -1.80975,0.22225 -0.889,0.09525 -1.778,0.1905 l -0.0635,0.03175 -3.33375,13.620748 v 0.15875 q 0.0635,0 0.127,0.0318 0.09525,0 0.15875,0 0.53975,-0.0318 1.04775,-0.0635 0.508,-0.0318 1.04775,-0.0635 0.762,-0.0635 1.524,-0.0953 0.762,-0.0318 1.524,-0.0635 0.635,-0.0317 1.27,-0.0317 0.66675,0 1.30175,0 0.3175,0 0.47625,0.0317 0.22225,0.0635 0.22225,0.28575 0,0.254 -0.1905,0.28575 -0.127,0.0318 -0.381,0.0318 -0.73025,0.0318 -1.42875,0.0635 -0.6985,0 -1.42875,0.0635 -1.30175,0.0635 -2.57175,0.15875 -1.27,0.0952 -2.57175,0.1905 -0.127,0 -0.381,0.0635 -0.03175,0.127 -0.09525,0.3175 l -1.80975,7.4295 q -0.5715,2.3495 -1.143,4.66725 -0.53975,2.3495 -1.0795,4.73075 l -0.85725,3.6195 q -0.15875,0.73025 -0.41275,1.397 -0.254,0.66675 -0.5715,1.30175 l -0.1905,0.28575 q -0.22225,0.28575 -0.5715,0.0953 -0.28575,-0.127 -0.28575,-0.4445 0,-0.0952 0.0635,-0.28575 0.1905,-0.508 0.254,-1.016 0.0635,-0.508 0.09525,-1.04775 v -0.66675 q 0.03175,-0.34925 0.15875,-0.4445 0.15875,-0.0635 0.508,0.0952 0.03175,-0.0635 0.0635,-0.15875 0.03175,-0.0635 0.0635,-0.127 l 1.80975,-7.52475 2.667,-11.52525 q 0.03175,-0.127 0.03175,-0.22225 0.03175,-0.127 0.0635,-0.28575 -0.28575,0 -0.41275,0.0318 -0.92075,0.127 -1.80975,0.254 -0.889,0.0952 -1.80975,0.254 -0.66675,0.127 -1.3335,0.254 -0.66675,0.127 -1.3335,0.28575 -0.3175,0.0635 -0.635,0.1905 -0.28575,0.0952 -0.60325,0.1905 l -0.47625,0.0952 q -0.28575,0.0635 -0.34925,-0.1905 -0.127,-0.22225 0.127,-0.381 0.1905,-0.127 0.381,-0.22225 0.1905,-0.0952 0.381,-0.1905 0.09525,-0.0635 0.22225,0 0.127,0.0635 0.22225,0.0635 0.127,-0.0318 0.254,-0.0635 1.016,-0.28575 2.032,-0.47625 1.016,-0.22225 2.032,-0.381 0.762,-0.127 1.524,-0.22225 0.79375,-0.0952 1.5875,-0.22225 0.03175,0 0.22225,-0.0635 l 0.09525,-0.28575 1.42875,-5.9055 q 0.34925,-1.396998 0.73025,-2.762248 0.381,-1.36525 0.73025,-2.76225 0.15875,-0.53975 0.28575,-1.04775 0.127,-0.53975 0.28575,-1.11125 z"
         style="font-family:'Prestige Signature Script  Demo';-inkscape-font-specification:'Prestige Signature Script  Demo';text-align:center;text-anchor:middle;fill:#000000;stroke:none"
         id="path1831" />
      <path
         d="m 97.672273,105.97212 q 0.60325,-1.3335 0.889,-2.19075 0.3175,-0.85725 0.41275,-1.3335 0.127,-0.47625 0.09525,-0.66675 0,-0.22225 0,-0.28575 -0.0635,0.127 -0.0635,0.127 -0.1905,0.4445 -0.41275,1.016 -0.1905,0.5715 -0.381,1.17475 -0.1905,0.60325 -0.34925,1.17475 -0.127,0.5715 -0.1905,0.98425 z m 3.428997,-0.381 q -0.5715,0.34925 -1.301747,0.8255 -0.6985,0.4445 -1.27,0.6985 -0.381,0.1905 -0.79375,0.1905 -0.92075,-0.0318 -0.85725,-1.016 0.15875,-1.27 0.47625,-2.38125 0.34925,-1.11125 0.85725,-2.2225 0.0635,-0.15875 0.127,-0.3175 0.09525,-0.1905 0.1905,-0.34925 0.09525,-0.1905 0.254,-0.34925 0.15875,-0.15875 0.381,-0.15875 0.254,0 0.381,0.22225 0.15875,0.254 0.15875,0.73025 0,0.47625 -0.09525,0.85725 -0.41275,1.87325 -1.3335,3.65125 l -0.09525,0.1905 q 0.0635,0.0952 0.15875,0.0952 0.127,-0.0318 0.1905,-0.0952 0.60325,-0.254 1.23825,-0.6985 0.666747,-0.47625 1.269997,-0.8255 0.254,-0.127 0.41275,-0.15875 0.1905,-0.0635 0.3175,0.0635 0.15875,0.127 0.127,0.3175 0,0.15875 -0.0635,0.47625 -0.22225,0.762 -0.4445,1.524 -0.1905,0.762 -0.381,1.524 -0.254,1.016 -0.508,2.032 -0.254,0.98425 -0.41275,2.00025 -0.0635,0.41275 -0.126997,0.79375 -0.0635,0.41275 -0.03175,0.8255 0,0.127 0,0.254 0,0.127 0.126997,0.254 0.0635,-0.0317 0.0952,-0.0317 0.0635,0 0.127,-0.0635 0.1905,-0.15875 0.381,-0.34925 0.22225,-0.15875 0.381,-0.381 1.3335,-1.61925 2.413,-3.429 1.0795,-1.80975 2.0955,-3.58775 0.127,-0.1905 0.1905,-0.254 0.15875,-0.15875 0.3175,-0.0635 0.1905,0.0952 0.15875,0.28575 -0.0635,0.1905 -0.1905,0.41275 -0.635,1.11125 -1.2065,2.0955 -0.53975,0.98425 -1.143,1.905 -0.5715,0.92075 -1.2065,1.778 -0.635,0.85725 -1.36525,1.7145 -0.1905,0.1905 -0.381,0.34925 -0.1905,0.15875 -0.381,0.22225 -0.1905,0.0635 -0.412747,0 -0.1905,-0.0635 -0.381,-0.3175 -0.254,-0.34925 -0.254,-0.79375 0,-0.254 0,-0.53975 0,-0.254 0.0635,-0.508 0.254,-1.80975 0.635,-3.556 0.412747,-1.778 1.047747,-3.4925 0.0635,-0.1905 0.0635,-0.254 0.0318,-0.0635 0,-0.0952 z"
         style="font-family:'Prestige Signature Script  Demo';-inkscape-font-specification:'Prestige Signature Script  Demo';text-align:center;text-anchor:middle;fill:#000000;stroke:none"
         id="path1833" />
      <path
         d="m 104.30802,110.29012 q 0.15875,-0.15875 0.41275,-0.381 0.254,-0.22225 0.508,-0.4445 0.254,-0.22225 0.47625,-0.41275 0.254,-0.22225 0.41275,-0.34925 0.1905,-0.1905 0.3175,-0.254 0.15875,-0.127 0.3175,-0.0635 0.1905,0.0635 0.254,0.254 0.0635,0.15875 0.0318,0.1905 0,0.0317 0.0635,0.1905 0.0953,0.28575 0.15875,0.5715 0.0953,0.28575 0.22225,0.5715 0.0635,0.15875 0.15875,0.3175 0.127,0.127 0.254,0.28575 0.127,0.15875 0.34925,0.22225 0.22225,0.0318 0.381,-0.0952 0.22225,-0.127 0.4445,-0.34925 0.34925,-0.34925 0.66675,-0.73025 0.3175,-0.41275 0.60325,-0.85725 0.34925,-0.508 0.5715,-0.889 0.22225,-0.381 0.53975,-0.889 0.127,-0.254 0.22225,-0.34925 0.1905,-0.22225 0.4445,-0.0635 0.15875,0.127 0.0635,0.381 l -0.0952,0.1905 q -0.53975,0.85725 -1.016,1.5875 -0.47625,0.73025 -1.11125,1.524 -0.1905,0.22225 -0.381,0.4445 -0.1905,0.1905 -0.41275,0.381 -0.381,0.381 -0.85725,0.41275 -0.5715,0.0318 -1.016,-0.41275 -0.47625,-0.47625 -0.66675,-1.143 -0.0635,-0.22225 -0.127,-0.41275 -0.0635,-0.22225 -0.127,-0.47625 -0.127,0.0953 -0.3175,0.22225 l -1.23825,1.143 q -0.15875,0.127 -0.28575,0.254 -0.127,0.127 -0.28575,0.254 -0.34925,0.254 -0.5715,0.0635 -0.254,-0.1905 -0.254,-0.47625 0,-0.1905 0.0318,-0.28575 0.0635,-0.15875 0.0952,-0.3175 0.0318,-0.1905 0.0953,-0.34925 0.47625,-1.36525 1.23825,-2.54 0.15875,-0.22225 0.3175,-0.41275 0.15875,-0.1905 0.41275,-0.34925 0.5715,-0.381 1.143,-0.15875 0.254,0.0953 0.4445,0.28575 0.254,0.1905 0.127,0.47625 -0.0952,0.22225 -0.34925,0.22225 -0.254,0 -0.60325,-0.0318 -0.3175,-0.0318 -0.47625,0.15875 -0.0953,0.0953 -0.1905,0.1905 -0.0953,0.0953 -0.15875,0.22225 -0.254,0.381 -0.47625,0.889 -0.22225,0.47625 -0.4445,0.889 -0.0317,0.0635 -0.15875,0.34925 -0.127,0.254 -0.15875,0.34925 z"
         style="font-family:'Prestige Signature Script  Demo';-inkscape-font-specification:'Prestige Signature Script  Demo';text-align:center;text-anchor:middle;fill:#000000;stroke:none"
         id="path1835" />
      <path
         d="m 114.91249,105.40062 q -0.3175,0.254 -0.53975,0.508 -0.1905,0.254 -0.34925,0.53975 -0.28575,0.47625 -0.5715,0.9525 -0.28575,0.47625 -0.53975,0.9525 l -1.905,3.429 -0.1905,0.28575 q -0.15875,0.15875 -0.381,0.127 -0.127,-0.0318 -0.22225,-0.0953 -0.127,-0.0635 -0.127,-0.1905 0,-0.15875 0,-0.28575 0,-0.127 0.0318,-0.28575 0.0952,-0.4445 0.1905,-0.85725 0.0952,-0.41275 0.22225,-0.85725 l 1.61925,-5.5245 q 0.0953,-0.3175 0.254,-0.73025 0.15875,-0.34925 0.47625,-0.28575 0.15875,0.0318 0.28575,0.127 0.127,0.0635 0.127,0.254 0,0.127 -0.0635,0.381 -0.0953,0.381 -0.1905,0.762 -0.0953,0.381 -0.22225,0.762 l -0.85725,2.95275 q -0.0635,0.1905 -0.0318,0.3175 l 0.28575,-0.47625 q 0.28575,-0.53975 0.508,-1.016 0.254,-0.47625 0.5715,-1.016 0.381,-0.66675 0.9525,-1.23825 0.0953,-0.0952 0.1905,-0.1905 0.0953,-0.0952 0.22225,-0.15875 0.635,-0.381 0.9525,0.28575 0.127,0.3175 0.1905,0.73025 0.0635,0.4445 0.0635,0.85725 0,0.41275 0.0317,0.85725 0.0318,0.34925 0.0318,0.73025 0.0318,0.34925 0.0953,0.6985 0.0318,0.28575 0.15875,0.635 0.0635,0.22225 0.28575,0.15875 0.15875,-0.0635 0.28575,-0.0952 0.127,-0.0635 0.254,-0.15875 0.53975,-0.381 0.92075,-0.762 0.4445,-0.4445 0.92075,-0.889 0.508,-0.47625 0.9525,-0.92075 0.0952,-0.0952 0.28575,-0.22225 0.1905,-0.127 0.34925,0.0318 0.0953,0.0953 0.0318,0.3175 -0.0318,0.1905 -0.127,0.28575 -0.34925,0.34925 -0.635,0.60325 -0.254,0.254 -0.47625,0.47625 -0.22225,0.22225 -0.4445,0.41275 -0.1905,0.1905 -0.41275,0.41275 -0.254,0.254 -0.508,0.4445 -0.254,0.1905 -0.508,0.41275 -0.15875,0.15875 -0.34925,0.22225 -0.1905,0.0635 -0.41275,0.127 -0.73025,0.254 -1.143,-0.41275 -0.254,-0.4445 -0.3175,-1.016 -0.0635,-0.34925 -0.0952,-0.66675 0,-0.3175 -0.0318,-0.66675 -0.0318,-0.4445 -0.0318,-0.85725 0,-0.41275 -0.0318,-0.85725 0,-0.0952 -0.0317,-0.1905 0,-0.0952 -0.0318,-0.254 z"
         style="font-family:'Prestige Signature Script  Demo';-inkscape-font-specification:'Prestige Signature Script  Demo';text-align:center;text-anchor:middle;fill:#000000;stroke:none"
         id="path1837" />
      <path
         d="m 119.45276,112.00462 q 0.381,-0.0953 0.6985,-0.41275 0.381,-0.34925 0.762,-0.66675 0.381,-0.34925 0.762,-0.6985 1.04775,-0.92075 1.9685,-1.87325 0.9525,-0.9525 1.9685,-1.778 0.0952,-0.0635 0.34925,-0.127 0.15875,-0.0318 0.28575,0.1905 0.0953,0.15875 0,0.28575 -0.0952,0.15875 -0.254,0.254 -1.016,0.8255 -1.87325,1.651 -0.8255,0.8255 -1.7145,1.651 -0.34925,0.34925 -0.6985,0.66675 -0.34925,0.3175 -0.6985,0.66675 -0.15875,0.15875 -0.34925,0.28575 -0.15875,0.127 -0.3175,0.254 -0.254,0.22225 -0.635,0.381 -0.762,0.3175 -1.17475,-0.41275 -0.1905,-0.3175 -0.1905,-0.762 -0.0318,-0.508 0.0318,-0.98425 0.0635,-0.47625 0.1905,-0.9525 0.15875,-0.6985 0.381,-1.3335 0.22225,-0.66675 0.5715,-1.30175 0.34925,-0.635 0.889,-1.04775 0.53975,-0.381 1.04775,-0.41275 0.73025,-0.0635 1.143,0.381 0.41275,0.4445 0.34925,0.98425 0,0.1905 -0.0318,0.254 -0.127,0.22225 -0.3175,0.22225 -0.1905,0 -0.28575,-0.15875 -0.0635,-0.0635 -0.0952,-0.127 0,-0.0953 -0.0635,-0.15875 -0.1905,-0.381 -0.60325,-0.28575 -0.1905,0.0318 -0.34925,0.15875 -0.381,0.22225 -0.5715,0.635 -0.508,0.9525 -0.8255,1.9685 -0.34925,0.98425 -0.47625,2.06375 -0.0635,0.34925 0.127,0.5715 z"
         style="font-family:'Prestige Signature Script  Demo';-inkscape-font-specification:'Prestige Signature Script  Demo';text-align:center;text-anchor:middle;fill:#000000;stroke:none"
         id="path1839" />
      <path
         d="m 127.10452,103.27337 q -0.41275,0 -0.34925,-0.41275 0,-0.15875 0.0953,-0.254 0.15875,-0.15875 0.28575,-0.28575 0.15875,-0.15875 0.3175,-0.28575 0.22225,-0.15875 0.41275,0 0.22225,0.127 0.22225,0.41275 -0.0318,0.0635 -0.0635,0.15875 0,0.0635 -0.0635,0.127 -0.28575,0.3175 -0.73025,0.47625 -0.0318,0.0318 -0.15875,0.0318 z m 5.36575,3.302 q 0.3175,-0.3175 0.508,-0.0953 0.1905,0.1905 0,0.47625 -0.127,0.1905 -0.22225,0.254 -1.11125,1.0795 -2.25425,2.159 -1.11125,1.04775 -2.25425,2.0955 -0.4445,0.41275 -0.889,0.762 -0.4445,0.381 -0.889,0.73025 -0.254,0.22225 -0.6985,0.381 -0.6985,0.254 -0.92075,-0.4445 -0.0952,-0.28575 -0.0952,-0.5715 0,-0.3175 0,-0.635 -0.0318,-0.28575 0,-0.60325 0.15875,-1.397 0.41275,-2.7305 0.254,-1.36525 0.6985,-2.69875 l 0.28575,-0.762 q 0.0953,-0.1905 0.254,-0.34925 0.1905,-0.1905 0.47625,-0.0952 0.0952,0.0318 0.0952,0.15875 0.0318,0.127 0,0.3175 0,0.15875 -0.0635,0.3175 -0.0317,0.127 -0.0635,0.22225 -0.508,1.61925 -0.79375,3.302 -0.28575,1.651 -0.508,3.3655 0,0.254 0.3175,0.127 0.3175,-0.0952 0.4445,-0.1905 0.34925,-0.254 0.66675,-0.508 0.3175,-0.22225 0.635,-0.47625 0.635,-0.5715 1.23825,-1.143 0.635,-0.5715 1.27,-1.143 0.60325,-0.53975 1.17475,-1.11125 0.5715,-0.5715 1.17475,-1.11125 z"
         style="font-family:'Prestige Signature Script  Demo';-inkscape-font-specification:'Prestige Signature Script  Demo';text-align:center;text-anchor:middle;fill:#000000;stroke:none"
         id="path1841" />
      <path
         d="m 134.915,113.49687 q -0.0635,0.0635 -0.0952,0.0952 -0.0317,0.0635 -0.0635,0.127 l -0.66675,0.85725 q -0.73025,1.016 -1.397,2.00025 -0.66675,1.016 -1.23825,2.12725 -0.1905,0.381 -0.34925,0.762 -0.1905,0.41275 -0.34925,0.79375 -0.0318,0.0635 -0.0318,0.254 0.635,-0.34925 1.4605,-1.30175 0.8255,-0.9525 1.4605,-2.0955 0.60325,-1.04775 0.9525,-2.06375 0.381,-1.016 0.3175,-1.524 z m 0.127,-9.49325 q -0.9525,0.73025 -1.49225,1.8415 -0.3175,0.635 0.22225,1.17475 l 0.762,0.85725 q 1.016,1.2065 1.27,2.8575 l 0.0952,0.47625 q 0.127,0.0318 0.15875,-0.0318 0.0318,-0.0952 0.0953,-0.15875 0.79375,-0.9525 1.61925,-1.8415 0.85725,-0.92075 1.74625,-1.80975 0.1905,-0.1905 0.381,-0.381 0.22225,-0.1905 0.4445,-0.381 0.22225,-0.1905 0.41275,-0.0317 0.1905,0.15875 0,0.41275 -0.0952,0.127 -0.22225,0.254 -0.0952,0.0953 -0.22225,0.22225 -1.016,1.016 -2.032,2.06375 -0.98425,1.016 -1.905,2.12725 -0.0635,0.0635 -0.0952,0.0952 -0.0317,0.0635 -0.0952,0.127 -0.28575,0.28575 -0.34925,0.79375 -0.0952,1.016 -0.381,1.93675 -0.254,0.9525 -0.6985,1.87325 -0.47625,1.016 -1.11125,1.93675 -0.60325,0.92075 -1.42875,1.68275 -0.47625,0.47625 -1.04775,0.85725 -0.22225,0.127 -0.53975,0.1905 -0.5715,0.0953 -0.5715,-0.508 0,-0.15875 0.0635,-0.34925 0.0635,-0.254 0.15875,-0.47625 0.0635,-0.22225 0.15875,-0.4445 0.22225,-0.53975 0.508,-1.04775 0.254,-0.508 0.5715,-1.016 0.762,-1.30175 1.61925,-2.50825 0.85725,-1.2065 1.778,-2.38125 0.3175,-0.41275 0.3175,-0.92075 -0.0635,-0.98425 -0.3175,-1.778 -0.28575,-0.8255 -0.92075,-1.524 -0.15875,-0.15875 -0.3175,-0.3175 -0.127,-0.1905 -0.28575,-0.34925 -0.127,-0.127 -0.254,-0.22225 -0.0952,-0.127 -0.1905,-0.28575 -0.381,-0.508 -0.127,-1.17475 0.15875,-0.41275 0.381,-0.73025 0.66675,-1.016 1.651,-1.7145 0.254,-0.22225 0.53975,-0.254 0.47625,-0.0953 0.53975,0.41275 0,0.1905 -0.0953,0.381 -0.15875,0.3175 -0.508,0.0953 -0.0635,-0.0318 -0.0953,-0.0635 -0.0317,-0.0318 -0.0952,-0.0952 z"
         style="font-family:'Prestige Signature Script  Demo';-inkscape-font-specification:'Prestige Signature Script  Demo';text-align:center;text-anchor:middle;fill:#000000;stroke:none"
         id="path1843" />
      <path
         d="m 139.74101,112.00462 q 0.381,-0.0953 0.6985,-0.41275 0.381,-0.34925 0.762,-0.66675 0.381,-0.34925 0.762,-0.6985 1.04775,-0.92075 1.9685,-1.87325 0.9525,-0.9525 1.9685,-1.778 0.0952,-0.0635 0.34925,-0.127 0.15875,-0.0318 0.28575,0.1905 0.0953,0.15875 0,0.28575 -0.0952,0.15875 -0.254,0.254 -1.016,0.8255 -1.87325,1.651 -0.8255,0.8255 -1.7145,1.651 -0.34925,0.34925 -0.6985,0.66675 -0.34925,0.3175 -0.6985,0.66675 -0.15875,0.15875 -0.34925,0.28575 -0.15875,0.127 -0.3175,0.254 -0.254,0.22225 -0.635,0.381 -0.762,0.3175 -1.17475,-0.41275 -0.1905,-0.3175 -0.1905,-0.762 -0.0318,-0.508 0.0317,-0.98425 0.0635,-0.47625 0.1905,-0.9525 0.15875,-0.6985 0.381,-1.3335 0.22225,-0.66675 0.5715,-1.30175 0.34925,-0.635 0.889,-1.04775 0.53975,-0.381 1.04775,-0.41275 0.73025,-0.0635 1.143,0.381 0.41275,0.4445 0.34925,0.98425 0,0.1905 -0.0317,0.254 -0.127,0.22225 -0.3175,0.22225 -0.1905,0 -0.28575,-0.15875 -0.0635,-0.0635 -0.0952,-0.127 0,-0.0953 -0.0635,-0.15875 -0.1905,-0.381 -0.60325,-0.28575 -0.1905,0.0318 -0.34925,0.15875 -0.381,0.22225 -0.5715,0.635 -0.508,0.9525 -0.8255,1.9685 -0.34925,0.98425 -0.47625,2.06375 -0.0635,0.34925 0.127,0.5715 z"
         style="font-family:'Prestige Signature Script  Demo';-inkscape-font-specification:'Prestige Signature Script  Demo';text-align:center;text-anchor:middle;fill:#000000;stroke:none"
         id="path1845" />
      <path
         d="m 146.82127,106.57537 q 0.41275,-0.508 0.79375,-0.3175 0.381,0.15875 0.381,0.6985 0.0318,0.28575 -0.0317,0.5715 -0.0317,0.28575 -0.0952,0.5715 l -0.0635,0.34925 q 0.60325,-0.0953 1.11125,-0.381 0.508,-0.28575 0.889,-0.5715 0.381,-0.3175 0.635,-0.60325 0.28575,-0.28575 0.41275,-0.381 0.15875,-0.127 0.34925,-0.0318 0.22225,0.0635 0.0953,0.3175 -0.0953,0.1905 -0.41275,0.53975 -0.3175,0.34925 -0.8255,0.73025 -0.508,0.381 -1.143,0.73025 -0.635,0.3175 -1.36525,0.4445 -0.15875,0.254 -0.3175,0.508 -0.15875,0.254 -0.3175,0.508 -0.22225,0.34925 -0.5715,0.6985 -0.22225,0.22225 -0.508,0.3175 -0.66675,0.254 -1.016,-0.34925 -0.254,-0.41275 -0.254,-0.85725 -0.0635,-1.651 0.6985,-3.048 0.127,-0.22225 0.34925,-0.4445 0.508,-0.381 0.85725,0.22225 0,0.0318 0.0635,0.15875 z m -0.0952,2.6035 q -0.0635,-0.0635 -0.0635,-0.0635 -0.508,-0.254 -0.508,-0.9525 v -0.1905 q 0,-0.0635 0,-0.0952 0.0318,-0.0318 -0.0635,-0.0635 -0.254,0.53975 -0.381,1.0795 -0.127,0.53975 -0.22225,1.0795 -0.0318,0.127 -0.0318,0.254 0,0.127 0.0952,0.28575 0.4445,-0.254 0.66675,-0.60325 0.254,-0.34925 0.508,-0.6985 z m 0.635,-2.38125 q -0.0952,0 -0.0952,0.0318 -0.34925,0.4445 -0.508,1.04775 -0.0317,0.0952 -0.0317,0.22225 0.0317,0.0953 0.0317,0.22225 0,0.15875 0.1905,0.1905 0.127,0.0318 0.1905,-0.0952 0.3175,-0.73025 0.3175,-1.397 0,-0.0635 -0.0635,-0.1905 z"
         style="font-family:'Prestige Signature Script  Demo';-inkscape-font-specification:'Prestige Signature Script  Demo';text-align:center;text-anchor:middle;fill:#000000;stroke:none"
         id="path1847" />
      <path
         d="m 82.432283,167.4336 q 0.127,-0.127 0.15875,-0.254 0.03175,-0.127 0.09525,-0.254 0.762,-1.778 1.49225,-3.52425 0.762,-1.74625 1.524,-3.52425 1.11125,-2.63525 2.286,-5.207 1.17475,-2.57175 2.54,-5.08 0.635,-1.143 1.30175,-2.25425 0.66675,-1.143 1.3335,-2.25425 0.6985,-1.143 1.68275,-2.19075 0.09525,-0.0952 0.1905,-0.1905 0.09525,-0.0952 0.22225,-0.15875 0.28575,-0.15875 0.53975,-0.0317 0.254,0.0952 0.28575,0.4445 0.03175,0.3175 -0.0635,0.6985 -0.15875,0.73025 -0.34925,1.49225 -0.1905,0.73025 -0.34925,1.4605 -0.6985,3.01625 -1.397,6.00075 -0.66675,2.9845 -1.2065,6.0325 -0.15875,0.8255 -0.3175,1.651 -0.15875,0.85725 -0.3175,1.68275 -0.03175,0.127 -0.03175,0.254 0,0.127 -0.03175,0.28575 0.1905,-0.127 0.1905,-0.127 0.22225,-0.3175 0.41275,-0.60325 0.22225,-0.28575 0.41275,-0.60325 l 4.47675,-8.001 q 0.98425,-1.74625 1.905,-3.4925 0.952497,-1.74625 1.936747,-3.4925 0.8255,-1.524 1.778,-2.95275 0.9525,-1.4605 2.00025,-2.8575 0.15875,-0.22225 0.3175,-0.41275 0.1905,-0.22225 0.34925,-0.41275 0.3175,-0.381 0.8255,-0.5715 0.254,-0.127 0.47625,0 0.254,0.127 0.254,0.41275 0,0.381 -0.0953,0.762 -0.34925,1.397 -0.6985,2.76225 -0.3175,1.36525 -0.66675,2.76225 -0.28575,1.11125 -0.5715,2.19075 -0.254,1.0795 -0.53975,2.19075 l -1.7145,6.6675 q -0.41275,1.61925 -0.79375,3.2385 -0.381,1.61925 -0.8255,3.2385 -0.66675,2.57175 -1.27,5.1435 -0.571497,2.6035 -1.206497,5.17525 -0.508,2.0955 -0.762,4.2545 -0.0635,0.41275 -0.0635,0.79375 0.03175,0.41275 0.03175,0.8255 0,0.3175 0.127,0.53975 l 0.09525,0.1905 q 0.09525,0.381 -0.28575,0.4445 -0.28575,0.0317 -0.47625,-0.15875 -0.254,-0.22225 -0.28575,-0.5715 -0.03175,-0.254 -0.0635,-0.53975 0,-0.254 0,-0.508 0.03175,-0.85725 0.09525,-1.7145 0.09525,-0.8255 0.254,-1.651 0.254,-1.36525 0.53975,-2.7305 0.28575,-1.3335 0.5715,-2.69875 0.60325,-2.88925 1.301747,-5.74675 0.6985,-2.82575 1.397,-5.715 0.254,-1.11125 0.53975,-2.19075 0.3175,-1.0795 0.60325,-2.19075 l 1.524,-5.9055 q 0.41275,-1.61925 0.79375,-3.175 0.41275,-1.5875 0.85725,-3.20675 0.0953,-0.381 0.22225,-0.762 0.127,-0.381 0.254,-0.762 0.0317,-0.0953 0.0635,-0.1905 0.0635,-0.0952 0,-0.22225 -0.15875,0.0635 -0.254,0.15875 -0.0635,0.0953 -0.127,0.1905 -1.23825,1.524 -2.38125,3.302 -0.9525,1.49225 -1.80975,3.01625 -0.85725,1.49225 -1.68275,3.01625 l -2.857497,5.1435 -3.71475,6.6675 q -0.22225,0.41275 -0.4445,0.79375 -0.22225,0.381 -0.47625,0.762 -0.0635,0.127 -0.15875,0.22225 -0.0635,0.127 -0.15875,0.22225 -0.3175,0.28575 -0.66675,0.1905 -0.34925,-0.0953 -0.4445,-0.508 -0.0635,-0.1905 -0.0635,-0.381 0,-0.1905 0,-0.381 0.0635,-0.66675 0.15875,-1.3335 0.09525,-0.66675 0.22225,-1.3335 0.3175,-1.68275 0.60325,-3.33375 0.3175,-1.651 0.66675,-3.33375 0.1905,-0.889 0.381,-1.74625 0.22225,-0.889 0.4445,-1.778 0.22225,-0.9525 0.41275,-1.905 0.22225,-0.9525 0.47625,-1.905 0.09525,-0.41275 0.1905,-0.79375 0.127,-0.41275 0.254,-0.8255 0.03175,-0.0635 0.03175,-0.0952 0,-0.0635 0.03175,-0.15875 -0.0635,0.0635 -0.127,0.0952 -0.03175,0.0318 -0.0635,0.0953 -0.28575,0.41275 -0.60325,0.8255 -0.28575,0.381 -0.53975,0.8255 -1.2065,1.87325 -2.25425,3.77825 -1.04775,1.905 -2.00025,3.90525 -1.27,2.6035 -2.413,5.23875 -1.11125,2.63525 -2.2225,5.334 -0.53975,1.3335 -1.11125,2.6035 -0.5715,1.27 -1.143,2.57175 -0.0635,0.15875 -0.15875,0.28575 -0.09525,0.15875 -0.1905,0.3175 -0.09525,0.1905 -0.254,0.28575 -0.15875,0.127 -0.3175,0.22225 -0.15875,0.0952 -0.3175,0 -0.127,-0.0635 -0.15875,-0.254 -0.0635,-0.41275 0.03175,-0.762 0.1905,-0.92075 0.34925,-1.87325 0.1905,-0.9525 0.41275,-1.87325 0.34925,-1.61925 0.73025,-3.20675 0.41275,-1.55575 0.762,-3.175 0.34925,-1.524 0.73025,-3.01625 0.41275,-1.524 0.79375,-3.048 0.381,-1.55575 0.762,-3.07975 0.381,-1.55575 0.73025,-3.1115 0.15875,-0.73025 0.28575,-1.49225 0.127,-0.762 0.28575,-1.524 0.0635,-0.381 0.127,-0.762 0.0635,-0.381 0.127,-0.762 0.0635,-0.4445 0.0635,-0.85725 0.03175,-0.41275 0,-0.85725 -0.03175,-0.508 -0.28575,-0.98425 -0.254,-0.47625 -0.6985,-0.508 -0.15875,-0.0318 -0.34925,-0.0318 -0.1905,-0.0317 -0.34925,0 -0.6985,0.0952 -1.2065,0.3175 -0.85725,0.3175 -1.68275,0.73025 -0.79375,0.41275 -1.524,0.9525 -1.61925,1.2065 -2.9845,2.63525 -1.3335,1.42875 -2.38125,3.14325 -0.5715,0.92075 -1.04775,1.905 -0.47625,0.9525 -0.79375,2.00025 -0.1905,0.635 -0.3175,1.30175 -0.09525,0.635 -0.03175,1.30175 0.0635,1.016 0.41275,1.87325 0.6985,1.651 2.54,2.0955 0.508,0.127 0.98425,0.127 0.508,0 1.016,-0.0635 0.41275,-0.0635 0.79375,-0.0952 0.41275,-0.0317 0.8255,-0.15875 h 0.127 q 0.0635,0.0317 0.09525,0.0635 0.0635,0 0.127,0.0635 0.09525,0.15875 -0.03175,0.28575 -0.254,0.1905 -0.381,0.22225 -0.381,0.15875 -0.762,0.1905 -0.47625,0.0635 -0.98425,0.127 -0.47625,0.0318 -0.98425,0 -0.508,0 -1.143,-0.15875 -2.032,-0.53975 -2.82575,-2.413 -0.79375,-1.8415 -0.34925,-3.90525 0.28575,-1.36525 0.92075,-2.76225 1.68275,-3.683 4.60375,-6.38175 0.53975,-0.47625 1.04775,-0.9525 0.53975,-0.47625 1.0795,-0.92075 0.92075,-0.73025 1.905,-1.2065 1.016,-0.47625 2.12725,-0.79375 0.6985,-0.1905 1.3335,-0.15875 1.016,0.0635 1.524,0.92075 0.22225,0.41275 0.3175,0.85725 0.09525,0.41275 0.127,0.85725 0.03175,0.9525 -0.09525,1.905 -0.15875,1.17475 -0.34925,2.3495 -0.1905,1.143 -0.47625,2.286 -0.60325,2.3495 -1.2065,4.66725 -0.5715,2.31775 -1.143,4.66725 -0.22225,0.92075 -0.41275,1.80975 -0.1905,0.889 -0.41275,1.80975 -0.3175,1.3335 -0.635,2.667 -0.3175,1.3335 -0.66675,2.667 -0.0635,0.34925 -0.15875,0.6985 -0.0635,0.34925 -0.127,0.6985 v 0.127 z"
         style="font-family:'Prestige Signature Script  Demo';-inkscape-font-specification:'Prestige Signature Script  Demo';text-align:center;text-anchor:middle;fill:#000000;stroke:none"
         id="path1849" />
      <path
         d="m 106.08601,157.30535 q 0.15875,-0.15875 0.41275,-0.381 0.254,-0.22225 0.508,-0.4445 0.254,-0.22225 0.47625,-0.41275 0.254,-0.22225 0.41275,-0.34925 0.1905,-0.1905 0.3175,-0.254 0.15875,-0.127 0.3175,-0.0635 0.1905,0.0635 0.254,0.254 0.0635,0.15875 0.0317,0.1905 0,0.0317 0.0635,0.1905 0.0953,0.28575 0.15875,0.5715 0.0953,0.28575 0.22225,0.5715 0.0635,0.15875 0.15875,0.3175 0.127,0.127 0.254,0.28575 0.127,0.15875 0.34925,0.22225 0.22225,0.0317 0.381,-0.0952 0.22225,-0.127 0.4445,-0.34925 0.34925,-0.34925 0.66675,-0.73025 0.3175,-0.41275 0.60325,-0.85725 0.34925,-0.508 0.5715,-0.889 0.22225,-0.381 0.53975,-0.889 0.127,-0.254 0.22225,-0.34925 0.1905,-0.22225 0.4445,-0.0635 0.15875,0.127 0.0635,0.381 l -0.0952,0.1905 q -0.53975,0.85725 -1.016,1.5875 -0.47625,0.73025 -1.11125,1.524 -0.1905,0.22225 -0.381,0.4445 -0.1905,0.1905 -0.41275,0.381 -0.381,0.381 -0.85725,0.41275 -0.5715,0.0318 -1.016,-0.41275 -0.47625,-0.47625 -0.66675,-1.143 -0.0635,-0.22225 -0.127,-0.41275 -0.0635,-0.22225 -0.127,-0.47625 -0.127,0.0952 -0.3175,0.22225 l -1.23825,1.143 q -0.15875,0.127 -0.28575,0.254 -0.127,0.127 -0.28575,0.254 -0.34925,0.254 -0.5715,0.0635 -0.254,-0.1905 -0.254,-0.47625 0,-0.1905 0.0317,-0.28575 0.0635,-0.15875 0.0953,-0.3175 0.0318,-0.1905 0.0952,-0.34925 0.47625,-1.36525 1.23825,-2.54 0.15875,-0.22225 0.3175,-0.41275 0.15875,-0.1905 0.41275,-0.34925 0.5715,-0.381 1.143,-0.15875 0.254,0.0953 0.4445,0.28575 0.254,0.1905 0.127,0.47625 -0.0953,0.22225 -0.34925,0.22225 -0.254,0 -0.60325,-0.0317 -0.3175,-0.0318 -0.47625,0.15875 -0.0952,0.0952 -0.1905,0.1905 -0.0952,0.0953 -0.15875,0.22225 -0.254,0.381 -0.47625,0.889 -0.22225,0.47625 -0.4445,0.889 -0.0318,0.0635 -0.15875,0.34925 -0.127,0.254 -0.15875,0.34925 z"
         style="font-family:'Prestige Signature Script  Demo';-inkscape-font-specification:'Prestige Signature Script  Demo';text-align:center;text-anchor:middle;fill:#000000;stroke:none"
         id="path1851" />
      <path
         d="m 112.88049,159.01985 q 0.381,-0.0952 0.6985,-0.41275 0.381,-0.34925 0.762,-0.66675 0.381,-0.34925 0.762,-0.6985 1.04775,-0.92075 1.9685,-1.87325 0.9525,-0.9525 1.9685,-1.778 0.0952,-0.0635 0.34925,-0.127 0.15875,-0.0318 0.28575,0.1905 0.0953,0.15875 0,0.28575 -0.0952,0.15875 -0.254,0.254 -1.016,0.8255 -1.87325,1.651 -0.8255,0.8255 -1.7145,1.651 -0.34925,0.34925 -0.6985,0.66675 -0.34925,0.3175 -0.6985,0.66675 -0.15875,0.15875 -0.34925,0.28575 -0.15875,0.127 -0.3175,0.254 -0.254,0.22225 -0.635,0.381 -0.762,0.3175 -1.17475,-0.41275 -0.1905,-0.3175 -0.1905,-0.762 -0.0318,-0.508 0.0318,-0.98425 0.0635,-0.47625 0.1905,-0.9525 0.15875,-0.6985 0.381,-1.3335 0.22225,-0.66675 0.5715,-1.30175 0.34925,-0.635 0.889,-1.04775 0.53975,-0.381 1.04775,-0.41275 0.73025,-0.0635 1.143,0.381 0.41275,0.4445 0.34925,0.98425 0,0.1905 -0.0318,0.254 -0.127,0.22225 -0.3175,0.22225 -0.1905,0 -0.28575,-0.15875 -0.0635,-0.0635 -0.0952,-0.127 0,-0.0952 -0.0635,-0.15875 -0.1905,-0.381 -0.60325,-0.28575 -0.1905,0.0317 -0.34925,0.15875 -0.381,0.22225 -0.5715,0.635 -0.508,0.9525 -0.8255,1.9685 -0.34925,0.98425 -0.47625,2.06375 -0.0635,0.34925 0.127,0.5715 z"
         style="font-family:'Prestige Signature Script  Demo';-inkscape-font-specification:'Prestige Signature Script  Demo';text-align:center;text-anchor:middle;fill:#000000;stroke:none"
         id="path1853" />
      <path
         d="m 117.80175,157.30535 q 0.15875,-0.15875 0.41275,-0.381 0.254,-0.22225 0.508,-0.4445 0.254,-0.22225 0.47625,-0.41275 0.254,-0.22225 0.41275,-0.34925 0.1905,-0.1905 0.3175,-0.254 0.15875,-0.127 0.3175,-0.0635 0.1905,0.0635 0.254,0.254 0.0635,0.15875 0.0318,0.1905 0,0.0317 0.0635,0.1905 0.0953,0.28575 0.15875,0.5715 0.0953,0.28575 0.22225,0.5715 0.0635,0.15875 0.15875,0.3175 0.127,0.127 0.254,0.28575 0.127,0.15875 0.34925,0.22225 0.22225,0.0317 0.381,-0.0952 0.22225,-0.127 0.4445,-0.34925 0.34925,-0.34925 0.66675,-0.73025 0.3175,-0.41275 0.60325,-0.85725 0.34925,-0.508 0.5715,-0.889 0.22225,-0.381 0.53975,-0.889 0.127,-0.254 0.22225,-0.34925 0.1905,-0.22225 0.4445,-0.0635 0.15875,0.127 0.0635,0.381 l -0.0952,0.1905 q -0.53975,0.85725 -1.016,1.5875 -0.47625,0.73025 -1.11125,1.524 -0.1905,0.22225 -0.381,0.4445 -0.1905,0.1905 -0.41275,0.381 -0.381,0.381 -0.85725,0.41275 -0.5715,0.0318 -1.016,-0.41275 -0.47625,-0.47625 -0.66675,-1.143 -0.0635,-0.22225 -0.127,-0.41275 -0.0635,-0.22225 -0.127,-0.47625 -0.127,0.0952 -0.3175,0.22225 l -1.23825,1.143 q -0.15875,0.127 -0.28575,0.254 -0.127,0.127 -0.28575,0.254 -0.34925,0.254 -0.5715,0.0635 -0.254,-0.1905 -0.254,-0.47625 0,-0.1905 0.0318,-0.28575 0.0635,-0.15875 0.0952,-0.3175 0.0318,-0.1905 0.0953,-0.34925 0.47625,-1.36525 1.23825,-2.54 0.15875,-0.22225 0.3175,-0.41275 0.15875,-0.1905 0.41275,-0.34925 0.5715,-0.381 1.143,-0.15875 0.254,0.0953 0.4445,0.28575 0.254,0.1905 0.127,0.47625 -0.0952,0.22225 -0.34925,0.22225 -0.254,0 -0.60325,-0.0317 -0.3175,-0.0318 -0.47625,0.15875 -0.0953,0.0952 -0.1905,0.1905 -0.0953,0.0953 -0.15875,0.22225 -0.254,0.381 -0.47625,0.889 -0.22225,0.47625 -0.4445,0.889 -0.0317,0.0635 -0.15875,0.34925 -0.127,0.254 -0.15875,0.34925 z"
         style="font-family:'Prestige Signature Script  Demo';-inkscape-font-specification:'Prestige Signature Script  Demo';text-align:center;text-anchor:middle;fill:#000000;stroke:none"
         id="path1855" />
      <path
         d="m 125.77097,152.98735 q 0.60325,-1.3335 0.889,-2.19075 0.3175,-0.85725 0.41275,-1.3335 0.127,-0.47625 0.0952,-0.66675 0,-0.22225 0,-0.28575 -0.0635,0.127 -0.0635,0.127 -0.1905,0.4445 -0.41275,1.016 -0.1905,0.5715 -0.381,1.17475 -0.1905,0.60325 -0.34925,1.17475 -0.127,0.5715 -0.1905,0.98425 z m 3.429,-0.381 q -0.5715,0.34925 -1.30175,0.8255 -0.6985,0.4445 -1.27,0.6985 -0.381,0.1905 -0.79375,0.1905 -0.92075,-0.0318 -0.85725,-1.016 0.15875,-1.27 0.47625,-2.38125 0.34925,-1.11125 0.85725,-2.2225 0.0635,-0.15875 0.127,-0.3175 0.0953,-0.1905 0.1905,-0.34925 0.0953,-0.1905 0.254,-0.34925 0.15875,-0.15875 0.381,-0.15875 0.254,0 0.381,0.22225 0.15875,0.254 0.15875,0.73025 0,0.47625 -0.0953,0.85725 -0.41275,1.87325 -1.3335,3.65125 l -0.0952,0.1905 q 0.0635,0.0952 0.15875,0.0952 0.127,-0.0317 0.1905,-0.0952 0.60325,-0.254 1.23825,-0.6985 0.66675,-0.47625 1.27,-0.8255 0.254,-0.127 0.41275,-0.15875 0.1905,-0.0635 0.3175,0.0635 0.15875,0.127 0.127,0.3175 0,0.15875 -0.0635,0.47625 -0.22225,0.762 -0.4445,1.524 -0.1905,0.762 -0.381,1.524 -0.254,1.016 -0.508,2.032 -0.254,0.98425 -0.41275,2.00025 -0.0635,0.41275 -0.127,0.79375 -0.0635,0.41275 -0.0318,0.8255 0,0.127 0,0.254 0,0.127 0.127,0.254 0.0635,-0.0318 0.0952,-0.0318 0.0635,0 0.127,-0.0635 0.1905,-0.15875 0.381,-0.34925 0.22225,-0.15875 0.381,-0.381 1.3335,-1.61925 2.413,-3.429 1.0795,-1.80975 2.0955,-3.58775 0.127,-0.1905 0.1905,-0.254 0.15875,-0.15875 0.3175,-0.0635 0.1905,0.0952 0.15875,0.28575 -0.0635,0.1905 -0.1905,0.41275 -0.635,1.11125 -1.2065,2.0955 -0.53975,0.98425 -1.143,1.905 -0.5715,0.92075 -1.2065,1.778 -0.635,0.85725 -1.36525,1.7145 -0.1905,0.1905 -0.381,0.34925 -0.1905,0.15875 -0.381,0.22225 -0.1905,0.0635 -0.41275,0 -0.1905,-0.0635 -0.381,-0.3175 -0.254,-0.34925 -0.254,-0.79375 0,-0.254 0,-0.53975 0,-0.254 0.0635,-0.508 0.254,-1.80975 0.635,-3.556 0.41275,-1.778 1.04775,-3.4925 0.0635,-0.1905 0.0635,-0.254 0.0317,-0.0635 0,-0.0953 z"
         style="font-family:'Prestige Signature Script  Demo';-inkscape-font-specification:'Prestige Signature Script  Demo';text-align:center;text-anchor:middle;fill:#000000;stroke:none"
         id="path1857" />
      <path
         d="m 137.01047,149.0821 q -0.34925,0.3175 -0.73025,0.9525 -0.381,0.60325 -0.9525,1.80975 -0.0635,0.15875 -0.15875,0.34925 -0.0635,0.15875 -0.0952,0.41275 0.635,-0.6985 1.11125,-1.42875 0.508,-0.73025 0.8255,-1.55575 0.127,-0.254 0.0635,-0.47625 z m -4.2545,7.77875 q 0.0318,-0.60325 0.22225,-1.36525 0.15875,-0.79375 0.4445,-1.61925 0.28575,-0.85725 0.66675,-1.651 0.41275,-0.8255 0.85725,-1.55575 0.254,-0.381 0.508,-0.73025 0.254,-0.381 0.508,-0.73025 0.0953,-0.15875 0.1905,-0.254 0.127,-0.127 0.254,-0.254 0.15875,-0.15875 0.34925,-0.254 0.5715,-0.254 0.79375,0.381 0.0952,0.34925 0,0.66675 -0.0635,0.15875 -0.127,0.34925 -0.0317,0.15875 -0.0952,0.3175 -0.73025,1.7145 -2.00025,3.048 -0.15875,0.15875 -0.34925,0.3175 -0.1905,0.127 -0.381,0.28575 -0.22225,0.15875 -0.254,0.34925 -0.1905,0.635 -0.34925,1.30175 -0.15875,0.635 -0.22225,1.30175 0,0.1905 0,0.381 0.0317,0.1905 0.0317,0.381 v 0.1905 q 0.1905,0.5715 0.73025,0.381 0.34925,-0.0952 0.635,-0.28575 0.28575,-0.1905 0.5715,-0.381 0.28575,-0.1905 0.53975,-0.41275 0.53975,-0.41275 1.016,-0.85725 0.47625,-0.47625 0.9525,-0.9525 0.34925,-0.381 0.6985,-0.762 0.381,-0.381 0.73025,-0.73025 0.0952,-0.0952 0.34925,-0.28575 0.22225,-0.0952 0.381,0.0635 0.22225,0.15875 0.0635,0.41275 -0.127,0.1905 -0.22225,0.28575 -0.41275,0.4445 -0.8255,0.85725 -0.381,0.381 -0.79375,0.8255 -0.6985,0.73025 -1.42875,1.397 -0.73025,0.66675 -1.55575,1.2065 -0.1905,0.127 -0.381,0.22225 -0.1905,0.127 -0.41275,0.22225 -0.73025,0.34925 -1.23825,0 -0.53975,-0.3175 -0.73025,-0.92075 l -0.0952,-0.47625 q -0.0318,-0.15875 -0.0318,-0.3175 0,-0.1905 0,-0.34925 z"
         style="font-family:'Prestige Signature Script  Demo';-inkscape-font-specification:'Prestige Signature Script  Demo';text-align:center;text-anchor:middle;fill:#000000;stroke:none"
         id="path1859" />
      <path
         d="m 143.26524,152.41585 q -0.3175,0.254 -0.53975,0.508 -0.1905,0.254 -0.34925,0.53975 -0.28575,0.47625 -0.5715,0.9525 -0.28575,0.47625 -0.53975,0.9525 l -1.905,3.429 -0.1905,0.28575 q -0.15875,0.15875 -0.381,0.127 -0.127,-0.0318 -0.22225,-0.0952 -0.127,-0.0635 -0.127,-0.1905 0,-0.15875 0,-0.28575 0,-0.127 0.0317,-0.28575 0.0952,-0.4445 0.1905,-0.85725 0.0953,-0.41275 0.22225,-0.85725 l 1.61925,-5.5245 q 0.0952,-0.3175 0.254,-0.73025 0.15875,-0.34925 0.47625,-0.28575 0.15875,0.0318 0.28575,0.127 0.127,0.0635 0.127,0.254 0,0.127 -0.0635,0.381 -0.0952,0.381 -0.1905,0.762 -0.0952,0.381 -0.22225,0.762 l -0.85725,2.95275 q -0.0635,0.1905 -0.0317,0.3175 l 0.28575,-0.47625 q 0.28575,-0.53975 0.508,-1.016 0.254,-0.47625 0.5715,-1.016 0.381,-0.66675 0.9525,-1.23825 0.0952,-0.0952 0.1905,-0.1905 0.0952,-0.0953 0.22225,-0.15875 0.635,-0.381 0.9525,0.28575 0.127,0.3175 0.1905,0.73025 0.0635,0.4445 0.0635,0.85725 0,0.41275 0.0318,0.85725 0.0317,0.34925 0.0317,0.73025 0.0318,0.34925 0.0952,0.6985 0.0318,0.28575 0.15875,0.635 0.0635,0.22225 0.28575,0.15875 0.15875,-0.0635 0.28575,-0.0952 0.127,-0.0635 0.254,-0.15875 0.53975,-0.381 0.92075,-0.762 0.4445,-0.4445 0.92075,-0.889 0.508,-0.47625 0.9525,-0.92075 0.0952,-0.0952 0.28575,-0.22225 0.1905,-0.127 0.34925,0.0317 0.0952,0.0952 0.0318,0.3175 -0.0318,0.1905 -0.127,0.28575 -0.34925,0.34925 -0.635,0.60325 -0.254,0.254 -0.47625,0.47625 -0.22225,0.22225 -0.4445,0.41275 -0.1905,0.1905 -0.41275,0.41275 -0.254,0.254 -0.508,0.4445 -0.254,0.1905 -0.508,0.41275 -0.15875,0.15875 -0.34925,0.22225 -0.1905,0.0635 -0.41275,0.127 -0.73025,0.254 -1.143,-0.41275 -0.254,-0.4445 -0.3175,-1.016 -0.0635,-0.34925 -0.0953,-0.66675 0,-0.3175 -0.0317,-0.66675 -0.0317,-0.4445 -0.0317,-0.85725 0,-0.41275 -0.0318,-0.85725 0,-0.0952 -0.0317,-0.1905 0,-0.0952 -0.0318,-0.254 z"
         style="font-family:'Prestige Signature Script  Demo';-inkscape-font-specification:'Prestige Signature Script  Demo';text-align:center;text-anchor:middle;fill:#000000;stroke:none"
         id="path1861" />
      <path
         d="m 147.01175,157.30535 q 0.15875,-0.15875 0.41275,-0.381 0.254,-0.22225 0.508,-0.4445 0.254,-0.22225 0.47625,-0.41275 0.254,-0.22225 0.41275,-0.34925 0.1905,-0.1905 0.3175,-0.254 0.15875,-0.127 0.3175,-0.0635 0.1905,0.0635 0.254,0.254 0.0635,0.15875 0.0318,0.1905 0,0.0317 0.0635,0.1905 0.0953,0.28575 0.15875,0.5715 0.0953,0.28575 0.22225,0.5715 0.0635,0.15875 0.15875,0.3175 0.127,0.127 0.254,0.28575 0.127,0.15875 0.34925,0.22225 0.22225,0.0317 0.381,-0.0952 0.22225,-0.127 0.4445,-0.34925 0.34925,-0.34925 0.66675,-0.73025 0.3175,-0.41275 0.60325,-0.85725 0.34925,-0.508 0.5715,-0.889 0.22225,-0.381 0.53975,-0.889 0.127,-0.254 0.22225,-0.34925 0.1905,-0.22225 0.4445,-0.0635 0.15875,0.127 0.0635,0.381 l -0.0952,0.1905 q -0.53975,0.85725 -1.016,1.5875 -0.47625,0.73025 -1.11125,1.524 -0.1905,0.22225 -0.381,0.4445 -0.1905,0.1905 -0.41275,0.381 -0.381,0.381 -0.85725,0.41275 -0.5715,0.0318 -1.016,-0.41275 -0.47625,-0.47625 -0.66675,-1.143 -0.0635,-0.22225 -0.127,-0.41275 -0.0635,-0.22225 -0.127,-0.47625 -0.127,0.0952 -0.3175,0.22225 l -1.23825,1.143 q -0.15875,0.127 -0.28575,0.254 -0.127,0.127 -0.28575,0.254 -0.34925,0.254 -0.5715,0.0635 -0.254,-0.1905 -0.254,-0.47625 0,-0.1905 0.0318,-0.28575 0.0635,-0.15875 0.0952,-0.3175 0.0317,-0.1905 0.0952,-0.34925 0.47625,-1.36525 1.23825,-2.54 0.15875,-0.22225 0.3175,-0.41275 0.15875,-0.1905 0.41275,-0.34925 0.5715,-0.381 1.143,-0.15875 0.254,0.0953 0.4445,0.28575 0.254,0.1905 0.127,0.47625 -0.0952,0.22225 -0.34925,0.22225 -0.254,0 -0.60325,-0.0317 -0.3175,-0.0318 -0.47625,0.15875 -0.0953,0.0952 -0.1905,0.1905 -0.0952,0.0953 -0.15875,0.22225 -0.254,0.381 -0.47625,0.889 -0.22225,0.47625 -0.4445,0.889 -0.0317,0.0635 -0.15875,0.34925 -0.127,0.254 -0.15875,0.34925 z"
         style="font-family:'Prestige Signature Script  Demo';-inkscape-font-specification:'Prestige Signature Script  Demo';text-align:center;text-anchor:middle;fill:#000000;stroke:none"
         id="path1863" />
    </g>
    <g
       aria-label="&amp;"
       id="text1674"
       style="font-size:21.1667px;font-family:'Prestige Signature Script  Demo';-inkscape-font-specification:'Prestige Signature Script  Demo';text-align:center;text-anchor:middle;stroke-width:0.238125;stroke-linecap:round;stroke-linejoin:round">
      <path
         d="m 115.81391,128.83402 q 0.0423,-0.0423 0.0635,-0.0635 0.0423,-0.0212 0.0635,-0.0635 0.508,-0.86783 0.99483,-1.7145 0.48684,-0.86783 0.91017,-1.778 0.254,-0.5715 0.46567,-1.143 0.21166,-0.59267 0.33866,-1.20651 0.0423,-0.254 0.0847,-0.508 0.0423,-0.254 0.0212,-0.508 -0.0212,-0.10583 -0.0423,-0.21166 -0.0212,-0.127 -0.0635,-0.23284 -0.16933,-0.4445 -0.635,-0.27517 -0.23283,0.0847 -0.46566,0.25401 -0.33867,0.254 -0.65617,0.67733 -0.254,0.33867 -0.4445,0.6985 -0.1905,0.35983 -0.35984,0.74084 -0.48683,1.18533 -0.59266,2.54 -0.0847,1.35467 0.35983,2.77284 z m 0.0847,1.16417 q -0.0635,0.0847 -0.10583,0.14817 -0.0423,0.0423 -0.0847,0.10583 -0.29633,0.48684 -0.59266,0.97367 -0.27517,0.46567 -0.55034,0.9525 -0.16933,0.3175 -0.33867,0.65617 -0.14816,0.3175 -0.3175,0.65617 -0.42333,0.93133 -0.61383,1.8415 -0.0423,0.16933 -0.0635,0.33867 -0.0212,0.16933 -0.0423,0.33867 -0.0212,0.29633 0.0635,0.35983 0.0847,0.0635 0.35983,-0.0212 0.27517,-0.0635 0.48683,-0.1905 0.33867,-0.1905 0.69851,-0.4445 0.42333,-0.3175 0.74083,-0.635 0.61383,-0.61383 1.143,-1.29117 0.52917,-0.65617 1.016,-1.397 0.0212,-0.0423 0.0212,-0.0635 0,-0.0212 0.0212,-0.0635 -0.635,-0.42333 -1.07951,-1.016 -0.4445,-0.59267 -0.80433,-1.27 z m 2.56117,2.15901 q 0.29634,0.16933 0.55034,0.254 0.27517,0.0847 0.5715,0.127 0.23283,0.0423 0.46567,0.0635 0.254,0.0212 0.48683,0.0423 0.14817,0 0.27517,-0.0212 0.14817,-0.0212 0.29633,-0.0423 0.0423,0 0.0847,0 0.0635,-0.0212 0.10583,-0.0212 0.14817,0 0.1905,0.10584 0.0423,0.14816 -0.0635,0.21166 -0.0847,0.0423 -0.16933,0.0847 -0.0847,0.0423 -0.1905,0.0635 -0.3175,0.0635 -0.67734,0.0635 -1.0795,-0.0423 -2.01083,-0.46567 -0.0423,-0.0423 -0.10584,-0.0423 h -0.0635 q -0.0423,0.0635 -0.16933,0.23283 -0.29633,0.4445 -0.61383,0.86784 -0.3175,0.42333 -0.67734,0.8255 -0.35983,0.42333 -0.762,0.80433 -0.40217,0.40217 -0.86783,0.74084 -0.1905,0.14817 -0.40217,0.27517 -0.1905,0.127 -0.40217,0.254 -0.3175,0.21166 -0.78317,0.27516 -0.35983,0.0635 -0.61383,-0.127 -0.23283,-0.1905 -0.27517,-0.55033 -0.0212,-0.27517 0.0212,-0.52917 0.0423,-0.254 0.0847,-0.508 0.10583,-0.48683 0.254,-0.9525 0.14816,-0.4445 0.33866,-0.889 0.33867,-0.78317 0.80434,-1.62984 l 1.143,-1.9685 0.1905,-0.3175 q 0.10583,-0.127 0.0423,-0.33867 -0.0635,-0.23283 -0.127,-0.4445 -0.0635,-0.21167 -0.10583,-0.4445 -0.33867,-1.37584 -0.14817,-2.83634 0.10584,-0.80433 0.33867,-1.54517 0.254,-0.74083 0.67733,-1.43933 0.40217,-0.65617 0.91017,-1.14301 0.23284,-0.23283 0.46567,-0.381 0.1905,-0.127 0.42333,-0.1905 0.762,-0.254 1.16417,0.4445 0.21167,0.40217 0.21167,0.88901 0,0.40216 -0.0847,0.78316 -0.0635,0.381 -0.16933,0.76201 -0.23284,0.86783 -0.59267,1.67216 -0.33867,0.80434 -0.762,1.58751 -0.33867,0.61383 -0.67733,1.2065 -0.33867,0.5715 -0.69851,1.18533 -0.0423,0.0847 -0.10583,0.16934 -0.0423,0.0635 -0.0847,0.127 0.127,0.33867 0.3175,0.6985 0.21167,0.35983 0.46567,0.67733 0.254,0.3175 0.52917,0.5715 0.27517,0.254 0.52917,0.381 0.14816,-0.1905 0.35983,-0.5715 0.21167,-0.40216 0.40217,-0.84666 0.1905,-0.4445 0.33867,-0.86784 0.14816,-0.4445 0.1905,-0.74083 -0.127,0.0423 -0.1905,0.0423 -0.10584,0 -0.16934,-0.0635 -0.0635,-0.0847 -0.0212,-0.1905 0.0212,-0.0635 0.10583,-0.1905 0.127,-0.1905 0.29633,-0.3175 0.1905,-0.14817 0.40217,-0.254 0.10583,-0.0635 0.21167,0 0.10583,0.0635 0.127,0.21167 0,0.10583 -0.0212,0.1905 0,0.0847 -0.0212,0.1905 -0.27516,1.18533 -0.80433,2.32833 -0.14817,0.29634 -0.29633,0.5715 -0.14817,0.27517 -0.29634,0.57151 -0.0423,0.0635 -0.0847,0.127 -0.0212,0.0635 -0.0635,0.14816 z"
         id="path1866" />
    </g>
  </g>
</svg>
