<?xml version="1.0" encoding="UTF-8" standalone="no"?>
<!-- Created with Inkscape (http://www.inkscape.org/) -->

<svg
   width="207.30708mm"
   height="141.61398mm"
   viewBox="0 0 207.30708 141.61398"
   version="1.1"
   id="svg5"
   inkscape:version="1.2.2 (732a01da63, 2022-12-09)"
   sodipodi:docname="macafran.svg"
   xmlns:inkscape="http://www.inkscape.org/namespaces/inkscape"
   xmlns:sodipodi="http://sodipodi.sourceforge.net/DTD/sodipodi-0.dtd"
   xmlns="http://www.w3.org/2000/svg"
   xmlns:svg="http://www.w3.org/2000/svg">
  <sodipodi:namedview
     id="namedview7"
     pagecolor="#ffffff"
     bordercolor="#000000"
     borderopacity="0.25"
     inkscape:showpageshadow="2"
     inkscape:pageopacity="0.0"
     inkscape:pagecheckerboard="0"
     inkscape:deskcolor="#d1d1d1"
     inkscape:document-units="mm"
     showgrid="false"
     inkscape:zoom="1.0129245"
     inkscape:cx="429.44957"
     inkscape:cy="231.01425"
     inkscape:window-width="1366"
     inkscape:window-height="697"
     inkscape:window-x="-8"
     inkscape:window-y="-8"
     inkscape:window-maximized="1"
     inkscape:current-layer="layer1" />
  <defs
     id="defs2" />
  <g
     inkscape:label="Layer 1"
     inkscape:groupmode="layer"
     id="layer1"
     transform="translate(-5.3109401,-65.960027)">
    <g
       aria-label="Francisco "
       id="text275"
       style="font-size:70.5556px;font-family:'Bodoni MT';-inkscape-font-specification:'Bodoni MT';stroke-width:0.264583">
      <path
         d="m 41.798919,68.819604 v 0.211667 q 0.352778,-0.07056 0.635,-0.07056 0.282223,-0.07056 0.635001,-0.211667 0.493889,-0.141111 0.07055,-0.564445 -0.352778,0.141111 -0.705556,0.282223 -0.352778,0.141111 -0.705556,0.282222 z m 0.776112,1.975557 q -0.705556,0 -0.987779,0.07056 l -15.028343,2.116668 -4.65667,0.635001 q -0.282222,0.07055 -0.846667,0.07055 -0.49389,0 -0.635001,-0.564445 -0.141111,-0.564444 0.282223,-0.776111 0.282222,-0.141111 0.846667,-0.282223 1.411112,-0.282222 2.822224,-0.564444 1.411112,-0.282223 2.822224,-0.423334 2.257779,-0.282222 4.374448,-0.846667 2.116668,-0.564445 4.233336,-1.199445 1.834445,-0.564445 3.52778,-1.12889 1.76389,-0.635001 3.457224,-1.340557 0.352778,-0.141111 0.705556,-0.282222 0.423334,-0.141111 0.846668,-0.282222 0.987778,-0.211667 0.987778,0.776111 v 0.635001 0.705556 H 45.9617 l 5.080003,-0.635001 q 1.411112,-0.141111 2.751669,-0.282222 1.340556,-0.141111 2.751668,-0.282223 1.693335,-0.141111 3.386669,-0.282222 1.693334,-0.141111 3.386669,-0.282222 2.822224,-0.141112 5.573893,-0.211667 2.822224,-0.141111 5.644448,0.07055 1.622779,0.141112 3.245558,0.282223 1.693334,0.07055 3.316113,0.211667 1.270001,0.141111 2.469446,0.352778 1.270001,0.211666 2.469446,0.564444 0.352778,0.141112 0.705556,0.282223 0.423334,0.141111 0.776112,0.282222 0.635,0.352778 0.846667,1.058334 0.141111,0.564445 -0.282222,0.776112 -0.49389,0.211667 -0.776112,-0.07056 -0.493889,-0.564444 -1.12889,-0.705556 -0.564445,-0.141111 -1.199445,-0.282222 -1.199445,-0.211667 -2.469446,-0.352778 -1.199445,-0.211667 -2.398891,-0.352778 -2.39889,-0.211667 -4.797781,-0.282223 -2.39889,-0.141111 -4.868336,-0.07055 -2.398891,0.07055 -4.797781,0.211667 -2.328335,0.07055 -4.65667,0.282222 -2.046112,0.211667 -4.162781,0.423334 -2.046112,0.141111 -4.092225,0.352778 -2.046112,0.211667 -4.021669,0.493889 -1.975557,0.211667 -3.951114,0.423334 l -0.141111,0.07055 -7.408338,30.26835 v 0.35278 q 0.141111,0 0.282222,0.0706 0.211667,0 0.352778,0 1.199445,-0.0706 2.328335,-0.14111 1.12889,-0.0706 2.328335,-0.14111 1.693335,-0.14112 3.386669,-0.21167 1.693334,-0.0706 3.386669,-0.14111 1.411112,-0.0706 2.822224,-0.0706 1.481668,0 2.89278,0 0.705556,0 1.058334,0.0706 0.493889,0.14111 0.493889,0.635 0,0.56444 -0.423334,0.635 -0.282222,0.0705 -0.846667,0.0705 -1.622779,0.0706 -3.175002,0.14111 -1.552223,0 -3.175002,0.14112 -2.89278,0.14111 -5.715004,0.35277 -2.822224,0.21167 -5.715004,0.42334 -0.282222,0 -0.846667,0.14111 -0.07056,0.28222 -0.211667,0.70555 l -4.021669,16.51002 q -1.270001,5.22111 -2.540002,10.37167 -1.199445,5.22111 -2.39889,10.51278 l -1.905002,8.04334 q -0.352778,1.62278 -0.917223,3.10445 -0.564444,1.48167 -1.27,2.89278 l -0.423334,0.635 q -0.493889,0.635 -1.270001,0.21167 -0.635,-0.28223 -0.635,-0.98778 0,-0.21167 0.141111,-0.635 0.423334,-1.12889 0.564445,-2.25778 0.141111,-1.12889 0.211667,-2.32834 v -1.48166 q 0.07055,-0.77612 0.352778,-0.98778 0.352778,-0.14111 1.128889,0.21166 0.07056,-0.14111 0.141111,-0.35277 0.07056,-0.14111 0.141112,-0.28223 l 4.021669,-16.72167 5.926671,-25.61169 q 0.07055,-0.28222 0.07055,-0.49389 0.07056,-0.28222 0.141111,-0.635 -0.635,0 -0.917222,0.0706 -2.046113,0.28222 -4.02167,0.56444 -1.975557,0.21167 -4.021669,0.56445 -1.481668,0.28222 -2.963335,0.56444 -1.481668,0.28222 -2.963336,0.635 -0.705556,0.14111 -1.411112,0.42334 -0.635,0.21166 -1.340556,0.42333 l -1.058334,0.21167 q -0.635001,0.14111 -0.776112,-0.42334 -0.282222,-0.49389 0.282222,-0.84666 0.423334,-0.28223 0.846668,-0.49389 0.423333,-0.21167 0.846667,-0.42334 0.211667,-0.14111 0.493889,0 0.282223,0.14111 0.493889,0.14111 0.282223,-0.0705 0.564445,-0.14111 2.257779,-0.635 4.515559,-1.05833 2.257779,-0.49389 4.515558,-0.84667 1.693335,-0.28222 3.386669,-0.49389 1.76389,-0.21166 3.52778,-0.49389 0.07056,0 0.49389,-0.14111 l 0.211666,-0.635 3.175003,-13.12334 q 0.776111,-3.104447 1.622779,-6.138338 0.846667,-3.033891 1.622778,-6.138337 0.352778,-1.199445 0.635001,-2.328335 0.282222,-1.199445 0.635,-2.469446 z"
         style="font-family:'Prestige Signature Script  Demo';-inkscape-font-specification:'Prestige Signature Script  Demo'"
         id="path241" />
      <path
         d="m 62.260076,100.07574 q 1.340556,-2.963339 1.975557,-4.868341 0.705556,-1.905001 0.917222,-2.963335 0.282223,-1.058334 0.211667,-1.481668 0,-0.493889 0,-0.635 -0.141111,0.282222 -0.141111,0.282222 -0.423334,0.987779 -0.917223,2.25778 -0.423333,1.27 -0.846667,2.610557 -0.423334,1.340556 -0.776112,2.610557 -0.282222,1.270001 -0.423333,2.187228 z m 7.620005,-0.846671 q -1.270001,0.776111 -2.89278,1.834441 -1.552223,0.98778 -2.822224,1.55223 -0.846667,0.42333 -1.76389,0.42333 -2.046113,-0.0705 -1.905001,-2.25778 0.352778,-2.822222 1.058334,-5.291668 0.776111,-2.469446 1.905001,-4.938893 0.141111,-0.352778 0.282222,-0.705556 0.211667,-0.423333 0.423334,-0.776111 0.211667,-0.423334 0.564445,-0.776112 0.352778,-0.352778 0.846667,-0.352778 0.564445,0 0.846667,0.493889 0.352778,0.564445 0.352778,1.622779 0,1.058334 -0.211667,1.905001 -0.917222,4.162781 -2.963335,8.113899 l -0.211667,0.42333 q 0.141112,0.21167 0.352778,0.21167 0.282223,-0.0706 0.423334,-0.21167 1.340556,-0.564445 2.751669,-1.552224 1.481667,-1.058334 2.822224,-1.834445 0.564444,-0.282223 0.917222,-0.352779 0.423334,-0.141111 0.705557,0.141112 0.352778,0.282222 0.282222,0.705556 0,0.352778 -0.141111,1.058334 -0.49389,1.693336 -0.987779,3.386666 -0.423333,1.69334 -0.846667,3.38667 -0.564445,2.25778 -1.12889,4.51556 -0.564444,2.18722 -0.917222,4.445 -0.141112,0.91723 -0.282223,1.76389 -0.141111,0.91723 -0.07055,1.83445 0,0.28222 0,0.56444 0,0.28223 0.282222,0.56445 0.141111,-0.0706 0.211667,-0.0706 0.141111,0 0.282222,-0.14111 0.423334,-0.35278 0.846667,-0.77611 0.49389,-0.35278 0.846668,-0.84667 2.963335,-3.59833 5.362225,-7.62 2.398891,-4.02167 4.65667,-7.97279 0.282223,-0.42333 0.423334,-0.56444 0.352778,-0.35278 0.705556,-0.14111 0.423334,0.21167 0.352778,0.635 -0.141111,0.42333 -0.423334,0.91722 -1.411112,2.46945 -2.681113,4.65667 -1.199445,2.18723 -2.540001,4.23334 -1.270001,2.04611 -2.681113,3.95111 -1.411112,1.905 -3.033891,3.81 -0.423334,0.42334 -0.846667,0.77612 -0.423334,0.35277 -0.846668,0.49389 -0.423333,0.14111 -0.917222,0 -0.423334,-0.14112 -0.846668,-0.70556 -0.564445,-0.77611 -0.564445,-1.76389 0,-0.56445 0,-1.19945 0,-0.56444 0.141112,-1.12889 0.564444,-4.02167 1.411112,-7.90222 0.917223,-3.95112 2.328335,-7.76112 0.141111,-0.423333 0.141111,-0.564445 0.07055,-0.141111 0,-0.211666 z"
         style="font-family:'Prestige Signature Script  Demo';-inkscape-font-specification:'Prestige Signature Script  Demo'"
         id="path243" />
      <path
         d="m 77.006192,109.6713 q 0.352778,-0.35278 0.917223,-0.84667 0.564444,-0.49389 1.128889,-0.98778 0.564445,-0.49389 1.058334,-0.91722 0.564445,-0.49389 0.917223,-0.77611 0.423334,-0.42334 0.705556,-0.56445 0.352778,-0.28222 0.705556,-0.14111 0.423334,0.14111 0.564445,0.56445 0.141111,0.35277 0.07056,0.42333 0,0.0706 0.141111,0.42333 0.211667,0.635 0.352778,1.27 0.211667,0.63501 0.493889,1.27001 0.141111,0.35277 0.352778,0.70555 0.282223,0.28222 0.564445,0.635 0.282222,0.35278 0.776112,0.49389 0.493889,0.0706 0.846667,-0.21167 0.493889,-0.28222 0.987778,-0.77611 0.776112,-0.77611 1.481668,-1.62278 0.705556,-0.91722 1.340556,-1.905 0.776112,-1.12889 1.270001,-1.97555 0.493889,-0.84667 1.199446,-1.97556 0.282222,-0.56445 0.493889,-0.77611 0.423333,-0.49389 0.987778,-0.14111 0.352778,0.28222 0.141111,0.84666 l -0.211666,0.42334 q -1.199446,1.905 -2.25778,3.52778 -1.058334,1.62278 -2.469446,3.38667 -0.423333,0.49389 -0.846667,0.98777 -0.423334,0.42334 -0.917223,0.84667 -0.846667,0.84667 -1.905001,0.91722 -1.270001,0.0706 -2.257779,-0.91722 -1.058335,-1.05833 -1.481668,-2.54 -0.141111,-0.49389 -0.282223,-0.91722 -0.141111,-0.49389 -0.282222,-1.05834 -0.282222,0.21167 -0.705556,0.49389 l -2.751669,2.54 q -0.352778,0.28223 -0.635,0.56445 -0.282222,0.28222 -0.635,0.56444 -0.776112,0.56445 -1.270001,0.14111 -0.564445,-0.42333 -0.564445,-1.05833 0,-0.42333 0.07056,-0.635 0.141111,-0.35278 0.211666,-0.70556 0.07056,-0.42333 0.211667,-0.77611 1.058334,-3.03389 2.751669,-5.64445 0.352778,-0.49388 0.705556,-0.91722 0.352778,-0.42333 0.917223,-0.77611 1.27,-0.84667 2.540001,-0.35278 0.564445,0.21167 0.987779,0.635 0.564445,0.42334 0.282222,1.05834 -0.211667,0.49389 -0.776112,0.49389 -0.564444,0 -1.340556,-0.0706 -0.705556,-0.0706 -1.058334,0.35278 -0.211667,0.21166 -0.423334,0.42333 -0.211666,0.21167 -0.352778,0.49389 -0.564444,0.84667 -1.058334,1.97556 -0.493889,1.05833 -0.987778,1.97555 -0.07056,0.14112 -0.352778,0.77612 -0.282223,0.56444 -0.352778,0.77611 z"
         style="font-family:'Prestige Signature Script  Demo';-inkscape-font-specification:'Prestige Signature Script  Demo'"
         id="path245" />
      <path
         d="m 100.5717,98.805735 q -0.705556,0.564445 -1.199445,1.12889 -0.423334,0.564445 -0.776112,1.199445 -0.635,1.05833 -1.270001,2.11667 -0.635,1.05833 -1.199445,2.11667 l -4.233336,7.62 -0.423334,0.635 q -0.352778,0.35278 -0.846667,0.28222 -0.282222,-0.0705 -0.493889,-0.21166 -0.282223,-0.14111 -0.282223,-0.42334 0,-0.35277 0,-0.635 0,-0.28222 0.07056,-0.635 0.211667,-0.98778 0.423334,-1.905 0.211666,-0.91722 0.493889,-1.905 l 3.598335,-12.276675 q 0.211667,-0.705556 0.564445,-1.622779 0.352778,-0.776111 1.058334,-0.635 0.352778,0.07056 0.635001,0.282222 0.282222,0.141112 0.282222,0.564445 0,0.282223 -0.141111,0.846667 -0.211667,0.846668 -0.423334,1.693335 -0.211666,0.846667 -0.493889,1.693334 l -1.905001,6.561671 q -0.141111,0.42333 -0.07056,0.70556 l 0.635001,-1.05834 q 0.635,-1.19944 1.128889,-2.25778 0.564445,-1.05833 1.270001,-2.25778 0.846667,-1.481664 2.116668,-2.751665 0.211667,-0.211666 0.423334,-0.423333 0.211667,-0.211667 0.493894,-0.352778 1.41111,-0.846668 2.11666,0.635 0.28223,0.705556 0.42334,1.622779 0.14111,0.987777 0.14111,1.904997 0,0.91723 0.0705,1.90501 0.0706,0.77611 0.0706,1.62277 0.0705,0.77612 0.21167,1.55223 0.0705,0.635 0.35277,1.41111 0.14112,0.49389 0.635,0.35278 0.35278,-0.14111 0.635,-0.21167 0.28223,-0.14111 0.56445,-0.35278 1.19945,-0.84666 2.04611,-1.69333 0.98778,-0.98778 2.04611,-1.97556 1.12889,-1.05833 2.11667,-2.04611 0.21167,-0.21167 0.635,-0.49389 0.42334,-0.28222 0.77611,0.0706 0.21167,0.21166 0.0706,0.70555 -0.0706,0.42334 -0.28222,0.635 -0.77611,0.77611 -1.41111,1.34056 -0.56445,0.56444 -1.05834,1.05833 -0.49389,0.49389 -0.98778,0.91723 -0.42333,0.42333 -0.91722,0.91722 -0.56444,0.56444 -1.12889,0.98778 -0.56444,0.42333 -1.12889,0.91722 -0.35278,0.35278 -0.77611,0.49389 -0.42333,0.14111 -0.91722,0.28222 -1.62278,0.56445 -2.54,-0.91722 -0.56445,-0.98778 -0.70556,-2.25778 -0.14111,-0.77611 -0.21167,-1.48167 0,-0.70555 -0.0705,-1.48167 -0.0706,-0.98777 -0.0706,-1.905 0,-0.91722 -0.0706,-1.904999 0,-0.211667 -0.0706,-0.423334 0,-0.211666 -0.0706,-0.564444 z"
         style="font-family:'Prestige Signature Script  Demo';-inkscape-font-specification:'Prestige Signature Script  Demo'"
         id="path247" />
      <path
         d="m 110.66119,113.4813 q 0.84666,-0.21167 1.55222,-0.91722 0.84667,-0.77611 1.69334,-1.48167 0.84666,-0.77611 1.69333,-1.55222 2.32833,-2.04612 4.37445,-4.16278 2.11667,-2.11667 4.37444,-3.95112 0.21167,-0.14111 0.77612,-0.28222 0.35277,-0.0706 0.635,0.42333 0.21166,0.35278 0,0.635 -0.21167,0.35278 -0.56445,0.56445 -2.25778,1.83444 -4.16278,3.66889 -1.83444,1.83445 -3.81,3.66889 -0.77611,0.77611 -1.55222,1.48167 -0.77612,0.70556 -1.55223,1.48167 -0.35278,0.35277 -0.77611,0.635 -0.35278,0.28222 -0.70556,0.56444 -0.56444,0.49389 -1.41111,0.84667 -1.69333,0.70556 -2.61055,-0.91722 -0.42334,-0.70556 -0.42334,-1.69334 -0.0705,-1.12889 0.0706,-2.18722 0.14111,-1.05834 0.42333,-2.11667 0.35278,-1.55222 0.84667,-2.96334 0.49389,-1.48166 1.27,-2.89277 0.77611,-1.41112 1.97556,-2.32834 1.19944,-0.846667 2.32833,-0.917223 1.62278,-0.141111 2.54,0.846668 0.91723,0.987775 0.77611,2.187225 0,0.42333 -0.0706,0.56444 -0.28222,0.49389 -0.70556,0.49389 -0.42333,0 -0.635,-0.35278 -0.14111,-0.14111 -0.21166,-0.28222 0,-0.21166 -0.14112,-0.35278 -0.42333,-0.84666 -1.34055,-0.635 -0.42334,0.0706 -0.77611,0.35278 -0.84667,0.49389 -1.27001,1.41111 -1.12888,2.11667 -1.83444,4.37445 -0.77611,2.18722 -1.05833,4.58612 -0.14112,0.77611 0.28222,1.27 z"
         style="font-family:'Prestige Signature Script  Demo';-inkscape-font-specification:'Prestige Signature Script  Demo'"
         id="path249" />
      <path
         d="m 127.66511,94.07851 q -0.91722,0 -0.77611,-0.917223 0,-0.352778 0.21167,-0.564445 0.35278,-0.352778 0.635,-0.635001 0.35278,-0.352778 0.70556,-0.635 0.49389,-0.352778 0.91722,0 0.49389,0.282222 0.49389,0.917223 -0.0706,0.141111 -0.14111,0.352778 0,0.141111 -0.14111,0.282222 -0.635,0.705556 -1.62278,1.058334 -0.0706,0.07056 -0.35278,0.07056 z m 11.9239,7.33778 q 0.70556,-0.70555 1.12889,-0.21166 0.42333,0.42333 0,1.05833 -0.28222,0.42333 -0.49389,0.56444 -2.46944,2.39889 -5.00945,4.79779 -2.46944,2.32833 -5.00944,4.65667 -0.98778,0.91722 -1.97556,1.69333 -0.98778,0.84667 -1.97556,1.62278 -0.56444,0.49389 -1.55222,0.84667 -1.55222,0.56444 -2.04611,-0.98778 -0.21167,-0.635 -0.21167,-1.27 0,-0.70556 0,-1.41112 -0.0706,-0.635 0,-1.34055 0.35278,-3.10445 0.91722,-6.06778 0.56445,-3.03389 1.55223,-5.99723 l 0.635,-1.693335 q 0.21166,-0.423333 0.56444,-0.776111 0.42333,-0.423334 1.05834,-0.211667 0.21166,0.07055 0.21166,0.352778 0.0706,0.282222 0,0.705556 0,0.352778 -0.14111,0.705556 -0.0706,0.282222 -0.14111,0.493889 -1.12889,3.598334 -1.76389,7.337784 -0.635,3.66889 -1.12889,7.47889 0,0.56445 0.70556,0.28223 0.70555,-0.21167 0.98777,-0.42334 0.77612,-0.56444 1.48167,-1.12889 0.70556,-0.49389 1.41111,-1.05833 1.41112,-1.27 2.75167,-2.54 1.41111,-1.27 2.82223,-2.54001 1.34055,-1.19944 2.61055,-2.46944 1.27,-1.27 2.61056,-2.46945 z"
         style="font-family:'Prestige Signature Script  Demo';-inkscape-font-specification:'Prestige Signature Script  Demo'"
         id="path251" />
      <path
         d="m 145.02174,116.79741 q -0.14111,0.14111 -0.21167,0.21167 -0.0705,0.14111 -0.14111,0.28222 l -1.48167,1.905 q -1.62278,2.25778 -3.10444,4.44501 -1.48167,2.25778 -2.75167,4.72722 -0.42334,0.84667 -0.77611,1.69334 -0.42334,0.91722 -0.77612,1.76389 -0.0705,0.14111 -0.0705,0.56444 1.41111,-0.77611 3.24556,-2.89278 1.83444,-2.11667 3.24555,-4.65667 1.34056,-2.32833 2.11667,-4.58611 0.84667,-2.25778 0.70556,-3.38667 z m 0.28222,-21.096122 q -2.11667,1.622779 -3.31611,4.092225 -0.70556,1.411117 0.49389,2.610557 l 1.69333,1.905 q 2.25778,2.68111 2.82223,6.35001 l 0.21166,1.05833 q 0.28222,0.0706 0.35278,-0.0706 0.0706,-0.21166 0.21167,-0.35277 1.76389,-2.11667 3.59833,-4.09223 1.905,-2.04611 3.88056,-4.02167 0.42333,-0.42333 0.84667,-0.84666 0.49389,-0.42334 0.98778,-0.84667 0.49389,-0.42334 0.91722,-0.0706 0.42333,0.35278 0,0.91723 -0.21167,0.28222 -0.49389,0.56444 -0.21167,0.21167 -0.49389,0.49389 -2.25778,2.25778 -4.51556,4.58611 -2.18722,2.25778 -4.23333,4.72723 -0.14111,0.14111 -0.21167,0.21167 -0.0706,0.14111 -0.21167,0.28222 -0.635,0.635 -0.77611,1.76389 -0.21167,2.25778 -0.84667,4.30389 -0.56444,2.11667 -1.55222,4.16278 -1.05833,2.25778 -2.46945,4.30389 -1.34055,2.04611 -3.175,3.73945 -1.05833,1.05833 -2.32833,1.905 -0.49389,0.28222 -1.19945,0.42333 -1.27,0.21167 -1.27,-1.12889 0,-0.35277 0.14111,-0.77611 0.14111,-0.56444 0.35278,-1.05833 0.14111,-0.49389 0.35278,-0.98778 0.49389,-1.19944 1.12889,-2.32833 0.56444,-1.12889 1.27,-2.25778 1.69333,-2.89278 3.59833,-5.5739 1.90501,-2.68111 3.95112,-5.29167 0.70555,-0.91722 0.70555,-2.04611 -0.14111,-2.18722 -0.70555,-3.95111 -0.635,-1.83445 -2.04611,-3.38667 -0.35278,-0.35278 -0.70556,-0.70556 -0.28222,-0.42333 -0.635,-0.77611 -0.28222,-0.28222 -0.56445,-0.49389 -0.21166,-0.28222 -0.42333,-0.635 -0.84667,-1.12889 -0.28222,-2.610557 0.35278,-0.917222 0.84667,-1.622778 1.48166,-2.25778 3.66889,-3.810003 0.56444,-0.493889 1.19944,-0.564445 1.05834,-0.211667 1.19945,0.917223 0,0.423334 -0.21167,0.846667 -0.35278,0.705556 -1.12889,0.211667 -0.14111,-0.07056 -0.21167,-0.141111 -0.0705,-0.07056 -0.21166,-0.211667 z"
         style="font-family:'Prestige Signature Script  Demo';-inkscape-font-specification:'Prestige Signature Script  Demo'"
         id="path253" />
      <path
         d="m 155.74622,113.4813 q 0.84666,-0.21167 1.55222,-0.91722 0.84667,-0.77611 1.69333,-1.48167 0.84667,-0.77611 1.69334,-1.55222 2.32833,-2.04612 4.37445,-4.16278 2.11666,-2.11667 4.37444,-3.95112 0.21167,-0.14111 0.77612,-0.28222 0.35277,-0.0706 0.635,0.42333 0.21166,0.35278 0,0.635 -0.21167,0.35278 -0.56445,0.56445 -2.25778,1.83444 -4.16278,3.66889 -1.83444,1.83445 -3.81,3.66889 -0.77611,0.77611 -1.55223,1.48167 -0.77611,0.70556 -1.55222,1.48167 -0.35278,0.35277 -0.77611,0.635 -0.35278,0.28222 -0.70556,0.56444 -0.56444,0.49389 -1.41111,0.84667 -1.69333,0.70556 -2.61056,-0.91722 -0.42333,-0.70556 -0.42333,-1.69334 -0.0705,-1.12889 0.0706,-2.18722 0.14111,-1.05834 0.42333,-2.11667 0.35278,-1.55222 0.84667,-2.96334 0.49389,-1.48166 1.27,-2.89277 0.77611,-1.41112 1.97556,-2.32834 1.19944,-0.846667 2.32833,-0.917223 1.62278,-0.141111 2.54,0.846668 0.91722,0.987775 0.77611,2.187225 0,0.42333 -0.0705,0.56444 -0.28222,0.49389 -0.70556,0.49389 -0.42333,0 -0.635,-0.35278 -0.14111,-0.14111 -0.21167,-0.28222 0,-0.21166 -0.14111,-0.35278 -0.42333,-0.84666 -1.34055,-0.635 -0.42334,0.0706 -0.77611,0.35278 -0.84667,0.49389 -1.27001,1.41111 -1.12889,2.11667 -1.83444,4.37445 -0.77611,2.18722 -1.05834,4.58612 -0.14111,0.77611 0.28223,1.27 z"
         style="font-family:'Prestige Signature Script  Demo';-inkscape-font-specification:'Prestige Signature Script  Demo'"
         id="path255" />
      <path
         d="m 171.48014,101.41629 q 0.91722,-1.12889 1.76389,-0.70555 0.84666,0.35277 0.84666,1.55222 0.0706,0.635 -0.0705,1.27 -0.0706,0.635 -0.21167,1.27 l -0.14111,0.77611 q 1.34056,-0.21166 2.46945,-0.84666 1.12889,-0.635 1.97555,-1.27001 0.84667,-0.70555 1.41111,-1.34055 0.635,-0.635 0.91723,-0.84667 0.35278,-0.28222 0.77611,-0.0706 0.49389,0.14111 0.21167,0.70555 -0.21167,0.42334 -0.91723,1.19945 -0.70555,0.77611 -1.83444,1.62278 -1.12889,0.84666 -2.54,1.62277 -1.41112,0.70556 -3.0339,0.98778 -0.35277,0.56445 -0.70555,1.12889 -0.35278,0.56445 -0.70556,1.12889 -0.49389,0.77611 -1.27,1.55223 -0.49389,0.49388 -1.12889,0.70555 -1.48167,0.56445 -2.25778,-0.77611 -0.56444,-0.91722 -0.56444,-1.905 -0.14111,-3.66889 1.55222,-6.77334 0.28222,-0.49389 0.77611,-0.98778 1.12889,-0.84666 1.905,0.49389 0,0.0706 0.14112,0.35278 z m -0.21167,5.78556 q -0.14111,-0.14111 -0.14111,-0.14111 -1.12889,-0.56444 -1.12889,-2.11667 v -0.42333 q 0,-0.14111 0,-0.21167 0.0705,-0.0706 -0.14111,-0.14111 -0.56445,1.19945 -0.84667,2.39889 -0.28222,1.19945 -0.49389,2.39889 -0.0706,0.28222 -0.0706,0.56445 0,0.28222 0.21167,0.635 0.98778,-0.56445 1.48167,-1.34056 0.56444,-0.77611 1.12889,-1.55222 z m 1.41111,-5.29167 q -0.21167,0 -0.21167,0.0706 -0.77611,0.98778 -1.12889,2.32833 -0.0705,0.21167 -0.0705,0.49389 0.0705,0.21167 0.0705,0.49389 0,0.35278 0.42334,0.42333 0.28222,0.0706 0.42333,-0.21166 0.70556,-1.62278 0.70556,-3.10445 0,-0.14111 -0.14111,-0.42333 z"
         style="font-family:'Prestige Signature Script  Demo';-inkscape-font-specification:'Prestige Signature Script  Demo'"
         id="path257" />
    </g>
    <g
       aria-label="Macarena"
       id="text310"
       style="font-size:70.5556px;font-family:'Prestige Signature Script  Demo';-inkscape-font-specification:'Prestige Signature Script  Demo';stroke-width:0.264583">
      <path
         d="m 26.47943,178.3539 q 0.282223,-0.28222 0.352778,-0.56444 0.07056,-0.28222 0.211667,-0.56445 1.693334,-3.95111 3.316113,-7.83167 1.693335,-3.88056 3.386669,-7.83167 2.469446,-5.85611 5.080004,-11.57112 2.610557,-5.715 5.644448,-11.28889 1.411112,-2.54001 2.89278,-5.00945 1.481667,-2.54 2.963335,-5.00945 1.552223,-2.54 3.739447,-4.86834 0.211667,-0.21166 0.423334,-0.42333 0.211666,-0.21167 0.493889,-0.35278 0.635,-0.35278 1.199445,-0.0705 0.564445,0.21166 0.635,0.98777 0.07056,0.70556 -0.141111,1.55223 -0.352778,1.62278 -0.776111,3.31611 -0.423334,1.62278 -0.776112,3.24556 -1.552223,6.70278 -3.104447,13.33501 -1.481667,6.63222 -2.681112,13.40556 -0.352779,1.83445 -0.705557,3.66889 -0.352778,1.90501 -0.705556,3.73945 -0.07055,0.28222 -0.07055,0.56445 0,0.28222 -0.07056,0.635 0.423334,-0.28223 0.423334,-0.28223 0.493889,-0.70555 0.917223,-1.34055 0.493889,-0.635 0.917223,-1.34056 l 9.94834,-17.78001 q 2.187223,-3.88056 4.233336,-7.76112 2.116668,-3.88056 4.303892,-7.76111 1.834445,-3.38667 3.951113,-6.56168 2.116668,-3.24555 4.445003,-6.35 0.352778,-0.49389 0.705556,-0.91722 0.423334,-0.49389 0.776112,-0.91722 0.705556,-0.84667 1.834446,-1.27001 0.564444,-0.28222 1.058334,0 0.564445,0.28223 0.564445,0.91723 0,0.84666 -0.211667,1.69333 -0.776112,3.10445 -1.552224,6.13834 -0.705556,3.03389 -1.481667,6.13834 -0.635001,2.46944 -1.270001,4.86833 -0.564445,2.39889 -1.199445,4.86834 l -3.810003,14.81668 q -0.917223,3.59833 -1.76389,7.19667 -0.846667,3.59833 -1.834446,7.19667 -1.481667,5.715 -2.822224,11.43001 -1.270001,5.78556 -2.681113,11.50056 -1.128889,4.65667 -1.693334,9.45445 -0.141111,0.91722 -0.141111,1.76389 0.07055,0.91722 0.07055,1.83445 0,0.70555 0.282223,1.19944 l 0.211666,0.42334 q 0.211667,0.84666 -0.635,0.98777 -0.635,0.0706 -1.058334,-0.35277 -0.564445,-0.49389 -0.635,-1.27 -0.07056,-0.56445 -0.141112,-1.19945 0,-0.56444 0,-1.12889 0.07056,-1.905 0.211667,-3.81 0.211667,-1.83445 0.564445,-3.66889 0.564445,-3.03389 1.199445,-6.06779 0.635001,-2.96333 1.270001,-5.99722 1.340557,-6.42056 2.89278,-12.77057 1.552223,-6.27944 3.104446,-12.7 0.564445,-2.46945 1.199446,-4.86834 0.705556,-2.39889 1.340556,-4.86834 l 3.386669,-13.12334 q 0.917223,-3.59834 1.76389,-7.05556 0.917223,-3.52778 1.905001,-7.12612 0.211667,-0.84666 0.49389,-1.69333 0.282222,-0.84667 0.564444,-1.69333 0.07056,-0.21167 0.141112,-0.42334 0.141111,-0.21167 0,-0.49389 -0.352778,0.14111 -0.564445,0.35278 -0.141111,0.21167 -0.282223,0.42333 -2.751668,3.38667 -5.29167,7.33779 -2.116668,3.31611 -4.021669,6.70278 -1.905002,3.31611 -3.739447,6.70278 l -6.350004,11.43001 -8.255006,14.81668 q -0.493889,0.91722 -0.987778,1.76389 -0.49389,0.84666 -1.058335,1.69333 -0.141111,0.28222 -0.352778,0.49389 -0.141111,0.28222 -0.352778,0.49389 -0.705556,0.635 -1.481667,0.42333 -0.776112,-0.21166 -0.987779,-1.12889 -0.141111,-0.42333 -0.141111,-0.84666 0,-0.42334 0,-0.84667 0.141111,-1.48167 0.352778,-2.96334 0.211667,-1.48166 0.493889,-2.96333 0.705556,-3.73945 1.340557,-7.40834 0.705556,-3.66889 1.481668,-7.40834 0.423333,-1.97556 0.846667,-3.88056 0.493889,-1.97555 0.987778,-3.95111 0.493889,-2.11667 0.917223,-4.23334 0.493889,-2.11667 1.058334,-4.23333 0.211667,-0.91723 0.423334,-1.76389 0.282222,-0.91723 0.564445,-1.83445 0.07055,-0.14111 0.07055,-0.21167 0,-0.14111 0.07056,-0.35277 -0.141111,0.14111 -0.282223,0.21166 -0.07056,0.0706 -0.141111,0.21167 -0.635,0.91722 -1.340556,1.83445 -0.635001,0.84666 -1.199446,1.83444 -2.681113,4.16278 -5.009447,8.39612 -2.328335,4.23333 -4.445003,8.67834 -2.822225,5.78556 -5.362226,11.64167 -2.469446,5.85612 -4.938892,11.85334 -1.199446,2.96334 -2.469447,5.78556 -1.27,2.82223 -2.540001,5.71501 -0.141111,0.35277 -0.352778,0.635 -0.211667,0.35277 -0.423334,0.70555 -0.211667,0.42334 -0.564445,0.635 -0.352778,0.28223 -0.705556,0.49389 -0.352778,0.21167 -0.705556,0 -0.282222,-0.14111 -0.352778,-0.56444 -0.141111,-0.91723 0.07056,-1.69334 0.423333,-2.04611 0.776111,-4.16278 0.423334,-2.11667 0.917223,-4.16278 0.776112,-3.59833 1.622779,-7.12611 0.917223,-3.45723 1.693335,-7.05556 0.776111,-3.38667 1.622778,-6.70279 0.917223,-3.38667 1.763891,-6.77333 0.846667,-3.45723 1.693334,-6.8439 0.846667,-3.45722 1.622779,-6.91445 0.352778,-1.62278 0.635,-3.31611 0.282223,-1.69334 0.635001,-3.38667 0.141111,-0.84667 0.282222,-1.69333 0.141111,-0.84667 0.282223,-1.69334 0.141111,-0.98778 0.141111,-1.905 0.07055,-0.91722 0,-1.905 -0.07056,-1.12889 -0.635001,-2.18722 -0.564444,-1.05834 -1.552223,-1.12889 -0.352778,-0.0706 -0.776112,-0.0706 -0.423333,-0.0706 -0.776111,0 -1.552223,0.21167 -2.681113,0.70556 -1.905001,0.70555 -3.739447,1.62277 -1.76389,0.91723 -3.386669,2.11667 -3.598336,2.68112 -6.632227,5.85612 -2.963335,3.175 -5.29167,6.985 -1.270001,2.04611 -2.3283348,4.23334 -1.0583341,2.11667 -1.7638901,4.445 -0.4233336,1.41111 -0.705556,2.89278 -0.2116668,1.41111 -0.070556,2.89278 0.1411112,2.25778 0.9172228,4.16278 1.5522233,3.66889 5.6444487,4.65667 1.128889,0.28222 2.187223,0.28222 1.12889,0 2.25778,-0.14111 0.917222,-0.14111 1.76389,-0.21166 0.917222,-0.0706 1.834445,-0.35278 h 0.282223 q 0.141111,0.0705 0.211667,0.14111 0.141111,0 0.282222,0.14111 0.211667,0.35278 -0.07056,0.635 -0.564444,0.42333 -0.846667,0.49389 -0.846667,0.35278 -1.693334,0.42333 -1.058334,0.14111 -2.187224,0.28223 -1.058334,0.0705 -2.187224,0 -1.128889,0 -2.540001,-0.35278 -4.5155591,-1.19945 -6.2794491,-5.36223 -1.7638901,-4.09222 -0.7761117,-8.67834 0.6350005,-3.03389 2.0461125,-6.13833 3.7394473,-8.18445 10.2305623,-14.18168 1.199445,-1.05833 2.328335,-2.11667 1.199445,-1.05833 2.398891,-2.04611 2.046112,-1.62278 4.233336,-2.68111 2.257779,-1.05834 4.727225,-1.76389 1.552223,-0.42334 2.963335,-0.35278 2.25778,0.14111 3.386669,2.04611 0.49389,0.91722 0.705556,1.905 0.211667,0.91722 0.282223,1.905 0.07056,2.11667 -0.211667,4.23334 -0.352778,2.61056 -0.776112,5.22111 -0.423333,2.54001 -1.058334,5.08001 -1.340556,5.22111 -2.681113,10.37167 -1.27,5.15056 -2.540001,10.37167 -0.493889,2.04612 -0.917223,4.02167 -0.423334,1.97556 -0.917223,4.02167 -0.705556,2.96334 -1.411112,5.92667 -0.705556,2.96334 -1.481668,5.92667 -0.141111,0.77612 -0.352778,1.55223 -0.141111,0.77611 -0.282222,1.55222 v 0.28222 z"
         id="path260" />
      <path
         d="m 79.043308,155.84667 q 0.352778,-0.35278 0.917223,-0.84667 0.564445,-0.49389 1.12889,-0.98778 0.564445,-0.49389 1.058334,-0.91722 0.564445,-0.49389 0.917223,-0.77611 0.423333,-0.42334 0.705556,-0.56445 0.352778,-0.28222 0.705556,-0.14111 0.423333,0.14111 0.564445,0.56445 0.141111,0.35277 0.07055,0.42333 0,0.0705 0.141111,0.42333 0.211667,0.635 0.352778,1.27 0.211667,0.635 0.49389,1.27 0.141111,0.35278 0.352778,0.70556 0.282222,0.28222 0.564445,0.635 0.282222,0.35278 0.776111,0.49389 0.493889,0.0706 0.846667,-0.21167 0.49389,-0.28222 0.987779,-0.77611 0.776111,-0.77611 1.481667,-1.62278 0.705557,-0.91722 1.340557,-1.905 0.776112,-1.12889 1.270001,-1.97556 0.493889,-0.84666 1.199445,-1.97555 0.282222,-0.56445 0.493889,-0.77611 0.423334,-0.49389 0.987779,-0.14111 0.352778,0.28222 0.141111,0.84666 l -0.211667,0.42334 q -1.199445,1.905 -2.257779,3.52778 -1.058334,1.62278 -2.469446,3.38667 -0.423334,0.49388 -0.846668,0.98777 -0.423333,0.42334 -0.917222,0.84667 -0.846668,0.84667 -1.905002,0.91722 -1.270001,0.0706 -2.257779,-0.91722 -1.058334,-1.05833 -1.481668,-2.54 Q 84.052756,155 83.911645,154.57667 83.770534,154.08278 83.629423,153.51833 83.3472,153.73 82.923867,154.01222 l -2.751669,2.54 q -0.352778,0.28223 -0.635,0.56445 -0.282223,0.28222 -0.635001,0.56444 -0.776111,0.56445 -1.270001,0.14111 -0.564445,-0.42333 -0.564445,-1.05833 0,-0.42333 0.07056,-0.635 0.141111,-0.35278 0.211667,-0.70556 0.07055,-0.42333 0.211667,-0.77611 1.058334,-3.03389 2.751668,-5.64445 0.352778,-0.49389 0.705556,-0.91722 0.352778,-0.42333 0.917223,-0.77611 1.270001,-0.84667 2.540002,-0.35278 0.564445,0.21167 0.987778,0.635 0.564445,0.42334 0.282223,1.05834 -0.211667,0.49388 -0.776112,0.49388 -0.564445,0 -1.340556,-0.0705 -0.705556,-0.0706 -1.058334,0.35278 -0.211667,0.21166 -0.423334,0.42333 -0.211667,0.21167 -0.352778,0.49389 -0.564445,0.84667 -1.058334,1.97556 -0.493889,1.05833 -0.987779,1.97555 -0.07055,0.14112 -0.352778,0.77612 -0.282222,0.56444 -0.352778,0.77611 z"
         id="path262" />
      <path
         d="m 94.142152,159.65667 q 0.846667,-0.21167 1.552223,-0.91722 0.846667,-0.77611 1.693334,-1.48167 0.846668,-0.77611 1.693335,-1.55222 2.328336,-2.04612 4.374446,-4.16278 2.11667,-2.11667 4.37445,-3.95112 0.21167,-0.14111 0.77611,-0.28222 0.35278,-0.0706 0.635,0.42333 0.21167,0.35278 0,0.635 -0.21167,0.35278 -0.56444,0.56445 -2.25778,1.83444 -4.16278,3.66889 -1.83445,1.83445 -3.81001,3.66889 -0.776109,0.77611 -1.55222,1.48167 -0.776112,0.70555 -1.552224,1.48167 -0.352778,0.35277 -0.776111,0.635 -0.352778,0.28222 -0.705556,0.56444 -0.564445,0.49389 -1.411112,0.84667 -1.693335,0.70555 -2.610558,-0.91722 -0.423333,-0.70556 -0.423333,-1.69334 -0.07056,-1.12889 0.07055,-2.18722 0.141111,-1.05834 0.423334,-2.11667 0.352778,-1.55222 0.846667,-2.96334 0.493889,-1.48166 1.270001,-2.89278 0.776112,-1.41111 1.975557,-2.32833 1.199445,-0.84667 2.328335,-0.91722 1.622775,-0.14111 2.540005,0.84666 0.91722,0.98778 0.77611,2.18723 0,0.42333 -0.0706,0.56444 -0.28222,0.49389 -0.70555,0.49389 -0.42334,0 -0.635,-0.35278 -0.14112,-0.14111 -0.21167,-0.28222 0,-0.21167 -0.14111,-0.35278 -0.423336,-0.84666 -1.340558,-0.635 -0.423334,0.0706 -0.776112,0.35278 -0.846667,0.49389 -1.270001,1.41111 -1.12889,2.11667 -1.834446,4.37445 -0.776111,2.18722 -1.058334,4.58611 -0.141111,0.77612 0.282223,1.27001 z"
         id="path264" />
      <path
         d="m 105.07829,155.84667 q 0.35278,-0.35278 0.91722,-0.84667 0.56445,-0.49389 1.12889,-0.98778 0.56445,-0.49389 1.05834,-0.91722 0.56444,-0.49389 0.91722,-0.77611 0.42333,-0.42334 0.70555,-0.56445 0.35278,-0.28222 0.70556,-0.14111 0.42333,0.14111 0.56445,0.56445 0.14111,0.35277 0.0705,0.42333 0,0.0705 0.14111,0.42333 0.21167,0.635 0.35278,1.27 0.21167,0.635 0.49389,1.27 0.14111,0.35278 0.35278,0.70556 0.28222,0.28222 0.56444,0.635 0.28222,0.35278 0.77611,0.49389 0.49389,0.0706 0.84667,-0.21167 0.49389,-0.28222 0.98778,-0.77611 0.77611,-0.77611 1.48167,-1.62278 0.70555,-0.91722 1.34055,-1.905 0.77612,-1.12889 1.27,-1.97556 0.49389,-0.84666 1.19945,-1.97555 0.28222,-0.56445 0.49389,-0.77611 0.42333,-0.49389 0.98778,-0.14111 0.35278,0.28222 0.14111,0.84666 l -0.21167,0.42334 q -1.19944,1.905 -2.25778,3.52778 -1.05833,1.62278 -2.46944,3.38667 -0.42334,0.49388 -0.84667,0.98777 -0.42333,0.42334 -0.91722,0.84667 -0.84667,0.84667 -1.905,0.91722 -1.27001,0.0706 -2.25778,-0.91722 -1.05834,-1.05833 -1.48167,-2.54 -0.14111,-0.49389 -0.28222,-0.91722 -0.14112,-0.49389 -0.28223,-1.05834 -0.28222,0.21167 -0.70555,0.49389 l -2.75167,2.54 q -0.35278,0.28223 -0.635,0.56445 -0.28222,0.28222 -0.635,0.56444 -0.77611,0.56445 -1.27,0.14111 -0.56445,-0.42333 -0.56445,-1.05833 0,-0.42333 0.0706,-0.635 0.14111,-0.35278 0.21166,-0.70556 0.0706,-0.42333 0.21167,-0.77611 1.05834,-3.03389 2.75167,-5.64445 0.35278,-0.49389 0.70556,-0.91722 0.35277,-0.42333 0.91722,-0.77611 1.27,-0.84667 2.54,-0.35278 0.56445,0.21167 0.98778,0.635 0.56444,0.42334 0.28222,1.05834 -0.21167,0.49388 -0.77611,0.49388 -0.56445,0 -1.34056,-0.0705 -0.70555,-0.0706 -1.05833,0.35278 -0.21167,0.21166 -0.42333,0.42333 -0.21167,0.21167 -0.35278,0.49389 -0.56445,0.84667 -1.05834,1.97556 -0.49389,1.05833 -0.98777,1.97555 -0.0706,0.14112 -0.35278,0.77612 -0.28223,0.56444 -0.35278,0.77611 z"
         id="path266" />
      <path
         d="m 122.78769,146.25111 q 1.34056,-2.96334 1.97556,-4.86834 0.70555,-1.905 0.91722,-2.96334 0.28222,-1.05833 0.21167,-1.48166 0,-0.49389 0,-0.635 -0.14111,0.28222 -0.14111,0.28222 -0.42334,0.98778 -0.91723,2.25778 -0.42333,1.27 -0.84666,2.61055 -0.42334,1.34056 -0.77612,2.61056 -0.28222,1.27 -0.42333,2.18723 z m 7.62,-0.84667 q -1.27,0.77611 -2.89277,1.83444 -1.55223,0.98778 -2.82223,1.55223 -0.84667,0.42333 -1.76389,0.42333 -2.04611,-0.0706 -1.905,-2.25778 0.35278,-2.82222 1.05833,-5.29167 0.77612,-2.46945 1.90501,-4.93889 0.14111,-0.35278 0.28222,-0.70556 0.21166,-0.42333 0.42333,-0.77611 0.21167,-0.42333 0.56445,-0.77611 0.35277,-0.35278 0.84666,-0.35278 0.56445,0 0.84667,0.49389 0.35278,0.56445 0.35278,1.62278 0,1.05833 -0.21167,1.905 -0.91722,4.16278 -2.96333,8.1139 l -0.21167,0.42333 q 0.14111,0.21167 0.35278,0.21167 0.28222,-0.0706 0.42333,-0.21167 1.34056,-0.56445 2.75167,-1.55222 1.48167,-1.05834 2.82222,-1.83445 0.56445,-0.28222 0.91723,-0.35278 0.42333,-0.14111 0.70555,0.14111 0.35278,0.28223 0.28223,0.70556 0,0.35278 -0.14112,1.05833 -0.49389,1.69334 -0.98777,3.38667 -0.42334,1.69334 -0.84667,3.38667 -0.56445,2.25778 -1.12889,4.51556 -0.56445,2.18722 -0.91722,4.445 -0.14112,0.91723 -0.28223,1.76389 -0.14111,0.91723 -0.0705,1.83445 0,0.28222 0,0.56444 0,0.28223 0.28222,0.56445 0.14111,-0.0706 0.21167,-0.0706 0.14111,0 0.28222,-0.14111 0.42333,-0.35278 0.84667,-0.77611 0.49389,-0.35278 0.84666,-0.84667 2.96334,-3.59833 5.36223,-7.62 2.39889,-4.02167 4.65667,-7.97279 0.28222,-0.42333 0.42333,-0.56444 0.35278,-0.35278 0.70556,-0.14111 0.42333,0.21166 0.35278,0.635 -0.14111,0.42333 -0.42334,0.91722 -1.41111,2.46945 -2.68111,4.65667 -1.19944,2.18722 -2.54,4.23334 -1.27,2.04611 -2.68111,3.95111 -1.41112,1.905 -3.0339,3.81 -0.42333,0.42334 -0.84666,0.77612 -0.42334,0.35277 -0.84667,0.49388 -0.42333,0.14112 -0.91722,0 -0.42334,-0.14111 -0.84667,-0.70555 -0.56444,-0.77611 -0.56444,-1.76389 0,-0.56445 0,-1.19945 0,-0.56444 0.14111,-1.12889 0.56444,-4.02167 1.41111,-7.90222 0.91722,-3.95112 2.32833,-7.76112 0.14111,-0.42333 0.14111,-0.56445 0.0706,-0.14111 0,-0.21166 z"
         id="path268" />
      <path
         d="m 147.76436,137.57277 q -0.77611,0.70555 -1.62277,2.11666 -0.84667,1.34056 -2.11667,4.02167 -0.14111,0.35278 -0.35278,0.77612 -0.14111,0.35277 -0.21167,0.91722 1.41111,-1.55223 2.46945,-3.175 1.12889,-1.62278 1.83444,-3.45723 0.28223,-0.56444 0.14112,-1.05833 z m -9.45445,17.28612 q 0.0706,-1.34056 0.49389,-3.03389 0.35278,-1.76389 0.98778,-3.59834 0.635,-1.905 1.48167,-3.66889 0.91722,-1.83445 1.905,-3.45722 0.56445,-0.84667 1.12889,-1.62278 0.56444,-0.84667 1.12889,-1.62278 0.21167,-0.35278 0.42333,-0.56445 0.28223,-0.28222 0.56445,-0.56444 0.35278,-0.35278 0.77611,-0.56445 1.27,-0.56444 1.76389,0.84667 0.21167,0.77611 0,1.48167 -0.14111,0.35278 -0.28222,0.77611 -0.0706,0.35278 -0.21167,0.70556 -1.62278,3.81 -4.445,6.77333 -0.35278,0.35278 -0.77611,0.70556 -0.42334,0.28222 -0.84667,0.635 -0.49389,0.35278 -0.56445,0.77611 -0.42333,1.41111 -0.77611,2.89278 -0.35278,1.41111 -0.49389,2.89278 0,0.42334 0,0.84667 0.0706,0.42333 0.0706,0.84667 v 0.42333 q 0.42333,1.27 1.62278,0.84667 0.77611,-0.21167 1.41111,-0.635 0.635,-0.42334 1.27,-0.84667 0.635,-0.42333 1.19945,-0.91722 1.19944,-0.91723 2.25778,-1.905 1.05833,-1.05834 2.11666,-2.11667 0.77611,-0.84667 1.55223,-1.69334 0.84666,-0.84666 1.62278,-1.62278 0.21166,-0.21166 0.77611,-0.635 0.49389,-0.21166 0.84666,0.14111 0.49389,0.35278 0.14112,0.91723 -0.28223,0.42333 -0.49389,0.635 -0.91723,0.98778 -1.83445,1.905 -0.84667,0.84667 -1.76389,1.83444 -1.55222,1.62278 -3.175,3.10445 -1.62278,1.48167 -3.45723,2.68111 -0.42333,0.28223 -0.84666,0.49389 -0.42334,0.28223 -0.91723,0.49389 -1.62278,0.77611 -2.75166,0 -1.19945,-0.70555 -1.62278,-2.04611 l -0.21167,-1.05833 q -0.0706,-0.35278 -0.0706,-0.70556 0,-0.42333 0,-0.77611 z"
         id="path270" />
      <path
         d="m 161.66385,144.9811 q -0.70555,0.56445 -1.19944,1.12889 -0.42333,0.56445 -0.77611,1.19945 -0.635,1.05833 -1.27,2.11667 -0.635,1.05833 -1.19945,2.11667 l -4.23333,7.62 -0.42334,0.635 q -0.35278,0.35278 -0.84667,0.28222 -0.28222,-0.0706 -0.49388,-0.21166 -0.28223,-0.14111 -0.28223,-0.42334 0,-0.35278 0,-0.635 0,-0.28222 0.0706,-0.635 0.21167,-0.98778 0.42333,-1.905 0.21167,-0.91722 0.49389,-1.905 l 3.59834,-12.27668 q 0.21166,-0.70555 0.56444,-1.62277 0.35278,-0.77612 1.05834,-0.635 0.35277,0.0706 0.635,0.28222 0.28222,0.14111 0.28222,0.56444 0,0.28222 -0.14111,0.84667 -0.21167,0.84667 -0.42334,1.69333 -0.21166,0.84667 -0.49388,1.69334 l -1.90501,6.56167 q -0.14111,0.42333 -0.0705,0.70556 l 0.635,-1.05834 q 0.635,-1.19944 1.12889,-2.25778 0.56444,-1.05833 1.27,-2.25778 0.84667,-1.48166 2.11667,-2.75167 0.21166,-0.21166 0.42333,-0.42333 0.21167,-0.21167 0.49389,-0.35278 1.41111,-0.84666 2.11667,0.635 0.28222,0.70556 0.42333,1.62278 0.14111,0.98778 0.14111,1.905 0,0.91723 0.0706,1.905 0.0705,0.77612 0.0705,1.62278 0.0706,0.77612 0.21167,1.55223 0.0706,0.635 0.35278,1.41111 0.14111,0.49389 0.635,0.35278 0.35278,-0.14111 0.635,-0.21167 0.28222,-0.14111 0.56444,-0.35278 1.19945,-0.84667 2.04612,-1.69333 0.98778,-0.98778 2.04611,-1.97556 1.12889,-1.05833 2.11667,-2.04611 0.21166,-0.21167 0.635,-0.49389 0.42333,-0.28222 0.77611,0.0705 0.21167,0.21167 0.0706,0.70556 -0.0706,0.42333 -0.28223,0.635 -0.77611,0.77611 -1.41111,1.34056 -0.56444,0.56444 -1.05833,1.05833 -0.49389,0.49389 -0.98778,0.91722 -0.42334,0.42334 -0.91722,0.91723 -0.56445,0.56444 -1.12889,0.98778 -0.56445,0.42333 -1.12889,0.91722 -0.35278,0.35278 -0.77612,0.49389 -0.42333,0.14111 -0.91722,0.28222 -1.62278,0.56445 -2.54,-0.91722 -0.56444,-0.98778 -0.70556,-2.25778 -0.14111,-0.77611 -0.21166,-1.48167 0,-0.70556 -0.0706,-1.48167 -0.0705,-0.98778 -0.0705,-1.905 0,-0.91722 -0.0706,-1.905 0,-0.21167 -0.0706,-0.42333 0,-0.21167 -0.0705,-0.56445 z"
         id="path272" />
      <path
         d="m 169.98944,155.84667 q 0.35278,-0.35278 0.91723,-0.84667 0.56444,-0.49389 1.12889,-0.98778 0.56444,-0.49389 1.05833,-0.91722 0.56445,-0.49389 0.91722,-0.77611 0.42334,-0.42334 0.70556,-0.56445 0.35278,-0.28222 0.70556,-0.14111 0.42333,0.14111 0.56444,0.56445 0.14111,0.35277 0.0706,0.42333 0,0.0705 0.14111,0.42333 0.21166,0.635 0.35278,1.27 0.21166,0.635 0.49389,1.27 0.14111,0.35278 0.35277,0.70556 0.28223,0.28222 0.56445,0.635 0.28222,0.35278 0.77611,0.49389 0.49389,0.0706 0.84667,-0.21167 0.49389,-0.28222 0.98778,-0.77611 0.77611,-0.77611 1.48166,-1.62278 0.70556,-0.91722 1.34056,-1.905 0.77611,-1.12889 1.27,-1.97556 0.49389,-0.84666 1.19945,-1.97555 0.28222,-0.56445 0.49388,-0.77611 0.42334,-0.49389 0.98778,-0.14111 0.35278,0.28222 0.14111,0.84666 l -0.21166,0.42334 q -1.19945,1.905 -2.25778,3.52778 -1.05834,1.62278 -2.46945,3.38667 -0.42333,0.49388 -0.84667,0.98777 -0.42333,0.42334 -0.91722,0.84667 -0.84667,0.84667 -1.905,0.91722 -1.27,0.0706 -2.25778,-0.91722 -1.05833,-1.05833 -1.48167,-2.54 -0.14111,-0.49389 -0.28222,-0.91722 -0.14111,-0.49389 -0.28222,-1.05834 -0.28222,0.21167 -0.70556,0.49389 l -2.75167,2.54 q -0.35277,0.28223 -0.635,0.56445 -0.28222,0.28222 -0.635,0.56444 -0.77611,0.56445 -1.27,0.14111 -0.56444,-0.42333 -0.56444,-1.05833 0,-0.42333 0.0705,-0.635 0.14111,-0.35278 0.21167,-0.70556 0.0706,-0.42333 0.21167,-0.77611 1.05833,-3.03389 2.75167,-5.64445 0.35277,-0.49389 0.70555,-0.91722 0.35278,-0.42333 0.91722,-0.77611 1.27001,-0.84667 2.54001,-0.35278 0.56444,0.21167 0.98777,0.635 0.56445,0.42334 0.28223,1.05834 -0.21167,0.49388 -0.77611,0.49388 -0.56445,0 -1.34056,-0.0705 -0.70556,-0.0706 -1.05834,0.35278 -0.21166,0.21166 -0.42333,0.42333 -0.21167,0.21167 -0.35278,0.49389 -0.56444,0.84667 -1.05833,1.97556 -0.49389,1.05833 -0.98778,1.97555 -0.0705,0.14112 -0.35278,0.77612 -0.28222,0.56444 -0.35278,0.77611 z"
         id="path274" />
    </g>
    <text
       xml:space="preserve"
       style="font-style:normal;font-variant:normal;font-weight:normal;font-stretch:normal;font-size:105.833px;font-family:'Bodoni MT';-inkscape-font-specification:'Bodoni MT';fill:#000000;fill-opacity:1;stroke:#ffffff;stroke-width:2.265;stroke-dasharray:none;paint-order:stroke fill markers"
       x="168.07835"
       y="135.57091"
       id="text2031"><tspan
         sodipodi:role="line"
         id="tspan2029"
         style="font-style:normal;font-variant:normal;font-weight:normal;font-stretch:normal;font-size:105.833px;font-family:'Prestige Signature Script  Demo';-inkscape-font-specification:'Prestige Signature Script  Demo';stroke-width:2.265"
         x="168.07835"
         y="135.57091" /></text>
    <g
       aria-label="&amp;"
       id="text310-0"
       style="font-size:105.833px;font-family:'Prestige Signature Script  Demo';-inkscape-font-specification:'Prestige Signature Script  Demo';stroke-width:0.264583"
       transform="translate(-0.52916667,-1.0583333)">
      <path
         d="m 184.1943,108.44638 q 0.21167,-0.21167 0.3175,-0.3175 0.21167,-0.10583 0.3175,-0.3175 2.53999,-4.33915 4.97415,-8.57247 2.43416,-4.339153 4.55082,-8.889972 1.27,-2.857491 2.32833,-5.714982 1.05833,-2.963324 1.69333,-6.032481 0.21166,-1.269996 0.42333,-2.539992 0.21166,-1.269996 0.10583,-2.539992 -0.10583,-0.529165 -0.21166,-1.05833 -0.10584,-0.634998 -0.3175,-1.164163 -0.84667,-2.222493 -3.17499,-1.375829 -1.16417,0.423332 -2.32833,1.269996 -1.69333,1.269996 -3.28082,3.386656 -1.27,1.693328 -2.2225,3.492489 -0.95249,1.799161 -1.79916,3.704155 -2.43416,5.926648 -2.96332,12.69996 -0.42333,6.773315 1.79916,13.864125 z m 0.42334,5.82082 q -0.3175,0.42333 -0.52917,0.74083 -0.21166,0.21166 -0.42333,0.52916 -1.48166,2.43416 -2.96332,4.86832 -1.37583,2.32833 -2.75166,4.76248 -0.84667,1.5875 -1.69333,3.28083 -0.74083,1.58749 -1.5875,3.28082 -2.11666,4.65665 -3.06915,9.20747 -0.21167,0.84667 -0.3175,1.69333 -0.10583,0.84666 -0.21167,1.69333 -0.10583,1.48166 0.3175,1.79916 0.42333,0.3175 1.79916,-0.10583 1.37583,-0.3175 2.43416,-0.9525 1.69333,-0.9525 3.49249,-2.22249 2.11666,-1.5875 3.70416,-3.17499 3.06915,-3.06916 5.71498,-6.45582 2.64582,-3.28082 5.07998,-6.98498 0.10583,-0.21166 0.10583,-0.31749 0,-0.10584 0.10584,-0.3175 -3.17499,-2.11666 -5.39749,-5.07999 -2.22249,-2.96332 -4.02165,-6.34998 z m 12.80579,10.79496 q 1.48166,0.84667 2.75166,1.27 1.37583,0.42333 2.85749,0.635 1.16416,0.21166 2.32832,0.31749 1.27,0.10584 2.43416,0.21167 0.74083,0 1.37583,-0.10583 0.74083,-0.10584 1.48166,-0.21167 0.21167,0 0.42334,0 0.3175,-0.10583 0.52916,-0.10583 0.74083,0 0.9525,0.52916 0.21166,0.74083 -0.3175,1.05833 -0.42333,0.21167 -0.84666,0.42334 -0.42334,0.21166 -0.9525,0.31749 -1.5875,0.3175 -3.38666,0.3175 -5.39748,-0.21166 -10.05413,-2.32832 -0.21167,-0.21167 -0.52917,-0.21167 h -0.3175 q -0.21166,0.3175 -0.84666,1.16416 -1.48166,2.2225 -3.06916,4.33916 -1.58749,2.11666 -3.38665,4.12748 -1.79916,2.11666 -3.80999,4.02166 -2.01083,2.01083 -4.33915,3.70415 -0.9525,0.74083 -2.01083,1.37583 -0.9525,0.635 -2.01083,1.27 -1.58749,1.05833 -3.91582,1.37583 -1.79916,0.3175 -3.06916,-0.635 -1.16416,-0.9525 -1.37583,-2.75166 -0.10583,-1.37583 0.10584,-2.64582 0.21166,-1.27 0.42333,-2.54 0.52916,-2.43415 1.27,-4.76248 0.74083,-2.22249 1.69332,-4.44499 1.69333,-3.91582 4.02166,-8.14914 l 5.71498,-9.84247 0.9525,-1.58749 q 0.52916,-0.635 0.21166,-1.69333 -0.3175,-1.16416 -0.635,-2.22249 -0.31749,-1.05833 -0.52916,-2.2225 -1.69333,-6.87914 -0.74083,-14.181617 0.52916,-4.021654 1.69333,-7.725809 1.26999,-3.704155 3.38665,-7.196644 2.01083,-3.280823 4.55082,-5.714982 1.16416,-1.164163 2.32833,-1.904994 0.95249,-0.634998 2.11666,-0.952497 3.80999,-1.269996 5.82081,2.222493 1.05833,2.010827 1.05833,4.444986 0,2.010827 -0.42333,3.915821 -0.3175,1.904994 -0.84666,3.809988 -1.16417,4.339153 -2.96333,8.360807 -1.69333,4.021654 -3.80999,7.937475 -1.69332,3.069153 -3.38665,6.032483 -1.69333,2.85749 -3.49249,5.92665 -0.21167,0.42333 -0.52917,0.84666 -0.21166,0.3175 -0.42333,0.635 0.635,1.69333 1.5875,3.49249 1.05833,1.79916 2.32832,3.38665 1.27,1.5875 2.64583,2.85749 1.37583,1.27 2.64582,1.905 0.74083,-0.9525 1.79916,-2.85749 1.05833,-2.01083 2.01083,-4.23332 0.9525,-2.2225 1.69333,-4.33916 0.74083,-2.22249 0.9525,-3.70415 -0.635,0.21166 -0.9525,0.21166 -0.52917,0 -0.84666,-0.31749 -0.3175,-0.42334 -0.10584,-0.9525 0.10584,-0.3175 0.52917,-0.9525 0.635,-0.9525 1.48166,-1.58749 0.9525,-0.74083 2.01083,-1.27 0.52916,-0.3175 1.05833,0 0.52916,0.3175 0.63499,1.05833 0,0.52917 -0.10583,0.9525 0,0.42333 -0.10583,0.95249 -1.37583,5.92665 -4.02166,11.64163 -0.74083,1.48167 -1.48166,2.8575 -0.74083,1.37582 -1.48166,2.85749 -0.21167,0.3175 -0.42333,0.63499 -0.10583,0.3175 -0.3175,0.74084 z"
         id="path277" />
    </g>
    <g
       aria-label="20 | 01 | 2024"
       id="text408"
       style="font-size:10.5833px;font-family:'Prestige Signature Script  Demo';-inkscape-font-specification:'Prestige Signature Script  Demo';text-align:center;text-anchor:middle;stroke-width:0.238125;stroke-linecap:round;stroke-linejoin:round">
      <path
         d="m 81.352668,204.1556 v 2.11666 h -5.079984 v -0.81491 l 2.27541,-2.11666 q 0.402165,-0.381 0.666748,-0.67733 0.275166,-0.30692 0.433915,-0.59267 0.15875,-0.28575 0.222249,-0.56091 0.0635,-0.28575 0.0635,-0.62442 0,-0.87841 -0.380999,-1.37583 -0.370415,-0.50799 -1.090079,-0.50799 -0.328083,0 -0.624415,0.10583 -0.285749,0.0952 -0.507999,0.26458 -0.222249,0.16933 -0.349248,0.381 -0.127,0.20108 -0.127,0.42333 0,0.11642 0.03175,0.15875 0.04233,0.0423 0.105833,0.0423 0.105833,0 0.211666,-0.0635 0.116416,-0.0635 0.328082,-0.0635 0.264583,0 0.423332,0.14816 0.169333,0.14817 0.169333,0.45508 0,0.35984 -0.211666,0.51858 -0.211666,0.14817 -0.507998,0.14817 -0.243416,0 -0.423332,-0.0847 -0.169333,-0.0952 -0.28575,-0.25399 -0.116416,-0.15875 -0.169332,-0.35984 -0.05292,-0.20108 -0.05292,-0.42333 0,-0.4445 0.201083,-0.79375 0.211666,-0.34925 0.550331,-0.58208 0.338666,-0.24341 0.772581,-0.37041 0.433916,-0.127 0.899581,-0.127 0.444498,0 0.878414,0.127 0.444498,0.11641 0.793747,0.35983 0.349249,0.24341 0.560915,0.62441 0.222249,0.37042 0.222249,0.889 0,0.1905 -0.04233,0.41275 -0.04233,0.21167 -0.169333,0.45508 -0.116416,0.24342 -0.338665,0.52917 -0.22225,0.27516 -0.571498,0.59266 l -3.016241,2.69874 v 0.0423 h 3.227907 q 0.190499,0 0.306915,-0.0317 0.127,-0.0318 0.201083,-0.13759 0.07408,-0.11641 0.105833,-0.32808 0.03175,-0.22225 0.03175,-0.60325 z"
         style="font-family:'Libre Bodoni';-inkscape-font-specification:'Libre Bodoni'"
         id="path1013" />
      <path
         d="m 82.432161,202.46227 q 0,-0.82549 0.22225,-1.53457 0.232832,-0.71967 0.634998,-1.24883 0.402165,-0.53975 0.952497,-0.84667 0.550331,-0.30691 1.195913,-0.30691 0.645581,0 1.195912,0.30691 0.550332,0.30692 0.952497,0.84667 0.412749,0.52916 0.634998,1.24883 0.232833,0.70908 0.232833,1.53457 0,0.8255 -0.232833,1.54517 -0.222249,0.71966 -0.634998,1.24883 -0.402165,0.52916 -0.952497,0.83608 -0.550331,0.30691 -1.195912,0.30691 -0.645582,0 -1.195913,-0.30691 -0.550332,-0.30692 -0.952497,-0.83608 -0.402166,-0.52917 -0.634998,-1.24883 -0.22225,-0.71967 -0.22225,-1.54517 z m 1.587495,0 q 0,1.11125 0.0635,1.82033 0.07408,0.6985 0.232833,1.10067 0.169333,0.40216 0.433915,0.55033 0.275166,0.14816 0.687915,0.14816 0.402165,0 0.677331,-0.14816 0.275166,-0.14817 0.433915,-0.55033 0.169333,-0.40217 0.243416,-1.10067 0.07408,-0.70908 0.07408,-1.82033 0,-1.10066 -0.07408,-1.79916 -0.07408,-0.70908 -0.243416,-1.11124 -0.158749,-0.40217 -0.433915,-0.55033 -0.275166,-0.15875 -0.677331,-0.15875 -0.412749,0 -0.687915,0.15875 -0.264582,0.14816 -0.433915,0.55033 -0.15875,0.40216 -0.232833,1.11124 -0.0635,0.6985 -0.0635,1.79916 z"
         style="font-family:'Libre Bodoni';-inkscape-font-specification:'Libre Bodoni'"
         id="path1015" />
      <path
         d="m 93.385871,197.93262 v 9.64139 h -0.624414 v -9.64139 z"
         style="font-family:'Libre Bodoni';-inkscape-font-specification:'Libre Bodoni'"
         id="path1017" />
      <path
         d="m 97.693275,202.46227 q 0,-0.82549 0.222249,-1.53457 0.232833,-0.71967 0.634998,-1.24883 0.402165,-0.53975 0.952497,-0.84667 0.550331,-0.30691 1.195911,-0.30691 0.64558,0 1.19591,0.30691 0.55034,0.30692 0.9525,0.84667 0.41275,0.52916 0.635,1.24883 0.23283,0.70908 0.23283,1.53457 0,0.8255 -0.23283,1.54517 -0.22225,0.71966 -0.635,1.24883 -0.40216,0.52916 -0.9525,0.83608 -0.55033,0.30691 -1.19591,0.30691 -0.64558,0 -1.195911,-0.30691 -0.550332,-0.30692 -0.952497,-0.83608 -0.402165,-0.52917 -0.634998,-1.24883 -0.222249,-0.71967 -0.222249,-1.54517 z m 1.587495,0 q 0,1.11125 0.0635,1.82033 0.07408,0.6985 0.232833,1.10067 0.169333,0.40216 0.433918,0.55033 0.27516,0.14816 0.68791,0.14816 0.40217,0 0.67733,-0.14816 0.27517,-0.14817 0.43392,-0.55033 0.16933,-0.40217 0.24341,-1.10067 0.0741,-0.70908 0.0741,-1.82033 0,-1.10066 -0.0741,-1.79916 -0.0741,-0.70908 -0.24341,-1.11124 -0.15875,-0.40217 -0.43392,-0.55033 -0.27516,-0.15875 -0.67733,-0.15875 -0.41275,0 -0.68791,0.15875 -0.264585,0.14816 -0.433918,0.55033 -0.15875,0.40216 -0.232833,1.11124 -0.0635,0.6985 -0.0635,1.79916 z"
         style="font-family:'Libre Bodoni';-inkscape-font-specification:'Libre Bodoni'"
         id="path1019" />
      <path
         d="m 103.99034,198.69462 h 2.84691 v 7.31306 h 1.48166 v 0.26458 h -4.32857 v -0.26458 h 1.5875 v -7.04848 h -1.5875 z"
         style="font-family:'Libre Bodoni';-inkscape-font-specification:'Libre Bodoni'"
         id="path1021" />
      <path
         d="m 112.86972,197.93262 v 9.64139 h -0.62441 v -9.64139 z"
         style="font-family:'Libre Bodoni';-inkscape-font-specification:'Libre Bodoni'"
         id="path1023" />
      <path
         d="m 122.13011,204.1556 v 2.11666 h -5.07999 v -0.81491 l 2.27541,-2.11666 q 0.40217,-0.381 0.66675,-0.67733 0.27517,-0.30692 0.43392,-0.59267 0.15875,-0.28575 0.22225,-0.56091 0.0635,-0.28575 0.0635,-0.62442 0,-0.87841 -0.381,-1.37583 -0.37042,-0.50799 -1.09008,-0.50799 -0.32809,0 -0.62442,0.10583 -0.28575,0.0952 -0.508,0.26458 -0.22225,0.16933 -0.34925,0.381 -0.12699,0.20108 -0.12699,0.42333 0,0.11642 0.0317,0.15875 0.0423,0.0423 0.10584,0.0423 0.10583,0 0.21166,-0.0635 0.11642,-0.0635 0.32809,-0.0635 0.26458,0 0.42333,0.14816 0.16933,0.14817 0.16933,0.45508 0,0.35984 -0.21166,0.51858 -0.21167,0.14817 -0.508,0.14817 -0.24342,0 -0.42334,-0.0847 -0.16933,-0.0952 -0.28574,-0.25399 -0.11642,-0.15875 -0.16934,-0.35984 -0.0529,-0.20108 -0.0529,-0.42333 0,-0.4445 0.20108,-0.79375 0.21166,-0.34925 0.55033,-0.58208 0.33867,-0.24341 0.77258,-0.37041 0.43392,-0.127 0.89958,-0.127 0.4445,0 0.87842,0.127 0.44449,0.11641 0.79374,0.35983 0.34925,0.24341 0.56092,0.62441 0.22225,0.37042 0.22225,0.889 0,0.1905 -0.0423,0.41275 -0.0423,0.21167 -0.16933,0.45508 -0.11641,0.24342 -0.33866,0.52917 -0.22225,0.27516 -0.5715,0.59266 l -3.01624,2.69874 v 0.0423 h 3.2279 q 0.1905,0 0.30692,-0.0317 0.127,-0.0318 0.20108,-0.13759 0.0741,-0.11641 0.10584,-0.32808 0.0317,-0.22225 0.0317,-0.60325 z"
         style="font-family:'Libre Bodoni';-inkscape-font-specification:'Libre Bodoni'"
         id="path1025" />
      <path
         d="m 123.2096,202.46227 q 0,-0.82549 0.22225,-1.53457 0.23283,-0.71967 0.635,-1.24883 0.40216,-0.53975 0.9525,-0.84667 0.55033,-0.30691 1.19591,-0.30691 0.64558,0 1.19591,0.30691 0.55033,0.30692 0.9525,0.84667 0.41275,0.52916 0.635,1.24883 0.23283,0.70908 0.23283,1.53457 0,0.8255 -0.23283,1.54517 -0.22225,0.71966 -0.635,1.24883 -0.40217,0.52916 -0.9525,0.83608 -0.55033,0.30691 -1.19591,0.30691 -0.64558,0 -1.19591,-0.30691 -0.55034,-0.30692 -0.9525,-0.83608 -0.40217,-0.52917 -0.635,-1.24883 -0.22225,-0.71967 -0.22225,-1.54517 z m 1.5875,0 q 0,1.11125 0.0635,1.82033 0.0741,0.6985 0.23283,1.10067 0.16933,0.40216 0.43391,0.55033 0.27517,0.14816 0.68792,0.14816 0.40216,0 0.67733,-0.14816 0.27517,-0.14817 0.43392,-0.55033 0.16933,-0.40217 0.24341,-1.10067 0.0741,-0.70908 0.0741,-1.82033 0,-1.10066 -0.0741,-1.79916 -0.0741,-0.70908 -0.24341,-1.11124 -0.15875,-0.40217 -0.43392,-0.55033 -0.27517,-0.15875 -0.67733,-0.15875 -0.41275,0 -0.68792,0.15875 -0.26458,0.14816 -0.43391,0.55033 -0.15875,0.40216 -0.23283,1.11124 -0.0635,0.6985 -0.0635,1.79916 z"
         style="font-family:'Libre Bodoni';-inkscape-font-specification:'Libre Bodoni'"
         id="path1027" />
      <path
         d="m 135.00997,204.1556 v 2.11666 h -5.07998 v -0.81491 l 2.27541,-2.11666 q 0.40217,-0.381 0.66675,-0.67733 0.27516,-0.30692 0.43391,-0.59267 0.15875,-0.28575 0.22225,-0.56091 0.0635,-0.28575 0.0635,-0.62442 0,-0.87841 -0.381,-1.37583 -0.37041,-0.50799 -1.09008,-0.50799 -0.32808,0 -0.62441,0.10583 -0.28575,0.0952 -0.508,0.26458 -0.22225,0.16933 -0.34925,0.381 -0.127,0.20108 -0.127,0.42333 0,0.11642 0.0318,0.15875 0.0423,0.0423 0.10584,0.0423 0.10583,0 0.21166,-0.0635 0.11642,-0.0635 0.32808,-0.0635 0.26459,0 0.42334,0.14816 0.16933,0.14817 0.16933,0.45508 0,0.35984 -0.21167,0.51858 -0.21166,0.14817 -0.508,0.14817 -0.24341,0 -0.42333,-0.0847 -0.16933,-0.0952 -0.28575,-0.25399 -0.11641,-0.15875 -0.16933,-0.35984 -0.0529,-0.20108 -0.0529,-0.42333 0,-0.4445 0.20109,-0.79375 0.21166,-0.34925 0.55033,-0.58208 0.33866,-0.24341 0.77258,-0.37041 0.43391,-0.127 0.89958,-0.127 0.4445,0 0.87841,0.127 0.4445,0.11641 0.79375,0.35983 0.34925,0.24341 0.56092,0.62441 0.22224,0.37042 0.22224,0.889 0,0.1905 -0.0423,0.41275 -0.0423,0.21167 -0.16933,0.45508 -0.11642,0.24342 -0.33867,0.52917 -0.22225,0.27516 -0.57149,0.59266 l -3.01625,2.69874 v 0.0423 h 3.22791 q 0.1905,0 0.30692,-0.0317 0.127,-0.0318 0.20108,-0.13759 0.0741,-0.11641 0.10583,-0.32808 0.0317,-0.22225 0.0317,-0.60325 z"
         style="font-family:'Libre Bodoni';-inkscape-font-specification:'Libre Bodoni'"
         id="path1029" />
      <path
         d="m 138.9787,203.86985 v -3.93698 h -0.0423 l -2.66699,3.89465 v 0.0423 z m 1.27,0.28575 v 1.85208 h 0.89958 v 0.26458 h -3.20674 v -0.26458 h 1.04775 v -1.85208 h -3.12208 v -0.29633 l 3.59832,-5.33398 h 0.77259 v 5.34456 h 1.14299 v -0.83608 h 0.27517 v 1.98966 h -0.27517 v -0.86783 z"
         style="font-family:'Libre Bodoni';-inkscape-font-specification:'Libre Bodoni'"
         id="path1031" />
    </g>
  </g>
</svg>
