<?xml version="1.0" encoding="UTF-8" standalone="no"?>
<!-- Created with Inkscape (http://www.inkscape.org/) -->

<svg
   width="127.08446mm"
   height="55.957077mm"
   viewBox="0 0 127.08446 55.957077"
   version="1.1"
   id="svg1255"
   inkscape:version="1.2.2 (732a01da63, 2022-12-09)"
   sodipodi:docname="nos_casamos.svg"
   xmlns:inkscape="http://www.inkscape.org/namespaces/inkscape"
   xmlns:sodipodi="http://sodipodi.sourceforge.net/DTD/sodipodi-0.dtd"
   xmlns="http://www.w3.org/2000/svg"
   xmlns:svg="http://www.w3.org/2000/svg">
  <sodipodi:namedview
     id="namedview1257"
     pagecolor="#ffffff"
     bordercolor="#000000"
     borderopacity="0.25"
     inkscape:showpageshadow="2"
     inkscape:pageopacity="0.0"
     inkscape:pagecheckerboard="0"
     inkscape:deskcolor="#d1d1d1"
     inkscape:document-units="mm"
     showgrid="false"
     inkscape:zoom="0.48016975"
     inkscape:cx="397.77599"
     inkscape:cy="562.30114"
     inkscape:window-width="2048"
     inkscape:window-height="1081"
     inkscape:window-x="1358"
     inkscape:window-y="-8"
     inkscape:window-maximized="1"
     inkscape:current-layer="layer1" />
  <defs
     id="defs1252" />
  <g
     inkscape:label="Layer 1"
     inkscape:groupmode="layer"
     id="layer1">
    <g
       aria-label="Nos casamos"
       id="text1378"
       style="font-size:42.3333px;font-family:'Libre Bodoni';-inkscape-font-specification:'Libre Bodoni';text-align:center;text-anchor:middle;fill:none;stroke:#000000;stroke-width:0.238125;stroke-linecap:round;stroke-linejoin:round">
      <path
         d="m 24.341649,54.819059 q 0.08467,0.08467 0.127,0.08467 0.04233,0.04233 0.08467,0.08467 0.423333,0.381 0.127,0.719666 -0.338666,0.423333 -0.846666,0.127 -0.296333,-0.169333 -0.380999,-0.550333 -0.08467,-0.254 -0.127,-0.507999 -0.04233,-0.254 -0.04233,-0.508 -0.04233,-0.635 0.04233,-1.269999 0.08467,-0.635 0.169333,-1.269999 0.211666,-1.481666 0.508,-2.920998 0.338666,-1.396999 0.677332,-2.836331 0.889,-3.809997 1.862666,-7.535328 1.015999,-3.72533 1.989665,-7.492994 1.481665,-5.630329 3.005664,-11.175992 1.566332,-5.545662 3.174998,-11.1336581 l 1.777998,-6.0959954 0.254,-1.0159992 q 0.04233,-0.1269999 0.04233,-0.2539998 0.04233,-0.1693332 -0.04233,-0.33866643 -0.211666,0 -0.380999,0.12699993 -0.169334,0.084667 -0.338667,0.1693332 -0.931332,0.5926662 -1.904998,1.4816655 -1.185333,1.0159993 -2.243665,2.1166651 -1.058333,1.1006658 -2.031999,2.2859983 -5.799662,6.8156619 -10.540992,14.3509889 -1.354666,2.158999 -2.666998,4.275664 -1.269999,2.116665 -2.539998,4.275663 -0.804333,1.354666 -1.566332,2.751665 -0.719666,1.396999 -1.481666,2.793998 l -0.380999,0.634999 Q 10.371659,36.615739 9.9483264,36.488739 9.4826601,36.277073 9.5673267,35.769073 l 0.2539998,-1.396999 q 0.2116665,-0.846666 0.3809995,-1.693332 0.169333,-0.804333 0.338667,-1.650999 0.507999,-2.624664 1.142999,-5.206996 0.634999,-2.539998 1.312332,-5.122329 0.888999,-3.513664 1.735665,-6.984995 0.889,-3.513664 1.735666,-7.0696612 0.127,-0.5503329 0.211666,-1.1006659 0.127,-0.5503329 0.211667,-1.1429991 0.04233,-0.2539998 0.04233,-0.5079996 0,-0.2963331 0,-0.5503329 0,-0.1693333 -0.08467,-0.5079997 -0.211667,-0.5079996 -0.762,-0.4656663 -0.465666,0.084667 -0.888999,0.2539998 -0.677333,0.2539998 -1.269999,0.6349996 -0.550333,0.3386664 -1.100666,0.8043327 -0.677333,0.5503329 -1.312332,1.1429991 -0.592667,0.5503329 -1.185333,1.1853325 -2.4129981,2.7093313 -4.3603299,5.672662 -1.9049986,2.963331 -3.3866642,6.265329 -0.5926662,1.312332 -1.0159992,2.666998 -0.423333,1.312332 -0.63499953,2.709331 -0.1269999,0.804333 -0.1693332,1.608666 -0.0423333,0.761999 0.0846666,1.566332 0.0423333,0.254 0.0846666,0.508 0,0.253999 0.0846666,0.507999 0.6349995,2.370665 3.090331,2.878665 0.6773328,0.127 1.3546656,0.169333 0.6773329,0.04233 1.396999,-0.127 0.4656663,-0.127 0.5503329,0.211666 0.084667,0.296334 -0.2963331,0.423333 -0.2539998,0.08467 -0.5079996,0.127 -0.2539998,0.04233 -0.5079996,0.08467 -1.3546657,0.127 -2.6246647,-0.254 Q 1.2276663,30.773744 0.42333356,28.614745 0.16933375,27.895079 0.08466714,27.175413 5.4101509e-7,26.455747 5.4101509e-7,25.736081 q 0,-1.481666 0.29633310898491,-2.878665 0.25399981,-1.396999 0.71966615,-2.751664 0.7619994,-2.243665 1.9049985,-4.36033 1.2276658,-2.370665 2.7093313,-4.529664 1.4816656,-2.2013313 3.217331,-4.2756631 0.8043327,-0.9736659 1.6509984,-1.820332 0.846666,-0.8889993 1.820332,-1.693332 1.269999,-1.0583326 2.666998,-1.6086655 0.211667,-0.084667 0.465667,-0.1693332 0.253999,-0.084667 0.507999,-0.1269999 1.227666,-0.2116665 1.777999,0.9313326 0.169333,0.4656663 0.254,0.8889994 0.08467,0.5079996 0.04233,1.0159992 -0.04233,0.5079996 -0.127,1.0159992 -0.169333,1.1853325 -0.423333,2.3283316 -0.254,1.1429992 -0.508,2.2859983 -0.846666,3.8523304 -1.820332,7.6623274 -0.973665,3.767664 -1.947331,7.619994 -0.423333,1.608666 -0.804333,3.217331 -0.338667,1.650999 -0.719666,3.259665 v 0.296333 q 0.127,-0.169334 0.211666,-0.296333 0.08467,-0.08467 0.169333,-0.211667 1.481666,-2.666998 3.005665,-5.249329 1.566332,-2.539998 3.174998,-5.079996 5.460995,-8.593661 12.107324,-16.0019885 0.761999,-0.846666 1.608665,-1.6509987 0.846666,-0.8043328 1.735666,-1.5663322 0.465666,-0.423333 0.931332,-0.7619994 0.508,-0.38099974 1.058333,-0.71966615 0.465666,-0.29633311 0.846666,-0.42333301 1.058332,-0.33866642 1.269999,0.71966612 0.04233,0.46566634 0,0.88899934 -0.127,0.9736659 -0.381,1.8626653 -0.719666,3.0056644 -1.566332,5.9689955 -0.846666,2.9209977 -1.650999,5.9266617 -1.354665,5.037663 -2.709331,10.032993 -1.354666,4.99533 -2.709331,10.032992 -0.889,3.428998 -1.777999,6.773329 -0.846666,3.386664 -1.693332,6.815661 -0.254,1.058333 -0.465666,2.116665 -0.211667,1.058333 -0.296334,2.158999 -0.04233,0.338666 -0.04233,0.677333 0,0.380999 -0.04233,0.719666 z"
         style="font-family:'Prestige Signature Script  Demo';-inkscape-font-specification:'Prestige Signature Script  Demo';fill:#000000;stroke:none"
         id="path1653" />
      <path
         d="m 38.565665,19.513085 q 0.550333,-0.677332 1.058332,-0.423333 0.508,0.211667 0.508,0.931333 0.04233,0.381 -0.04233,0.761999 -0.04233,0.381 -0.127,0.762 l -0.08467,0.465666 q 0.804333,-0.127 1.481666,-0.507999 0.677332,-0.381 1.185332,-0.762 0.508,-0.423333 0.846666,-0.804333 0.381,-0.380999 0.550333,-0.507999 0.211667,-0.169333 0.465666,-0.04233 0.296333,0.08467 0.127,0.423333 -0.127,0.253999 -0.550333,0.719666 -0.423333,0.465666 -1.100666,0.973666 -0.677332,0.507999 -1.523998,0.973666 -0.846666,0.423333 -1.820332,0.592666 -0.211667,0.338666 -0.423333,0.677333 -0.211667,0.338666 -0.423333,0.677332 -0.296333,0.465667 -0.762,0.931333 -0.296333,0.296333 -0.677333,0.423333 Q 36.364333,26.11708 35.898667,25.312748 35.56,24.762415 35.56,24.169749 q -0.08467,-2.201332 0.931333,-4.063997 0.169333,-0.296333 0.465666,-0.592667 0.677333,-0.507999 1.142999,0.296334 0,0.04233 0.08467,0.211666 z m -0.127,3.471331 q -0.08467,-0.08467 -0.08467,-0.08467 -0.677333,-0.338667 -0.677333,-1.269999 v -0.254 q 0,-0.08467 0,-0.127 0.04233,-0.04233 -0.08467,-0.08467 -0.338667,0.719666 -0.508,1.439332 -0.169333,0.719667 -0.296333,1.439333 -0.04233,0.169333 -0.04233,0.338666 0,0.169333 0.127,0.381 0.592666,-0.338667 0.888999,-0.804333 0.338666,-0.465666 0.677333,-0.931333 z m 0.846666,-3.174997 q -0.127,0 -0.127,0.04233 -0.465666,0.592666 -0.677333,1.396999 -0.04233,0.127 -0.04233,0.296333 0.04233,0.127 0.04233,0.296333 0,0.211667 0.254,0.254 0.169333,0.04233 0.254,-0.127 0.423333,-0.973666 0.423333,-1.862665 0,-0.08467 -0.08467,-0.254 z"
         style="font-family:'Prestige Signature Script  Demo';-inkscape-font-specification:'Prestige Signature Script  Demo';fill:#000000;stroke:none"
         id="path1655" />
      <path
         d="m 46.947629,28.741745 q -0.08467,0.08467 -0.127,0.127 -0.04233,0.08467 -0.08467,0.169333 l -0.888999,1.142999 q -0.973666,1.354666 -1.862666,2.666998 -0.888999,1.354666 -1.650998,2.836332 -0.254,0.507999 -0.465667,1.015999 -0.253999,0.550333 -0.465666,1.058332 -0.04233,0.08467 -0.04233,0.338667 0.846666,-0.465666 1.947332,-1.735666 1.100665,-1.269999 1.947331,-2.793997 0.804333,-1.396999 1.27,-2.751665 0.507999,-1.354666 0.423333,-2.031999 z m 0.169333,-12.657657 q -1.269999,0.973666 -1.989665,2.455332 -0.423333,0.846666 0.296333,1.566332 l 1.015999,1.142999 q 1.354666,1.608665 1.693332,3.809997 l 0.127,0.634999 q 0.169333,0.04233 0.211666,-0.04233 0.04233,-0.127 0.127,-0.211666 1.058333,-1.269999 2.158999,-2.455332 1.142999,-1.227666 2.328331,-2.412998 0.254,-0.254 0.508,-0.508 0.296333,-0.253999 0.592666,-0.507999 0.296333,-0.254 0.550333,-0.04233 0.254,0.211667 0,0.550333 -0.127,0.169334 -0.296333,0.338667 -0.127,0.127 -0.296333,0.296333 -1.354666,1.354666 -2.709331,2.751664 -1.312333,1.354666 -2.539999,2.836332 -0.08467,0.08467 -0.126999,0.127 -0.04233,0.08467 -0.127,0.169333 -0.381,0.381 -0.465667,1.058332 -0.127,1.354666 -0.507999,2.582332 -0.338667,1.269999 -0.931333,2.497665 -0.634999,1.354665 -1.481666,2.582331 -0.804332,1.227666 -1.904998,2.243665 -0.635,0.634999 -1.396999,1.142999 -0.296333,0.169333 -0.719666,0.254 -0.762,0.127 -0.762,-0.677333 0,-0.211666 0.08467,-0.465666 0.08467,-0.338667 0.211667,-0.635 0.08467,-0.296333 0.211666,-0.592666 0.296333,-0.719666 0.677333,-1.396999 0.338666,-0.677333 0.761999,-1.354666 1.016,-1.735665 2.158999,-3.34433 1.142999,-1.608666 2.370665,-3.174998 0.423333,-0.550333 0.423333,-1.227666 -0.08467,-1.312332 -0.423333,-2.370665 -0.381,-1.100666 -1.227666,-2.031998 -0.211667,-0.211667 -0.423333,-0.423333 -0.169333,-0.254 -0.381,-0.465667 -0.169333,-0.169333 -0.338666,-0.296333 -0.127,-0.169333 -0.254,-0.380999 -0.508,-0.677333 -0.169333,-1.566332 0.211666,-0.550333 0.507999,-0.973666 0.889,-1.354666 2.201332,-2.285999 0.338666,-0.296333 0.719666,-0.338666 0.635,-0.127 0.719666,0.550333 0,0.254 -0.127,0.507999 -0.211666,0.423333 -0.677333,0.127 -0.08467,-0.04233 -0.126999,-0.08467 -0.04233,-0.04233 -0.127,-0.127 z"
         style="font-family:'Prestige Signature Script  Demo';-inkscape-font-specification:'Prestige Signature Script  Demo';fill:#000000;stroke:none"
         id="path1657" />
      <path
         d="m 60.917612,26.75208 q 0.508,-0.127 0.931333,-0.550333 0.507999,-0.465666 1.015999,-0.888999 0.508,-0.465667 1.015999,-0.931333 1.396999,-1.227666 2.624665,-2.497665 1.269999,-1.269999 2.624665,-2.370665 0.127,-0.08467 0.465666,-0.169333 0.211666,-0.04233 0.381,0.254 0.127,0.211667 0,0.381 -0.127,0.211666 -0.338667,0.338666 -1.354665,1.100666 -2.497665,2.201332 -1.100665,1.100666 -2.285998,2.201332 -0.465666,0.465666 -0.931332,0.888999 -0.465667,0.423333 -0.931333,0.888999 -0.211667,0.211667 -0.465666,0.381 -0.211667,0.169333 -0.423333,0.338666 -0.338667,0.296333 -0.846666,0.508 -1.016,0.423333 -1.566333,-0.550333 -0.253999,-0.423333 -0.253999,-1.015999 -0.04233,-0.677333 0.04233,-1.312333 0.08467,-0.634999 0.254,-1.269999 0.211666,-0.931332 0.507999,-1.777998 0.296333,-0.889 0.762,-1.735666 0.465666,-0.846666 1.185332,-1.396999 0.719666,-0.507999 1.396999,-0.550333 0.973666,-0.08467 1.523999,0.508 0.550333,0.592666 0.465666,1.312332 0,0.254 -0.04233,0.338667 -0.169333,0.296333 -0.423333,0.296333 -0.254,0 -0.381,-0.211667 -0.08467,-0.08467 -0.127,-0.169333 0,-0.127 -0.08467,-0.211666 -0.254,-0.508 -0.804333,-0.381 -0.254,0.04233 -0.465666,0.211667 -0.508,0.296333 -0.762,0.846666 -0.677333,1.269999 -1.100666,2.624664 -0.465666,1.312333 -0.634999,2.751665 -0.08467,0.465666 0.169333,0.761999 z"
         style="font-family:'Prestige Signature Script  Demo';-inkscape-font-specification:'Prestige Signature Script  Demo';fill:#000000;stroke:none"
         id="path1659" />
      <path
         d="m 67.479286,24.466082 q 0.211667,-0.211667 0.550333,-0.508 0.338666,-0.296333 0.677333,-0.592666 0.338666,-0.296333 0.634999,-0.550333 0.338667,-0.296333 0.550333,-0.465666 0.254,-0.254 0.423333,-0.338667 0.211667,-0.169333 0.423333,-0.08467 0.254,0.08467 0.338667,0.338666 0.08467,0.211667 0.04233,0.254 0,0.04233 0.08467,0.254 0.127,0.380999 0.211666,0.761999 0.127,0.381 0.296333,0.762 0.08467,0.211666 0.211667,0.423333 0.169333,0.169333 0.338666,0.380999 0.169333,0.211667 0.465667,0.296333 0.296333,0.04233 0.507999,-0.127 0.296333,-0.169333 0.592666,-0.465666 0.465667,-0.465666 0.889,-0.973666 0.423333,-0.550333 0.804332,-1.142999 0.465667,-0.677333 0.762,-1.185332 0.296333,-0.508 0.719666,-1.185333 0.169333,-0.338666 0.296333,-0.465666 0.254,-0.296333 0.592666,-0.08467 0.211667,0.169333 0.08467,0.508 l -0.127,0.254 q -0.719666,1.142999 -1.354666,2.116665 -0.634999,0.973666 -1.481665,2.031998 -0.254,0.296333 -0.508,0.592666 -0.254,0.254 -0.550333,0.508 -0.507999,0.508 -1.142999,0.550333 -0.761999,0.04233 -1.354666,-0.550333 -0.634999,-0.634999 -0.888999,-1.523999 -0.08467,-0.296333 -0.169333,-0.550333 -0.08467,-0.296333 -0.169333,-0.634999 -0.169333,0.127 -0.423333,0.296333 l -1.650999,1.523999 q -0.211667,0.169333 -0.381,0.338666 -0.169333,0.169333 -0.380999,0.338667 -0.465667,0.338666 -0.762,0.08467 -0.338666,-0.254 -0.338666,-0.634999 0,-0.254 0.04233,-0.381 0.08467,-0.211667 0.127,-0.423333 0.04233,-0.254 0.127,-0.465666 0.634999,-1.820332 1.650999,-3.386665 0.211666,-0.296333 0.423333,-0.550332 0.211666,-0.254 0.550332,-0.465667 0.762,-0.507999 1.523999,-0.211666 0.338667,0.127 0.592667,0.380999 0.338666,0.254 0.169333,0.635 -0.127,0.296333 -0.465667,0.296333 -0.338666,0 -0.804332,-0.04233 -0.423333,-0.04233 -0.635,0.211666 -0.127,0.127 -0.254,0.254 -0.127,0.127 -0.211666,0.296333 -0.338667,0.508 -0.635,1.185333 -0.296333,0.634999 -0.592666,1.185332 -0.04233,0.08467 -0.211666,0.465666 -0.169334,0.338667 -0.211667,0.465667 z"
         style="font-family:'Prestige Signature Script  Demo';-inkscape-font-specification:'Prestige Signature Script  Demo';fill:#000000;stroke:none"
         id="path1661" />
      <path
         d="m 80.221577,28.741745 q -0.08467,0.08467 -0.127,0.127 -0.04233,0.08467 -0.08467,0.169333 l -0.889,1.142999 q -0.973666,1.354666 -1.862665,2.666998 -0.888999,1.354666 -1.650999,2.836332 -0.253999,0.507999 -0.465666,1.015999 -0.254,0.550333 -0.465666,1.058332 -0.04233,0.08467 -0.04233,0.338667 0.846666,-0.465666 1.947332,-1.735666 1.100666,-1.269999 1.947332,-2.793997 0.804333,-1.396999 1.269999,-2.751665 0.508,-1.354666 0.423333,-2.031999 z M 80.39091,16.084088 q -1.269999,0.973666 -1.989665,2.455332 -0.423333,0.846666 0.296333,1.566332 l 1.016,1.142999 q 1.354665,1.608665 1.693332,3.809997 l 0.127,0.634999 q 0.169333,0.04233 0.211666,-0.04233 0.04233,-0.127 0.127,-0.211666 1.058333,-1.269999 2.158998,-2.455332 1.142999,-1.227666 2.328332,-2.412998 0.254,-0.254 0.508,-0.508 0.296333,-0.253999 0.592666,-0.507999 0.296333,-0.254 0.550333,-0.04233 0.254,0.211667 0,0.550333 -0.127,0.169334 -0.296333,0.338667 -0.127,0.127 -0.296334,0.296333 -1.354665,1.354666 -2.709331,2.751664 -1.312332,1.354666 -2.539998,2.836332 -0.08467,0.08467 -0.127,0.127 -0.04233,0.08467 -0.127,0.169333 -0.380999,0.381 -0.465666,1.058332 -0.127,1.354666 -0.508,2.582332 -0.338666,1.269999 -0.931332,2.497665 -0.635,1.354665 -1.481666,2.582331 -0.804333,1.227666 -1.904998,2.243665 -0.635,0.634999 -1.396999,1.142999 -0.296333,0.169333 -0.719666,0.254 -0.762,0.127 -0.762,-0.677333 0,-0.211666 0.08467,-0.465666 0.08467,-0.338667 0.211666,-0.635 0.08467,-0.296333 0.211667,-0.592666 0.296333,-0.719666 0.677333,-1.396999 0.338666,-0.677333 0.761999,-1.354666 1.015999,-1.735665 2.158998,-3.34433 1.142999,-1.608666 2.370665,-3.174998 0.423333,-0.550333 0.423333,-1.227666 -0.08467,-1.312332 -0.423333,-2.370665 -0.381,-1.100666 -1.227666,-2.031998 -0.211666,-0.211667 -0.423333,-0.423333 -0.169333,-0.254 -0.380999,-0.465667 -0.169333,-0.169333 -0.338667,-0.296333 -0.127,-0.169333 -0.253999,-0.380999 -0.508,-0.677333 -0.169334,-1.566332 0.211667,-0.550333 0.508,-0.973666 0.888999,-1.354666 2.201332,-2.285999 0.338666,-0.296333 0.719666,-0.338666 0.634999,-0.127 0.719666,0.550333 0,0.254 -0.127,0.507999 -0.211667,0.423333 -0.677333,0.127 -0.08467,-0.04233 -0.127,-0.08467 -0.04233,-0.04233 -0.127,-0.127 z"
         style="font-family:'Prestige Signature Script  Demo';-inkscape-font-specification:'Prestige Signature Script  Demo';fill:#000000;stroke:none"
         id="path1663" />
      <path
         d="m 85.597916,24.466082 q 0.211666,-0.211667 0.550333,-0.508 0.338666,-0.296333 0.677332,-0.592666 0.338667,-0.296333 0.635,-0.550333 0.338666,-0.296333 0.550333,-0.465666 0.254,-0.254 0.423333,-0.338667 0.211666,-0.169333 0.423333,-0.08467 0.254,0.08467 0.338666,0.338666 0.08467,0.211667 0.04233,0.254 0,0.04233 0.08467,0.254 0.127,0.380999 0.211667,0.761999 0.127,0.381 0.296333,0.762 0.08467,0.211666 0.211666,0.423333 0.169333,0.169333 0.338667,0.380999 0.169333,0.211667 0.465666,0.296333 0.296333,0.04233 0.508,-0.127 0.296333,-0.169333 0.592666,-0.465666 0.465666,-0.465666 0.888999,-0.973666 0.423333,-0.550333 0.804333,-1.142999 0.465666,-0.677333 0.761999,-1.185332 0.296333,-0.508 0.719666,-1.185333 0.169334,-0.338666 0.296334,-0.465666 0.253999,-0.296333 0.592666,-0.08467 0.211666,0.169333 0.08467,0.508 l -0.127,0.254 q -0.719666,1.142999 -1.354665,2.116665 -0.635,0.973666 -1.481666,2.031998 -0.254,0.296333 -0.507999,0.592666 -0.254,0.254 -0.550333,0.508 -0.508,0.508 -1.142999,0.550333 -0.762,0.04233 -1.354666,-0.550333 -0.635,-0.634999 -0.888999,-1.523999 -0.08467,-0.296333 -0.169334,-0.550333 -0.08467,-0.296333 -0.169333,-0.634999 -0.169333,0.127 -0.423333,0.296333 l -1.650999,1.523999 q -0.211666,0.169333 -0.380999,0.338666 -0.169334,0.169333 -0.381,0.338667 -0.465666,0.338666 -0.761999,0.08467 -0.338667,-0.254 -0.338667,-0.634999 0,-0.254 0.04233,-0.381 0.08467,-0.211667 0.127,-0.423333 0.04233,-0.254 0.127,-0.465666 0.635,-1.820332 1.650999,-3.386665 0.211667,-0.296333 0.423333,-0.550332 0.211667,-0.254 0.550333,-0.465667 0.761999,-0.507999 1.523999,-0.211666 0.338666,0.127 0.592666,0.380999 0.338666,0.254 0.169333,0.635 -0.127,0.296333 -0.465666,0.296333 -0.338666,0 -0.804333,-0.04233 -0.423333,-0.04233 -0.634999,0.211666 -0.127,0.127 -0.254,0.254 -0.127,0.127 -0.211667,0.296333 -0.338666,0.508 -0.634999,1.185333 -0.296333,0.634999 -0.592666,1.185332 -0.04233,0.08467 -0.211667,0.465666 -0.169333,0.338667 -0.211666,0.465667 z"
         style="font-family:'Prestige Signature Script  Demo';-inkscape-font-specification:'Prestige Signature Script  Demo';fill:#000000;stroke:none"
         id="path1665" />
      <path
         d="m 103.37787,21.418084 q -0.59267,0.931333 -1.27,1.693332 -0.635,0.762 -1.35467,1.481666 -0.29633,0.296333 -0.67733,0.296333 -0.338664,-0.04233 -0.592664,-0.508 -0.381,-0.550333 -0.296333,-1.312332 0.04233,-0.465667 0.04233,-0.677333 0.04233,-0.254 0.08467,-0.719666 0,-0.254 -0.08467,-0.254 -0.04233,0 -0.08467,0.04233 -0.592666,0.804333 -1.142999,1.608666 -0.550333,0.761999 -1.100666,1.566332 l -1.650998,2.539998 -0.635,1.015999 q -0.04233,0.08467 -0.08467,0.08467 -0.04233,0 -0.08467,0.08467 -0.211667,0.254 -0.465666,0.127 -0.296334,-0.127 -0.423333,-0.423333 -0.127,-0.296333 -0.04233,-0.634999 0.08467,-0.762 0.254,-1.523999 0.127,-0.719666 0.296333,-1.439332 l 1.015999,-4.698997 q 0.08467,-0.380999 0.211667,-0.761999 0.08467,-0.381 0.211666,-0.762 0.254,-0.634999 0.508,-0.592666 0.296333,0 0.423333,0.08467 0.211667,0.211666 0.254,0.719666 0.04233,0.465666 -0.04233,0.719666 -0.127,0.635 -0.254,1.269999 -0.127,0.635 -0.296333,1.269999 -0.211667,0.973666 -0.465667,1.989665 -0.253999,0.973666 -0.507999,1.947332 v 0.169333 q 0.08467,-0.08467 0.254,-0.380999 0.211666,-0.296333 0.296333,-0.381 l 2.539998,-3.809997 q 0.296333,-0.423333 0.592666,-0.804333 0.296333,-0.381 0.592666,-0.761999 0.211667,-0.254 0.465667,-0.465667 0.211664,-0.211666 0.381004,-0.127 0.21166,0.04233 0.29633,0.296334 0.127,0.380999 0.127,0.761999 0,0.508 -0.0423,1.015999 0,0.508 -0.0423,1.015999 v 1.016 q 0,0.169333 0.0847,0.169333 0.127,-0.04233 0.21166,-0.127 l 0.889,-1.015999 1.778,-2.285999 q 0.0847,-0.169333 0.16934,-0.211666 0.254,-0.08467 0.381,-0.08467 0.21166,0 0.21166,0.254 0,0.465666 0.0847,0.888999 0.127,0.381 0.29633,0.804333 0.29634,0.677333 0.80433,0.973666 0.55034,0.296333 1.27,-0.169333 0.254,-0.169333 0.508,-0.296333 0.254,-0.169333 0.46567,-0.381 0.508,-0.465666 0.93133,-0.931333 0.46567,-0.507999 0.80433,-1.100665 0.0847,-0.169334 0.33867,-0.508 0.0847,-0.08467 0.254,-0.08467 0.21167,0 0.29633,0.08467 0.254,0.169333 0.0847,0.508 l -0.127,0.253999 q -1.05833,1.777999 -2.58233,2.878665 -0.33867,0.254 -0.71967,0.465666 -0.381,0.211667 -0.80433,0.296333 -0.42333,0.08467 -0.80433,0 -0.381,-0.127 -0.71967,-0.507999 -0.508,-0.592666 -0.67733,-1.142999 -0.0423,-0.127 -0.127,-0.254 -0.0423,-0.169333 -0.127,-0.254 -0.0847,-0.127 -0.16933,-0.127 -0.0847,-0.04233 -0.21167,0.127 z"
         style="font-family:'Prestige Signature Script  Demo';-inkscape-font-specification:'Prestige Signature Script  Demo';fill:#000000;stroke:none"
         id="path1667" />
      <path
         d="m 110.78617,19.513085 q 0.55034,-0.677332 1.05834,-0.423333 0.508,0.211667 0.508,0.931333 0.0423,0.381 -0.0423,0.761999 -0.0423,0.381 -0.127,0.762 l -0.0847,0.465666 q 0.80433,-0.127 1.48166,-0.507999 0.67733,-0.381 1.18533,-0.762 0.508,-0.423333 0.84667,-0.804333 0.381,-0.380999 0.55033,-0.507999 0.21167,-0.169333 0.46567,-0.04233 0.29633,0.08467 0.127,0.423333 -0.127,0.253999 -0.55033,0.719666 -0.42334,0.465666 -1.10067,0.973666 -0.67733,0.507999 -1.524,0.973666 -0.84666,0.423333 -1.82033,0.592666 -0.21167,0.338666 -0.42333,0.677333 -0.21167,0.338666 -0.42334,0.677332 -0.29633,0.465667 -0.762,0.931333 -0.29633,0.296333 -0.67733,0.423333 -0.889,0.338666 -1.35466,-0.465666 -0.33867,-0.550333 -0.33867,-1.142999 -0.0847,-2.201332 0.93133,-4.063997 0.16933,-0.296333 0.46567,-0.592667 0.67733,-0.507999 1.143,0.296334 0,0.04233 0.0847,0.211666 z m -0.127,3.471331 q -0.0847,-0.08467 -0.0847,-0.08467 -0.67734,-0.338667 -0.67734,-1.269999 v -0.254 q 0,-0.08467 0,-0.127 0.0423,-0.04233 -0.0847,-0.08467 -0.33867,0.719666 -0.508,1.439332 -0.16934,0.719667 -0.29634,1.439333 -0.0423,0.169333 -0.0423,0.338666 0,0.169333 0.127,0.381 0.59267,-0.338667 0.889,-0.804333 0.33867,-0.465666 0.67733,-0.931333 z m 0.84667,-3.174997 q -0.127,0 -0.127,0.04233 -0.46567,0.592666 -0.67733,1.396999 -0.0423,0.127 -0.0423,0.296333 0.0423,0.127 0.0423,0.296333 0,0.211667 0.254,0.254 0.16933,0.04233 0.254,-0.127 0.42333,-0.973666 0.42333,-1.862665 0,-0.08467 -0.0847,-0.254 z"
         style="font-family:'Prestige Signature Script  Demo';-inkscape-font-specification:'Prestige Signature Script  Demo';fill:#000000;stroke:none"
         id="path1669" />
      <path
         d="m 119.16813,28.741745 q -0.0847,0.08467 -0.127,0.127 -0.0423,0.08467 -0.0847,0.169333 l -0.889,1.142999 q -0.97367,1.354666 -1.86267,2.666998 -0.889,1.354666 -1.651,2.836332 -0.254,0.507999 -0.46566,1.015999 -0.254,0.550333 -0.46567,1.058332 -0.0423,0.08467 -0.0423,0.338667 0.84666,-0.465666 1.94733,-1.735666 1.10067,-1.269999 1.94733,-2.793997 0.80433,-1.396999 1.27,-2.751665 0.508,-1.354666 0.42333,-2.031999 z m 0.16934,-12.657657 q -1.27,0.973666 -1.98967,2.455332 -0.42333,0.846666 0.29633,1.566332 l 1.016,1.142999 q 1.35467,1.608665 1.69334,3.809997 l 0.127,0.634999 q 0.16933,0.04233 0.21166,-0.04233 0.0423,-0.127 0.127,-0.211666 1.05833,-1.269999 2.159,-2.455332 1.143,-1.227666 2.32833,-2.412998 0.254,-0.254 0.508,-0.508 0.29633,-0.253999 0.59267,-0.507999 0.29633,-0.254 0.55033,-0.04233 0.254,0.211667 0,0.550333 -0.127,0.169334 -0.29633,0.338667 -0.127,0.127 -0.29634,0.296333 -1.35466,1.354666 -2.70933,2.751664 -1.31233,1.354666 -2.53999,2.836332 -0.0847,0.08467 -0.127,0.127 -0.0423,0.08467 -0.127,0.169333 -0.381,0.381 -0.46567,1.058332 -0.127,1.354666 -0.508,2.582332 -0.33867,1.269999 -0.93133,2.497665 -0.635,1.354665 -1.48167,2.582331 -0.80433,1.227666 -1.905,2.243665 -0.635,0.634999 -1.397,1.142999 -0.29633,0.169333 -0.71966,0.254 -0.762,0.127 -0.762,-0.677333 0,-0.211666 0.0847,-0.465666 0.0847,-0.338667 0.21167,-0.635 0.0847,-0.296333 0.21167,-0.592666 0.29633,-0.719666 0.67733,-1.396999 0.33867,-0.677333 0.762,-1.354666 1.016,-1.735665 2.159,-3.34433 1.143,-1.608666 2.37066,-3.174998 0.42334,-0.550333 0.42334,-1.227666 -0.0847,-1.312332 -0.42334,-2.370665 -0.381,-1.100666 -1.22766,-2.031998 -0.21167,-0.211667 -0.42334,-0.423333 -0.16933,-0.254 -0.381,-0.465667 -0.16933,-0.169333 -0.33866,-0.296333 -0.127,-0.169333 -0.254,-0.380999 -0.508,-0.677333 -0.16933,-1.566332 0.21166,-0.550333 0.508,-0.973666 0.88899,-1.354666 2.20133,-2.285999 0.33866,-0.296333 0.71966,-0.338666 0.635,-0.127 0.71967,0.550333 0,0.254 -0.127,0.507999 -0.21167,0.423333 -0.67733,0.127 -0.0847,-0.04233 -0.127,-0.08467 -0.0423,-0.04233 -0.127,-0.127 z"
         style="font-family:'Prestige Signature Script  Demo';-inkscape-font-specification:'Prestige Signature Script  Demo';fill:#000000;stroke:none"
         id="path1671" />
    </g>
  </g>
</svg>
