<?xml version="1.0" encoding="UTF-8" standalone="no"?>
<!-- Created with Inkscape (http://www.inkscape.org/) -->

<svg
   width="141.47783mm"
   height="53.452477mm"
   viewBox="0 0 141.47782 53.452476"
   version="1.1"
   id="svg5"
   inkscape:version="1.2.2 (732a01da63, 2022-12-09)"
   sodipodi:docname="precio_tarjeta.svg"
   xmlns:inkscape="http://www.inkscape.org/namespaces/inkscape"
   xmlns:sodipodi="http://sodipodi.sourceforge.net/DTD/sodipodi-0.dtd"
   xmlns="http://www.w3.org/2000/svg"
   xmlns:svg="http://www.w3.org/2000/svg">
  <sodipodi:namedview
     id="namedview7"
     pagecolor="#ffffff"
     bordercolor="#000000"
     borderopacity="0.25"
     inkscape:showpageshadow="2"
     inkscape:pageopacity="0.0"
     inkscape:pagecheckerboard="0"
     inkscape:deskcolor="#d1d1d1"
     inkscape:document-units="mm"
     showgrid="false"
     inkscape:zoom="0.48016975"
     inkscape:cx="1024.6376"
     inkscape:cy="478.99727"
     inkscape:window-width="2048"
     inkscape:window-height="1081"
     inkscape:window-x="1358"
     inkscape:window-y="-8"
     inkscape:window-maximized="1"
     inkscape:current-layer="layer1" />
  <defs
     id="defs2" />
  <g
     inkscape:label="Layer 1"
     inkscape:groupmode="layer"
     id="layer1"
     transform="translate(165.38345,-21.243937)">
    <g
       aria-label="precio tarjeta"
       id="text364"
       style="font-size:42.3333px;font-family:'Prestige Signature Script  Demo';-inkscape-font-specification:'Prestige Signature Script  Demo';text-align:center;text-anchor:middle;stroke-width:0.238125;stroke-linecap:round;stroke-linejoin:round;fill:#ffffff">
      <path
         d="m -157.21317,47.72108 q 0.254,-0.169334 0.254,-0.169334 0.67734,-0.634999 1.35467,-1.269999 0.67733,-0.634999 1.35467,-1.269999 0.46566,-0.465666 0.80433,-0.931332 0.381,-0.465667 0.67733,-1.016 0.0847,-0.211666 0.16933,-0.423333 0.0847,-0.253999 0.16934,-0.465666 0.0423,-0.127 0.0423,-0.254 0,-0.169333 -0.16933,-0.296333 -0.0847,0.04233 -0.21167,0.04233 -0.127,0 -0.21167,0.08467 -0.16933,0.08467 -0.33866,0.211667 -0.127,0.08467 -0.254,0.211666 -0.59267,0.592666 -1.10067,1.227666 -0.762,0.973666 -1.35466,1.989665 -0.59267,1.015999 -1.18534,2.116665 v 0.254 z m -4.69899,5.587995 q -0.16934,0.04233 -0.29634,0.04233 -0.127,0.04233 -0.254,0.04233 -0.33866,0 -0.46566,-0.254 -0.127,-0.254 0,-0.507999 0.0847,-0.127 0.33866,-0.381 0.21167,-0.211667 0.46567,-0.423333 0.21167,-0.211667 0.42333,-0.423333 0.42334,-0.381 0.55034,-0.931333 0.33866,-1.269999 0.71966,-2.539998 0.33867,-1.269999 0.71967,-2.497665 0.46567,-1.481665 0.97367,-2.963331 0.508,-1.523999 0.97366,-3.005664 0.0847,-0.169333 0.127,-0.296333 0.0847,-0.169334 0.16933,-0.338667 0.127,-0.211666 0.33867,-0.338666 0.21167,-0.08467 0.42333,0.04233 0.21167,0.08467 0.254,0.296333 0.0423,0.338667 0,0.635 -0.127,0.507999 -0.254,1.015999 -0.127,0.508 -0.29633,1.015999 -0.59267,1.862666 -1.18533,3.682997 -0.59267,1.820332 -1.10067,3.725331 -0.0423,0.127 -0.127,0.465666 0.46567,-0.169333 0.67734,-0.507999 0.0847,-0.08467 0.127,-0.211667 0,-0.08467 0.0847,-0.169333 1.016,-2.158998 2.286,-4.190997 0.71967,-1.185332 1.73567,-2.412998 0.254,-0.296333 0.508,-0.550333 0.25399,-0.254 0.59266,-0.465666 0.508,-0.338667 1.016,-0.296333 0.55033,0.08467 0.84667,0.465666 0.33866,0.381 0.254,0.973666 -0.0847,0.677333 -0.29634,1.185332 -0.42333,0.846666 -1.10066,1.650999 -0.55034,0.719666 -1.18533,1.312332 -0.59267,0.592667 -1.22767,1.185333 l -3.048,2.666998 q -0.508,0.465666 -0.762,1.058332 -1.35466,3.174998 -2.49766,6.392329 -1.143,3.217331 -1.98967,6.561662 -0.21166,0.761999 -0.381,1.523999 -0.21166,0.761999 -0.42333,1.523998 -0.0847,0.211667 -0.0847,0.381 0,0.169333 -0.0423,0.381 -0.0847,0.338666 -0.16933,0.465666 -0.21167,0.254 -0.508,0.211667 -0.381,-0.08467 -0.381,-0.381 0,-0.211667 0,-0.381 0,-0.169333 0.0423,-0.381 0.127,-0.592666 0.29633,-1.185332 0.127,-0.592666 0.254,-1.185332 0.508,-2.624665 1.18534,-5.164663 0.67733,-2.539998 1.35466,-5.079996 0.0847,-0.296333 0.16933,-0.592667 0.0423,-0.253999 0.127,-0.550333 0.0423,-0.08467 0.0423,-0.211666 0,-0.127 0.0423,-0.254 z"
         id="path417"
         style="fill:#ffffff" />
      <path
         d="m -145.82548,41.244084 q 0.80433,-1.777998 1.18533,-2.920997 0.42334,-1.143 0.55034,-1.777999 0.16933,-0.635 0.127,-0.888999 0,-0.296333 0,-0.381 -0.0847,0.169333 -0.0847,0.169333 -0.254,0.592666 -0.55033,1.354666 -0.254,0.761999 -0.508,1.566332 -0.254,0.804333 -0.46567,1.566332 -0.16933,0.762 -0.254,1.312332 z m 4.572,-0.507999 q -0.762,0.465666 -1.73567,1.100666 -0.93133,0.592666 -1.69333,0.931332 -0.508,0.254 -1.05833,0.254 -1.22767,-0.04233 -1.143,-1.354666 0.21167,-1.693332 0.635,-3.174997 0.46566,-1.481666 1.143,-2.963331 0.0847,-0.211667 0.16933,-0.423333 0.127,-0.254 0.254,-0.465667 0.127,-0.253999 0.33867,-0.465666 0.21166,-0.211666 0.508,-0.211666 0.33866,0 0.508,0.296333 0.21166,0.338666 0.21166,0.973666 0,0.634999 -0.127,1.142999 -0.55033,2.497665 -1.778,4.868329 l -0.127,0.254 q 0.0847,0.127 0.21167,0.127 0.16933,-0.04233 0.254,-0.127 0.80433,-0.338666 1.651,-0.931332 0.889,-0.635 1.69333,-1.100666 0.33867,-0.169333 0.55033,-0.211667 0.254,-0.08467 0.42334,0.08467 0.21166,0.169333 0.16933,0.423333 0,0.211666 -0.0847,0.634999 -0.29633,1.016 -0.59266,2.031999 -0.254,1.015999 -0.508,2.031998 -0.33867,1.354666 -0.67733,2.709332 -0.33867,1.312332 -0.55034,2.666998 -0.0847,0.550333 -0.16933,1.058332 -0.0847,0.550333 -0.0423,1.100666 0,0.169333 0,0.338666 0,0.169334 0.16933,0.338667 0.0847,-0.04233 0.127,-0.04233 0.0847,0 0.16933,-0.08467 0.254,-0.211667 0.508,-0.465666 0.29633,-0.211667 0.508,-0.508 1.778,-2.158998 3.21733,-4.571997 1.43933,-2.412998 2.794,-4.783663 0.16933,-0.253999 0.254,-0.338666 0.21167,-0.211667 0.42333,-0.08467 0.254,0.127 0.21167,0.381 -0.0847,0.254 -0.254,0.550333 -0.84667,1.481666 -1.60867,2.793998 -0.71966,1.312332 -1.52399,2.539998 -0.762,1.227666 -1.60867,2.370665 -0.84667,1.142999 -1.82033,2.285998 -0.254,0.254 -0.508,0.465666 -0.254,0.211667 -0.508,0.296334 -0.254,0.08467 -0.55033,0 -0.254,-0.08467 -0.508,-0.423333 -0.33867,-0.465667 -0.33867,-1.058333 0,-0.338666 0,-0.719666 0,-0.338667 0.0847,-0.677333 0.33866,-2.412998 0.84666,-4.74133 0.55034,-2.370665 1.397,-4.656663 0.0847,-0.254 0.0847,-0.338666 0.0423,-0.08467 0,-0.127 z"
         id="path419"
         style="fill:#ffffff" />
      <path
         d="m -130.83949,36.037088 q -0.46567,0.423333 -0.97367,1.269999 -0.508,0.804333 -1.27,2.412999 -0.0847,0.211666 -0.21167,0.465666 -0.0847,0.211666 -0.127,0.550333 0.84667,-0.931333 1.48167,-1.904999 0.67733,-0.973666 1.10067,-2.074332 0.16933,-0.338666 0.0847,-0.634999 z m -5.67267,10.371659 q 0.0423,-0.804332 0.29634,-1.820332 0.21166,-1.058332 0.59266,-2.158998 0.381,-1.142999 0.889,-2.201332 0.55034,-1.100666 1.143,-2.074332 0.33867,-0.507999 0.67733,-0.973666 0.33867,-0.507999 0.67734,-0.973665 0.127,-0.211667 0.254,-0.338667 0.16933,-0.169333 0.33866,-0.338666 0.21167,-0.211667 0.46567,-0.338667 0.762,-0.338666 1.05833,0.508 0.127,0.465666 0,0.888999 -0.0847,0.211667 -0.16933,0.465667 -0.0423,0.211666 -0.127,0.423333 -0.97367,2.285998 -2.667,4.063997 -0.21167,0.211666 -0.46567,0.423333 -0.254,0.169333 -0.50799,0.380999 -0.29634,0.211667 -0.33867,0.465667 -0.254,0.846666 -0.46567,1.735665 -0.21166,0.846666 -0.29633,1.735665 0,0.254 0,0.508 0.0423,0.254 0.0423,0.508 v 0.253999 q 0.254,0.762 0.97367,0.508 0.46566,-0.127 0.84666,-0.381 0.381,-0.254 0.762,-0.507999 0.381,-0.254 0.71967,-0.550333 0.71967,-0.550333 1.35467,-1.142999 0.635,-0.635 1.26999,-1.269999 0.46567,-0.508 0.93134,-1.016 0.508,-0.507999 0.97366,-0.973666 0.127,-0.127 0.46567,-0.380999 0.29633,-0.127 0.508,0.08467 0.29633,0.211667 0.0847,0.550333 -0.16934,0.254 -0.29634,0.381 -0.55033,0.592666 -1.10066,1.142999 -0.508,0.508 -1.05834,1.100666 -0.93133,0.973666 -1.90499,1.862665 -0.97367,0.888999 -2.07434,1.608666 -0.254,0.169333 -0.508,0.296333 -0.254,0.169333 -0.55033,0.296333 -0.97366,0.465666 -1.651,0 -0.71966,-0.423333 -0.97366,-1.227666 l -0.127,-0.634999 q -0.0423,-0.211667 -0.0423,-0.423333 0,-0.254 0,-0.465667 z"
         id="path421"
         style="fill:#ffffff" />
      <path
         d="m -127.57981,49.287412 q 0.508,-0.127 0.93133,-0.550333 0.508,-0.465667 1.016,-0.889 0.508,-0.465666 1.016,-0.931332 1.397,-1.227666 2.62467,-2.497665 1.27,-1.269999 2.62466,-2.370665 0.127,-0.08467 0.46567,-0.169333 0.21166,-0.04233 0.381,0.254 0.127,0.211666 0,0.380999 -0.127,0.211667 -0.33867,0.338667 -1.35466,1.100666 -2.49766,2.201332 -1.10067,1.100665 -2.286,2.201331 -0.46567,0.465667 -0.93133,0.889 -0.46567,0.423333 -0.93134,0.888999 -0.21166,0.211666 -0.46566,0.381 -0.21167,0.169333 -0.42334,0.338666 -0.33866,0.296333 -0.84666,0.508 -1.016,0.423333 -1.56633,-0.550333 -0.254,-0.423333 -0.254,-1.015999 -0.0423,-0.677333 0.0423,-1.312333 0.0847,-0.634999 0.254,-1.269999 0.21167,-0.931333 0.508,-1.777999 0.29633,-0.888999 0.762,-1.735665 0.46566,-0.846666 1.18533,-1.396999 0.71967,-0.507999 1.397,-0.550333 0.97367,-0.08467 1.524,0.508 0.55033,0.592666 0.46566,1.312332 0,0.254 -0.0423,0.338667 -0.16933,0.296333 -0.42333,0.296333 -0.254,0 -0.381,-0.211667 -0.0847,-0.08467 -0.127,-0.169333 0,-0.127 -0.0847,-0.211667 -0.254,-0.507999 -0.80433,-0.380999 -0.254,0.04233 -0.46567,0.211666 -0.508,0.296333 -0.762,0.846666 -0.67733,1.269999 -1.10066,2.624665 -0.46567,1.312332 -0.635,2.751665 -0.0847,0.465666 0.16933,0.761999 z"
         id="path423"
         style="fill:#ffffff" />
      <path
         d="m -117.37747,37.645754 q -0.55033,0 -0.46567,-0.550333 0,-0.211667 0.127,-0.338667 0.21167,-0.211666 0.381,-0.380999 0.21167,-0.211667 0.42334,-0.381 0.29633,-0.211666 0.55033,0 0.29633,0.169333 0.29633,0.550333 -0.0423,0.08467 -0.0847,0.211666 0,0.08467 -0.0847,0.169334 -0.381,0.423333 -0.97367,0.634999 -0.0423,0.04233 -0.21166,0.04233 z m 7.15433,4.402663 q 0.42333,-0.423333 0.67733,-0.127 0.254,0.254 0,0.635 -0.16933,0.254 -0.29633,0.338666 -1.48167,1.439332 -3.00567,2.878665 -1.48166,1.396999 -3.00566,2.793998 -0.59267,0.550333 -1.18533,1.015999 -0.59267,0.507999 -1.18534,0.973666 -0.33866,0.296333 -0.93133,0.507999 -0.93133,0.338667 -1.22766,-0.592666 -0.127,-0.381 -0.127,-0.761999 0,-0.423333 0,-0.846666 -0.0423,-0.381 0,-0.804333 0.21166,-1.862665 0.55033,-3.640664 0.33866,-1.820332 0.93133,-3.598331 l 0.381,-1.015999 q 0.127,-0.254 0.33867,-0.465666 0.254,-0.254 0.635,-0.127 0.127,0.04233 0.127,0.211666 0.0423,0.169334 0,0.423333 0,0.211667 -0.0847,0.423334 -0.0423,0.169333 -0.0847,0.296333 -0.67733,2.158998 -1.05833,4.402663 -0.381,2.201332 -0.67733,4.48733 0,0.338666 0.42333,0.169333 0.42333,-0.127 0.59267,-0.254 0.46566,-0.338666 0.889,-0.677332 0.42333,-0.296334 0.84666,-0.635 0.84667,-0.761999 1.651,-1.523999 0.84667,-0.761999 1.69333,-1.523999 0.80434,-0.719666 1.56634,-1.481665 0.76199,-0.762 1.56633,-1.481666 z"
         id="path425"
         style="fill:#ffffff" />
      <path
         d="m -108.82617,42.048417 q 0.55033,-0.677333 1.05833,-0.423333 0.508,0.211667 0.508,0.931333 0.0423,0.381 -0.0423,0.761999 -0.0423,0.381 -0.127,0.762 l -0.0847,0.465666 q 0.80433,-0.127 1.48167,-0.508 0.67733,-0.380999 1.18533,-0.761999 0.508,-0.423333 0.84666,-0.804333 0.381,-0.381 0.55034,-0.507999 0.21166,-0.169334 0.46566,-0.04233 0.29634,0.08467 0.127,0.423333 -0.127,0.254 -0.55033,0.719666 -0.42333,0.465667 -1.10067,0.973666 -0.67733,0.508 -1.52399,0.973666 -0.84667,0.423333 -1.82034,0.592667 -0.21166,0.338666 -0.42333,0.677332 -0.21167,0.338667 -0.42333,0.677333 -0.29634,0.465666 -0.762,0.931333 -0.29634,0.296333 -0.67734,0.423333 -0.88899,0.338666 -1.35466,-0.465667 -0.33867,-0.550332 -0.33867,-1.142999 -0.0847,-2.201331 0.93134,-4.063997 0.16933,-0.296333 0.46566,-0.592666 0.67733,-0.507999 1.143,0.296333 0,0.04233 0.0847,0.211667 z m -0.127,3.471331 q -0.0847,-0.08467 -0.0847,-0.08467 -0.67733,-0.338666 -0.67733,-1.269999 v -0.254 q 0,-0.08467 0,-0.126999 0.0423,-0.04233 -0.0847,-0.08467 -0.33867,0.719666 -0.508,1.439332 -0.16933,0.719666 -0.29633,1.439332 -0.0423,0.169334 -0.0423,0.338667 0,0.169333 0.127,0.381 0.59266,-0.338667 0.88899,-0.804333 0.33867,-0.465666 0.67734,-0.931333 z m 0.84666,-3.174998 q -0.127,0 -0.127,0.04233 -0.46566,0.592666 -0.67733,1.396999 -0.0423,0.126999 -0.0423,0.296333 0.0423,0.127 0.0423,0.296333 0,0.211666 0.254,0.254 0.16933,0.04233 0.254,-0.127 0.42333,-0.973666 0.42333,-1.862666 0,-0.08467 -0.0847,-0.253999 z"
         id="path427"
         style="fill:#ffffff" />
      <path
         d="m -95.067898,42.34475 q 0.04233,-0.127 0,-0.04233 -0.04233,0.08467 -0.127,0.254 -0.04233,0.127 -0.127,0.296333 -0.04233,0.127 -0.08467,0.169333 -0.254,0.254 -0.550333,0.127 -0.296333,-0.127 -0.211666,-0.508 0,-0.08467 0.08467,-0.253999 0.677333,-1.862666 1.269999,-4.021664 0.592667,-2.201332 1.185333,-4.10633 l 1.142999,-3.682998 q 0.04233,-0.08467 0.04233,-0.169333 0,-0.127 0.04233,-0.254 -0.465667,-0.04233 -0.889,0.04233 -0.381,0.08467 -0.804333,0.169333 -1.566332,0.254 -3.090331,0.550333 -1.566332,0.254 -3.13267,0.465666 -1.05833,0.169333 -2.07433,0.296333 -1.05833,0.08467 -2.11666,0 -0.127,0 -0.254,0.04233 -0.127,0.04233 -0.254,0.04233 -0.33867,0.04233 -0.46567,-0.169333 -0.16933,-0.211667 -0.0423,-0.508 0.127,-0.254 0.33866,-0.465666 0.381,-0.381 0.67734,0.04233 0.16933,0.254 0.50799,0.254 h 0.635 q 1.98967,-0.08467 3.894672,-0.381 1.820332,-0.296333 3.598331,-0.550333 1.777998,-0.296333 3.555997,-0.592666 0.04233,0 0.211667,-0.08467 0.04233,-0.08467 0.08467,-0.169333 0.04233,-0.08467 0.08467,-0.169333 0.423333,-1.481666 0.804333,-2.963331 0.380999,-1.523999 0.761999,-3.005665 0.08467,-0.253999 0.08467,-0.507999 0.04233,-0.254 0.127,-0.508 0.08467,-0.338666 0.169333,-0.507999 0.127,-0.296333 0.465666,-0.211667 0.296333,0.08467 0.296333,0.338667 0,0.211666 0,0.465666 0,0.211666 -0.04233,0.423333 l -0.381,1.904998 q -0.254,1.100666 -0.507999,2.243665 -0.254,1.100666 -0.465667,2.201332 v 0.296333 h 0.338667 l 4.317996,-0.634999 3.301998,-0.508 q 0.888999,-0.127 1.777999,-0.254 0.888999,-0.127 1.777998,-0.211666 0.762,-0.08467 1.523999,-0.169333 0.762,-0.08467 1.523999,-0.169334 l 3.936997,-0.380999 q 0.635,-0.08467 1.269999,-0.08467 0.635,-0.04233 1.269999,-0.08467 1.058333,-0.08467 2.074332,-0.08467 1.058332,-0.04233 2.116665,-0.08467 0.211666,0 0.381,0 0.169333,0 0.380999,0.04233 0.423333,0.08467 0.423333,0.423333 0,0.423333 -0.465666,0.507999 h -0.508 q -1.481665,0.04233 -2.920997,0.04233 -1.439333,0 -2.920998,0.08467 -1.396999,0.08467 -2.793998,0.211667 -1.396999,0.08467 -2.793998,0.211666 -1.015999,0.08467 -2.031998,0.211667 -1.016,0.126999 -2.031999,0.253999 -1.142999,0.127 -2.285998,0.296333 -1.142999,0.127 -2.285998,0.296334 l -4.952997,0.761999 q -0.169333,0.04233 -0.338666,0.08467 -0.127,0 -0.338667,0.04233 -0.127,0.592666 -0.253999,1.142999 -0.127,0.508 -0.254,1.058333 L -93.0359,38.61942 q -0.973666,3.640664 -1.947332,7.450661 -0.973666,3.767664 -1.947332,7.408328 l -2.031998,8.000994 q -0.296333,1.227665 -0.508,2.455331 -0.211666,1.227666 -0.296333,2.455332 -0.04233,0.338666 0,0.677332 0,0.381 0,0.719667 0,0.465666 0.381,0.846666 0.381,0.380999 0.127,0.677332 -0.254,0.338667 -0.719666,0 -0.550329,-0.423333 -0.677329,-1.354665 -0.0847,-0.719666 -0.0423,-1.481666 0.0423,-0.719666 0.127,-1.439332 0.21167,-1.566332 0.55034,-3.090331 0.296328,-1.481666 0.677328,-2.963331 0.508,-1.904999 0.973666,-3.767664 0.465666,-1.820332 0.931333,-3.725331 0.592666,-2.201331 1.185332,-4.571996 0.592666,-2.370665 1.185333,-4.571997 z"
         id="path429"
         style="fill:#ffffff" />
      <path
         d="m -92.697212,47.001413 q 0.211667,-0.211666 0.550333,-0.507999 0.338667,-0.296333 0.677333,-0.592666 0.338666,-0.296333 0.635,-0.550333 0.338666,-0.296333 0.550333,-0.465667 0.253999,-0.253999 0.423333,-0.338666 0.211666,-0.169333 0.423333,-0.08467 0.253999,0.08467 0.338666,0.338667 0.08467,0.211666 0.04233,0.254 0,0.04233 0.08467,0.253999 0.127,0.381 0.211666,0.762 0.127,0.381 0.296333,0.761999 0.08467,0.211667 0.211667,0.423333 0.169333,0.169333 0.338666,0.381 0.169334,0.211666 0.465667,0.296333 0.296333,0.04233 0.507999,-0.127 0.296333,-0.169333 0.592667,-0.465666 0.465666,-0.465666 0.888999,-0.973666 0.423333,-0.550333 0.804333,-1.142999 0.465666,-0.677333 0.761999,-1.185333 0.296333,-0.507999 0.719666,-1.185332 0.169333,-0.338667 0.296333,-0.465666 0.254,-0.296334 0.592667,-0.08467 0.211666,0.169333 0.08467,0.508 l -0.127,0.253999 q -0.719666,1.143 -1.354665,2.116665 -0.635,0.973666 -1.481666,2.031999 -0.254,0.296333 -0.508,0.592666 -0.253999,0.254 -0.550333,0.508 -0.507999,0.507999 -1.142999,0.550333 -0.761999,0.04233 -1.354665,-0.550333 -0.635,-0.635 -0.889,-1.523999 -0.08467,-0.296333 -0.169333,-0.550333 -0.08467,-0.296333 -0.169333,-0.634999 -0.169333,0.126999 -0.423333,0.296333 l -1.650999,1.523998 q -0.211666,0.169334 -0.381,0.338667 -0.169333,0.169333 -0.380999,0.338666 -0.465667,0.338667 -0.762,0.08467 -0.338666,-0.254 -0.338666,-0.635 0,-0.253999 0.04233,-0.380999 0.08467,-0.211667 0.127,-0.423333 0.04233,-0.254 0.127,-0.465667 0.635,-1.820332 1.650999,-3.386664 0.211666,-0.296333 0.423333,-0.550333 0.211666,-0.254 0.550333,-0.465666 0.761999,-0.508 1.523999,-0.211667 0.338666,0.127 0.592666,0.381 0.338666,0.254 0.169333,0.635 -0.127,0.296333 -0.465666,0.296333 -0.338667,0 -0.804333,-0.04233 -0.423333,-0.04233 -0.635,0.211666 -0.126999,0.127 -0.253999,0.254 -0.127,0.127 -0.211667,0.296333 -0.338666,0.508 -0.634999,1.185332 -0.296334,0.635 -0.592667,1.185333 -0.04233,0.08467 -0.211666,0.465666 -0.169333,0.338667 -0.211667,0.465666 z"
         id="path431"
         style="fill:#ffffff" />
      <path
         d="m -82.071586,41.244084 q 0.804333,-1.777998 1.185333,-2.920997 0.423333,-1.143 0.550333,-1.777999 0.169333,-0.635 0.127,-0.888999 0,-0.296333 0,-0.381 -0.08467,0.169333 -0.08467,0.169333 -0.254,0.592666 -0.550333,1.354666 -0.254,0.761999 -0.508,1.566332 -0.253999,0.804333 -0.465666,1.566332 -0.169333,0.762 -0.254,1.312332 z m 4.571997,-0.507999 q -0.762,0.465666 -1.735665,1.100666 -0.931333,0.592666 -1.693333,0.931332 -0.507999,0.254 -1.058332,0.254 -1.227666,-0.04233 -1.142999,-1.354666 0.211666,-1.693332 0.634999,-3.174997 0.465667,-1.481666 1.142999,-2.963331 0.08467,-0.211667 0.169334,-0.423333 0.127,-0.254 0.253999,-0.465667 0.127,-0.253999 0.338667,-0.465666 0.211666,-0.211666 0.508,-0.211666 0.338666,0 0.507999,0.296333 0.211667,0.338666 0.211667,0.973666 0,0.634999 -0.127,1.142999 -0.550333,2.497665 -1.777999,4.868329 l -0.127,0.254 q 0.08467,0.127 0.211667,0.127 0.169333,-0.04233 0.253999,-0.127 0.804333,-0.338666 1.650999,-0.931332 0.889,-0.635 1.693332,-1.100666 0.338667,-0.169333 0.550333,-0.211667 0.254,-0.08467 0.423333,0.08467 0.211667,0.169333 0.169333,0.423333 0,0.211666 -0.08467,0.634999 -0.296333,1.016 -0.592666,2.031999 -0.254,1.015999 -0.508,2.031998 -0.338666,1.354666 -0.677333,2.709332 -0.338666,1.312332 -0.550333,2.666998 -0.08467,0.550333 -0.169333,1.058332 -0.08467,0.550333 -0.04233,1.100666 0,0.169333 0,0.338666 0,0.169334 0.169333,0.338667 0.08467,-0.04233 0.127,-0.04233 0.08467,0 0.169333,-0.08467 0.254,-0.211667 0.508,-0.465666 0.296333,-0.211667 0.507999,-0.508 1.777999,-2.158998 3.217331,-4.571997 1.439332,-2.412998 2.793998,-4.783663 0.169333,-0.253999 0.254,-0.338666 0.211666,-0.211667 0.423333,-0.08467 0.254,0.127 0.211666,0.381 -0.08467,0.254 -0.253999,0.550333 -0.846666,1.481666 -1.608666,2.793998 -0.719666,1.312332 -1.523999,2.539998 -0.761999,1.227666 -1.608665,2.370665 -0.846666,1.142999 -1.820332,2.285998 -0.254,0.254 -0.508,0.465666 -0.254,0.211667 -0.507999,0.296334 -0.254,0.08467 -0.550333,0 -0.254,-0.08467 -0.508,-0.423333 -0.338666,-0.465667 -0.338666,-1.058333 0,-0.338666 0,-0.719666 0,-0.338667 0.08467,-0.677333 0.338667,-2.412998 0.846666,-4.74133 0.550333,-2.370665 1.396999,-4.656663 0.08467,-0.254 0.08467,-0.338666 0.04233,-0.08467 0,-0.127 z"
         id="path433"
         style="fill:#ffffff" />
      <path
         d="m -70.302932,38.74642 q -0.338666,0 -0.508,-0.254 -0.296333,-0.254 -0.08467,-0.592666 0.465666,-0.804333 1.185332,-1.227666 0.338667,-0.211667 0.677333,0 0.338666,0.169333 0.296333,0.634999 -0.04233,0.08467 -0.08467,0.211667 0,0.08467 -0.08467,0.169333 -0.381,0.465666 -0.846666,0.846666 -0.254,0.254 -0.550333,0.211667 z m 7.196661,3.34433 q 0.127,0.296334 -0.04233,0.465667 -0.254,0.254 -0.423333,0.338666 -1.820332,1.185333 -3.344331,2.370665 -1.523999,1.142999 -3.132664,2.243665 l -1.862665,1.439332 q -0.381,0.254 -0.508,0.762 -0.592666,2.031998 -1.142999,4.063997 -0.592666,2.031998 -1.185333,4.063997 -0.719666,2.370665 -1.439332,4.656663 -0.719666,2.328331 -1.650999,4.61433 -0.465666,1.100666 -0.931332,2.201331 -0.508,1.100666 -1.142999,2.116665 -0.211667,0.338667 -0.423333,0.677333 -0.254,0.338667 -0.508,0.677333 -1.227666,1.396999 -2.836331,1.777999 -2.624665,0.592666 -4.23333,-1.396999 -1.312333,-1.566332 -1.185333,-3.640664 0.127,-1.566332 0.719666,-3.217331 0.592666,-1.650999 1.481666,-3.174998 0.846666,-1.481665 1.862665,-2.878664 0.846666,-1.142999 1.820332,-2.243665 0.931333,-1.058333 1.904999,-2.116665 1.608665,-1.693332 3.47133,-3.301998 1.820332,-1.608665 3.640664,-3.047997 0.423333,-0.338667 0.550333,-0.465667 0.08467,-0.127 0.211667,-0.592666 l 1.904998,-6.646328 q 0.211667,-0.592667 0.423333,-0.762 0.211667,-0.211666 0.381,-0.127 0.169333,0.04233 0.254,0.296333 0.08467,0.211667 0.04233,0.465667 -0.08467,0.380999 -0.169333,0.761999 -0.04233,0.381 -0.127,0.762 l -1.015999,3.809997 q -0.04233,0.08467 -0.04233,0.169333 0,0.08467 -0.04233,0.211666 l 0.465666,-0.296333 q 2.074332,-1.439332 3.344331,-2.370665 1.312333,-0.931332 2.074332,-1.481665 0.761999,-0.592666 1.142999,-0.888999 0.381,-0.296334 0.719666,-0.508 0.211667,-0.127 0.465667,-0.127 0.296333,-0.04233 0.423333,0.254 z m -14.901322,21.716984 q 1.100666,-3.174997 2.074332,-6.434662 0.931333,-3.259664 1.693332,-6.519328 -0.211667,0.127 -0.254,0.169333 -0.08467,0.08467 -0.169333,0.169333 -1.777999,1.439333 -3.555997,3.005665 -1.820332,1.608665 -3.344331,3.259664 -1.058333,1.142999 -2.031999,2.328332 -1.015999,1.185332 -1.862665,2.497664 -0.719666,1.100666 -1.269999,2.201332 -0.592666,1.100666 -1.058333,2.328332 -0.465666,1.354665 -0.550332,2.836331 -0.08467,1.608665 0.846666,2.751664 0.634999,0.846666 1.650998,1.100666 1.016,0.296333 2.158999,-0.04233 0.804332,-0.211667 1.396999,-0.719666 0.550333,-0.465667 0.973666,-1.142999 0.465666,-0.719666 0.888999,-1.608666 0.719666,-1.481665 1.312332,-3.047998 0.550333,-1.523998 1.100666,-3.132664 z"
         id="path435"
         style="fill:#ffffff" />
      <path
         d="m -59.550292,36.037088 q -0.465667,0.423333 -0.973666,1.269999 -0.508,0.804333 -1.269999,2.412999 -0.08467,0.211666 -0.211667,0.465666 -0.08467,0.211666 -0.127,0.550333 0.846666,-0.931333 1.481666,-1.904999 0.677333,-0.973666 1.100666,-2.074332 0.169333,-0.338666 0.08467,-0.634999 z m -5.672663,10.371659 q 0.04233,-0.804332 0.296333,-1.820332 0.211667,-1.058332 0.592667,-2.158998 0.380999,-1.142999 0.888999,-2.201332 0.550333,-1.100666 1.142999,-2.074332 0.338667,-0.507999 0.677333,-0.973666 0.338666,-0.507999 0.677333,-0.973665 0.127,-0.211667 0.254,-0.338667 0.169333,-0.169333 0.338666,-0.338666 0.211667,-0.211667 0.465666,-0.338667 0.762,-0.338666 1.058333,0.508 0.127,0.465666 0,0.888999 -0.08467,0.211667 -0.169333,0.465667 -0.04233,0.211666 -0.127,0.423333 -0.973666,2.285998 -2.666998,4.063997 -0.211667,0.211666 -0.465667,0.423333 -0.253999,0.169333 -0.507999,0.380999 -0.296333,0.211667 -0.338667,0.465667 -0.253999,0.846666 -0.465666,1.735665 -0.211666,0.846666 -0.296333,1.735665 0,0.254 0,0.508 0.04233,0.254 0.04233,0.508 v 0.253999 q 0.254,0.762 0.973666,0.508 0.465667,-0.127 0.846666,-0.381 0.381,-0.254 0.762,-0.507999 0.380999,-0.254 0.719666,-0.550333 0.719666,-0.550333 1.354665,-1.142999 0.635,-0.635 1.27,-1.269999 0.465666,-0.508 0.931332,-1.016 0.508,-0.507999 0.973666,-0.973666 0.127,-0.127 0.465666,-0.380999 0.296334,-0.127 0.508,0.08467 0.296333,0.211667 0.08467,0.550333 -0.169334,0.254 -0.296333,0.381 -0.550333,0.592666 -1.100666,1.142999 -0.508,0.508 -1.058333,1.100666 -0.931332,0.973666 -1.904998,1.862665 -0.973666,0.888999 -2.074332,1.608666 -0.254,0.169333 -0.508,0.296333 -0.254,0.169333 -0.550333,0.296333 -0.973666,0.465666 -1.650999,0 -0.719666,-0.423333 -0.973665,-1.227666 l -0.127,-0.634999 q -0.04233,-0.211667 -0.04233,-0.423333 0,-0.254 0,-0.465667 z"
         id="path437"
         style="fill:#ffffff" />
      <path
         d="m -54.766606,42.34475 q 0.04233,-0.127 0,-0.04233 -0.04233,0.08467 -0.127,0.254 -0.04233,0.127 -0.127,0.296333 -0.04233,0.127 -0.08467,0.169333 -0.254,0.254 -0.550333,0.127 -0.296333,-0.127 -0.211667,-0.508 0,-0.08467 0.08467,-0.253999 0.677333,-1.862666 1.269999,-4.021664 0.592666,-2.201332 1.185332,-4.10633 l 1.142999,-3.682998 q 0.04233,-0.08467 0.04233,-0.169333 0,-0.127 0.04233,-0.254 -0.465666,-0.04233 -0.888999,0.04233 -0.381,0.08467 -0.804333,0.169333 -1.566332,0.254 -3.090331,0.550333 -1.566332,0.254 -3.132664,0.465666 -1.058333,0.169333 -2.074332,0.296333 -1.058333,0.08467 -2.116665,0 -0.127,0 -0.254,0.04233 -0.127,0.04233 -0.254,0.04233 -0.338666,0.04233 -0.465666,-0.169333 -0.169333,-0.211667 -0.04233,-0.508 0.127,-0.254 0.338667,-0.465666 0.381,-0.381 0.677333,0.04233 0.169333,0.254 0.507999,0.254 h 0.635 q 1.989665,-0.08467 3.894664,-0.381 1.820332,-0.296333 3.59833,-0.550333 1.777999,-0.296333 3.555998,-0.592666 0.04233,0 0.211666,-0.08467 0.04233,-0.08467 0.08467,-0.169333 0.04233,-0.08467 0.08467,-0.169333 0.423333,-1.481666 0.804333,-2.963331 0.381,-1.523999 0.761999,-3.005665 0.08467,-0.253999 0.08467,-0.507999 0.04233,-0.254 0.127,-0.508 0.08467,-0.338666 0.169333,-0.507999 0.127,-0.296333 0.465666,-0.211667 0.296334,0.08467 0.296334,0.338667 0,0.211666 0,0.465666 0,0.211666 -0.04233,0.423333 l -0.380999,1.904998 q -0.254,1.100666 -0.508,2.243665 -0.254,1.100666 -0.465666,2.201332 v 0.296333 h 0.338666 l 4.317997,-0.634999 3.301997,-0.508 q 0.889,-0.127 1.777999,-0.254 0.888999,-0.127 1.777999,-0.211666 0.761999,-0.08467 1.523999,-0.169333 0.761999,-0.08467 1.523998,-0.169334 l 3.936997,-0.380999 q 0.635,-0.08467 1.269999,-0.08467 0.635,-0.04233 1.269999,-0.08467 1.058333,-0.08467 2.074332,-0.08467 1.058333,-0.04233 2.116665,-0.08467 0.211667,0 0.381,0 0.169333,0 0.381,0.04233 0.423333,0.08467 0.423333,0.423333 0,0.423333 -0.465667,0.507999 h -0.507999 q -1.481666,0.04233 -2.920998,0.04233 -1.439332,0 -2.920998,0.08467 -1.396999,0.08467 -2.793998,0.211667 -1.396999,0.08467 -2.793998,0.211666 -1.015999,0.08467 -2.031998,0.211667 -1.015999,0.126999 -2.031999,0.253999 -1.142999,0.127 -2.285998,0.296333 -1.142999,0.127 -2.285998,0.296334 l -4.952996,0.761999 q -0.169334,0.04233 -0.338667,0.08467 -0.127,0 -0.338666,0.04233 -0.127,0.592666 -0.254,1.142999 -0.127,0.508 -0.254,1.058333 l -1.650999,6.476995 q -0.973665,3.640664 -1.947331,7.450661 -0.973666,3.767664 -1.947332,7.408328 l -2.031999,8.000994 q -0.296333,1.227665 -0.507999,2.455331 -0.211667,1.227666 -0.296334,2.455332 -0.04233,0.338666 0,0.677332 0,0.381 0,0.719667 0,0.465666 0.381,0.846666 0.381,0.380999 0.127,0.677332 -0.254,0.338667 -0.719666,0 -0.550333,-0.423333 -0.677333,-1.354665 -0.08467,-0.719666 -0.04233,-1.481666 0.04233,-0.719666 0.127,-1.439332 0.211666,-1.566332 0.550333,-3.090331 0.296333,-1.481666 0.677333,-2.963331 0.507999,-1.904999 0.973665,-3.767664 0.465667,-1.820332 0.931333,-3.725331 0.592666,-2.201331 1.185333,-4.571996 0.592666,-2.370665 1.185332,-4.571997 z"
         id="path439"
         style="fill:#ffffff" />
      <path
         d="m -52.395919,47.001413 q 0.211666,-0.211666 0.550333,-0.507999 0.338666,-0.296333 0.677333,-0.592666 0.338666,-0.296333 0.634999,-0.550333 0.338666,-0.296333 0.550333,-0.465667 0.254,-0.253999 0.423333,-0.338666 0.211666,-0.169333 0.423333,-0.08467 0.254,0.08467 0.338666,0.338667 0.08467,0.211666 0.04233,0.254 0,0.04233 0.08467,0.253999 0.127,0.381 0.211667,0.762 0.127,0.381 0.296333,0.761999 0.08467,0.211667 0.211666,0.423333 0.169334,0.169333 0.338667,0.381 0.169333,0.211666 0.465666,0.296333 0.296333,0.04233 0.508,-0.127 0.296333,-0.169333 0.592666,-0.465666 0.465666,-0.465666 0.888999,-0.973666 0.423333,-0.550333 0.804333,-1.142999 0.465666,-0.677333 0.761999,-1.185333 0.296334,-0.507999 0.719667,-1.185332 0.169333,-0.338667 0.296333,-0.465666 0.254,-0.296334 0.592666,-0.08467 0.211666,0.169333 0.08467,0.508 l -0.127,0.253999 q -0.719666,1.143 -1.354666,2.116665 -0.635,0.973666 -1.481666,2.031999 -0.253999,0.296333 -0.507999,0.592666 -0.254,0.254 -0.550333,0.508 -0.508,0.507999 -1.142999,0.550333 -0.762,0.04233 -1.354666,-0.550333 -0.634999,-0.635 -0.888999,-1.523999 -0.08467,-0.296333 -0.169333,-0.550333 -0.08467,-0.296333 -0.169334,-0.634999 -0.169333,0.126999 -0.423333,0.296333 l -1.650998,1.523998 q -0.211667,0.169334 -0.381,0.338667 -0.169333,0.169333 -0.381,0.338666 -0.465666,0.338667 -0.761999,0.08467 -0.338667,-0.254 -0.338667,-0.635 0,-0.253999 0.04233,-0.380999 0.08467,-0.211667 0.127,-0.423333 0.04233,-0.254 0.126999,-0.465667 0.635,-1.820332 1.650999,-3.386664 0.211667,-0.296333 0.423333,-0.550333 0.211667,-0.254 0.550333,-0.465666 0.762,-0.508 1.523999,-0.211667 0.338666,0.127 0.592666,0.381 0.338667,0.254 0.169333,0.635 -0.126999,0.296333 -0.465666,0.296333 -0.338666,0 -0.804333,-0.04233 -0.423333,-0.04233 -0.634999,0.211666 -0.127,0.127 -0.254,0.254 -0.127,0.127 -0.211666,0.296333 -0.338667,0.508 -0.635,1.185332 -0.296333,0.635 -0.592666,1.185333 -0.04233,0.08467 -0.211667,0.465666 -0.169333,0.338667 -0.211665,0.465666 z"
         id="path441"
         style="fill:#ffffff" />
    </g>
  </g>
</svg>
