<?xml version="1.0" encoding="UTF-8" standalone="no"?>
<!-- Created with Inkscape (http://www.inkscape.org/) -->

<svg
   width="119.94234mm"
   height="48.236446mm"
   viewBox="0 0 119.94234 48.236446"
   version="1.1"
   id="svg5"
   inkscape:version="1.2.2 (732a01da63, 2022-12-09)"
   sodipodi:docname="te_esperamos.svg"
   xmlns:inkscape="http://www.inkscape.org/namespaces/inkscape"
   xmlns:sodipodi="http://sodipodi.sourceforge.net/DTD/sodipodi-0.dtd"
   xmlns="http://www.w3.org/2000/svg"
   xmlns:svg="http://www.w3.org/2000/svg">
  <sodipodi:namedview
     id="namedview7"
     pagecolor="#ffffff"
     bordercolor="#000000"
     borderopacity="0.25"
     inkscape:showpageshadow="2"
     inkscape:pageopacity="0.0"
     inkscape:pagecheckerboard="0"
     inkscape:deskcolor="#d1d1d1"
     inkscape:document-units="mm"
     showgrid="false"
     inkscape:zoom="0.48016975"
     inkscape:cx="-193.68151"
     inkscape:cy="393.6108"
     inkscape:window-width="1278"
     inkscape:window-height="1341"
     inkscape:window-x="-8"
     inkscape:window-y="0"
     inkscape:window-maximized="0"
     inkscape:current-layer="layer1" />
  <defs
     id="defs2" />
  <g
     inkscape:label="Layer 1"
     inkscape:groupmode="layer"
     id="layer1"
     transform="translate(128.09624,1.3478875)">
    <g
       aria-label="te esperamos"
       id="text310"
       style="font-size:42.3333px;font-family:'Prestige Signature Script  Demo';-inkscape-font-specification:'Prestige Signature Script  Demo';text-align:center;text-anchor:middle;fill:#ffffff;stroke-width:0.238125;stroke-linecap:round;stroke-linejoin:round">
      <path
         d="m -117.58549,19.752911 q 0.0423,-0.126999 0,-0.04233 -0.0423,0.08467 -0.12699,0.254 -0.0423,0.127 -0.127,0.296333 -0.0423,0.127 -0.0847,0.169333 -0.254,0.254 -0.55033,0.127 -0.29634,-0.127 -0.21167,-0.507999 0,-0.08467 0.0847,-0.254 0.67733,-1.862666 1.26999,-4.021664 0.59267,-2.201332 1.18534,-4.10633 l 1.143,-3.6829974 q 0.0423,-0.084667 0.0423,-0.1693332 0,-0.1269999 0.0423,-0.2539998 -0.46566,-0.042333 -0.889,0.042333 -0.381,0.084667 -0.80433,0.1693332 -1.56633,0.2539998 -3.09033,0.5503329 -1.56633,0.2539998 -3.13266,0.4656663 -1.05834,0.1693333 -2.07434,0.2963332 -1.05833,0.084667 -2.11666,0 -0.127,0 -0.254,0.042333 -0.127,0.042333 -0.254,0.042333 -0.33867,0.042333 -0.46567,-0.1693332 -0.16933,-0.2116666 -0.0423,-0.5079997 0.127,-0.2539998 0.33867,-0.4656663 0.381,-0.3809997 0.67733,0.042333 0.16933,0.2539998 0.508,0.2539998 h 0.635 q 1.98966,-0.084667 3.89466,-0.3809997 1.82033,-0.2963331 3.59833,-0.5503329 1.778,-0.2963331 3.556,-0.5926662 0.0423,0 0.21167,-0.084667 0.0423,-0.084667 0.0847,-0.1693332 0.0423,-0.084667 0.0847,-0.1693332 0.42333,-1.4816656 0.80433,-2.9633312 0.381,-1.5239988 0.762,-3.00566436 0.0847,-0.25399981 0.0847,-0.50799962 0.0423,-0.25399981 0.127,-0.50799962 0.0847,-0.33866641 0.16933,-0.5079996 0.127,-0.2963331 0.46567,-0.2116665 0.29633,0.084667 0.29633,0.33866639 0,0.21166651 0,0.46566632 0,0.2116665 -0.0423,0.42333301 l -0.381,1.90499858 q -0.254,1.1006658 -0.508,2.243665 -0.254,1.1006658 -0.46567,2.2013317 v 0.2963331 h 0.33867 l 4.31799,-0.6349996 3.302,-0.5079996 q 0.889,-0.1269999 1.778,-0.2539998 0.889,-0.1269999 1.778,-0.2116665 0.762,-0.084667 1.524,-0.1693332 0.761998,-0.084667 1.523997,-0.1693332 l 3.936997,-0.3809997 q 0.635,-0.084667 1.269999,-0.084667 0.635,-0.042333 1.269999,-0.084667 1.058333,-0.084667 2.074332,-0.084667 1.058333,-0.042333 2.116665,-0.084667 0.211667,0 0.381,0 0.169333,0 0.381,0.042333 0.423333,0.084667 0.423333,0.423333 0,0.423333 -0.465667,0.5079996 h -0.507999 q -1.481666,0.042333 -2.920998,0.042333 -1.439332,0 -2.920998,0.084667 -1.396999,0.084667 -2.793998,0.2116665 -1.396999,0.084667 -2.793998,0.2116665 -1.015994,0.084667 -2.031994,0.2116665 -1.016,0.1269999 -2.032,0.2539998 -1.143,0.1269999 -2.286,0.2963331 -1.143,0.127 -2.286,0.2963332 l -4.953,0.7619994 q -0.16933,0.042333 -0.33866,0.084667 -0.127,0 -0.33867,0.042333 -0.127,0.5926662 -0.254,1.1429991 -0.127,0.5079997 -0.254,1.0583326 l -1.651,6.4769952 q -0.97366,3.640664 -1.94733,7.450661 -0.97366,3.767664 -1.94733,7.408328 l -2.032,8.000994 q -0.29633,1.227665 -0.508,2.455331 -0.21166,1.227666 -0.29633,2.455332 -0.0423,0.338666 0,0.677333 0,0.380999 0,0.719666 0,0.465666 0.381,0.846666 0.381,0.380999 0.127,0.677333 -0.254,0.338666 -0.71967,0 -0.55033,-0.423333 -0.67733,-1.354666 -0.0847,-0.719666 -0.0423,-1.481666 0.0423,-0.719666 0.127,-1.439332 0.21166,-1.566332 0.55033,-3.090331 0.29633,-1.481665 0.67733,-2.963331 0.508,-1.904999 0.97367,-3.767664 0.46566,-1.820332 0.93133,-3.72533 0.59267,-2.201332 1.18533,-4.571997 0.59267,-2.370665 1.18533,-4.571997 z"
         style="fill:#000000"
         id="path474" />
      <path
         d="m -109.07647,13.44525 q -0.46566,0.423333 -0.97366,1.269999 -0.508,0.804332 -1.27,2.412998 -0.0847,0.211666 -0.21167,0.465666 -0.0847,0.211667 -0.127,0.550333 0.84667,-0.931333 1.48167,-1.904999 0.67733,-0.973666 1.10066,-2.074331 0.16934,-0.338667 0.0847,-0.635 z m -5.67266,10.371658 q 0.0423,-0.804332 0.29633,-1.820332 0.21167,-1.058332 0.59267,-2.158998 0.381,-1.142999 0.889,-2.201332 0.55033,-1.100665 1.143,-2.074331 0.33867,-0.508 0.67733,-0.973666 0.33867,-0.508 0.67733,-0.973666 0.127,-0.211667 0.254,-0.338667 0.16934,-0.169333 0.33867,-0.338666 0.21167,-0.211667 0.46567,-0.338667 0.762,-0.338666 1.05833,0.508 0.127,0.465666 0,0.888999 -0.0847,0.211667 -0.16933,0.465667 -0.0423,0.211666 -0.127,0.423333 -0.97367,2.285998 -2.667,4.063997 -0.21167,0.211666 -0.46567,0.423333 -0.254,0.169333 -0.508,0.380999 -0.29633,0.211667 -0.33866,0.465667 -0.254,0.846666 -0.46567,1.735665 -0.21167,0.846666 -0.29633,1.735665 0,0.254 0,0.508 0.0423,0.254 0.0423,0.508 v 0.254 q 0.254,0.761999 0.97367,0.507999 0.46566,-0.127 0.84666,-0.381 0.381,-0.253999 0.762,-0.507999 0.381,-0.254 0.71967,-0.550333 0.71966,-0.550333 1.35466,-1.142999 0.635,-0.635 1.27,-1.269999 0.46567,-0.508 0.93133,-1.016 0.508,-0.507999 0.97367,-0.973665 0.127,-0.127 0.46567,-0.381 0.29633,-0.127 0.508,0.08467 0.29633,0.211667 0.0847,0.550333 -0.16933,0.254 -0.29633,0.381 -0.55033,0.592666 -1.10067,1.142999 -0.508,0.508 -1.05833,1.100666 -0.93133,0.973666 -1.905,1.862665 -0.97366,0.889 -2.07433,1.608666 -0.254,0.169333 -0.508,0.296333 -0.254,0.169333 -0.55033,0.296333 -0.97367,0.465666 -1.651,0 -0.71967,-0.423333 -0.97367,-1.227666 l -0.127,-0.634999 q -0.0423,-0.211667 -0.0423,-0.423333 0,-0.254 0,-0.465667 z"
         style="fill:#000000"
         id="path476" />
      <path
         d="m -93.201479,13.44525 q -0.465666,0.423333 -0.973666,1.269999 -0.508,0.804332 -1.269999,2.412998 -0.08467,0.211666 -0.211667,0.465666 -0.08467,0.211667 -0.126999,0.550333 0.846666,-0.931333 1.481665,-1.904999 0.677333,-0.973666 1.100666,-2.074331 0.169333,-0.338667 0.08467,-0.635 z m -5.672662,10.371658 q 0.04233,-0.804332 0.296333,-1.820332 0.211666,-1.058332 0.592666,-2.158998 0.381,-1.142999 0.888999,-2.201332 0.550333,-1.100665 1.142999,-2.074331 0.338667,-0.508 0.677333,-0.973666 0.338667,-0.508 0.677333,-0.973666 0.127,-0.211667 0.254,-0.338667 0.169333,-0.169333 0.338666,-0.338666 0.211667,-0.211667 0.465667,-0.338667 0.761999,-0.338666 1.058332,0.508 0.127,0.465666 0,0.888999 -0.08467,0.211667 -0.169333,0.465667 -0.04233,0.211666 -0.127,0.423333 -0.973666,2.285998 -2.666998,4.063997 -0.211667,0.211666 -0.465666,0.423333 -0.254,0.169333 -0.508,0.380999 -0.296333,0.211667 -0.338666,0.465667 -0.254,0.846666 -0.465667,1.735665 -0.211666,0.846666 -0.296333,1.735665 0,0.254 0,0.508 0.04233,0.254 0.04233,0.508 v 0.254 q 0.254,0.761999 0.973666,0.507999 0.465667,-0.127 0.846666,-0.381 0.381,-0.253999 0.762,-0.507999 0.381,-0.254 0.719666,-0.550333 0.719666,-0.550333 1.354666,-1.142999 0.634999,-0.635 1.269999,-1.269999 0.465666,-0.508 0.931332,-1.016 0.508,-0.507999 0.973666,-0.973665 0.127,-0.127 0.465667,-0.381 0.296333,-0.127 0.507999,0.08467 0.296333,0.211667 0.08467,0.550333 -0.169333,0.254 -0.296333,0.381 -0.550333,0.592666 -1.100666,1.142999 -0.508,0.508 -1.058333,1.100666 -0.931332,0.973666 -1.904998,1.862665 -0.973666,0.889 -2.074332,1.608666 -0.254,0.169333 -0.508,0.296333 -0.253999,0.169333 -0.550333,0.296333 -0.973665,0.465666 -1.650998,0 -0.719666,-0.423333 -0.973666,-1.227666 l -0.127,-0.634999 q -0.04233,-0.211667 -0.04233,-0.423333 0,-0.254 0,-0.465667 z"
         style="fill:#000000"
         id="path478" />
      <path
         d="m -86.258796,28.685238 q -0.08467,0.08467 -0.127,0.127 -0.04233,0.08467 -0.08467,0.169333 l -0.888999,1.142999 q -0.973666,1.354666 -1.862665,2.666998 -0.889,1.354666 -1.650999,2.836332 -0.254,0.507999 -0.465667,1.015999 -0.253999,0.550333 -0.465666,1.058332 -0.04233,0.08467 -0.04233,0.338667 0.846666,-0.465667 1.947332,-1.735666 1.100666,-1.269999 1.947332,-2.793998 0.804332,-1.396999 1.269999,-2.751664 0.507999,-1.354666 0.423333,-2.031999 z m 0.169333,-12.657657 q -1.269999,0.973666 -1.989665,2.455331 -0.423333,0.846666 0.296333,1.566333 l 1.015999,1.142999 q 1.354666,1.608665 1.693332,3.809997 l 0.127,0.634999 q 0.169333,0.04233 0.211666,-0.04233 0.04233,-0.127 0.127,-0.211666 1.058333,-1.269999 2.158999,-2.455332 1.142999,-1.227666 2.328331,-2.412998 0.254,-0.254 0.508,-0.508 0.296333,-0.254 0.592666,-0.507999 0.296333,-0.254 0.550333,-0.04233 0.254,0.211667 0,0.550333 -0.127,0.169333 -0.296333,0.338667 -0.127,0.127 -0.296333,0.296333 -1.354666,1.354665 -2.709331,2.751664 -1.312333,1.354666 -2.539999,2.836332 -0.08467,0.08467 -0.126999,0.126999 -0.04233,0.08467 -0.127,0.169334 -0.381,0.380999 -0.465667,1.058332 -0.127,1.354666 -0.507999,2.582332 -0.338667,1.269999 -0.931333,2.497664 -0.634999,1.354666 -1.481665,2.582332 -0.804333,1.227666 -1.904999,2.243665 -0.635,0.634999 -1.396999,1.142999 -0.296333,0.169333 -0.719666,0.254 -0.762,0.127 -0.762,-0.677333 0,-0.211667 0.08467,-0.465666 0.08467,-0.338667 0.211667,-0.635 0.08467,-0.296333 0.211666,-0.592666 0.296333,-0.719666 0.677333,-1.396999 0.338666,-0.677333 0.761999,-1.354666 1.016,-1.735665 2.158999,-3.344331 1.142999,-1.608665 2.370665,-3.174997 0.423333,-0.550333 0.423333,-1.227666 -0.08467,-1.312332 -0.423333,-2.370665 -0.381,-1.100666 -1.227666,-2.031998 -0.211667,-0.211667 -0.423333,-0.423333 -0.169333,-0.254 -0.381,-0.465667 -0.169333,-0.169333 -0.338666,-0.296333 -0.127,-0.169333 -0.254,-0.380999 -0.508,-0.677333 -0.169333,-1.566333 0.211666,-0.550333 0.507999,-0.973666 0.889,-1.354665 2.201332,-2.285998 0.338666,-0.296333 0.719666,-0.338666 0.635,-0.127 0.719666,0.550333 0,0.253999 -0.127,0.507999 -0.211666,0.423333 -0.677332,0.127 -0.08467,-0.04233 -0.127,-0.08467 -0.04233,-0.04233 -0.127,-0.127 z"
         style="fill:#000000"
         id="path480" />
      <path
         d="m -77.792123,25.129241 q 0.254,-0.169333 0.254,-0.169333 0.677332,-0.635 1.354665,-1.27 0.677333,-0.634999 1.354666,-1.269999 0.465666,-0.465666 0.804333,-0.931332 0.380999,-0.465667 0.677332,-1.015999 0.08467,-0.211667 0.169334,-0.423333 0.08467,-0.254 0.169333,-0.465667 0.04233,-0.127 0.04233,-0.254 0,-0.169333 -0.169333,-0.296333 -0.08467,0.04233 -0.211667,0.04233 -0.126999,0 -0.211666,0.08467 -0.169333,0.08467 -0.338666,0.211667 -0.127,0.08467 -0.254,0.211666 -0.592666,0.592666 -1.100666,1.227666 -0.762,0.973666 -1.354666,1.989665 -0.592666,1.015999 -1.185332,2.116665 v 0.254 z m -4.698997,5.587996 q -0.169333,0.04233 -0.296333,0.04233 -0.127,0.04233 -0.254,0.04233 -0.338666,0 -0.465666,-0.254 -0.127,-0.253999 0,-0.507999 0.08467,-0.127 0.338667,-0.381 0.211666,-0.211667 0.465666,-0.423333 0.211666,-0.211667 0.423333,-0.423333 0.423333,-0.381 0.550333,-0.931333 0.338666,-1.269999 0.719666,-2.539998 0.338666,-1.269999 0.719666,-2.497665 0.465666,-1.481665 0.973666,-2.963331 0.508,-1.523999 0.973666,-3.005664 0.08467,-0.169333 0.127,-0.296333 0.08467,-0.169333 0.169333,-0.338667 0.127,-0.211666 0.338666,-0.338666 0.211667,-0.08467 0.423333,0.04233 0.211667,0.08467 0.254,0.296333 0.04233,0.338667 0,0.635 -0.127,0.508 -0.254,1.015999 -0.126999,0.508 -0.296333,1.015999 -0.592666,1.862666 -1.185332,3.682998 -0.592666,1.820332 -1.100666,3.72533 -0.04233,0.127 -0.127,0.465667 0.465666,-0.169334 0.677333,-0.508 0.08467,-0.08467 0.127,-0.211667 0,-0.08467 0.08467,-0.169333 1.016,-2.158998 2.285999,-4.190997 0.719666,-1.185332 1.735665,-2.412998 0.254,-0.296333 0.508,-0.550333 0.254,-0.254 0.592666,-0.465666 0.508,-0.338667 1.015999,-0.296333 0.550333,0.08467 0.846666,0.465666 0.338667,0.381 0.254,0.973666 -0.08467,0.677333 -0.296333,1.185332 -0.423333,0.846667 -1.100666,1.650999 -0.550333,0.719666 -1.185332,1.312333 -0.592667,0.592666 -1.227666,1.185332 l -3.047998,2.666998 q -0.507999,0.465666 -0.761999,1.058333 -1.354666,3.174997 -2.497665,6.392328 -1.142999,3.217331 -1.989665,6.561662 -0.211667,0.761999 -0.381,1.523999 -0.211666,0.761999 -0.423333,1.523999 -0.08467,0.211666 -0.08467,0.380999 0,0.169333 -0.04233,0.381 -0.08467,0.338666 -0.169333,0.465666 -0.211667,0.254 -0.508,0.211667 -0.380999,-0.08467 -0.380999,-0.381 0,-0.211666 0,-0.381 0,-0.169333 0.04233,-0.380999 0.127,-0.592667 0.296333,-1.185333 0.127,-0.592666 0.254,-1.185332 0.507999,-2.624665 1.185332,-5.164663 0.677333,-2.539998 1.354666,-5.079996 0.08467,-0.296333 0.169333,-0.592666 0.04233,-0.254 0.127,-0.550333 0.04233,-0.08467 0.04233,-0.211667 0,-0.127 0.04233,-0.254 z"
         style="fill:#000000"
         id="path482" />
      <path
         d="m -62.89077,13.44525 q -0.465666,0.423333 -0.973666,1.269999 -0.508,0.804332 -1.269999,2.412998 -0.08467,0.211666 -0.211667,0.465666 -0.08467,0.211667 -0.126999,0.550333 0.846666,-0.931333 1.481665,-1.904999 0.677333,-0.973666 1.100666,-2.074331 0.169333,-0.338667 0.08467,-0.635 z m -5.672662,10.371658 q 0.04233,-0.804332 0.296333,-1.820332 0.211666,-1.058332 0.592666,-2.158998 0.381,-1.142999 0.888999,-2.201332 0.550333,-1.100665 1.142999,-2.074331 0.338667,-0.508 0.677333,-0.973666 0.338667,-0.508 0.677333,-0.973666 0.127,-0.211667 0.254,-0.338667 0.169333,-0.169333 0.338666,-0.338666 0.211667,-0.211667 0.465667,-0.338667 0.761999,-0.338666 1.058332,0.508 0.127,0.465666 0,0.888999 -0.08467,0.211667 -0.169333,0.465667 -0.04233,0.211666 -0.127,0.423333 -0.973666,2.285998 -2.666998,4.063997 -0.211667,0.211666 -0.465666,0.423333 -0.254,0.169333 -0.508,0.380999 -0.296333,0.211667 -0.338666,0.465667 -0.254,0.846666 -0.465667,1.735665 -0.211666,0.846666 -0.296333,1.735665 0,0.254 0,0.508 0.04233,0.254 0.04233,0.508 v 0.254 q 0.254,0.761999 0.973666,0.507999 0.465667,-0.127 0.846666,-0.381 0.381,-0.253999 0.762,-0.507999 0.381,-0.254 0.719666,-0.550333 0.719666,-0.550333 1.354666,-1.142999 0.634999,-0.635 1.269999,-1.269999 0.465666,-0.508 0.931332,-1.016 0.508,-0.507999 0.973666,-0.973665 0.127,-0.127 0.465667,-0.381 0.296333,-0.127 0.507999,0.08467 0.296333,0.211667 0.08467,0.550333 -0.169333,0.254 -0.296333,0.381 -0.550333,0.592666 -1.100666,1.142999 -0.508,0.508 -1.058333,1.100666 -0.931332,0.973666 -1.904998,1.862665 -0.973666,0.889 -2.074332,1.608666 -0.254,0.169333 -0.508,0.296333 -0.253999,0.169333 -0.550333,0.296333 -0.973665,0.465666 -1.650998,0 -0.719666,-0.423333 -0.973666,-1.227666 l -0.127,-0.634999 q -0.04233,-0.211667 -0.04233,-0.423333 0,-0.254 0,-0.465667 z"
         style="fill:#000000"
         id="path484" />
      <path
         d="m -58.488098,18.652246 q 0.804333,-1.777999 1.185332,-2.920998 0.423333,-1.142999 0.550333,-1.777999 0.169334,-0.634999 0.127,-0.888999 0,-0.296333 0,-0.381 -0.08467,0.169333 -0.08467,0.169333 -0.254,0.592667 -0.550333,1.354666 -0.254,0.761999 -0.508,1.566332 -0.254,0.804333 -0.465666,1.566332 -0.169333,0.762 -0.254,1.312333 z m 4.571997,-0.508 q -0.762,0.465666 -1.735666,1.100666 -0.931332,0.592666 -1.693332,0.931332 -0.507999,0.254 -1.058332,0.254 -1.227666,-0.04233 -1.143,-1.354665 0.211667,-1.693332 0.635,-3.174998 0.465666,-1.481666 1.142999,-2.963331 0.08467,-0.211667 0.169333,-0.423333 0.127,-0.254 0.254,-0.465666 0.127,-0.254 0.338667,-0.465667 0.211666,-0.211666 0.507999,-0.211666 0.338667,0 0.508,0.296333 0.211666,0.338666 0.211666,0.973666 0,0.634999 -0.127,1.142999 -0.550333,2.497665 -1.777998,4.86833 l -0.127,0.253999 q 0.08467,0.127 0.211666,0.127 0.169334,-0.04233 0.254,-0.127 0.804333,-0.338666 1.650999,-0.931332 0.888999,-0.635 1.693332,-1.100666 0.338666,-0.169333 0.550333,-0.211667 0.254,-0.08467 0.423333,0.08467 0.211666,0.169333 0.169333,0.423333 0,0.211667 -0.08467,0.635 -0.296333,1.015999 -0.592666,2.031998 -0.254,1.015999 -0.507999,2.031999 -0.338667,1.354665 -0.677333,2.709331 -0.338667,1.312332 -0.550333,2.666998 -0.08467,0.550333 -0.169333,1.058332 -0.08467,0.550333 -0.04233,1.100666 0,0.169333 0,0.338667 0,0.169333 0.169334,0.338666 0.08467,-0.04233 0.127,-0.04233 0.08467,0 0.169333,-0.08467 0.254,-0.211666 0.507999,-0.465666 0.296333,-0.211667 0.508,-0.508 1.777999,-2.158998 3.217331,-4.571996 1.439332,-2.412999 2.793998,-4.783663 0.169333,-0.254 0.254,-0.338667 0.211666,-0.211666 0.423333,-0.08467 0.253999,0.126999 0.211666,0.380999 -0.08467,0.254 -0.254,0.550333 -0.846666,1.481666 -1.608665,2.793998 -0.719666,1.312332 -1.523999,2.539998 -0.761999,1.227666 -1.608665,2.370665 -0.846667,1.142999 -1.820332,2.285998 -0.254,0.254 -0.508,0.465667 -0.254,0.211666 -0.508,0.296333 -0.253999,0.08467 -0.550333,0 -0.253999,-0.08467 -0.507999,-0.423333 -0.338667,-0.465667 -0.338667,-1.058333 0,-0.338666 0,-0.719666 0,-0.338666 0.08467,-0.677333 0.338666,-2.412998 0.846666,-4.74133 0.550333,-2.370664 1.396999,-4.656663 0.08467,-0.254 0.08467,-0.338666 0.04233,-0.08467 0,-0.127 z"
         style="fill:#000000"
         id="path486" />
      <path
         d="m -49.640442,24.409575 q 0.211666,-0.211667 0.550333,-0.508 0.338666,-0.296333 0.677333,-0.592666 0.338666,-0.296333 0.634999,-0.550333 0.338667,-0.296333 0.550333,-0.465666 0.254,-0.254 0.423333,-0.338667 0.211667,-0.169333 0.423333,-0.08467 0.254,0.08467 0.338666,0.338666 0.08467,0.211666 0.04233,0.254 0,0.04233 0.08467,0.254 0.127,0.380999 0.211667,0.761999 0.127,0.381 0.296333,0.761999 0.08467,0.211667 0.211667,0.423333 0.169333,0.169334 0.338666,0.381 0.169333,0.211667 0.465666,0.296333 0.296333,0.04233 0.508,-0.127 0.296333,-0.169333 0.592666,-0.465666 0.465666,-0.465666 0.888999,-0.973666 0.423333,-0.550333 0.804333,-1.142999 0.465666,-0.677333 0.762,-1.185332 0.296333,-0.508 0.719666,-1.185333 0.169333,-0.338666 0.296333,-0.465666 0.254,-0.296333 0.592666,-0.08467 0.211667,0.169333 0.08467,0.508 l -0.127,0.254 q -0.719666,1.142999 -1.354666,2.116665 -0.634999,0.973666 -1.481665,2.031998 -0.254,0.296333 -0.508,0.592666 -0.254,0.254 -0.550333,0.508 -0.508,0.508 -1.142999,0.550333 -0.762,0.04233 -1.354666,-0.550333 -0.634999,-0.635 -0.888999,-1.523999 -0.08467,-0.296333 -0.169333,-0.550333 -0.08467,-0.296333 -0.169334,-0.634999 -0.169333,0.127 -0.423333,0.296333 l -1.650998,1.523999 q -0.211667,0.169333 -0.381,0.338666 -0.169333,0.169333 -0.381,0.338666 -0.465666,0.338667 -0.761999,0.08467 -0.338667,-0.254 -0.338667,-0.634999 0,-0.254 0.04233,-0.381 0.08467,-0.211667 0.127,-0.423333 0.04233,-0.254 0.127,-0.465667 0.634999,-1.820331 1.650998,-3.386664 0.211667,-0.296333 0.423333,-0.550333 0.211667,-0.253999 0.550333,-0.465666 0.762,-0.507999 1.523999,-0.211666 0.338666,0.127 0.592666,0.380999 0.338667,0.254 0.169333,0.635 -0.126999,0.296333 -0.465666,0.296333 -0.338666,0 -0.804333,-0.04233 -0.423333,-0.04233 -0.634999,0.211666 -0.127,0.127 -0.254,0.254 -0.127,0.127 -0.211666,0.296333 -0.338667,0.508 -0.635,1.185333 -0.296333,0.634999 -0.592666,1.185332 -0.04233,0.08467 -0.211667,0.465666 -0.169333,0.338667 -0.211666,0.465667 z"
         style="fill:#000000"
         id="path488" />
      <path
         d="m -31.860488,21.361577 q -0.592666,0.931333 -1.269999,1.693332 -0.635,0.761999 -1.354666,1.481666 -0.296333,0.296333 -0.677333,0.296333 -0.338666,-0.04233 -0.592666,-0.508 -0.381,-0.550333 -0.296333,-1.312332 0.04233,-0.465667 0.04233,-0.677333 0.04233,-0.254 0.08467,-0.719666 0,-0.254 -0.08467,-0.254 -0.04233,0 -0.08467,0.04233 -0.592667,0.804333 -1.142999,1.608666 -0.550333,0.761999 -1.100666,1.566332 l -1.650999,2.539998 -0.635,1.015999 q -0.04233,0.08467 -0.08467,0.08467 -0.04233,0 -0.08467,0.08467 -0.211666,0.254 -0.465666,0.127 -0.296333,-0.127 -0.423333,-0.423333 -0.127,-0.296333 -0.04233,-0.634999 0.08467,-0.762 0.253999,-1.523999 0.127,-0.719666 0.296333,-1.439332 l 1.016,-4.698997 q 0.08467,-0.381 0.211666,-0.761999 0.08467,-0.381 0.211667,-0.762 0.254,-0.634999 0.507999,-0.592666 0.296333,0 0.423333,0.08467 0.211667,0.211666 0.254,0.719666 0.04233,0.465666 -0.04233,0.719666 -0.127,0.634999 -0.254,1.269999 -0.127,0.634999 -0.296333,1.269999 -0.211667,0.973666 -0.465666,1.989665 -0.254,0.973666 -0.508,1.947332 v 0.169333 q 0.08467,-0.08467 0.254,-0.380999 0.211666,-0.296334 0.296333,-0.381 l 2.539998,-3.809997 q 0.296333,-0.423333 0.592666,-0.804333 0.296333,-0.381 0.592666,-0.761999 0.211667,-0.254 0.465667,-0.465667 0.211666,-0.211666 0.380999,-0.127 0.211667,0.04233 0.296334,0.296333 0.127,0.381 0.127,0.762 0,0.507999 -0.04233,1.015999 0,0.508 -0.04233,1.015999 v 1.016 q 0,0.169333 0.08467,0.169333 0.126999,-0.04233 0.211666,-0.127 l 0.888999,-1.015999 1.777999,-2.285999 q 0.08467,-0.169333 0.169333,-0.211666 0.254,-0.08467 0.381,-0.08467 0.211666,0 0.211666,0.254 0,0.465666 0.08467,0.888999 0.127,0.381 0.296333,0.804333 0.296333,0.677333 0.804333,0.973666 0.550333,0.296333 1.269999,-0.169333 0.254,-0.169333 0.508,-0.296333 0.253999,-0.169333 0.465666,-0.381 0.507999,-0.465666 0.931332,-0.931333 0.465667,-0.507999 0.804333,-1.100665 0.08467,-0.169334 0.338667,-0.508 0.08467,-0.08467 0.253999,-0.08467 0.211667,0 0.296334,0.08467 0.253999,0.169333 0.08467,0.508 l -0.127,0.253999 q -1.058332,1.777999 -2.582331,2.878665 -0.338667,0.254 -0.719666,0.465666 -0.381,0.211667 -0.804333,0.296333 -0.423333,0.08467 -0.804333,0 -0.380999,-0.127 -0.719666,-0.507999 -0.507999,-0.592667 -0.677333,-1.142999 -0.04233,-0.127 -0.127,-0.254 -0.04233,-0.169333 -0.126999,-0.254 -0.08467,-0.127 -0.169334,-0.127 -0.08467,-0.04233 -0.211666,0.127 z"
         style="fill:#000000"
         id="path490" />
      <path
         d="m -24.452184,19.456578 q 0.550332,-0.677332 1.058332,-0.423333 0.508,0.211667 0.508,0.931333 0.04233,0.381 -0.04233,0.761999 -0.04233,0.381 -0.127,0.762 l -0.08467,0.465666 q 0.804333,-0.127 1.481665,-0.507999 0.677333,-0.381 1.185333,-0.762 0.508,-0.423333 0.846666,-0.804333 0.381,-0.380999 0.550333,-0.507999 0.211666,-0.169333 0.465666,-0.04233 0.296333,0.08467 0.127,0.423333 -0.127,0.254 -0.550333,0.719667 -0.423333,0.465666 -1.100666,0.973666 -0.677333,0.507999 -1.523999,0.973665 -0.846666,0.423333 -1.820332,0.592667 -0.211666,0.338666 -0.423333,0.677332 -0.211666,0.338667 -0.423333,0.677333 -0.296333,0.465667 -0.761999,0.931333 -0.296333,0.296333 -0.677333,0.423333 -0.888999,0.338666 -1.354665,-0.465666 -0.338667,-0.550333 -0.338667,-1.142999 -0.08467,-2.201332 0.931333,-4.063997 0.169333,-0.296334 0.465666,-0.592667 0.677333,-0.507999 1.142999,0.296333 0,0.04233 0.08467,0.211667 z m -0.127,3.471331 q -0.08467,-0.08467 -0.08467,-0.08467 -0.677333,-0.338666 -0.677333,-1.269999 v -0.253999 q 0,-0.08467 0,-0.127 0.04233,-0.04233 -0.08467,-0.08467 -0.338667,0.719666 -0.508,1.439332 -0.169333,0.719666 -0.296333,1.439333 -0.04233,0.169333 -0.04233,0.338666 0,0.169333 0.126999,0.381 0.592667,-0.338667 0.889,-0.804333 0.338666,-0.465666 0.677333,-0.931333 z m 0.846666,-3.174998 q -0.127,0 -0.127,0.04233 -0.465667,0.592666 -0.677333,1.396999 -0.04233,0.127 -0.04233,0.296333 0.04233,0.127 0.04233,0.296333 0,0.211666 0.254,0.254 0.169333,0.04233 0.254,-0.127 0.423333,-0.973666 0.423333,-1.862665 0,-0.08467 -0.08467,-0.254 z"
         style="fill:#000000"
         id="path492" />
      <path
         d="m -16.070224,28.685238 q -0.08467,0.08467 -0.127,0.127 -0.04233,0.08467 -0.08467,0.169333 l -0.888999,1.142999 q -0.973666,1.354666 -1.862666,2.666998 -0.888999,1.354666 -1.650998,2.836332 -0.254,0.507999 -0.465667,1.015999 -0.253999,0.550333 -0.465666,1.058332 -0.04233,0.08467 -0.04233,0.338667 0.846666,-0.465667 1.947332,-1.735666 1.100665,-1.269999 1.947331,-2.793998 0.804333,-1.396999 1.27,-2.751664 0.507999,-1.354666 0.423333,-2.031999 z m 0.169333,-12.657657 q -1.269999,0.973666 -1.989665,2.455331 -0.423333,0.846666 0.296333,1.566333 l 1.015999,1.142999 q 1.354666,1.608665 1.693332,3.809997 l 0.127,0.634999 q 0.169333,0.04233 0.211666,-0.04233 0.04233,-0.127 0.127,-0.211666 1.058333,-1.269999 2.158999,-2.455332 1.142999,-1.227666 2.3283313,-2.412998 0.2539998,-0.254 0.5079996,-0.508 0.2963331,-0.254 0.5926662,-0.507999 0.2963331,-0.254 0.5503329,-0.04233 0.2539998,0.211667 0,0.550333 -0.1269999,0.169333 -0.2963331,0.338667 -0.1269999,0.127 -0.2963331,0.296333 -1.3546658,1.354665 -2.7093308,2.751664 -1.312333,1.354666 -2.539999,2.836332 -0.08467,0.08467 -0.126999,0.126999 -0.04233,0.08467 -0.127,0.169334 -0.381,0.380999 -0.465667,1.058332 -0.127,1.354666 -0.507999,2.582332 -0.338667,1.269999 -0.931333,2.497664 -0.634999,1.354666 -1.481666,2.582332 -0.804332,1.227666 -1.904998,2.243665 -0.635,0.634999 -1.396999,1.142999 -0.296333,0.169333 -0.719666,0.254 -0.762,0.127 -0.762,-0.677333 0,-0.211667 0.08467,-0.465666 0.08467,-0.338667 0.211667,-0.635 0.08467,-0.296333 0.211666,-0.592666 0.296333,-0.719666 0.677333,-1.396999 0.338666,-0.677333 0.761999,-1.354666 1.016,-1.735665 2.158999,-3.344331 1.142999,-1.608665 2.370665,-3.174997 0.423333,-0.550333 0.423333,-1.227666 -0.08467,-1.312332 -0.423333,-2.370665 -0.381,-1.100666 -1.227666,-2.031998 -0.211667,-0.211667 -0.423333,-0.423333 -0.169333,-0.254 -0.381,-0.465667 -0.169333,-0.169333 -0.338666,-0.296333 -0.127,-0.169333 -0.254,-0.380999 -0.508,-0.677333 -0.169333,-1.566333 0.211666,-0.550333 0.507999,-0.973666 0.889,-1.354665 2.201332,-2.285998 0.338666,-0.296333 0.719666,-0.338666 0.635,-0.127 0.719666,0.550333 0,0.253999 -0.127,0.507999 -0.211666,0.423333 -0.677333,0.127 -0.08467,-0.04233 -0.126999,-0.08467 -0.04233,-0.04233 -0.127,-0.127 z"
         style="fill:#000000"
         id="path494" />
    </g>
  </g>
</svg>
